<svg xmlns="http://www.w3.org/2000/svg" width="1200" height="456" fill="none"><rect width="1200" height="456" rx="24"/><mask id="a" width="1200" height="456" x="0" y="0" maskUnits="userSpaceOnUse" style="mask-type:alpha"><rect width="1200" height="456" fill="#161616" rx="24"/></mask><g mask="url(#a)"><mask id="b" width="761" height="951" x="406" y="-248" maskUnits="userSpaceOnUse" style="mask-type:alpha"><path stroke="#151515" d="M501.5 227.5h95v95h-95zm-95 0h95v95h-95zm95 95h95v95h-95zm0 95h95v95h-95zm-95-95h95v95h-95zm0 95h95v95h-95zm95-285h95v95h-95zm-95 0h95v95h-95zm95-95h95v95h-95zm-95 0h95v95h-95zm95-95h95v95h-95zm-95 0h95v95h-95zm190 285h95v95h-95zm0 95h95v95h-95zm0 95h95v95h-95zm0-285h95v95h-95zm0-95h95v95h-95zm0-95h95v95h-95zm95 285h95v95h-95zm0 95h95v95h-95zm0 95h95v95h-95zm95 0h95v95h-95zm95 0h95v95h-95zm95 0h95v95h-95zm95 0h95v95h-95zm-190-95h95v95h-95zm95 0h95v95h-95zm95 0h95v95h-95zm-380-190h95v95h-95zm0-95h95v95h-95zm0-95h95v95h-95zm95 285h95v95h-95zm95 0h95v95h-95zm95 0h95v95h-95zm95 0h95v95h-95zm-285 95h95v95h-95zm0-190h95v95h-95zm95 0h95v95h-95zm95 0h95v95h-95zm95 0h95v95h-95zm-285-95h95v95h-95zm95 0h95v95h-95zm95 0h95v95h-95zm95 0h95v95h-95zm-285-95h95v95h-95zm95 0h95v95h-95zm95 0h95v95h-95zm95 0h95v95h-95z"/><path fill="#070707" fill-opacity=".3" d="M692 38h94v94h-94zm-95 190h94v94h-94zm190 95h94v94h-94z"/></mask><g mask="url(#b)"><ellipse cx="795.5" cy="214" fill="url(#c)" rx="399.5" ry="607"/><ellipse cx="706" cy="125.5" fill="url(#d)" rx="247" ry="227.5"/></g><mask id="e" width="761" height="951" x="786" y="-154" maskUnits="userSpaceOnUse" style="mask-type:alpha"><path stroke="#151515" d="M881.5 321.5h95v95h-95zm-95 0h95v95h-95zm95 95h95v95h-95zm-95 0h95v95h-95zm95-190h95v95h-95zm-95 0h95v95h-95zm95-95h95v95h-95zm-95 0h95v95h-95zm95-95h95v95h-95zm-95 0h95v95h-95zm95-95h95v95h-95zm-95 0h95v95h-95zm190 380h95v95h-95zm0 95h95v95h-95zm0-190h95v95h-95zm0-95h95v95h-95zm0-95h95v95h-95zm0-95h95v95h-95zm95 380h95v95h-95zm0 95h95v95h-95zm0-190h95v95h-95zm0-95h95v95h-95zm0-95h95v95h-95zm0-95h95v95h-95zm95 380h95v95h-95zm0 95h95v95h-95zm0-190h95v95h-95zm0-95h95v95h-95zm0-95h95v95h-95zm0-95h95v95h-95z"/><path fill="#070707" fill-opacity=".3" d="M1072 132h94v94h-94zm-95 190h94v94h-94z"/></mask><g mask="url(#e)"><ellipse cx="972" cy="308" fill="url(#f)" rx="350" ry="607"/><ellipse cx="1086" cy="219.5" fill="url(#g)" rx="247" ry="227.5"/></g></g><defs><radialGradient id="c" cx="0" cy="0" r="1" gradientTransform="matrix(0 607 -399.5 0 795.5 214)" gradientUnits="userSpaceOnUse"><stop stop-color="#6F6F6F" stop-opacity=".2"/><stop offset="1" stop-opacity="0"/></radialGradient><radialGradient id="d" cx="0" cy="0" r="1" gradientTransform="matrix(0 227.5 -247 0 706 125.5)" gradientUnits="userSpaceOnUse"><stop stop-color="#6F6F6F" stop-opacity=".2"/><stop offset="1" stop-opacity="0"/></radialGradient><radialGradient id="f" cx="0" cy="0" r="1" gradientTransform="matrix(0 607 -350 0 972 308)" gradientUnits="userSpaceOnUse"><stop stop-color="#6F6F6F" stop-opacity=".2"/><stop offset="1" stop-opacity="0"/></radialGradient><radialGradient id="g" cx="0" cy="0" r="1" gradientTransform="matrix(0 227.5 -247 0 1086 219.5)" gradientUnits="userSpaceOnUse"><stop stop-color="#6F6F6F" stop-opacity=".2"/><stop offset="1" stop-opacity="0"/></radialGradient></defs></svg>