<svg xmlns="http://www.w3.org/2000/svg" width="329" height="248" fill="none"><rect width="326.499" height="246.499" x="1.251" y=".751" fill="#101010" rx="23.268"/><rect width="326.499" height="246.499" x="1.251" y=".751" fill="url(#a)" rx="23.268"/><path fill="#ADADAD" d="M21.994 48v-1.023l3.84-4.204c.451-.493.823-.92 1.114-1.284a4.75 4.75 0 0 0 .648-1.034c.144-.326.216-.667.216-1.023 0-.41-.099-.763-.296-1.063a1.917 1.917 0 0 0-.795-.693 2.58 2.58 0 0 0-1.137-.244c-.447 0-.837.093-1.17.278a1.92 1.92 0 0 0-.767.767c-.178.33-.267.716-.267 1.16h-1.34c0-.682.156-1.28.47-1.796a3.276 3.276 0 0 1 1.285-1.205 3.87 3.87 0 0 1 1.835-.431c.682 0 1.286.144 1.813.431.526.288.939.676 1.238 1.165.3.489.449 1.032.449 1.63 0 .429-.078.847-.233 1.257-.151.405-.417.857-.795 1.357-.375.497-.896 1.103-1.563 1.819l-2.614 2.795v.091h5.41V48h-7.341zm9.164-2.386v-1.16l5.114-8.09h.84v1.795h-.567l-3.864 6.114v.09h6.887v1.25h-8.41zM36.636 48V36.364h1.34V48h-1.34zm6.424-5.25V48h-1.34V36.364h1.34v4.272h.114c.205-.45.511-.808.92-1.074.413-.268.963-.403 1.648-.403.595 0 1.116.12 1.563.358.447.235.793.597 1.04 1.085.25.485.374 1.103.374 1.853V48h-1.34v-5.455c0-.693-.18-1.229-.54-1.608-.356-.382-.85-.573-1.483-.573-.44 0-.834.092-1.182.278a2.036 2.036 0 0 0-.818.813c-.197.356-.296.787-.296 1.295zm19.158-3.477a1.784 1.784 0 0 0-.83-1.341c-.484-.318-1.08-.477-1.784-.477-.515 0-.965.083-1.352.25a2.16 2.16 0 0 0-.898.687 1.648 1.648 0 0 0-.318.994c0 .311.074.578.222.801.151.22.344.404.58.552.234.144.48.263.738.358.258.09.494.164.71.221l1.182.318c.303.08.64.19 1.011.33.375.14.733.331 1.074.574.345.238.63.545.853.92.223.375.335.835.335 1.38 0 .63-.165 1.198-.495 1.705-.325.508-.803.911-1.431 1.21-.625.3-1.385.45-2.279.45-.833 0-1.555-.135-2.165-.404-.606-.269-1.083-.644-1.431-1.125A3.21 3.21 0 0 1 55.354 45h1.455c.038.44.186.803.443 1.09a2.4 2.4 0 0 0 .989.637c.401.137.833.205 1.295.205.538 0 1.021-.087 1.45-.262.427-.178.766-.424 1.016-.738.25-.318.375-.69.375-1.114 0-.386-.108-.7-.324-.943-.216-.242-.5-.44-.852-.59a8.954 8.954 0 0 0-1.142-.399l-1.432-.409c-.909-.261-1.629-.634-2.159-1.119-.53-.485-.795-1.12-.795-1.903 0-.652.176-1.22.528-1.705a3.51 3.51 0 0 1 1.432-1.136c.602-.273 1.274-.41 2.017-.41.75 0 1.416.135 2 .404.583.265 1.045.629 1.386 1.09.345.463.527.988.546 1.575h-1.364zm9.158 5.159v-5.16h1.34V48h-1.34v-1.477h-.091c-.205.443-.523.82-.955 1.13-.432.307-.977.46-1.636.46-.546 0-1.03-.119-1.455-.357-.424-.243-.757-.606-1-1.091-.242-.489-.363-1.104-.363-1.847v-5.545h1.34v5.454c0 .637.179 1.144.535 1.523.36.379.818.568 1.375.568a2.29 2.29 0 0 0 1.017-.255c.348-.171.64-.432.875-.785.238-.352.358-.8.358-1.346zm3.797 6.84v-12h1.295v1.387h.16c.098-.151.234-.345.408-.58.178-.238.432-.45.762-.636.333-.19.784-.284 1.352-.284.735 0 1.382.184 1.943.551.56.368.998.889 1.313 1.563.314.674.471 1.47.471 2.386 0 .924-.157 1.726-.471 2.404-.315.674-.75 1.197-1.307 1.568-.557.367-1.2.55-1.926.55-.561 0-1.01-.092-1.347-.278-.337-.189-.597-.403-.778-.642a8.63 8.63 0 0 1-.42-.602h-.115v4.614h-1.34zm1.318-7.636c0 .66.096 1.24.29 1.745.193.5.475.892.846 1.176.371.28.826.42 1.364.42.56 0 1.028-.147 1.403-.443.379-.3.663-.7.852-1.204.194-.508.29-1.072.29-1.694 0-.613-.094-1.166-.284-1.659-.185-.496-.468-.888-.846-1.176-.376-.291-.847-.437-1.415-.437-.546 0-1.004.138-1.375.414-.371.273-.652.656-.841 1.148-.19.489-.284 1.059-.284 1.71zm8.432 7.637v-12h1.295v1.386h.16c.098-.151.234-.345.408-.58.178-.238.432-.45.762-.636.333-.19.784-.284 1.352-.284.735 0 1.382.184 1.943.551.56.368.998.889 1.313 1.563.314.674.471 1.47.471 2.386 0 .924-.157 1.726-.471 2.404-.315.674-.75 1.197-1.307 1.568-.557.367-1.2.55-1.926.55-.561 0-1.01-.092-1.347-.278-.337-.189-.597-.403-.778-.642a8.63 8.63 0 0 1-.42-.602h-.115v4.614h-1.34zm1.318-7.637c0 .66.096 1.24.29 1.745.193.5.475.892.846 1.176.371.28.826.42 1.364.42.56 0 1.028-.147 1.403-.443.379-.3.663-.7.852-1.204.194-.508.29-1.072.29-1.694 0-.613-.094-1.166-.284-1.659-.185-.496-.468-.888-.846-1.176-.376-.291-.847-.437-1.415-.437-.546 0-1.004.138-1.375.414-.371.273-.652.656-.841 1.148-.19.489-.284 1.059-.284 1.71zm11.977 4.546c-.788 0-1.48-.188-2.074-.563-.59-.375-1.053-.9-1.386-1.574-.33-.674-.495-1.462-.495-2.363 0-.91.165-1.703.495-2.38.333-.679.795-1.205 1.386-1.58.595-.375 1.286-.563 2.074-.563.788 0 1.477.188 2.068.563.595.375 1.057.901 1.387 1.58.333.677.5 1.47.5 2.38 0 .901-.167 1.69-.5 2.363-.33.675-.792 1.2-1.387 1.574-.59.375-1.28.563-2.068.563zm0-1.205c.599 0 1.09-.153 1.477-.46.387-.307.673-.71.858-1.21.186-.5.279-1.042.279-1.625 0-.584-.093-1.127-.279-1.63a2.741 2.741 0 0 0-.858-1.222c-.386-.311-.878-.466-1.477-.466-.598 0-1.09.155-1.477.466-.387.31-.673.717-.858 1.221a4.681 4.681 0 0 0-.279 1.63c0 .584.093 1.126.279 1.626.185.5.471.903.858 1.21.386.307.879.46 1.477.46zM104.219 48v-8.727h1.296v1.318h.091c.159-.432.447-.782.863-1.051a2.545 2.545 0 0 1 1.41-.404c.098 0 .221.002.369.006s.259.01.335.017v1.364a4.014 4.014 0 0 0-.312-.051 3.08 3.08 0 0 0-.506-.04c-.424 0-.803.089-1.136.267-.33.174-.591.416-.785.727a1.964 1.964 0 0 0-.284 1.051V48h-1.341zm10.296-8.727v1.136h-4.523v-1.136h4.523zm-3.205-2.091h1.341V45.5c0 .379.055.663.165.852.114.186.258.31.432.375.178.06.365.091.562.091.148 0 .269-.007.364-.023l.227-.045.273 1.205a2.733 2.733 0 0 1-.381.102 2.8 2.8 0 0 1-.619.057 2.7 2.7 0 0 1-1.114-.245 2.212 2.212 0 0 1-.897-.744c-.235-.333-.353-.754-.353-1.261v-8.682z"/><rect width="31.625" height="31.625" x="275.688" y="26.188" fill="url(#b)" rx="5.817"/><path fill="#878786" fill-opacity=".5" d="M292.438 42a.937.937 0 1 1-1.875 0 .937.937 0 0 1 1.875 0zm-4.376-.938a.935.935 0 0 0-.919 1.12.937.937 0 1 0 .919-1.12zm6.876 0a.936.936 0 1 0-.001 1.873.936.936 0 0 0 .001-1.873zm4.687.938a8.126 8.126 0 0 1-11.944 7.173l-2.66.887a1.248 1.248 0 0 1-1.612-.899 1.248 1.248 0 0 1 .031-.683l.887-2.66a8.115 8.115 0 0 1-.25-7.118 8.13 8.13 0 0 1 5.455-4.58A8.126 8.126 0 0 1 299.625 42zm-1.25 0a6.867 6.867 0 0 0-2.692-5.454 6.87 6.87 0 0 0-8.718.288 6.87 6.87 0 0 0-1.417 8.608.63.63 0 0 1 .051.51l-.974 2.923 2.922-.975a.613.613 0 0 1 .51.052A6.875 6.875 0 0 0 298.375 42z"/><rect width="31.625" height="31.625" x="275.688" y="26.188" stroke="url(#c)" stroke-width=".375" rx="5.817"/><path fill="#ADADAD" fill-opacity=".5" d="M156.901 88.567h-2.358v-7.642h2.462c.742 0 1.376.153 1.904.46.527.303.931.74 1.212 1.309.281.567.422 1.246.422 2.037 0 .796-.142 1.482-.425 2.056a3.035 3.035 0 0 1-1.239 1.321c-.543.306-1.202.46-1.978.46zm-1.433-.82h1.373c.632 0 1.156-.123 1.571-.366a2.25 2.25 0 0 0 .929-1.041c.204-.45.306-.987.306-1.609 0-.617-.1-1.148-.302-1.593a2.224 2.224 0 0 0-.903-1.03c-.4-.241-.899-.362-1.496-.362h-1.478v6zm8.911.94c-.552 0-1.029-.122-1.429-.366a2.46 2.46 0 0 1-.922-1.03c-.214-.443-.321-.958-.321-1.545s.107-1.104.321-1.552a2.54 2.54 0 0 1 .903-1.052c.388-.254.841-.38 1.358-.38.299 0 .594.049.885.148.291.1.556.262.795.486.238.22.429.514.571.88.141.366.212.816.212 1.35V86h-4.418v-.761h3.523c0-.324-.065-.612-.194-.866a1.465 1.465 0 0 0-.545-.6 1.527 1.527 0 0 0-.829-.22c-.35 0-.654.086-.91.26a1.718 1.718 0 0 0-.586.672 1.97 1.97 0 0 0-.205.888v.508c0 .433.074.8.224 1.1.151.299.362.527.63.683.269.155.581.232.937.232.231 0 .44-.033.627-.097.189-.068.352-.167.489-.299.136-.134.242-.3.317-.5l.851.239a1.89 1.89 0 0 1-.452.761 2.203 2.203 0 0 1-.783.508 2.91 2.91 0 0 1-1.049.179zm5.399.015c-.363 0-.692-.069-.988-.206a1.698 1.698 0 0 1-.706-.6c-.174-.264-.261-.582-.261-.956 0-.328.065-.594.194-.798a1.37 1.37 0 0 1 .519-.485 2.72 2.72 0 0 1 .716-.261c.264-.06.529-.107.795-.142a36 36 0 0 1 .847-.101c.219-.025.378-.066.478-.123.102-.057.153-.157.153-.299v-.03c0-.368-.101-.654-.302-.858-.199-.204-.502-.306-.907-.306-.421 0-.75.092-.989.276-.239.184-.407.381-.504.59l-.836-.299c.15-.348.349-.619.597-.813.252-.197.525-.333.821-.41.299-.08.592-.12.881-.12.184 0 .396.023.634.067.242.043.474.13.698.265.227.135.414.337.564.608.149.272.223.635.223 1.09v3.776h-.88v-.776h-.045a1.56 1.56 0 0 1-.298.4c-.14.141-.325.262-.556.361-.232.1-.514.15-.848.15zm.135-.791c.348 0 .642-.069.88-.206a1.394 1.394 0 0 0 .732-1.212v-.806c-.037.044-.12.085-.246.123a4.22 4.22 0 0 1-.433.093 20.476 20.476 0 0 1-.844.112 3.38 3.38 0 0 0-.641.145 1.106 1.106 0 0 0-.478.295c-.12.13-.179.306-.179.53 0 .306.113.538.339.694.229.154.519.232.87.232zm4.1.656v-5.731h.851v.865h.059c.105-.283.294-.513.568-.69.273-.176.582-.265.925-.265a9.617 9.617 0 0 1 .463.015v.896a2.634 2.634 0 0 0-.206-.034 2.015 2.015 0 0 0-.332-.026 1.56 1.56 0 0 0-.746.175 1.327 1.327 0 0 0-.515.478 1.29 1.29 0 0 0-.187.69v3.627h-.88zm13.134-5.254h-.926c-.054-.266-.15-.5-.287-.701a1.906 1.906 0 0 0-.492-.508 2.104 2.104 0 0 0-.638-.313 2.554 2.554 0 0 0-.732-.105c-.463 0-.882.117-1.257.351-.374.234-.671.579-.892 1.034-.219.455-.329 1.014-.329 1.675 0 .662.11 1.22.329 1.676.221.455.518.8.892 1.033.375.234.794.351 1.257.351.254 0 .498-.035.732-.104a2.16 2.16 0 0 0 .638-.31 1.96 1.96 0 0 0 .779-1.213h.926c-.07.39-.197.74-.381 1.049-.184.308-.413.57-.686.787a3.008 3.008 0 0 1-.922.489c-.338.112-.7.168-1.086.168-.652 0-1.231-.16-1.739-.478-.507-.318-.907-.771-1.198-1.358-.291-.587-.436-1.284-.436-2.09 0-.806.145-1.502.436-2.09.291-.587.691-1.04 1.198-1.358.508-.318 1.087-.477 1.739-.477.386 0 .748.056 1.086.168.341.112.648.276.922.492.273.214.502.475.686.784.184.306.311.655.381 1.048zm2.257-2.388v7.642h-.881v-7.642h.881zm1.613 7.642v-5.731h.88v5.731h-.88zm.447-6.686a.628.628 0 0 1-.444-.176.563.563 0 0 1-.183-.422c0-.164.061-.304.183-.421a.628.628 0 0 1 .444-.176c.172 0 .319.059.441.176a.559.559 0 0 1 .186.421.559.559 0 0 1-.186.422.615.615 0 0 1-.441.175zm4.449 6.806c-.552 0-1.028-.122-1.429-.366a2.46 2.46 0 0 1-.922-1.03c-.214-.443-.321-.958-.321-1.545s.107-1.104.321-1.552a2.54 2.54 0 0 1 .903-1.052c.388-.254.841-.38 1.359-.38.298 0 .593.049.884.148.291.1.556.262.795.486.239.22.429.514.571.88.142.366.212.816.212 1.35V86h-4.418v-.761h3.523c0-.324-.065-.612-.194-.866a1.465 1.465 0 0 0-1.373-.82c-.351 0-.655.086-.911.26a1.718 1.718 0 0 0-.586.672 1.984 1.984 0 0 0-.205.888v.508c0 .433.075.8.224 1.1.152.299.362.527.631.683.268.155.58.232.936.232a1.9 1.9 0 0 0 .627-.097c.189-.068.352-.167.489-.299.137-.134.243-.3.317-.5l.851.239a1.89 1.89 0 0 1-.452.761 2.194 2.194 0 0 1-.783.508 2.91 2.91 0 0 1-1.049.179zm4.594-3.568v3.448h-.881v-5.731h.851v.895h.075c.134-.29.338-.525.612-.701.273-.18.626-.269 1.059-.269.388 0 .728.08 1.019.239.291.157.517.395.679.716.162.319.243.722.243 1.21v3.641h-.881v-3.582c0-.45-.117-.8-.351-1.052-.234-.254-.555-.38-.962-.38-.282 0-.533.06-.754.182a1.31 1.31 0 0 0-.519.534c-.127.233-.19.517-.19.85zm7.759-2.283v.746h-2.971v-.746h2.971zm-2.105-1.373h.881v5.463c0 .248.036.435.108.56a.559.559 0 0 0 .283.245c.117.04.24.06.37.06.097 0 .176-.005.239-.015l.149-.03.179.791a1.843 1.843 0 0 1-.657.105 1.79 1.79 0 0 1-.731-.16 1.458 1.458 0 0 1-.59-.49c-.154-.218-.231-.494-.231-.828v-5.701z"/><path fill="#6F8EFF" d="M153.617 112.284c0-6.755 0-10.132 1.72-12.5a9.011 9.011 0 0 1 1.993-1.993c2.368-1.72 5.745-1.72 12.5-1.72h118.591c6.755 0 10.132 0 12.499 1.72a8.99 8.99 0 0 1 1.993 1.993c1.72 2.368 1.72 5.745 1.72 12.5v18.794H169.83c-6.755 0-10.132 0-12.5-1.72a9.014 9.014 0 0 1-1.993-1.993c-1.72-2.367-1.72-5.745-1.72-12.499v-2.582z"/><path fill="#000" d="M165.315 117.575v-9.825h1.19v4.375h5.239v-4.375h1.19v9.825h-1.19v-4.394h-5.239v4.394h-1.19zm9.847 0v-7.369h1.132v7.369h-1.132zm.576-8.597a.802.802 0 0 1-.571-.226.723.723 0 0 1-.235-.542c0-.211.078-.392.235-.542.16-.15.35-.226.571-.226a.79.79 0 0 1 .566.226c.16.15.24.331.24.542 0 .211-.08.392-.24.542a.786.786 0 0 1-.566.226zm4.319 7.254-.077.518a10.35 10.35 0 0 1-.249 1.171c-.109.415-.223.807-.341 1.175-.118.368-.216.661-.293.878h-.863l.163-.811c.067-.336.134-.711.201-1.127.071-.413.128-.835.173-1.267l.058-.537h1.228zm7.241-8.482v9.825h-1.19v-9.825h1.19zm7.164 5.392v4.433h-1.132v-9.825h1.132v3.607h.096a2.09 2.09 0 0 1 .777-.906c.349-.227.813-.341 1.392-.341.502 0 .941.101 1.319.302.377.199.67.504.878.917.211.409.317.93.317 1.564v4.682h-1.133v-4.606c0-.585-.152-1.037-.456-1.357-.3-.323-.718-.485-1.252-.485-.371 0-.703.078-.998.235a1.727 1.727 0 0 0-.691.686c-.166.301-.249.666-.249 1.094zm9.018 4.606c-.467 0-.89-.088-1.271-.264a2.185 2.185 0 0 1-.907-.772c-.224-.339-.336-.749-.336-1.229 0-.422.084-.764.25-1.026.166-.266.389-.474.667-.624.278-.15.585-.262.921-.336.339-.077.68-.137 1.022-.182.448-.058.811-.101 1.089-.13.281-.032.486-.084.614-.158.131-.074.197-.202.197-.384v-.038c0-.474-.13-.841-.389-1.104-.256-.262-.644-.393-1.166-.393-.54 0-.964.118-1.271.355-.307.237-.523.489-.648.758l-1.074-.384c.191-.448.447-.796.767-1.046a2.882 2.882 0 0 1 1.056-.527 4.355 4.355 0 0 1 1.132-.154c.237 0 .508.029.816.086.31.055.609.168.897.341.291.173.532.433.724.782.192.349.288.816.288 1.401v4.855h-1.132v-.998h-.058c-.077.16-.204.331-.384.514a2.22 2.22 0 0 1-.714.465c-.298.128-.661.192-1.09.192zm.173-1.017c.448 0 .825-.088 1.132-.264a1.797 1.797 0 0 0 .941-1.559v-1.037c-.048.058-.154.111-.317.159-.16.044-.345.084-.556.12a26.999 26.999 0 0 1-1.085.144c-.294.038-.569.1-.825.187a1.416 1.416 0 0 0-.614.379c-.154.166-.23.393-.23.681 0 .393.145.691.436.892.295.199.667.298 1.118.298zm11.034-6.525-2.725 7.369h-1.152l-2.725-7.369h1.228l2.034 5.872h.077l2.034-5.872h1.229zm4.32 7.523c-.71 0-1.323-.157-1.838-.47a3.165 3.165 0 0 1-1.185-1.325c-.275-.569-.412-1.231-.412-1.986 0-.755.137-1.42.412-1.996.279-.579.666-1.03 1.161-1.353.499-.326 1.082-.489 1.747-.489.384 0 .763.064 1.137.192s.715.336 1.022.624c.307.284.552.662.734 1.132.182.47.273 1.049.273 1.737v.479h-5.68v-.978h4.529c0-.416-.083-.787-.25-1.113a1.876 1.876 0 0 0-.7-.773c-.301-.189-.656-.283-1.065-.283-.451 0-.841.112-1.171.336a2.208 2.208 0 0 0-.753.864 2.533 2.533 0 0 0-.264 1.141v.653c0 .556.096 1.028.288 1.415.195.384.465.677.811.878.345.198.747.298 1.204.298.297 0 .566-.042.806-.125.243-.086.453-.214.628-.384.176-.173.312-.387.408-.643l1.094.307a2.426 2.426 0 0 1-.58.979 2.824 2.824 0 0 1-1.008.652c-.4.154-.849.231-1.348.231zm10.742.019a2.99 2.99 0 0 1-1.271-.264 2.185 2.185 0 0 1-.907-.772c-.224-.339-.336-.749-.336-1.229 0-.422.083-.764.25-1.026.166-.266.388-.474.666-.624.279-.15.586-.262.922-.336a11.2 11.2 0 0 1 1.021-.182c.448-.058.811-.101 1.09-.13.281-.032.486-.084.614-.158.131-.074.196-.202.196-.384v-.038c0-.474-.129-.841-.388-1.104-.256-.262-.645-.393-1.166-.393-.541 0-.964.118-1.272.355-.307.237-.522.489-.647.758l-1.075-.384c.192-.448.448-.796.768-1.046a2.886 2.886 0 0 1 1.055-.527 4.356 4.356 0 0 1 1.133-.154c.236 0 .508.029.815.086.31.055.609.168.897.341.291.173.533.433.725.782.192.349.288.816.288 1.401v4.855h-1.133v-.998h-.057c-.077.16-.205.331-.384.514a2.214 2.214 0 0 1-.715.465c-.297.128-.66.192-1.089.192zm.173-1.017c.448 0 .825-.088 1.132-.264a1.794 1.794 0 0 0 .94-1.559v-1.037c-.048.058-.153.111-.316.159a5.81 5.81 0 0 1-.557.12 27.753 27.753 0 0 1-1.084.144c-.294.038-.569.1-.825.187a1.41 1.41 0 0 0-.614.379c-.154.166-.231.393-.231.681 0 .393.146.691.437.892.294.199.667.298 1.118.298zm9.071 3.608v-10.133h1.094v1.171h.134c.083-.128.198-.291.346-.49.15-.201.364-.38.642-.537.282-.16.663-.24 1.142-.24.621 0 1.168.155 1.641.465.474.311.843.75 1.108 1.32.266.569.399 1.241.399 2.015 0 .78-.133 1.457-.399 2.029-.265.57-.633 1.011-1.103 1.324-.47.311-1.012.466-1.626.466-.474 0-.853-.079-1.138-.235a2.115 2.115 0 0 1-.657-.543 7.309 7.309 0 0 1-.355-.508h-.096v3.896h-1.132zm1.113-6.448c0 .556.082 1.047.245 1.472.163.423.401.754.715.994.313.236.697.355 1.151.355.473 0 .868-.125 1.185-.375.32-.252.56-.591.72-1.017a3.99 3.99 0 0 0 .244-1.429c0-.519-.08-.986-.24-1.401a2.163 2.163 0 0 0-.714-.993c-.317-.247-.715-.37-1.195-.37-.461 0-.848.117-1.161.35-.313.231-.55.554-.71.969-.16.413-.24.894-.24 1.445zm7.12 3.684v-7.369h1.094v1.113h.076c.135-.365.378-.66.73-.888.352-.227.748-.34 1.19-.34a9.56 9.56 0 0 1 .594.019v1.151a3.576 3.576 0 0 0-.263-.043 2.65 2.65 0 0 0-.427-.033c-.359 0-.679.075-.96.225a1.703 1.703 0 0 0-.662.614c-.16.259-.24.555-.24.888v4.663h-1.132zm7.796.154c-.665 0-1.249-.159-1.751-.475a3.235 3.235 0 0 1-1.171-1.329c-.278-.57-.417-1.235-.417-1.996 0-.768.139-1.438.417-2.01a3.225 3.225 0 0 1 1.171-1.334c.502-.317 1.086-.475 1.751-.475.665 0 1.247.158 1.746.475a3.17 3.17 0 0 1 1.171 1.334c.282.572.422 1.242.422 2.01 0 .761-.14 1.426-.422 1.996a3.18 3.18 0 0 1-1.171 1.329c-.499.316-1.081.475-1.746.475zm0-1.017c.505 0 .921-.13 1.247-.389.327-.259.568-.6.725-1.022.157-.422.235-.879.235-1.372 0-.493-.078-.952-.235-1.377a2.317 2.317 0 0 0-.725-1.031c-.326-.263-.742-.394-1.247-.394-.505 0-.921.131-1.247.394a2.317 2.317 0 0 0-.725 1.031 3.943 3.943 0 0 0-.235 1.377c0 .493.078.95.235 1.372.157.422.398.763.725 1.022.326.259.742.389 1.247.389zm5.221.863v-9.825h1.132v3.627h.096c.084-.128.199-.291.346-.49.15-.201.364-.38.643-.537.281-.16.662-.24 1.142-.24.62 0 1.167.155 1.64.465.474.311.843.75 1.109 1.32.265.569.398 1.241.398 2.015 0 .78-.133 1.457-.398 2.029-.266.57-.634 1.011-1.104 1.324-.47.311-1.012.466-1.626.466-.474 0-.853-.079-1.137-.235a2.108 2.108 0 0 1-.658-.543 7.674 7.674 0 0 1-.355-.508h-.134v1.132h-1.094zm1.113-3.684c0 .556.082 1.047.245 1.472.163.423.401.754.715.994.313.236.697.355 1.151.355.474 0 .869-.125 1.185-.375.32-.252.56-.591.72-1.017a3.99 3.99 0 0 0 .245-1.429c0-.519-.08-.986-.24-1.401a2.165 2.165 0 0 0-.715-.993c-.317-.247-.715-.37-1.195-.37-.46 0-.847.117-1.161.35-.313.231-.55.554-.71.969-.16.413-.24.894-.24 1.445zm8.257-6.141v9.825h-1.132v-9.825h1.132zm5.164 9.979c-.711 0-1.323-.157-1.838-.47a3.152 3.152 0 0 1-1.185-1.325c-.275-.569-.413-1.231-.413-1.986 0-.755.138-1.42.413-1.996a3.25 3.25 0 0 1 1.161-1.353c.499-.326 1.081-.489 1.746-.489.384 0 .763.064 1.137.192a2.81 2.81 0 0 1 1.022.624c.307.284.552.662.734 1.132.183.47.274 1.049.274 1.737v.479h-5.681v-.978h4.529c0-.416-.083-.787-.249-1.113a1.878 1.878 0 0 0-.701-.773c-.3-.189-.655-.283-1.065-.283-.451 0-.841.112-1.17.336a2.2 2.2 0 0 0-.753.864 2.533 2.533 0 0 0-.264 1.141v.653c0 .556.096 1.028.288 1.415.195.384.465.677.81.878.346.198.747.298 1.205.298.297 0 .566-.042.806-.125.243-.086.452-.214.628-.384.176-.173.312-.387.408-.643l1.094.307a2.428 2.428 0 0 1-.581.979 2.82 2.82 0 0 1-1.007.652c-.4.154-.849.231-1.348.231zm4.773-.154v-7.369h1.094v1.151h.096c.154-.393.401-.698.744-.916.342-.221.753-.331 1.233-.331.486 0 .89.11 1.214.331.326.218.58.523.762.916h.077c.189-.38.472-.682.849-.906.378-.227.83-.341 1.358-.341.659 0 1.198.206 1.617.619.419.409.628 1.047.628 1.914v4.932h-1.132v-4.932c0-.544-.149-.932-.446-1.166a1.656 1.656 0 0 0-1.051-.35c-.518 0-.919.157-1.204.47-.285.311-.427.704-.427 1.181v4.797h-1.151v-5.047c0-.419-.136-.756-.408-1.012-.272-.259-.622-.389-1.051-.389a1.55 1.55 0 0 0-.825.235 1.773 1.773 0 0 0-.614.653 1.92 1.92 0 0 0-.23.954v4.606h-1.133zm13.239-9.825-.095 7.062h-1.114l-.095-7.062h1.304zm-.652 9.902a.83.83 0 0 1-.609-.254.832.832 0 0 1-.255-.61c0-.236.085-.439.255-.609a.83.83 0 0 1 .609-.254.83.83 0 0 1 .609.254c.17.17.255.373.255.609 0 .157-.04.301-.12.432a.902.902 0 0 1-.312.317.821.821 0 0 1-.432.115z"/><path fill="#ADADAD" fill-opacity=".5" d="M277.917 145.686c-.563 0-1.042-.153-1.437-.459-.396-.309-.698-.755-.907-1.34-.209-.587-.313-1.296-.313-2.127 0-.826.104-1.531.313-2.116.212-.587.515-1.035.911-1.343.398-.311.875-.467 1.433-.467.557 0 1.033.156 1.429.467.398.308.701.756.91 1.343.212.585.317 1.29.317 2.116 0 .831-.104 1.54-.313 2.127-.209.585-.511 1.031-.907 1.34-.395.306-.874.459-1.436.459zm0-.821c.557 0 .99-.269 1.298-.806.309-.538.463-1.304.463-2.299 0-.662-.071-1.225-.213-1.69-.139-.466-.341-.82-.604-1.064a1.335 1.335 0 0 0-.944-.366c-.553 0-.984.273-1.295.818-.311.542-.467 1.309-.467 2.302 0 .662.07 1.224.209 1.687.14.462.34.814.601 1.056.264.241.581.362.952.362zm6.657.821c-.493 0-.932-.085-1.318-.254a2.259 2.259 0 0 1-.914-.705 1.899 1.899 0 0 1-.366-1.056h.941c.02.246.104.458.254.638.149.176.344.313.585.41.242.097.509.146.803.146.328 0 .619-.058.873-.172.254-.114.453-.274.597-.478.144-.204.216-.44.216-.709 0-.281-.069-.528-.209-.742a1.378 1.378 0 0 0-.612-.508c-.268-.122-.597-.183-.985-.183h-.612v-.821h.612c.304 0 .57-.054.799-.164a1.24 1.24 0 0 0 .739-1.164c0-.259-.058-.484-.172-.675a1.169 1.169 0 0 0-.485-.448 1.57 1.57 0 0 0-.731-.161c-.264 0-.513.049-.747.146-.231.094-.42.233-.567.414a1.081 1.081 0 0 0-.239.649h-.895c.015-.4.135-.751.362-1.052.226-.303.522-.54.888-.709a2.87 2.87 0 0 1 1.212-.254c.473 0 .879.096 1.217.288.338.189.598.439.78.75.181.311.272.647.272 1.007 0 .431-.113.798-.339 1.101a1.72 1.72 0 0 1-.915.631v.059c.483.08.86.285 1.131.616.271.328.407.735.407 1.22 0 .416-.113.789-.34 1.12a2.31 2.31 0 0 1-.918.776 2.984 2.984 0 0 1-1.324.284zm4.765-1.083a.65.65 0 0 1-.474-.197.647.647 0 0 1-.198-.474c0-.184.066-.342.198-.474a.647.647 0 0 1 .474-.198c.184 0 .342.066.474.198.132.132.197.29.197.474a.695.695 0 0 1-.335.582.64.64 0 0 1-.336.089zm0-3.865a.647.647 0 0 1-.474-.198.647.647 0 0 1-.198-.474c0-.184.066-.342.198-.474a.647.647 0 0 1 .474-.198c.184 0 .342.066.474.198.132.132.197.29.197.474a.695.695 0 0 1-.335.582.64.64 0 0 1-.336.09zm2.237 4.843v-.672l2.522-2.761c.296-.323.54-.604.732-.843.191-.242.333-.468.425-.679.095-.214.142-.438.142-.672 0-.269-.065-.501-.194-.698a1.261 1.261 0 0 0-.523-.455 1.691 1.691 0 0 0-.746-.161c-.293 0-.55.061-.769.183-.216.12-.384.288-.503.504-.117.216-.176.47-.176.761h-.88c0-.448.103-.841.309-1.179.207-.338.488-.602.844-.791.358-.189.76-.284 1.205-.284.448 0 .845.095 1.19.284.346.189.617.444.814.765.196.321.295.678.295 1.071 0 .281-.051.556-.153.825-.1.266-.274.563-.523.891-.246.326-.588.724-1.026 1.194l-1.716 1.836v.06h3.552v.821h-4.821zm6.019-1.567v-.761l3.358-5.314h.552v1.179h-.373l-2.537 4.015v.06h4.523v.821h-5.523zm3.597 1.567v-7.642h.881v7.642h-.881zM27.605 163.893a1.17 1.17 0 0 0-.545-.88c-.319-.209-.71-.314-1.172-.314-.338 0-.634.055-.888.164a1.42 1.42 0 0 0-.59.452 1.084 1.084 0 0 0-.208.653c0 .204.048.379.145.526.1.144.226.265.38.362.155.095.317.173.486.235.169.06.325.108.466.146l.776.209c.2.052.42.124.665.216.246.092.481.218.705.377.226.157.413.358.56.605.146.246.22.548.22.906 0 .413-.108.786-.325 1.12-.214.333-.527.598-.94.795-.41.196-.91.294-1.497.294-.547 0-1.02-.088-1.421-.265a2.266 2.266 0 0 1-.94-.738 2.109 2.109 0 0 1-.385-1.101h.955c.025.288.122.527.291.716.172.187.389.326.65.418.263.09.547.134.85.134.354 0 .67-.057.952-.171.281-.117.504-.279.668-.485a1.15 1.15 0 0 0 .246-.732c0-.253-.07-.46-.212-.619a1.557 1.557 0 0 0-.56-.388 5.718 5.718 0 0 0-.75-.261l-.94-.269c-.598-.172-1.07-.417-1.419-.735-.348-.319-.522-.735-.522-1.25 0-.428.116-.801.347-1.12.234-.321.547-.569.94-.746a3.177 3.177 0 0 1 1.325-.269c.493 0 .93.089 1.314.265.383.174.686.413.91.717.227.303.346.648.358 1.033h-.895zm6.014 3.389v-3.389h.88v5.732h-.88v-.97h-.06a1.879 1.879 0 0 1-.627.742c-.283.202-.641.303-1.074.303-.358 0-.677-.079-.956-.235a1.649 1.649 0 0 1-.656-.717c-.16-.321-.24-.725-.24-1.213v-3.642h.882v3.583c0 .418.116.751.35 1 .237.248.538.373.903.373.22 0 .442-.056.668-.168a1.46 1.46 0 0 0 .575-.515c.157-.231.235-.526.235-.884zm2.494 4.492v-7.881h.85v.911h.105c.065-.1.154-.227.269-.381.116-.156.283-.296.5-.418.218-.124.515-.186.888-.186.482 0 .908.12 1.276.362.368.241.655.583.862 1.026.206.443.31.965.31 1.567 0 .607-.104 1.133-.31 1.579a2.442 2.442 0 0 1-.858 1.029 2.238 2.238 0 0 1-1.265.362c-.369 0-.663-.061-.885-.182a1.644 1.644 0 0 1-.51-.422 5.455 5.455 0 0 1-.277-.396h-.075v3.03h-.88zm.865-5.015c0 .433.064.815.19 1.146.127.328.313.586.557.772.243.184.542.276.895.276.368 0 .676-.097.922-.291a1.78 1.78 0 0 0 .56-.791 3.1 3.1 0 0 0 .19-1.112 3.01 3.01 0 0 0-.187-1.089 1.684 1.684 0 0 0-.556-.773c-.246-.191-.556-.287-.929-.287-.358 0-.659.091-.903.272a1.637 1.637 0 0 0-.552.754 3.099 3.099 0 0 0-.187 1.123zm5.538 5.015v-7.881h.85v.911h.105c.065-.1.155-.227.269-.381a1.58 1.58 0 0 1 .5-.418c.219-.124.515-.186.888-.186.483 0 .908.12 1.276.362.368.241.656.583.862 1.026.207.443.31.965.31 1.567 0 .607-.103 1.133-.31 1.579a2.442 2.442 0 0 1-.858 1.029 2.239 2.239 0 0 1-1.265.362c-.368 0-.663-.061-.884-.182a1.644 1.644 0 0 1-.512-.422 5.487 5.487 0 0 1-.276-.396h-.074v3.03h-.881zm.866-5.015c0 .433.063.815.19 1.146.127.328.312.586.556.772.244.184.542.276.896.276.368 0 .675-.097.921-.291.249-.196.436-.46.56-.791a3.1 3.1 0 0 0 .19-1.112 3.01 3.01 0 0 0-.186-1.089 1.684 1.684 0 0 0-.556-.773c-.247-.191-.556-.287-.93-.287-.358 0-.659.091-.903.272a1.636 1.636 0 0 0-.552.754 3.097 3.097 0 0 0-.186 1.123zm7.866 2.985c-.518 0-.972-.123-1.362-.369a2.508 2.508 0 0 1-.91-1.034c-.217-.442-.325-.96-.325-1.552 0-.597.108-1.118.324-1.563a2.5 2.5 0 0 1 .91-1.038c.391-.246.845-.369 1.363-.369.517 0 .97.123 1.358.369.39.246.694.592.91 1.038.22.445.329.966.329 1.563 0 .592-.11 1.11-.328 1.552-.217.443-.52.788-.911 1.034-.388.246-.84.369-1.358.369zm0-.791c.393 0 .716-.1.97-.302.254-.201.441-.466.563-.795a3.04 3.04 0 0 0 .183-1.067c0-.383-.06-.74-.183-1.071a1.804 1.804 0 0 0-.563-.802c-.254-.204-.577-.306-.97-.306s-.717.102-.97.306a1.803 1.803 0 0 0-.564.802 3.075 3.075 0 0 0-.183 1.071c0 .383.061.739.183 1.067.122.329.31.594.564.795.253.202.577.302.97.302zm3.941.672v-5.732h.851v.866h.06c.104-.284.293-.514.567-.69.273-.177.582-.265.925-.265a7.88 7.88 0 0 1 .463.015v.895a3.046 3.046 0 0 0-.205-.033 1.958 1.958 0 0 0-.332-.026 1.56 1.56 0 0 0-.747.175 1.284 1.284 0 0 0-.702 1.168v3.627h-.88zm6.762-5.732v.747h-2.97v-.747h2.97zm-2.105-1.373h.88v5.463c0 .249.037.435.109.56.075.122.17.204.284.246.117.04.24.06.369.06.097 0 .177-.005.239-.015l.15-.03.178.791c-.06.023-.143.045-.25.067a1.828 1.828 0 0 1-.407.038c-.248 0-.492-.054-.73-.161a1.453 1.453 0 0 1-.59-.489c-.155-.219-.232-.495-.232-.828v-5.702z"/><path fill="url(#d)" d="M22.125 212.136v.375h170.202c3.358 0 5.907 0 7.912-.217 2.017-.219 3.526-.66 4.785-1.575a9.368 9.368 0 0 0 2.075-2.075c.915-1.259 1.357-2.769 1.575-4.785.217-2.005.217-4.554.217-7.912v-2.63c0-3.357 0-5.906-.217-7.911-.218-2.017-.66-3.526-1.575-4.785a9.394 9.394 0 0 0-2.075-2.076c-1.259-.914-2.768-1.356-4.785-1.574-2.005-.217-4.554-.217-7.912-.217H38.689c-3.358 0-5.907 0-7.912.217-2.017.218-3.526.66-4.785 1.574a9.402 9.402 0 0 0-2.076 2.076c-.914 1.259-1.356 2.768-1.574 4.785-.217 2.005-.217 4.554-.217 7.911v18.819z"/><path fill="#ADADAD" d="M34.198 198.633v-9.826h1.19v4.376h5.239v-4.376h1.19v9.826h-1.19v-4.395h-5.24v4.395h-1.19zm12.937.153c-.71 0-1.323-.156-1.838-.47a3.152 3.152 0 0 1-1.185-1.324c-.275-.569-.413-1.231-.413-1.986 0-.755.138-1.42.413-1.996a3.253 3.253 0 0 1 1.161-1.353c.5-.326 1.081-.489 1.746-.489a3.5 3.5 0 0 1 1.138.192 2.8 2.8 0 0 1 1.021.623c.308.285.552.662.735 1.132.182.471.273 1.05.273 1.737v.48h-5.68v-.979h4.529c0-.416-.084-.787-.25-1.113a1.876 1.876 0 0 0-.7-.772c-.301-.189-.656-.283-1.066-.283-.45 0-.84.112-1.17.336-.326.22-.577.508-.753.863a2.538 2.538 0 0 0-.264 1.142v.652c0 .557.096 1.029.288 1.416.195.384.465.676.81.878.346.198.747.297 1.205.297.297 0 .566-.041.806-.125.243-.086.452-.214.628-.383.176-.173.312-.387.408-.643l1.094.307a2.43 2.43 0 0 1-.58.979 2.836 2.836 0 0 1-1.008.652c-.4.154-.85.23-1.348.23zm5.906-9.979v9.826h-1.133v-9.826h1.133zm3.206 0v9.826h-1.133v-9.826h1.133zm5.067 9.979c-.665 0-1.249-.158-1.751-.475a3.22 3.22 0 0 1-1.17-1.329c-.279-.569-.418-1.234-.418-1.995 0-.768.14-1.438.417-2.011a3.218 3.218 0 0 1 1.171-1.333c.502-.317 1.086-.475 1.751-.475.666 0 1.248.158 1.747.475.502.316.892.761 1.17 1.333.282.573.422 1.243.422 2.011 0 .761-.14 1.426-.422 1.995a3.175 3.175 0 0 1-1.17 1.329c-.5.317-1.081.475-1.747.475zm0-1.017c.505 0 .921-.129 1.248-.388.326-.259.567-.6.724-1.022.157-.422.235-.88.235-1.372 0-.493-.078-.952-.235-1.377a2.317 2.317 0 0 0-.724-1.032c-.327-.262-.742-.393-1.248-.393-.505 0-.921.131-1.247.393a2.318 2.318 0 0 0-.725 1.032 3.95 3.95 0 0 0-.235 1.377c0 .492.079.95.235 1.372.157.422.398.763.725 1.022.326.259.742.388 1.247.388zm6.756-.48-.076.519c-.055.364-.138.754-.25 1.17-.109.416-.222.808-.34 1.176-.119.368-.216.66-.293.878h-.864l.163-.811c.068-.336.135-.712.202-1.128.07-.412.128-.834.173-1.266l.057-.538h1.228zm7.242-8.482v9.826h-1.19v-9.826h1.19zm3.23 0v.864c0 .262-.049.542-.144.839-.093.295-.23.581-.413.859-.18.275-.397.515-.653.72l-.614-.499c.202-.288.376-.587.523-.897.15-.314.226-.648.226-1.003v-.883h1.075zm1.205 9.826v-7.369h1.094v1.151h.096c.153-.393.401-.699.743-.916.343-.221.754-.331 1.233-.331.487 0 .891.11 1.214.331.327.217.58.523.763.916h.077a2.15 2.15 0 0 1 .849-.907c.377-.227.83-.34 1.358-.34.659 0 1.198.206 1.617.619.419.409.628 1.047.628 1.914v4.932h-1.132v-4.932c0-.544-.149-.933-.446-1.166a1.648 1.648 0 0 0-1.051-.35c-.518 0-.92.156-1.204.47-.285.31-.427.704-.427 1.18v4.798h-1.152v-5.047c0-.419-.136-.757-.407-1.013-.272-.259-.623-.388-1.051-.388-.295 0-.57.078-.825.235a1.778 1.778 0 0 0-.615.652c-.153.275-.23.594-.23.955v4.606h-1.132zM96.42 194.2v4.433h-1.13v-9.826h1.132v3.608h.096c.173-.381.432-.683.778-.907.348-.227.812-.34 1.39-.34.503 0 .943.1 1.32.302.378.198.67.504.878.916.211.41.317.931.317 1.564v4.683h-1.132v-4.606c0-.585-.152-1.038-.456-1.358-.3-.323-.718-.484-1.252-.484-.371 0-.704.078-.998.235a1.717 1.717 0 0 0-.691.686c-.167.301-.25.665-.25 1.094zm9.94 4.586c-.71 0-1.323-.156-1.838-.47a3.162 3.162 0 0 1-1.185-1.324c-.275-.569-.412-1.231-.412-1.986 0-.755.137-1.42.412-1.996.279-.579.666-1.03 1.161-1.353.499-.326 1.081-.489 1.747-.489.384 0 .763.064 1.137.192.374.127.715.335 1.022.623.307.285.551.662.734 1.132.182.471.273 1.05.273 1.737v.48h-5.68v-.979h4.529c0-.416-.083-.787-.25-1.113a1.873 1.873 0 0 0-.7-.772c-.301-.189-.656-.283-1.065-.283-.451 0-.841.112-1.171.336-.326.22-.577.508-.753.863a2.537 2.537 0 0 0-.264 1.142v.652c0 .557.096 1.029.288 1.416.195.384.465.676.811.878.345.198.747.297 1.204.297.297 0 .566-.041.806-.125.243-.086.453-.214.628-.383.176-.173.312-.387.408-.643l1.094.307a2.437 2.437 0 0 1-.58.979 2.838 2.838 0 0 1-1.008.652c-.4.154-.849.23-1.348.23zm4.774-.153v-7.369h1.093v1.113h.077c.135-.365.378-.661.729-.888a2.15 2.15 0 0 1 1.19-.341c.083 0 .187.002.312.005s.219.008.283.015v1.151a3.056 3.056 0 0 0-.264-.043 2.522 2.522 0 0 0-.427-.034c-.358 0-.678.075-.959.226a1.654 1.654 0 0 0-.902 1.501v4.664h-1.132zm7.892.153c-.71 0-1.323-.156-1.838-.47a3.162 3.162 0 0 1-1.185-1.324c-.275-.569-.412-1.231-.412-1.986 0-.755.137-1.42.412-1.996.279-.579.666-1.03 1.161-1.353.499-.326 1.081-.489 1.747-.489.383 0 .763.064 1.137.192.374.127.715.335 1.022.623.307.285.551.662.734 1.132.182.471.273 1.05.273 1.737v.48h-5.68v-.979h4.529c0-.416-.083-.787-.25-1.113a1.873 1.873 0 0 0-.7-.772c-.301-.189-.656-.283-1.065-.283-.451 0-.842.112-1.171.336-.326.22-.577.508-.753.863a2.537 2.537 0 0 0-.264 1.142v.652c0 .557.096 1.029.288 1.416.195.384.465.676.811.878.345.198.746.297 1.204.297.297 0 .566-.041.806-.125.243-.086.452-.214.628-.383.176-.173.312-.387.408-.643l1.094.307a2.428 2.428 0 0 1-.581.979 2.825 2.825 0 0 1-1.007.652c-.4.154-.849.23-1.348.23zm11.778-7.522v.959h-3.819v-.959h3.819zm-2.706-1.766h1.133v7.024c0 .32.046.56.139.719a.718.718 0 0 0 .364.317c.151.051.309.077.475.077.125 0 .227-.007.307-.019l.192-.039.23 1.017a2.235 2.235 0 0 1-.321.087 2.363 2.363 0 0 1-.523.048 2.27 2.27 0 0 1-.94-.207 1.862 1.862 0 0 1-.758-.628c-.199-.281-.298-.637-.298-1.065v-7.331zm7.324 9.288c-.665 0-1.249-.158-1.751-.475a3.223 3.223 0 0 1-1.171-1.329c-.278-.569-.417-1.234-.417-1.995 0-.768.139-1.438.417-2.011a3.222 3.222 0 0 1 1.171-1.333c.502-.317 1.086-.475 1.751-.475.665 0 1.247.158 1.746.475.502.316.893.761 1.171 1.333.281.573.422 1.243.422 2.011 0 .761-.141 1.426-.422 1.995a3.175 3.175 0 0 1-1.171 1.329c-.499.317-1.081.475-1.746.475zm0-1.017c.505 0 .921-.129 1.247-.388.327-.259.568-.6.725-1.022a3.93 3.93 0 0 0 .235-1.372c0-.493-.079-.952-.235-1.377a2.315 2.315 0 0 0-.725-1.032c-.326-.262-.742-.393-1.247-.393-.505 0-.921.131-1.247.393a2.315 2.315 0 0 0-.725 1.032 3.943 3.943 0 0 0-.235 1.377c0 .492.078.95.235 1.372.157.422.398.763.725 1.022.326.259.742.388 1.247.388zm10-3.569v4.433h-1.133v-9.826h1.133v3.608h.095c.173-.381.432-.683.778-.907.348-.227.812-.34 1.391-.34.502 0 .942.1 1.319.302.378.198.67.504.878.916.211.41.317.931.317 1.564v4.683h-1.132v-4.606c0-.585-.152-1.038-.456-1.358-.301-.323-.718-.484-1.252-.484-.371 0-.704.078-.998.235a1.72 1.72 0 0 0-.691.686c-.166.301-.249.665-.249 1.094zm9.939 4.586c-.71 0-1.322-.156-1.837-.47a3.149 3.149 0 0 1-1.185-1.324c-.275-.569-.413-1.231-.413-1.986 0-.755.138-1.42.413-1.996a3.25 3.25 0 0 1 1.161-1.353c.499-.326 1.081-.489 1.746-.489.384 0 .763.064 1.137.192.374.127.715.335 1.022.623.307.285.552.662.734 1.132.182.471.273 1.05.273 1.737v.48h-5.68v-.979h4.529c0-.416-.083-.787-.249-1.113a1.882 1.882 0 0 0-.701-.772c-.301-.189-.656-.283-1.065-.283-.451 0-.841.112-1.171.336-.326.22-.577.508-.753.863a2.537 2.537 0 0 0-.264 1.142v.652c0 .557.096 1.029.288 1.416.195.384.465.676.811.878.345.198.747.297 1.204.297.298 0 .566-.041.806-.125a1.73 1.73 0 0 0 .629-.383c.176-.173.311-.387.407-.643l1.094.307a2.426 2.426 0 0 1-.58.979 2.838 2.838 0 0 1-1.008.652c-.4.154-.849.23-1.348.23zm5.906-9.979v9.826h-1.132v-9.826h1.132zm2.074 12.589v-10.132h1.094v1.17h.134a9.34 9.34 0 0 1 .346-.489c.15-.202.364-.381.642-.538.282-.159.663-.239 1.142-.239.621 0 1.168.155 1.641.465.473.31.843.75 1.108 1.319.266.57.399 1.241.399 2.015 0 .781-.133 1.457-.399 2.03-.265.569-.633 1.011-1.103 1.324-.47.31-1.012.465-1.627.465-.473 0-.852-.078-1.137-.235a2.113 2.113 0 0 1-.657-.542 7.557 7.557 0 0 1-.355-.508h-.096v3.895h-1.132zm1.113-6.448c0 .557.082 1.048.245 1.473.163.422.401.753.714.993.314.237.698.355 1.152.355.473 0 .868-.125 1.185-.374.32-.253.56-.592.72-1.017.163-.429.244-.905.244-1.43 0-.518-.08-.985-.24-1.401a2.163 2.163 0 0 0-.714-.993c-.317-.246-.715-.369-1.195-.369-.461 0-.848.116-1.161.35-.314.23-.55.553-.71.969-.16.413-.24.894-.24 1.444zm11.649 6.448a2.49 2.49 0 0 1-.514-.048 1.295 1.295 0 0 1-.311-.086l.287-.998a2.2 2.2 0 0 0 .73.077.875.875 0 0 0 .561-.283c.166-.167.318-.437.456-.811l.211-.576-2.725-7.407h1.228l2.034 5.872h.077l2.034-5.872h1.228l-3.128 8.443c-.14.381-.315.696-.523.946a1.97 1.97 0 0 1-.724.561 2.227 2.227 0 0 1-.921.182zm9.521-2.61c-.666 0-1.249-.158-1.751-.475a3.216 3.216 0 0 1-1.171-1.329c-.278-.569-.417-1.234-.417-1.995 0-.768.139-1.438.417-2.011a3.215 3.215 0 0 1 1.171-1.333c.502-.317 1.085-.475 1.751-.475.665 0 1.247.158 1.746.475a3.18 3.18 0 0 1 1.171 1.333c.281.573.422 1.243.422 2.011 0 .761-.141 1.426-.422 1.995a3.182 3.182 0 0 1-1.171 1.329c-.499.317-1.081.475-1.746.475zm0-1.017c.505 0 .921-.129 1.247-.388.326-.259.568-.6.725-1.022a3.93 3.93 0 0 0 .235-1.372c0-.493-.079-.952-.235-1.377a2.322 2.322 0 0 0-.725-1.032c-.326-.262-.742-.393-1.247-.393-.506 0-.921.131-1.248.393a2.32 2.32 0 0 0-.724 1.032 3.943 3.943 0 0 0-.235 1.377c0 .492.078.95.235 1.372.157.422.398.763.724 1.022.327.259.742.388 1.248.388zm9.711-2.149v-4.356h1.133v7.369h-1.133v-1.248h-.076a2.419 2.419 0 0 1-.806.955c-.365.259-.825.389-1.382.389-.461 0-.87-.101-1.228-.302a2.12 2.12 0 0 1-.845-.922c-.204-.412-.307-.932-.307-1.559v-4.682h1.133v4.605c0 .538.15.966.451 1.286.303.32.69.48 1.161.48.281 0 .567-.072.858-.216.295-.144.541-.365.739-.662.202-.298.302-.677.302-1.137z"/><path stroke="url(#e)" stroke-width=".751" d="M22.125 212.136v.375h170.202c3.358 0 5.907 0 7.912-.217 2.017-.219 3.526-.66 4.785-1.575a9.368 9.368 0 0 0 2.075-2.075c.915-1.259 1.357-2.769 1.575-4.785.217-2.005.217-4.554.217-7.912v-2.63c0-3.357 0-5.906-.217-7.911-.218-2.017-.66-3.526-1.575-4.785a9.394 9.394 0 0 0-2.075-2.076c-1.259-.914-2.768-1.356-4.785-1.574-2.005-.217-4.554-.217-7.912-.217H38.689c-3.358 0-5.907 0-7.912.217-2.017.218-3.526.66-4.785 1.574a9.402 9.402 0 0 0-2.076 2.076c-.914 1.259-1.356 2.768-1.574 4.785-.217 2.005-.217 4.554-.217 7.911v18.819z"/><path fill="#ADADAD" fill-opacity=".5" d="M25.784 226.743c-.563 0-1.041-.153-1.437-.459-.395-.308-.698-.755-.907-1.339-.209-.588-.313-1.297-.313-2.127 0-.826.104-1.532.313-2.116.212-.587.515-1.035.91-1.344.399-.311.877-.466 1.434-.466.557 0 1.033.155 1.429.466.398.309.701.757.91 1.344.212.584.318 1.29.318 2.116 0 .83-.105 1.539-.314 2.127-.209.584-.511 1.031-.907 1.339-.395.306-.874.459-1.436.459zm0-.821c.557 0 .99-.268 1.298-.806.309-.537.463-1.303.463-2.298 0-.662-.07-1.226-.213-1.691-.139-.465-.34-.82-.604-1.063a1.334 1.334 0 0 0-.944-.366c-.552 0-.984.272-1.295.817-.311.543-.466 1.31-.466 2.303 0 .661.07 1.224.208 1.686.14.463.34.815.601 1.056.264.242.581.362.952.362zm6.657.821a3.23 3.23 0 0 1-1.317-.254 2.254 2.254 0 0 1-.915-.705 1.893 1.893 0 0 1-.365-1.056h.94c.02.246.105.459.254.638.149.177.344.314.586.411.24.097.508.145.802.145.328 0 .62-.057.873-.171.254-.115.453-.274.597-.478.144-.204.216-.44.216-.709 0-.281-.07-.529-.208-.743a1.386 1.386 0 0 0-.612-.507c-.27-.122-.597-.183-.986-.183h-.611v-.821h.611c.304 0 .57-.055.799-.164a1.24 1.24 0 0 0 .739-1.164 1.29 1.29 0 0 0-.172-.676 1.178 1.178 0 0 0-.485-.448 1.57 1.57 0 0 0-.731-.16c-.264 0-.513.049-.747.146-.23.094-.42.232-.567.414a1.078 1.078 0 0 0-.239.649h-.895c.015-.4.135-.751.362-1.052.226-.304.522-.54.888-.709a2.872 2.872 0 0 1 1.213-.254c.472 0 .878.096 1.216.287.339.189.598.439.78.75.182.311.272.647.272 1.008 0 .43-.113.797-.34 1.101a1.723 1.723 0 0 1-.913.63v.06c.482.08.86.285 1.13.616.272.328.407.735.407 1.22 0 .415-.113.789-.34 1.119a2.31 2.31 0 0 1-.917.777c-.389.189-.83.283-1.325.283zm4.765-1.082a.646.646 0 0 1-.474-.198.647.647 0 0 1-.198-.474c0-.184.066-.342.198-.474a.649.649 0 0 1 .474-.197.65.65 0 0 1 .474.197c.132.132.198.29.198.474a.695.695 0 0 1-.336.582.64.64 0 0 1-.336.09zm0-3.866a.646.646 0 0 1-.474-.198.644.644 0 0 1-.198-.474c0-.184.066-.342.198-.473a.646.646 0 0 1 .474-.198c.184 0 .342.066.474.198a.643.643 0 0 1 .198.473.633.633 0 0 1-.094.336.706.706 0 0 1-.242.247.646.646 0 0 1-.336.089zm2.237 4.844v-.672l2.523-2.761c.296-.324.54-.605.73-.844a3.05 3.05 0 0 0 .426-.679c.095-.214.142-.438.142-.671a1.238 1.238 0 0 0-.716-1.154 1.693 1.693 0 0 0-.747-.16c-.293 0-.55.061-.768.183a1.254 1.254 0 0 0-.504.504c-.117.216-.176.47-.176.761h-.88c0-.448.103-.841.31-1.179a2.14 2.14 0 0 1 .843-.791c.358-.189.76-.284 1.205-.284.448 0 .845.095 1.19.284.346.189.617.444.814.765.197.32.295.677.295 1.071a2.3 2.3 0 0 1-.153.824c-.1.266-.274.564-.523.892-.246.326-.588.724-1.026 1.194l-1.716 1.836v.06h3.552v.821h-4.821zm8.75.104c-.437 0-.832-.087-1.182-.261a2.192 2.192 0 0 1-.844-.717 1.949 1.949 0 0 1-.347-1.037h.896c.035.346.191.632.47.858.281.224.617.336 1.008.336.313 0 .592-.073.835-.22a1.55 1.55 0 0 0 .579-.604c.142-.259.213-.551.213-.877 0-.334-.074-.631-.22-.892a1.608 1.608 0 0 0-.598-.623 1.69 1.69 0 0 0-.87-.232 2.424 2.424 0 0 0-.72.108 2.033 2.033 0 0 0-.608.28l-.865-.104.462-3.762h3.97v.821h-3.194l-.268 2.254h.045a2 2 0 0 1 .59-.309c.236-.083.482-.124.738-.124a2.35 2.35 0 0 1 2.116 1.247 2.7 2.7 0 0 1 .317 1.321c0 .487-.11.923-.328 1.306-.217.38-.515.681-.896.903-.38.219-.813.328-1.298.328z"/><rect width="326.499" height="246.499" x="1.251" y=".751" stroke="url(#f)" stroke-width="1.501" rx="23.268"/><defs><linearGradient id="a" x1="-60.852" x2="198.444" y1="-49.6" y2="333.801" gradientUnits="userSpaceOnUse"><stop offset=".064" stop-color="#1A1A1A"/><stop offset=".499" stop-color="#101010"/><stop offset="1" stop-color="#101010" stop-opacity="0"/></linearGradient><linearGradient id="b" x1="270.398" x2="300.647" y1="14.113" y2="17.413" gradientUnits="userSpaceOnUse"><stop stop-color="#363636"/><stop offset=".586" stop-color="#1A1A1A"/></linearGradient><linearGradient id="c" x1="273.099" x2="307.459" y1="23.541" y2="38.092" gradientUnits="userSpaceOnUse"><stop offset=".007" stop-color="#373737"/><stop offset="1" stop-color="#2F2F2F" stop-opacity="0"/></linearGradient><linearGradient id="d" x1="211.141" x2="177.96" y1="187.783" y2="125.055" gradientUnits="userSpaceOnUse"><stop offset=".064" stop-color="#1A1A1A"/><stop offset=".499" stop-color="#101010"/><stop offset="1" stop-color="#101010" stop-opacity=".24"/></linearGradient><linearGradient id="e" x1="10.162" x2="78.409" y1="168.882" y2="287.189" gradientUnits="userSpaceOnUse"><stop stop-color="#2F2F2F"/><stop offset="1" stop-color="#2F2F2F" stop-opacity=".1"/></linearGradient><linearGradient id="f" x1="-10.414" x2="222.31" y1="-4.895" y2="330.014" gradientUnits="userSpaceOnUse"><stop stop-color="#2F2F2F"/><stop offset=".642" stop-color="#101010" stop-opacity="0"/></linearGradient></defs></svg>