<svg xmlns="http://www.w3.org/2000/svg" width="536" height="288" fill="none"><path d="M0 .5h536v287H0z"/><g><g clip-path="url(#a)"><rect width="262" height="170.236" x="259.666" y="68.758" fill="url(#b)" rx="21.608" transform="rotate(8.314 259.666 68.758)"/><path fill="#FAFAFB" d="m266.91 173.19 1.535-10.509 2.384.349-1.535 10.508-2.384-.348zm-3.469-4.656.349-2.384 10.508 1.536-.348 2.384-10.509-1.536zm13.016 5.648.327-2.24 8.121-9.461 1.868.273-.466 3.189-1.139-.167-5.47 6.39-.018.121 9.21 1.346-.338 2.316-12.095-1.767zm6.996 3.969.521-3.569.177-.998 1.605-10.979 2.657.389-2.272 15.55-2.688-.393zm7.103 1.038.297-2.035 6.172-4.503a25.715 25.715 0 0 0 1.494-1.201c.403-.355.719-.71.946-1.064.228-.354.373-.747.436-1.177.072-.491.022-.928-.15-1.309a2.249 2.249 0 0 0-.799-.955 2.986 2.986 0 0 0-1.286-.482c-.512-.075-.975-.034-1.391.122a2.223 2.223 0 0 0-1.026.758c-.263.354-.434.797-.512 1.328l-2.68-.391c.144-.987.495-1.812 1.052-2.475a4.61 4.61 0 0 1 2.108-1.422c.853-.283 1.793-.35 2.821-.2 1.042.152 1.93.481 2.663.986.732.505 1.267 1.129 1.603 1.871.341.742.448 1.549.321 2.42a4.67 4.67 0 0 1-.585 1.667c-.304.529-.788 1.094-1.449 1.696-.657.602-1.56 1.315-2.709 2.14l-3.079 2.334-.016.106 6.773.99-.344 2.353-10.66-1.557zm18.984 3.076c-1.25-.182-2.277-.656-3.08-1.419-.798-.768-1.35-1.787-1.655-3.057-.3-1.274-.326-2.759-.078-4.455.253-1.695.704-3.103 1.353-4.223.656-1.124 1.475-1.935 2.457-2.432.988-.497 2.105-.654 3.35-.472 1.245.182 2.27.652 3.074 1.41.804.759 1.357 1.77 1.658 3.034.306 1.265.336 2.743.089 4.434-.248 1.7-.701 3.118-1.358 4.253-.651 1.13-1.471 1.946-2.459 2.447-.984.503-2.101.663-3.351.48zm.347-2.376c.972.142 1.809-.225 2.511-1.099.707-.879 1.197-2.252 1.47-4.12.181-1.235.203-2.292.068-3.17-.135-.878-.407-1.564-.816-2.058a2.419 2.419 0 0 0-1.576-.889c-.967-.142-1.801.228-2.504 1.107-.702.875-1.19 2.238-1.466 4.09-.186 1.239-.215 2.3-.085 3.183.135.883.406 1.574.814 2.073.408.494.937.788 1.584.883zm16.807-11.302-2.272 15.55-2.817-.411 1.871-12.809-.091-.014-3.976 1.792.377-2.581 4.228-1.918 2.68.391z"/><g clip-path="url(#c)"><rect width="87.206" height="19.103" x="258.652" y="187.77" fill="#000" fill-opacity=".5" rx="5.402" transform="rotate(8.314 258.652 187.77)"/><path fill="#55E6A5" d="m264.245 196.192 2.087 4.4-5.346-.781 3.259-3.619z"/><path fill="#ADADAD" fill-opacity=".75" d="M271.782 202.973a2.915 2.915 0 0 1-1.14-.397 2.02 2.02 0 0 1-.722-.747 1.705 1.705 0 0 1-.188-.987l.837.122a.998.998 0 0 0 .143.601c.11.177.266.324.468.442.202.117.434.195.695.234.293.042.559.029.8-.04a1.28 1.28 0 0 0 .594-.347c.155-.163.249-.364.284-.603.037-.25.007-.48-.089-.688a1.245 1.245 0 0 0-.479-.532c-.223-.143-.507-.24-.853-.291l-.545-.079.107-.731.545.08c.27.039.514.025.732-.043.22-.067.401-.181.542-.341.143-.16.232-.36.267-.599.034-.23.012-.438-.065-.624a1.054 1.054 0 0 0-.373-.461 1.408 1.408 0 0 0-.63-.238 1.724 1.724 0 0 0-.684.032 1.262 1.262 0 0 0-.559.295.97.97 0 0 0-.297.547l-.797-.116c.066-.355.219-.652.459-.89.241-.241.536-.413.883-.516a2.6 2.6 0 0 1 1.113-.068c.42.062.769.2 1.045.414.277.212.476.469.597.769.121.301.158.612.111.933-.056.383-.204.695-.445.935a1.552 1.552 0 0 1-.896.443l-.008.053c.419.134.728.365.927.695.198.328.266.707.203 1.139a1.74 1.74 0 0 1-.448.953 2.077 2.077 0 0 1-.918.571c-.37.118-.776.145-1.216.08zm3.76.455.087-.598 2.605-2.13c.306-.25.559-.468.761-.656.202-.19.357-.373.467-.549a1.47 1.47 0 0 0 .213-.579 1.113 1.113 0 0 0-.487-1.12 1.53 1.53 0 0 0-.644-.24 1.401 1.401 0 0 0-.708.063c-.208.078-.38.206-.514.383a1.418 1.418 0 0 0-.255.655l-.784-.115c.058-.399.201-.735.429-1.009a1.93 1.93 0 0 1 .854-.595 2.28 2.28 0 0 1 1.109-.096c.399.059.74.194 1.023.408.284.213.492.475.625.786.133.312.174.642.123.992a2.1 2.1 0 0 1-.243.714 3.286 3.286 0 0 1-.582.726c-.261.258-.617.568-1.068.93l-1.767 1.411-.008.053 3.162.462-.106.731-4.292-.627zm9.407.072.052-.359c.037-.248.121-.468.253-.659.134-.193.309-.337.524-.432.218-.097.469-.125.752-.084.288.043.52.141.697.296.176.152.299.34.369.562.069.221.086.455.05.703l-.053.359c-.036.248-.12.469-.253.662a1.212 1.212 0 0 1-.518.433 1.313 1.313 0 0 1-.744.081c-.288-.042-.522-.139-.7-.292a1.243 1.243 0 0 1-.376-.564 1.545 1.545 0 0 1-.053-.706zm.73-.26-.052.359c-.03.206-.009.398.065.576.074.176.23.281.469.316.233.034.409-.023.527-.171.122-.149.197-.327.228-.533l.052-.359c.03-.206.01-.396-.059-.572-.069-.177-.223-.283-.462-.318-.233-.034-.412.023-.538.172-.123.147-.2.324-.23.53zm-3.549-4.129.052-.358c.036-.248.12-.468.252-.659.135-.193.31-.337.525-.432.218-.097.468-.125.752-.084.288.042.52.141.696.295.177.153.3.34.369.563.07.221.087.455.05.703l-.052.359a1.557 1.557 0 0 1-.253.662c-.13.191-.302.335-.518.433a1.324 1.324 0 0 1-.745.081c-.287-.042-.521-.139-.7-.292a1.243 1.243 0 0 1-.376-.564 1.55 1.55 0 0 1-.052-.707zm.73-.259-.053.358c-.03.206-.008.398.065.576.074.176.231.282.47.317.232.034.408-.023.527-.171.121-.15.197-.327.227-.533l.053-.359c.03-.206.01-.397-.059-.572-.069-.177-.223-.284-.463-.318-.232-.034-.411.023-.537.172-.123.147-.2.324-.23.53zm-1.233 5.465 5.671-6.12.757.111-5.671 6.12-.757-.111zm13.055-3.304-.097.665-2.644-.387.097-.664 2.644.386zm-1.695-1.496.784.115-.711 4.863c-.032.221-.024.392.024.512a.506.506 0 0 0 .22.256c.099.051.206.085.321.102.087.012.158.018.215.017l.137-.007.056.728a1.637 1.637 0 0 1-.231.027 1.635 1.635 0 0 1-.367-.02 1.582 1.582 0 0 1-.63-.238 1.298 1.298 0 0 1-.461-.512c-.109-.214-.142-.47-.099-.767l.742-5.076zm3.56 3.845-.449 3.07-.784-.115.995-6.803.783.115-.365 2.498.067.009c.158-.246.368-.429.63-.549.264-.122.597-.154.998-.095.347.051.642.165.882.343.242.175.413.416.516.723.104.305.125.677.061 1.115l-.474 3.242-.784-.114.466-3.189c.059-.406 0-.734-.178-.987-.176-.254-.448-.408-.818-.462a1.467 1.467 0 0 0-.715.062c-.217.079-.4.214-.548.405-.145.191-.24.436-.283.732zm4.383 3.776.746-5.103.784.115-.746 5.102-.784-.114zm1.269-5.895a.561.561 0 0 1-.373-.214.51.51 0 0 1-.108-.399.507.507 0 0 1 .218-.351.564.564 0 0 1 .418-.099.553.553 0 0 1 .369.214c.096.12.133.253.111.399a.501.501 0 0 1-.221.351.544.544 0 0 1-.414.099zm5.233 2.801-.733.096a1.362 1.362 0 0 0-.146-.371.967.967 0 0 0-.305-.329 1.258 1.258 0 0 0-.545-.192c-.313-.046-.583-.012-.813.102-.226.112-.356.277-.388.496a.567.567 0 0 0 .145.493c.126.134.333.26.624.379l.73.297c.44.178.755.397.945.657.191.259.26.567.208.923a1.312 1.312 0 0 1-.367.747c-.2.206-.459.354-.777.443a2.577 2.577 0 0 1-1.072.047c-.521-.076-.935-.252-1.243-.528-.308-.276-.476-.637-.503-1.084l.771-.078c.031.285.135.511.312.677.179.166.429.273.75.32.366.053.667.018.905-.105.24-.126.376-.298.408-.518a.601.601 0 0 0-.121-.472c-.106-.14-.284-.258-.532-.356l-.821-.323c-.451-.179-.769-.401-.955-.666a1.263 1.263 0 0 1-.197-.927c.043-.288.161-.531.355-.729a1.66 1.66 0 0 1 .744-.424c.301-.085.632-.101.991-.049.504.074.885.243 1.14.506.258.264.421.587.49.968zm3.504 4.556.745-5.103.757.111-.116.797.066.01a1.3 1.3 0 0 1 .608-.559c.259-.118.555-.153.887-.105.337.05.606.167.807.352.204.184.349.421.436.712l.053.008c.169-.245.396-.425.679-.542.285-.119.61-.152.975-.099.456.067.808.264 1.057.592.249.326.329.789.241 1.389l-.499 3.415-.784-.114.499-3.415c.055-.377-.008-.661-.191-.852a1.155 1.155 0 0 0-.692-.349c-.358-.053-.652.015-.881.203-.228.186-.367.444-.415.774l-.485 3.322-.798-.116.511-3.495c.042-.29-.018-.537-.18-.742-.162-.207-.391-.332-.688-.375a1.08 1.08 0 0 0-.595.079 1.235 1.235 0 0 0-.491.39c-.135.175-.22.387-.257.637l-.466 3.189-.783-.114zm10.276 1.61a2.245 2.245 0 0 1-1.164-.506 2.252 2.252 0 0 1-.676-1.039c-.135-.422-.164-.897-.087-1.424.077-.531.241-.981.492-1.349a2.25 2.25 0 0 1 .945-.805c.38-.169.8-.219 1.261-.152.461.067.848.236 1.161.505.316.27.541.618.676 1.042.137.425.166.903.089 1.435-.077.527-.242.973-.495 1.339-.25.366-.565.633-.945.802-.377.169-.796.219-1.257.152zm.103-.704c.35.051.651.003.903-.143s.454-.358.605-.634c.151-.277.252-.586.302-.927a2.772 2.772 0 0 0-.024-.977 1.62 1.62 0 0 0-.397-.787c-.199-.215-.474-.348-.824-.399-.35-.051-.651-.002-.903.146a1.624 1.624 0 0 0-.606.641 2.742 2.742 0 0 0-.302.93c-.05.341-.042.665.023.974a1.6 1.6 0 0 0 .399.78c.199.213.474.345.824.396zm4.743-1.831-.449 3.069-.784-.115.746-5.102.757.111-.116.797.066.01c.158-.242.37-.424.636-.545.267-.124.593-.158.979-.102.345.051.637.166.876.346.238.177.409.419.511.726.102.304.122.673.059 1.108l-.474 3.242-.784-.115.466-3.189c.058-.401 0-.728-.176-.982-.175-.257-.444-.411-.807-.464a1.387 1.387 0 0 0-.695.064c-.211.08-.388.216-.531.408a1.587 1.587 0 0 0-.28.733zm7.293-1.011-.097.664-2.644-.386.097-.664 2.644.386zm-1.695-1.496.784.114-.711 4.863c-.032.222-.024.393.024.513a.51.51 0 0 0 .22.256c.099.051.206.084.322.101.086.013.157.019.214.018l.137-.007.056.727a1.697 1.697 0 0 1-1.228-.23 1.305 1.305 0 0 1-.461-.512c-.109-.215-.142-.471-.099-.768l.742-5.075zm3.56 3.845-.449 3.069-.784-.114.995-6.803.784.114-.366 2.498.067.01c.158-.246.368-.429.63-.549.264-.122.597-.154.998-.095.347.05.642.165.883.342.241.176.412.417.515.724.104.304.125.676.061 1.115l-.474 3.242-.784-.115.466-3.189c.059-.405 0-.734-.178-.986-.176-.254-.448-.408-.818-.462a1.455 1.455 0 0 0-.715.062c-.217.079-.4.214-.548.405a1.56 1.56 0 0 0-.283.732z"/></g><path stroke="#353535" stroke-opacity=".5" stroke-width="8.103" d="M429.353 247.854a42.542 42.542 0 1 1 12.3-84.19 42.542 42.542 0 0 1-12.3 84.19z"/><path stroke="#6F8EFF" stroke-linecap="round" stroke-linejoin="round" stroke-width="8.103" d="M429.353 247.854a42.545 42.545 0 0 1-31.937-23.144 42.535 42.535 0 0 1 14.546-54.384 42.542 42.542 0 0 1 55.771 7.666"/><path fill="#FAFAFB" d="M422.523 207.112c-1.012-.147-1.891-.47-2.635-.966-.743-.502-1.302-1.121-1.675-1.858-.368-.736-.504-1.537-.409-2.402l2.733.4a2.179 2.179 0 0 0 .6 1.685c.442.473 1.015.761 1.719.864.552.08 1.061.025 1.528-.165.468-.19.858-.492 1.172-.906.314-.415.51-.911.59-1.489.091-.586.043-1.125-.144-1.618a2.807 2.807 0 0 0-.884-1.223c-.401-.327-.888-.533-1.46-.616a3.663 3.663 0 0 0-1.412.057c-.477.111-.868.292-1.173.542l-2.483-.789 1.984-7.899 9.021 1.318-.344 2.353-6.69-.977-1.05 4.057.091.014c.338-.297.787-.519 1.346-.664a4.35 4.35 0 0 1 1.781-.089c.941.137 1.749.483 2.423 1.036a4.775 4.775 0 0 1 1.48 2.078c.312.836.395 1.753.25 2.75-.151 1.028-.522 1.909-1.116 2.645a5.098 5.098 0 0 1-2.243 1.603c-.901.333-1.901.42-3 .259zm13.652 1.995c-1.129-.165-2.103-.501-2.924-1.008-.815-.507-1.422-1.126-1.822-1.857a3.698 3.698 0 0 1-.4-2.361c.091-.654.32-1.233.689-1.737a4.037 4.037 0 0 1 1.368-1.196 3.825 3.825 0 0 1 1.759-.465l.015-.106a3.328 3.328 0 0 1-1.765-1.506c-.397-.715-.531-1.492-.404-2.331a3.576 3.576 0 0 1 .982-2.044c.542-.562 1.231-.965 2.069-1.21.837-.25 1.76-.301 2.767-.154.997.146 1.859.458 2.585.936.732.474 1.278 1.058 1.637 1.752.364.694.487 1.441.37 2.241a3.553 3.553 0 0 1-1.077 2.114 3.31 3.31 0 0 1-2.099.942l-.016.106c.593.19 1.105.506 1.537.946.438.436.761.949.97 1.538.213.589.273 1.211.177 1.864a3.714 3.714 0 0 1-1.073 2.146c-.593.586-1.352 1.005-2.278 1.257-.921.253-1.943.298-3.067.133zm.317-2.171c.582.085 1.103.06 1.562-.074.46-.14.835-.375 1.126-.704.292-.33.475-.732.549-1.207a2.386 2.386 0 0 0-.195-1.371 2.573 2.573 0 0 0-.893-1.053c-.399-.28-.874-.461-1.425-.542-.557-.081-1.069-.045-1.536.109a2.625 2.625 0 0 0-1.165.753 2.328 2.328 0 0 0-.556 1.26c-.075.475-.02.913.165 1.312.185.394.478.724.879.989.406.266.902.442 1.489.528zm1.035-7.084c.476.069.91.035 1.303-.105.398-.138.728-.364.991-.677.263-.313.429-.694.5-1.144a2.24 2.24 0 0 0-.148-1.216 2.081 2.081 0 0 0-.751-.909 2.814 2.814 0 0 0-1.235-.467c-.491-.072-.937-.041-1.339.091a2.085 2.085 0 0 0-.98.656c-.251.304-.407.68-.467 1.126-.071.45-.027.862.13 1.236a2.3 2.3 0 0 0 .755.933c.347.247.76.406 1.241.476zm11.897 9.113.075-.512c.055-.377.185-.712.39-1.005a1.93 1.93 0 0 1 .813-.661c.336-.148.721-.191 1.158-.127.449.066.812.217 1.087.455.276.234.468.52.577.859.112.34.14.7.085 1.079l-.075.513a2.319 2.319 0 0 1-.389 1.004 1.903 1.903 0 0 1-.809.662c-.332.149-.72.191-1.163.126-.442-.065-.803-.216-1.082-.454a1.896 1.896 0 0 1-.586-.866 2.35 2.35 0 0 1-.081-1.073zm1.314-.331-.075.512c-.036.25-.01.488.08.715.09.226.286.361.59.406.307.045.532-.028.676-.217a1.4 1.4 0 0 0 .277-.667l.075-.512a1.473 1.473 0 0 0-.065-.717c-.08-.228-.278-.366-.594-.412-.298-.043-.523.032-.678.226a1.352 1.352 0 0 0-.286.666zm-5.441-5.952.075-.513a2.29 2.29 0 0 1 .395-1.009c.207-.292.478-.511.813-.656.335-.148.721-.191 1.157-.127.446.065.807.217 1.083.454.279.235.473.522.582.861.108.339.135.698.08 1.078l-.075.512c-.056.38-.186.716-.39 1.009a1.85 1.85 0 0 1-.803.654c-.335.145-.722.185-1.162.121-.446-.065-.808-.215-1.088-.45a1.88 1.88 0 0 1-.581-.86 2.316 2.316 0 0 1-.086-1.074zm1.323-.331-.075.513a1.4 1.4 0 0 0 .075.718c.09.224.287.357.59.402.304.044.528-.028.672-.217.147-.192.24-.414.277-.667l.075-.513a1.473 1.473 0 0 0-.065-.717c-.08-.228-.277-.365-.59-.411-.3-.044-.526.032-.677.226a1.393 1.393 0 0 0-.282.666zm-1.861 7.794 8.102-8.743 1.186.174-8.101 8.742-1.187-.173z"/><path fill="#ADADAD" fill-opacity=".75" d="M419.74 219.731a1.814 1.814 0 0 1-.732-.267 1.309 1.309 0 0 1-.471-.537 1.316 1.316 0 0 1-.093-.758c.037-.251.116-.446.238-.588a1.05 1.05 0 0 1 .449-.312c.179-.065.371-.105.576-.119.208-.017.416-.023.622-.02.271.005.49.011.658.018.17.005.296-.009.378-.041.084-.032.134-.103.15-.211l.004-.023c.041-.281-.004-.51-.135-.688-.129-.178-.349-.29-.658-.335-.321-.047-.583-.013-.785.101a1.263 1.263 0 0 0-.451.393l-.604-.321c.153-.249.335-.433.546-.554.214-.122.438-.196.672-.221.237-.028.465-.026.686.007.14.02.299.061.476.122.18.059.347.152.503.28.158.127.279.303.362.527.084.223.1.509.05.856l-.421 2.881-.672-.098.086-.592-.034-.005c-.059.088-.15.179-.272.271a1.318 1.318 0 0 1-.465.214 1.64 1.64 0 0 1-.663.02zm.191-.589c.266.039.497.02.695-.058a1.078 1.078 0 0 0 .693-.844l.09-.615c-.034.03-.101.052-.202.067-.099.012-.212.02-.341.022a15.046 15.046 0 0 1-.656-.008 2.584 2.584 0 0 0-.506.039.86.86 0 0 0-.397.172.582.582 0 0 0-.196.384c-.034.234.027.423.182.568.158.143.37.234.638.273zm4.907 1.322c-.41-.06-.748-.208-1.016-.445a1.915 1.915 0 0 1-.567-.9 2.762 2.762 0 0 1-.069-1.199c.065-.444.204-.825.417-1.14.215-.318.484-.551.806-.7a1.87 1.87 0 0 1 1.079-.139c.307.045.576.143.806.292.23.15.409.339.537.567.127.228.19.482.188.761l-.672-.098c-.022-.207-.11-.4-.264-.58-.152-.181-.376-.293-.672-.337a1.193 1.193 0 0 0-.719.105 1.345 1.345 0 0 0-.542.505 2.14 2.14 0 0 0-.288.839c-.05.338-.04.64.03.906.072.266.195.483.37.65.178.168.399.271.665.31.174.025.337.018.489-.022a.993.993 0 0 0 .67-.588l.672.098a1.575 1.575 0 0 1-1.045 1.06c-.26.084-.552.102-.875.055zm3.861-2.216-.384 2.631-.672-.098.852-5.831.672.098-.313 2.141.057.008a1.26 1.26 0 0 1 .54-.47c.227-.105.512-.132.855-.082.298.044.551.142.757.294.207.15.354.357.442.62.089.261.107.58.052.956l-.406 2.779-.672-.099.399-2.733c.051-.347 0-.629-.152-.845-.151-.218-.385-.35-.702-.396a1.235 1.235 0 0 0-.612.053 1.027 1.027 0 0 0-.47.347 1.354 1.354 0 0 0-.243.627zm3.77 3.238.639-4.373.672.098-.639 4.373-.672-.098zm1.088-5.052a.484.484 0 0 1-.32-.183.433.433 0 0 1-.092-.343.434.434 0 0 1 .186-.301.486.486 0 0 1 .359-.084.47.47 0 0 1 .316.183.426.426 0 0 1 .095.342.427.427 0 0 1-.189.301.47.47 0 0 1-.355.085zm5.119 1.493-2.256 4.137-.683-.1-.978-4.61.728.107.698 3.661.046.007 1.716-3.309.729.107zm2.001 4.852c-.421-.062-.771-.208-1.05-.439a1.89 1.89 0 0 1-.588-.888c-.114-.362-.138-.767-.073-1.215.066-.448.205-.831.418-1.149.216-.319.484-.553.807-.702.324-.15.684-.196 1.078-.139.228.034.448.104.659.213.211.108.395.261.552.459.158.195.27.44.337.735.068.295.072.646.012 1.055l-.041.284-3.372-.492.085-.581 2.688.393a1.458 1.458 0 0 0-.051-.683 1.138 1.138 0 0 0-.349-.519 1.174 1.174 0 0 0-.608-.26 1.216 1.216 0 0 0-.724.098 1.326 1.326 0 0 0-.522.447 1.52 1.52 0 0 0-.255.655l-.057.387c-.048.33-.032.618.048.865.083.244.218.442.405.591.188.148.418.241.689.281.177.026.34.025.489-.004.152-.03.288-.088.407-.173.119-.088.218-.203.298-.346l.622.277c-.1.21-.244.387-.429.53a1.69 1.69 0 0 1-.655.3c-.25.056-.524.063-.82.02zm4.574.668a1.726 1.726 0 0 1-.925-.417 1.884 1.884 0 0 1-.54-.882c-.108-.363-.128-.776-.061-1.239.068-.459.205-.846.412-1.161.206-.315.464-.544.772-.687a1.752 1.752 0 0 1 1.014-.134c.284.042.502.122.654.241.153.118.265.243.335.375.072.131.127.238.165.321l.057.008.315-2.153.672.099-.853 5.831-.649-.095.098-.672-.079-.012a4.15 4.15 0 0 1-.255.271 1.252 1.252 0 0 1-.437.265c-.183.068-.414.082-.695.041zm.179-.59c.27.039.508.002.714-.111.207-.115.377-.291.511-.527.133-.239.224-.523.272-.853a2.387 2.387 0 0 0-.017-.878 1.262 1.262 0 0 0-.337-.637 1.125 1.125 0 0 0-.659-.308c-.284-.042-.532-.004-.744.115a1.323 1.323 0 0 0-.51.527 2.373 2.373 0 0 0-.261.811c-.045.311-.039.601.018.869a1.4 1.4 0 0 0 .339.666c.169.176.393.285.674.326z"/><path fill="#ADADAD" d="m272.376 99.272.183-1.253 8.747 1.278-.183 1.253-3.667-.536-1.522 10.409-1.412-.206 1.521-10.41-3.667-.535zm10.577 12.386a3.587 3.587 0 0 1-1.463-.533 2.625 2.625 0 0 1-.943-1.074c-.207-.442-.269-.947-.185-1.516.073-.502.231-.893.474-1.176.243-.286.543-.494.9-.624.356-.131.74-.21 1.151-.239.416-.033.831-.046 1.245-.039.541.009.98.021 1.315.035.34.011.592-.017.756-.082.169-.064.269-.205.3-.421l.007-.046c.082-.562-.008-1.021-.27-1.377-.258-.356-.697-.579-1.315-.669-.642-.094-1.166-.027-1.571.201-.406.228-.706.49-.9.787l-1.209-.642c.305-.498.669-.867 1.092-1.108a3.439 3.439 0 0 1 1.345-.443c.473-.055.93-.05 1.37.014.281.041.599.122.953.244.359.118.694.305 1.006.56.315.255.557.607.724 1.054.168.447.2 1.018.099 1.712l-.842 5.763-1.344-.196.173-1.185-.068-.01a2.385 2.385 0 0 1-.545.543c-.244.186-.554.328-.929.429-.375.1-.817.113-1.326.038zm.381-1.177c.532.078.995.039 1.39-.117a2.16 2.16 0 0 0 .95-.687c.238-.302.383-.636.437-1l.179-1.23c-.067.06-.201.104-.403.133a6.77 6.77 0 0 1-.681.046 35.9 35.9 0 0 1-1.312-.018 5.232 5.232 0 0 0-1.012.079 1.71 1.71 0 0 0-.795.344c-.211.17-.341.427-.391.768-.069.467.053.846.363 1.135.315.287.74.469 1.275.547zm6.111 1.917 1.278-8.747 1.298.19-.193 1.321.091.013a2.13 2.13 0 0 1 1.02-.927 2.574 2.574 0 0 1 1.471-.198 11.142 11.142 0 0 1 .703.126l-.2 1.367a3.86 3.86 0 0 0-.305-.097 3.115 3.115 0 0 0-.501-.114 2.4 2.4 0 0 0-1.178.101 2.037 2.037 0 0 0-.893.614c-.235.28-.381.617-.439 1.012l-.808 5.535-1.344-.196zm8.725 4.811c-.649-.095-1.195-.26-1.638-.495a3.6 3.6 0 0 1-1.072-.82 3.583 3.583 0 0 1-.61-.962l1.18-.595c.098.177.226.382.382.614.155.236.383.454.684.653.303.203.719.343 1.247.42.706.104 1.314.018 1.823-.257.509-.274.817-.776.924-1.505l.259-1.777-.114-.016a7.101 7.101 0 0 1-.508.53c-.212.206-.5.375-.865.508-.36.13-.825.153-1.394.07-.706-.104-1.316-.363-1.829-.779-.509-.416-.88-.967-1.114-1.652-.229-.685-.277-1.483-.144-2.394.131-.896.402-1.653.814-2.272.413-.622.927-1.074 1.542-1.356.616-.286 1.292-.376 2.028-.268.57.083 1.008.244 1.314.483.311.235.538.485.681.751.148.262.26.476.337.642l.137.02.203-1.389 1.298.189-1.315 8.998c-.11.751-.37 1.338-.78 1.758a2.95 2.95 0 0 1-1.519.843c-.602.141-1.253.16-1.951.058zm.656-4.813c.54.079 1.013.022 1.421-.17.408-.193.743-.506 1.004-.941.262-.435.439-.975.534-1.621.092-.63.078-1.2-.041-1.71-.12-.51-.345-.929-.677-1.256-.332-.328-.772-.532-1.319-.612-.569-.083-1.065-.008-1.486.225-.418.234-.758.58-1.019 1.038a4.55 4.55 0 0 0-.515 1.576c-.089.608-.072 1.159.049 1.654a2.5 2.5 0 0 0 .695 1.218c.341.317.793.517 1.354.599zm9.732 2.981c-.843-.123-1.543-.416-2.1-.877a3.791 3.791 0 0 1-1.177-1.777c-.228-.724-.276-1.533-.145-2.429.131-.896.41-1.662.836-2.298.431-.639.968-1.107 1.613-1.404.648-.301 1.368-.394 2.157-.278a4.17 4.17 0 0 1 1.317.425c.422.216.79.522 1.104.917.315.391.54.882.675 1.471.135.59.143 1.293.024 2.109l-.084.57-6.742-.985.17-1.162 5.375.785a2.884 2.884 0 0 0-.103-1.364 2.247 2.247 0 0 0-.697-1.038c-.324-.276-.729-.45-1.215-.521-.535-.078-1.018-.013-1.448.196a2.653 2.653 0 0 0-1.044.894c-.27.391-.44.827-.511 1.309l-.113.775c-.097.661-.065 1.237.096 1.73.165.489.435.883.81 1.183.376.295.835.482 1.378.561.353.052.679.049.978-.008.304-.06.575-.176.813-.346.239-.175.437-.406.595-.693l1.245.554a2.9 2.9 0 0 1-.858 1.061 3.392 3.392 0 0 1-1.309.6 4.491 4.491 0 0 1-1.64.04zm10.774-7.546-.166 1.139-4.533-.662.166-1.139 4.533.662zm-2.905-2.564 1.344.196-1.218 8.337c-.056.379-.042.672.04.878a.865.865 0 0 0 .378.439c.169.087.353.145.55.174.148.021.271.031.368.03l.234-.012.097 1.247a2.832 2.832 0 0 1-.396.047 2.822 2.822 0 0 1-.629-.034 2.722 2.722 0 0 1-1.081-.408 2.242 2.242 0 0 1-.79-.877c-.187-.369-.243-.807-.169-1.316l1.272-8.701z"/><rect width="77.737" height="26.129" x="422.613" y="113.601" fill="url(#d)" rx="7.765" transform="rotate(8.314 422.613 113.601)"/><path fill="#878786" fill-opacity=".8" d="m429.291 132.832-1.237-10.107 1.196.175.874 8.212.095.014 3.226-7.613 1.328.194.913 8.218.095.014 3.187-7.619 1.196.175-4.077 9.33-1.215-.177-1.014-8.058-.075-.011-3.277 7.431-1.215-.178zm13.123 2.073c-.703-.103-1.286-.346-1.75-.731a3.158 3.158 0 0 1-.981-1.481c-.189-.603-.23-1.277-.121-2.024.11-.747.342-1.385.697-1.914a3.253 3.253 0 0 1 1.344-1.171c.541-.25 1.14-.328 1.798-.231.38.055.745.173 1.097.354.352.18.659.435.921.764.262.326.45.735.562 1.226.112.492.119 1.078.02 1.758l-.07.474-5.618-.821.141-.968 4.48.655c.06-.411.031-.79-.086-1.137a1.877 1.877 0 0 0-.581-.865c-.27-.231-.608-.375-1.013-.434-.446-.066-.848-.011-1.206.163a2.2 2.2 0 0 0-.87.745 2.518 2.518 0 0 0-.426 1.091l-.095.646c-.08.55-.053 1.031.081 1.441.137.408.362.737.675.986.313.246.695.402 1.148.468.294.043.566.041.815-.007.253-.05.479-.146.677-.289a1.72 1.72 0 0 0 .496-.577l1.038.462a2.41 2.41 0 0 1-.716.884 2.82 2.82 0 0 1-1.09.5 3.741 3.741 0 0 1-1.367.033zm7.778 1.137c-.703-.103-1.286-.347-1.75-.731a3.163 3.163 0 0 1-.981-1.481c-.189-.603-.23-1.278-.121-2.024.109-.747.342-1.385.697-1.915a3.257 3.257 0 0 1 1.344-1.17c.541-.251 1.14-.328 1.798-.232.38.056.745.174 1.097.354.351.181.658.436.92.765.263.326.451.735.563 1.226.112.491.119 1.077.019 1.757l-.069.475-5.619-.821.142-.968 4.48.654c.06-.411.031-.79-.086-1.137a1.884 1.884 0 0 0-.582-.865c-.27-.23-.607-.375-1.012-.434-.446-.065-.848-.011-1.207.163-.354.171-.644.42-.869.745-.226.326-.368.69-.426 1.092l-.095.645c-.08.551-.053 1.031.08 1.442.138.407.363.736.676.985.313.246.695.402 1.148.469.294.043.566.04.815-.007.253-.051.479-.147.677-.289.199-.146.364-.338.496-.577l1.038.462c-.168.35-.406.645-.716.884a2.84 2.84 0 0 1-1.091.5 3.735 3.735 0 0 1-1.366.033zm6.176-1.967.183-1.389.228.034 3.663-2.78 1.386.202-3.9 2.939-.095-.013-1.465 1.007zm-1.432 2.505 1.42-9.719 1.12.164-1.421 9.718-1.119-.163zm4.631.676-2.32-4.022.911-.662 2.833 4.893-1.424-.209zm5.178-9.169-1.421 9.719-1.12-.164 1.421-9.719 1.12.164zm.952 12.857a2.457 2.457 0 0 1-.5-.122 1.312 1.312 0 0 1-.296-.13l.429-.946c.262.11.498.17.71.182a.878.878 0 0 0 .596-.199c.189-.141.378-.386.568-.736l.292-.539-1.625-7.721 1.215.178 1.163 6.102.076.011 2.861-5.514 1.215.177-4.314 7.9a3.212 3.212 0 0 1-.654.859 1.97 1.97 0 0 1-.798.451 2.226 2.226 0 0 1-.938.047zm23.59-5.802-4.786 3.566a.427.427 0 0 1-.313.08.418.418 0 0 1-.278-.166l-3.566-4.786a.424.424 0 0 1 .087-.591.42.42 0 0 1 .591.086l3.313 4.448 4.448-3.314a.431.431 0 0 1 .148-.071.437.437 0 0 1 .32.047.434.434 0 0 1 .193.259.417.417 0 0 1-.157.442z"/><rect width="77.737" height="26.129" x="422.613" y="113.601" stroke="url(#e)" stroke-width=".675" rx="7.765" transform="rotate(8.314 422.613 113.601)"/></g><rect width="263.351" height="171.587" x="259.095" y="67.992" stroke="url(#f)" stroke-width="1.351" rx="22.284" transform="rotate(8.314 259.095 67.992)"/><path fill="url(#g)" d="M0 0h176v176H0z" transform="rotate(8.314 -321.565 1808.567)"/></g><rect width="267.073" height="284.239" x="16.343" y="2.078" fill="url(#h)" rx="22.599"/><path fill="#ADADAD" d="M34.91 42.72V30.767h4.04c.933 0 1.7.16 2.299.478.599.316 1.042.75 1.33 1.302.288.552.432 1.18.432 1.885 0 .704-.144 1.329-.432 1.873-.288.545-.73.973-1.325 1.285-.595.307-1.355.46-2.282.46h-3.268v-1.307h3.222c.638 0 1.151-.093 1.54-.28.393-.187.678-.451.853-.794.179-.346.268-.758.268-1.237 0-.479-.09-.897-.268-1.255a1.83 1.83 0 0 0-.858-.828c-.393-.199-.913-.298-1.559-.298h-2.544V42.72H34.91zm5.627-5.37 2.941 5.37h-1.68l-2.896-5.37h1.635zm8.362 5.556c-.864 0-1.61-.19-2.236-.572a3.84 3.84 0 0 1-1.441-1.61c-.335-.693-.502-1.498-.502-2.417 0-.918.167-1.727.502-2.428.338-.704.81-1.252 1.412-1.645.607-.397 1.315-.596 2.125-.596.466 0 .928.078 1.383.234.455.155.87.408 1.243.758.373.347.671.806.893 1.378.222.572.333 1.276.333 2.113v.583H45.7v-1.19h5.509a2.94 2.94 0 0 0-.304-1.354 2.288 2.288 0 0 0-.852-.94c-.366-.23-.797-.344-1.295-.344-.549 0-1.024.136-1.425.408a2.687 2.687 0 0 0-.916 1.05 3.086 3.086 0 0 0-.32 1.39v.794c0 .677.116 1.25.35 1.721.237.467.566.823.986 1.068.42.242.908.362 1.465.362.361 0 .688-.05.98-.152.296-.105.55-.26.765-.467.214-.21.38-.47.496-.782l1.33.374a2.95 2.95 0 0 1-.706 1.19c-.33.34-.739.604-1.225.794a4.545 4.545 0 0 1-1.64.28zm12.864-9.151-3.315 8.965h-1.4l-3.315-8.965h1.494l2.474 7.144h.094l2.474-7.144h1.495zm5.256 9.151c-.864 0-1.609-.19-2.235-.572a3.84 3.84 0 0 1-1.442-1.61c-.334-.693-.502-1.498-.502-2.417 0-.918.168-1.727.502-2.428.339-.704.81-1.252 1.413-1.645.607-.397 1.315-.596 2.124-.596.467 0 .928.078 1.383.234.456.155.87.408 1.243.758.374.347.672.806.893 1.378.222.572.333 1.276.333 2.113v.583h-6.91v-1.19h5.51a2.94 2.94 0 0 0-.304-1.354 2.288 2.288 0 0 0-.852-.94c-.366-.23-.798-.344-1.296-.344-.549 0-1.023.136-1.424.408a2.687 2.687 0 0 0-.916 1.05 3.086 3.086 0 0 0-.321 1.39v.794c0 .677.116 1.25.35 1.721.237.467.566.823.986 1.068.42.242.909.362 1.465.362.362 0 .689-.05.98-.152.296-.105.551-.26.765-.467.214-.21.38-.47.496-.782l1.331.374a2.95 2.95 0 0 1-.706 1.19c-.33.34-.74.604-1.226.794a4.545 4.545 0 0 1-1.64.28zm7.185-5.58v5.394h-1.378v-8.965h1.331v1.4h.117c.21-.455.529-.82.957-1.096.428-.28.98-.42 1.657-.42.608 0 1.139.124 1.594.373.455.245.81.618 1.062 1.12.253.498.38 1.129.38 1.891v5.697h-1.378v-5.603c0-.704-.183-1.253-.549-1.646-.365-.397-.867-.595-1.505-.595-.44 0-.833.095-1.18.286-.342.19-.612.468-.81.834-.199.366-.298.81-.298 1.33zm13.886 1.728v-5.299h1.377v8.965H88.09v-1.518h-.093a2.94 2.94 0 0 1-.98 1.162c-.444.315-1.005.473-1.682.473-.56 0-1.058-.123-1.494-.368-.436-.25-.778-.623-1.027-1.12-.25-.503-.374-1.135-.374-1.898v-5.696h1.378v5.603c0 .654.183 1.175.548 1.564.37.39.84.584 1.413.584.342 0 .69-.088 1.044-.263.358-.175.658-.443.9-.805.244-.362.367-.823.367-1.384zm7.659 3.852c-.864 0-1.61-.19-2.236-.572a3.84 3.84 0 0 1-1.441-1.61c-.335-.693-.502-1.498-.502-2.417 0-.918.167-1.727.502-2.428.338-.704.81-1.252 1.412-1.645.607-.397 1.315-.596 2.125-.596.467 0 .928.078 1.383.234.455.155.87.408 1.243.758.374.347.671.806.893 1.378.222.572.333 1.276.333 2.113v.583h-6.91v-1.19h5.509a2.94 2.94 0 0 0-.303-1.354 2.288 2.288 0 0 0-.853-.94c-.365-.23-.797-.344-1.295-.344-.549 0-1.024.136-1.424.408a2.687 2.687 0 0 0-.917 1.05 3.086 3.086 0 0 0-.32 1.39v.794c0 .677.116 1.25.35 1.721.237.467.566.823.986 1.068.42.242.908.362 1.465.362.362 0 .688-.05.98-.152.296-.105.55-.26.765-.467.214-.21.38-.47.496-.782l1.33.374c-.14.451-.375.848-.706 1.19-.33.34-.739.604-1.225.794a4.545 4.545 0 0 1-1.64.28z"/><rect width="85.186" height="27.272" x="180.768" y="23.084" fill="url(#i)" rx="7.875"/><path fill="#878786" fill-opacity=".8" d="M188.48 31.259h1.439l3.385 8.268h.117l3.385-8.268h1.44v9.96h-1.129v-7.567h-.097l-3.113 7.568h-1.089l-3.113-7.568h-.097v7.568h-1.128v-9.961zm15.064 10.116c-.675 0-1.267-.16-1.776-.481a3.273 3.273 0 0 1-1.186-1.347c-.282-.578-.424-1.252-.424-2.024 0-.778.142-1.457.424-2.038a3.267 3.267 0 0 1 1.186-1.352c.509-.32 1.101-.481 1.776-.481.674 0 1.264.16 1.77.481a3.22 3.22 0 0 1 1.187 1.352c.285.58.428 1.26.428 2.038 0 .772-.143 1.446-.428 2.024a3.227 3.227 0 0 1-1.187 1.347c-.506.32-1.096.481-1.77.481zm0-1.03c.512 0 .933-.132 1.264-.395a2.32 2.32 0 0 0 .735-1.036c.158-.428.238-.891.238-1.39 0-.5-.08-.965-.238-1.397a2.352 2.352 0 0 0-.735-1.045c-.331-.266-.752-.399-1.264-.399-.513 0-.934.133-1.265.399a2.343 2.343 0 0 0-.734 1.045 4.004 4.004 0 0 0-.239 1.396c0 .5.08.963.239 1.391.158.428.403.774.734 1.036.331.263.752.394 1.265.394zm6.285-3.62v4.495h-1.148v-7.47h1.109v1.166h.097c.175-.379.441-.684.798-.914.356-.233.817-.35 1.381-.35.506 0 .948.104 1.328.311a2.1 2.1 0 0 1 .885.934c.211.415.316.94.316 1.576v4.747h-1.148v-4.67c0-.586-.152-1.043-.457-1.37-.305-.332-.723-.497-1.255-.497a2 2 0 0 0-.982.238c-.286.16-.511.391-.676.696-.166.305-.248.674-.248 1.109zm10.112-2.976v.973h-3.871v-.973h3.871zm-2.743-1.79h1.148v7.12c0 .325.047.568.141.73a.732.732 0 0 0 .37.321c.152.052.313.078.481.078.127 0 .23-.006.312-.02l.194-.038.234 1.03a2.1 2.1 0 0 1-.326.088c-.14.033-.316.049-.53.049-.325 0-.642-.07-.954-.21a1.891 1.891 0 0 1-.768-.636c-.201-.286-.302-.645-.302-1.08v-7.432zm5.778 4.767v4.494h-1.148v-9.961h1.148v3.657h.098a2.11 2.11 0 0 1 .787-.919c.354-.23.824-.345 1.411-.345.509 0 .955.102 1.337.306.383.201.68.511.89.93.214.414.321.943.321 1.585v4.747h-1.147v-4.67c0-.593-.154-1.051-.462-1.376-.305-.327-.728-.491-1.27-.491-.376 0-.713.08-1.011.238-.296.16-.529.391-.701.696-.168.305-.253.674-.253 1.109zm8.092-5.467v9.96h-1.148v-9.96h1.148zm2.842 12.762c-.195 0-.368-.016-.521-.048a1.387 1.387 0 0 1-.316-.088l.292-1.012c.279.072.525.098.739.078a.885.885 0 0 0 .569-.287c.169-.168.323-.442.462-.822l.214-.583-2.762-7.51h1.245l2.062 5.953h.078l2.062-5.953h1.245l-3.171 8.56a3.24 3.24 0 0 1-.53.958 1.994 1.994 0 0 1-.734.57 2.267 2.267 0 0 1-.934.184zm23.274-8.711-4.28 4.28a.431.431 0 0 1-.467.093.431.431 0 0 1-.139-.093l-4.28-4.28a.43.43 0 0 1 .303-.73.43.43 0 0 1 .303.125l3.977 3.977 3.977-3.977a.431.431 0 0 1 .606 0 .43.43 0 0 1 0 .605z"/><rect width="85.186" height="27.272" x="180.768" y="23.084" stroke="url(#j)" stroke-width=".685" rx="7.875"/><g clip-path="url(#k)"><path fill="#1A1A1A" d="M38.941 160.224h20.266v92.538H38.94v-92.538z"/></g><path fill="#878786" fill-opacity=".5" d="M43.854 265.893v-4.531h.844v4.531c0 .422-.086.778-.26 1.068-.172.29-.41.511-.716.664a2.323 2.323 0 0 1-1.041.224c-.393 0-.741-.068-1.046-.203a1.57 1.57 0 0 1-.716-.615c-.173-.275-.26-.622-.26-1.041h.849c0 .269.05.49.149.663.1.173.237.301.413.383.179.082.382.123.61.123.224 0 .423-.047.599-.141.178-.097.319-.239.421-.426.103-.191.154-.424.154-.699zm5.059 1.055V264.5a.992.992 0 0 0-.115-.488.75.75 0 0 0-.334-.325 1.213 1.213 0 0 0-.553-.114c-.205 0-.386.035-.54.105a.951.951 0 0 0-.361.277.605.605 0 0 0-.128.369h-.813c0-.17.044-.338.132-.505.088-.167.214-.318.378-.453a1.9 1.9 0 0 1 .598-.325c.234-.082.495-.123.782-.123.346 0 .65.059.914.176.267.117.475.294.624.531.152.235.229.529.229.884v2.215c0 .158.013.326.04.505.028.179.07.333.127.461v.071h-.849a1.529 1.529 0 0 1-.096-.374 2.994 2.994 0 0 1-.035-.439zm.14-2.07.009.571h-.822c-.231 0-.438.019-.62.057-.181.036-.333.09-.456.163a.734.734 0 0 0-.378.659c0 .15.033.286.1.409a.734.734 0 0 0 .304.294c.138.071.306.106.505.106.25 0 .47-.053.66-.158.19-.106.34-.235.452-.387a.833.833 0 0 0 .185-.444l.347.391c-.02.123-.076.259-.167.409a1.969 1.969 0 0 1-.9.769 1.745 1.745 0 0 1-.695.132c-.323 0-.605-.063-.849-.189a1.452 1.452 0 0 1-.562-.506 1.336 1.336 0 0 1-.198-.716c0-.255.05-.479.15-.672a1.3 1.3 0 0 1 .43-.488c.188-.132.413-.232.677-.299.264-.067.558-.101.883-.101h.945zm2.861-.857v3.74h-.813v-4.755h.77l.043 1.015zm-.193 1.182-.338-.013a2.8 2.8 0 0 1 .145-.901 2.25 2.25 0 0 1 .395-.725c.17-.205.372-.363.606-.475.238-.114.5-.171.787-.171.234 0 .445.032.633.097.188.061.347.161.479.298.135.138.237.317.308.537.07.216.105.482.105.795v3.116h-.817v-3.125c0-.249-.037-.448-.11-.597a.672.672 0 0 0-.321-.33 1.156 1.156 0 0 0-.519-.105 1.2 1.2 0 0 0-.553.127 1.32 1.32 0 0 0-.427.352c-.117.149-.209.32-.276.514a1.86 1.86 0 0 0-.097.606z"/><g clip-path="url(#l)"><path fill="#1A1A1A" d="M68.045 217.151h19.174v35.61H68.045v-35.61z"/></g><path fill="#878786" fill-opacity=".5" d="M71.687 261.362v6.399h-.848v-6.399h.848zm2.68 2.879v.694h-2.865v-.694h2.865zm.435-2.879v.695h-3.3v-.695h3.3zm2.862 6.487a2.34 2.34 0 0 1-.901-.167 2.053 2.053 0 0 1-.69-.479 2.133 2.133 0 0 1-.44-.73 2.676 2.676 0 0 1-.153-.923v-.184c0-.387.057-.731.17-1.033.115-.305.27-.562.467-.773.196-.211.419-.371.668-.479.249-.109.507-.163.773-.163.34 0 .633.059.879.176a1.6 1.6 0 0 1 .61.492c.16.208.276.454.352.738.077.281.115.589.115.923v.365h-3.551v-.664H78.7v-.061a2.036 2.036 0 0 0-.132-.616 1.107 1.107 0 0 0-.352-.492c-.16-.129-.38-.193-.659-.193a1.1 1.1 0 0 0-.91.461 1.74 1.74 0 0 0-.259.558c-.061.22-.092.474-.092.761v.184c0 .226.03.438.092.638.065.196.157.369.277.518.123.149.271.267.444.352.176.085.375.127.597.127.288 0 .53-.059.73-.176.2-.117.374-.274.523-.47l.492.391a2.293 2.293 0 0 1-.391.444 1.862 1.862 0 0 1-.584.343 2.26 2.26 0 0 1-.813.132zm2.891-6.838h.818v5.827l-.07.923h-.748v-6.75zm4.03 4.333v.092c0 .346-.04.667-.123.962a2.369 2.369 0 0 1-.36.765 1.675 1.675 0 0 1-.58.505 1.658 1.658 0 0 1-.787.181 1.93 1.93 0 0 1-.795-.154 1.573 1.573 0 0 1-.572-.453 2.328 2.328 0 0 1-.373-.712 4.484 4.484 0 0 1-.19-.94v-.404a4.48 4.48 0 0 1 .19-.945 2.34 2.34 0 0 1 .373-.712c.156-.199.346-.35.572-.453a1.84 1.84 0 0 1 .786-.158c.3 0 .564.059.796.176.231.114.424.278.58.492.158.214.278.47.36.769.082.296.123.625.123.989zm-.817.092v-.092c0-.238-.022-.46-.066-.668a1.732 1.732 0 0 0-.211-.554 1.053 1.053 0 0 0-.382-.378 1.126 1.126 0 0 0-.585-.14c-.205 0-.384.035-.536.105-.15.07-.277.166-.382.286a1.516 1.516 0 0 0-.26.404 2.32 2.32 0 0 0-.145.466v1.059c.047.205.124.403.229.593.108.188.252.341.43.462.182.12.406.18.673.18.22 0 .407-.044.562-.132.159-.091.286-.215.383-.374.1-.158.173-.341.22-.549a3.09 3.09 0 0 0 .07-.668z"/><g clip-path="url(#m)"><path fill="#1A1A1A" d="M97.15 179.799h20.266v72.963H97.15v-72.963z"/></g><path fill="#878786" fill-opacity=".5" d="M101.532 261.363h.822l2.096 5.217 2.092-5.217h.826l-2.602 6.399h-.641l-2.593-6.399zm-.268 0h.725l.119 3.903v2.496h-.844v-6.399zm5.643 0h.725v6.399h-.844v-2.496l.119-3.903zm4.992 5.586v-2.448a.994.994 0 0 0-.114-.488.756.756 0 0 0-.334-.325 1.215 1.215 0 0 0-.554-.114c-.205 0-.385.035-.541.105a.953.953 0 0 0-.36.277.605.605 0 0 0-.127.369h-.813c0-.17.044-.338.132-.505.087-.167.213-.318.377-.453.167-.138.367-.246.598-.325.234-.082.495-.123.782-.123.346 0 .651.059.914.176.267.117.475.294.624.531.153.235.229.529.229.884v2.215c0 .158.013.326.039.505.03.179.072.332.128.461v.071h-.848a1.555 1.555 0 0 1-.097-.374 3.074 3.074 0 0 1-.035-.439zm.141-2.07.008.571h-.821c-.232 0-.438.019-.62.057-.182.035-.334.09-.457.163a.728.728 0 0 0-.378.659c0 .15.034.286.101.409a.735.735 0 0 0 .303.294c.138.071.306.106.506.106a1.367 1.367 0 0 0 1.111-.545.833.833 0 0 0 .185-.444l.347.391c-.02.123-.076.259-.167.409a1.962 1.962 0 0 1-.901.769 1.742 1.742 0 0 1-.694.132c-.322 0-.605-.063-.848-.189a1.456 1.456 0 0 1-.563-.506 1.343 1.343 0 0 1-.197-.716c0-.255.049-.479.149-.672.1-.197.243-.359.431-.488.187-.132.413-.232.676-.299.264-.067.559-.101.884-.101h.945zm2.861-1.125v4.008h-.813v-4.755h.791l.022.747zm1.485-.774-.004.756a1.265 1.265 0 0 0-.194-.026 1.998 1.998 0 0 0-.202-.009c-.187 0-.353.029-.497.088a1.037 1.037 0 0 0-.364.246c-.1.106-.179.232-.238.378a1.825 1.825 0 0 0-.109.475l-.229.132c0-.288.028-.557.084-.809.058-.252.148-.475.268-.668.12-.196.272-.349.457-.457a1.286 1.286 0 0 1 1.028-.106z"/><g clip-path="url(#n)"><path fill="#6F8EFF" d="M126.254 110.395h20.265v142.366h-20.265V110.395z"/></g><path fill="#878786" fill-opacity=".5" d="m133.15 261.93-2.118 5.832h-.866l2.439-6.399h.558l-.013.567zm1.776 5.832-2.123-5.832-.013-.567h.558l2.448 6.399h-.87zm-.11-2.369v.694h-3.595v-.694h3.595zm2.623-1.472v5.669h-.817v-6.583h.747l.07.914zm3.204 1.424v.092c0 .346-.041.667-.123.962a2.373 2.373 0 0 1-.36.765 1.647 1.647 0 0 1-.576.505 1.658 1.658 0 0 1-.787.181c-.301 0-.568-.05-.799-.15a1.56 1.56 0 0 1-.589-.435 2.231 2.231 0 0 1-.387-.685 3.952 3.952 0 0 1-.193-.901v-.492c.035-.352.101-.667.197-.945.097-.279.224-.516.383-.712a1.58 1.58 0 0 1 .584-.453c.229-.105.492-.158.791-.158.299 0 .564.059.796.176.231.114.426.278.584.492.158.214.277.47.356.769.082.296.123.625.123.989zm-.817.092v-.092c0-.238-.025-.46-.075-.668a1.68 1.68 0 0 0-.233-.554 1.108 1.108 0 0 0-.395-.378 1.125 1.125 0 0 0-.576-.141 1.146 1.146 0 0 0-.919.392 1.543 1.543 0 0 0-.259.404 2.333 2.333 0 0 0-.145.466v1.138c.059.205.141.398.246.58.106.179.246.324.422.435.176.108.397.163.664.163.219 0 .408-.046.567-.137.161-.093.293-.221.395-.382.106-.161.183-.346.233-.554.05-.211.075-.435.075-.672zm2.764-1.683v4.008h-.813v-4.755h.791l.022.747zm1.485-.774-.004.756a2.012 2.012 0 0 0-.395-.035c-.188 0-.354.029-.497.088a1.04 1.04 0 0 0-.365.246 1.195 1.195 0 0 0-.237.378 1.826 1.826 0 0 0-.11.475l-.228.132c0-.288.027-.557.083-.809a2.21 2.21 0 0 1 .268-.668c.12-.196.273-.349.457-.457a1.289 1.289 0 0 1 1.028-.106z"/><g clip-path="url(#o)"><path fill="#1A1A1A" d="M155.357 145.986h20.266v106.775h-20.266V145.986z"/></g><path fill="#878786" fill-opacity=".5" d="M159.168 261.363h.822l2.096 5.217 2.092-5.217h.826l-2.602 6.399h-.641l-2.593-6.399zm-.268 0h.725l.118 3.903v2.496h-.843v-6.399zm5.642 0h.725v6.399h-.843v-2.496l.118-3.903zm4.993 5.586v-2.448a.984.984 0 0 0-.115-.488.746.746 0 0 0-.334-.325 1.21 1.21 0 0 0-.553-.114c-.205 0-.386.035-.541.105a.953.953 0 0 0-.36.277.606.606 0 0 0-.128.369h-.813c0-.17.044-.338.132-.505.088-.167.214-.318.378-.453.167-.138.366-.246.598-.325.234-.082.495-.123.782-.123.346 0 .65.059.914.176.267.117.475.294.624.531.152.235.229.529.229.884v2.215c0 .158.013.326.039.505.03.179.072.332.128.461v.071h-.848a1.466 1.466 0 0 1-.097-.374 2.935 2.935 0 0 1-.035-.439zm.14-2.07.009.571h-.822c-.231 0-.438.019-.619.057-.182.035-.334.09-.457.163a.773.773 0 0 0-.282.277.737.737 0 0 0-.096.382c0 .15.033.286.101.409a.729.729 0 0 0 .303.294c.138.071.306.106.505.106a1.367 1.367 0 0 0 1.112-.545.841.841 0 0 0 .185-.444l.347.391a1.193 1.193 0 0 1-.167.409 1.962 1.962 0 0 1-.901.769 1.742 1.742 0 0 1-.694.132c-.323 0-.605-.063-.848-.189a1.45 1.45 0 0 1-.563-.506 1.335 1.335 0 0 1-.198-.716c0-.255.05-.479.15-.672.099-.197.243-.359.43-.488.188-.132.413-.232.677-.299.264-.067.558-.101.883-.101h.945zm3.314 2.391 1.323-4.263h.87l-1.907 5.489a3.096 3.096 0 0 1-.176.378c-.07.137-.161.268-.273.391a1.29 1.29 0 0 1-.404.298c-.155.08-.341.119-.558.119a2.405 2.405 0 0 1-.457-.07l-.004-.659c.023.003.06.005.109.008a1.33 1.33 0 0 0 .581-.065.72.72 0 0 0 .325-.242 1.45 1.45 0 0 0 .233-.462l.338-.922zm-.971-4.263 1.235 3.691.211.857-.585.299-1.749-4.847h.888z"/><g clip-path="url(#p)"><path fill="#1A1A1A" d="M184.461 210.052h20.265v42.71h-20.265v-42.71z"/></g><path fill="#878786" fill-opacity=".5" d="M190.708 265.894v-4.531h.844v4.531c0 .422-.087.778-.26 1.068-.173.29-.411.511-.716.663-.302.15-.649.225-1.042.225-.392 0-.741-.068-1.045-.203a1.572 1.572 0 0 1-.717-.615c-.173-.275-.259-.622-.259-1.041h.848c0 .269.05.49.15.663a.91.91 0 0 0 .413.383c.178.082.382.123.61.123.223 0 .422-.047.598-.141.179-.097.319-.239.422-.426.103-.191.154-.424.154-.699zm5.164.769v-3.656h.817v4.755h-.778l-.039-1.099zm.153-1.002.339-.009c0 .317-.034.61-.101.879-.065.267-.17.498-.317.695-.146.196-.338.35-.575.461a2.085 2.085 0 0 1-.866.163 1.93 1.93 0 0 1-.637-.101 1.289 1.289 0 0 1-.493-.312 1.428 1.428 0 0 1-.32-.55 2.62 2.62 0 0 1-.11-.813v-3.067h.813v3.076c0 .214.023.391.07.532.05.137.116.247.198.329a.734.734 0 0 0 .281.167c.106.033.214.049.325.049.346 0 .62-.066.822-.198.202-.135.347-.315.435-.541.091-.228.136-.482.136-.76zm2.813-1.639v3.74h-.813v-4.755h.769l.044 1.015zm-.193 1.182-.339-.013c.003-.325.052-.626.145-.901.094-.278.226-.52.396-.725.17-.205.372-.363.606-.475.238-.114.5-.171.787-.171.234 0 .445.032.633.097.187.061.347.161.479.298.135.138.237.317.307.537.071.216.106.482.106.795v3.116h-.818v-3.125c0-.249-.036-.448-.109-.597a.678.678 0 0 0-.321-.33 1.16 1.16 0 0 0-.519-.106 1.2 1.2 0 0 0-.553.128 1.33 1.33 0 0 0-.427.351 1.792 1.792 0 0 0-.373 1.121z"/><g clip-path="url(#q)"><path fill="#1A1A1A" d="M213.566 129.97h20.266v122.791h-20.266V129.97z"/></g><path fill="#878786" fill-opacity=".5" d="M219.706 265.893v-4.531h.844v4.531c0 .422-.086.778-.259 1.068a1.71 1.71 0 0 1-.717.664 2.317 2.317 0 0 1-1.041.224c-.393 0-.741-.068-1.046-.203a1.57 1.57 0 0 1-.716-.615c-.173-.275-.26-.622-.26-1.041h.849c0 .269.049.49.149.663.1.173.237.301.413.383.179.082.382.123.611.123.223 0 .422-.047.598-.141a1.05 1.05 0 0 0 .422-.426c.102-.191.153-.424.153-.699zm5.164.769v-3.656h.818v4.755h-.778l-.04-1.099zm.154-1.002.338-.009c0 .317-.033.61-.101.879-.064.267-.17.498-.316.695-.147.196-.339.35-.576.461a2.081 2.081 0 0 1-.866.163c-.231 0-.443-.034-.637-.101a1.293 1.293 0 0 1-.492-.312 1.417 1.417 0 0 1-.321-.55 2.651 2.651 0 0 1-.11-.813v-3.067h.813v3.076c0 .214.024.391.071.532a.874.874 0 0 0 .197.329.73.73 0 0 0 .282.167c.105.033.214.049.325.049.346 0 .619-.066.822-.198.202-.135.347-.315.435-.541.091-.228.136-.482.136-.76zm2.883-4.649v6.75h-.817v-6.75h.817z"/><g clip-path="url(#r)"><path fill="#1A1A1A" d="M242.67 178.803h19.174v73.958H242.67v-73.958z"/></g><path fill="#878786" fill-opacity=".5" d="m249.635 261.929-2.119 5.832h-.865l2.439-6.399h.558l-.013.567zm1.775 5.832-2.123-5.832-.013-.567h.558l2.448 6.399h-.87zm-.11-2.369v.694h-3.595v-.694h3.595zm4.667 1.27v-3.656h.818v4.755h-.778l-.04-1.099zm.154-1.002.338-.009c0 .317-.033.61-.101.879-.064.267-.17.498-.316.695-.146.196-.338.35-.576.461a2.08 2.08 0 0 1-.865.163 1.94 1.94 0 0 1-.638-.101 1.293 1.293 0 0 1-.492-.312 1.43 1.43 0 0 1-.321-.55 2.653 2.653 0 0 1-.109-.813v-3.067h.813v3.076c0 .214.023.391.07.532.05.137.116.247.198.329a.727.727 0 0 0 .281.167c.105.033.214.049.325.049.346 0 .62-.066.822-.198.202-.135.347-.315.435-.541.091-.228.136-.482.136-.76zm5.08-2.654h.739v4.654c0 .419-.085.776-.255 1.072-.17.296-.407.52-.712.672a2.248 2.248 0 0 1-1.046.233c-.164 0-.357-.026-.58-.079a2.33 2.33 0 0 1-.65-.259 1.62 1.62 0 0 1-.532-.488l.426-.483c.199.24.407.407.624.501.22.093.437.14.65.14.258 0 .481-.048.668-.145.188-.096.333-.24.435-.43.106-.188.159-.419.159-.695v-3.647l.074-1.046zm-3.274 2.43v-.092c0-.364.043-.693.128-.989.088-.299.212-.555.373-.769a1.678 1.678 0 0 1 1.376-.668c.299 0 .56.053.782.158.226.103.416.254.571.453.159.196.283.433.374.712.091.278.154.593.189.945v.404a4.115 4.115 0 0 1-.189.94 2.198 2.198 0 0 1-.374.712 1.566 1.566 0 0 1-.571.453 1.902 1.902 0 0 1-.791.154c-.284 0-.542-.06-.773-.181a1.752 1.752 0 0 1-.589-.505 2.401 2.401 0 0 1-.378-.765 3.464 3.464 0 0 1-.128-.962zm.813-.092v.092c0 .237.024.46.071.668.05.208.124.391.224.549.102.159.233.283.391.374.158.088.347.132.567.132.269 0 .492-.057.668-.172.176-.114.315-.265.417-.452a2.57 2.57 0 0 0 .246-.611v-1.059a2.164 2.164 0 0 0-.149-.466 1.414 1.414 0 0 0-.255-.404 1.097 1.097 0 0 0-.382-.286 1.275 1.275 0 0 0-.536-.105c-.223 0-.415.046-.576.14a1.121 1.121 0 0 0-.391.378c-.1.158-.174.343-.224.554-.047.208-.071.43-.071.668z"/><mask id="u" fill="#fff"><path fill-rule="evenodd" d="M112.308 64.927c-2.148 2.958-2.148 7.176-2.148 15.613 0 8.436 0 12.655 2.148 15.612a11.264 11.264 0 0 0 2.491 2.491c2.958 2.148 7.176 2.148 15.613 2.148.981 0 1.905.462 2.495 1.246l2.959 3.932a.686.686 0 0 0 1.095 0l2.413-3.207a4.942 4.942 0 0 1 3.949-1.971c8.437 0 12.655 0 15.613-2.148a11.264 11.264 0 0 0 2.491-2.49c2.148-2.958 2.148-7.177 2.148-15.613 0-8.437 0-12.655-2.148-15.613a11.264 11.264 0 0 0-2.491-2.49c-2.958-2.149-7.176-2.149-15.613-2.149h-12.911c-8.437 0-12.655 0-15.613 2.148a11.264 11.264 0 0 0-2.491 2.491z" clip-rule="evenodd"/></mask><path fill="url(#s)" fill-rule="evenodd" d="M112.308 64.927c-2.148 2.958-2.148 7.176-2.148 15.613 0 8.436 0 12.655 2.148 15.612a11.264 11.264 0 0 0 2.491 2.491c2.958 2.148 7.176 2.148 15.613 2.148.981 0 1.905.462 2.495 1.246l2.959 3.932a.686.686 0 0 0 1.095 0l2.413-3.207a4.942 4.942 0 0 1 3.949-1.971c8.437 0 12.655 0 15.613-2.148a11.264 11.264 0 0 0 2.491-2.49c2.148-2.958 2.148-7.177 2.148-15.613 0-8.437 0-12.655-2.148-15.613a11.264 11.264 0 0 0-2.491-2.49c-2.958-2.149-7.176-2.149-15.613-2.149h-12.911c-8.437 0-12.655 0-15.613 2.148a11.264 11.264 0 0 0-2.491 2.491z" clip-rule="evenodd"/><path fill="url(#t)" d="m112.308 64.927.759.551-.759-.55zm0 31.225-.758.551.758-.55zm2.491 2.491.551-.758-.551.758zm21.067 7.326-.749.564.749-.564zm1.095 0 .749.564-.749-.564zm21.975-7.326.551.759-.551-.759zm2.491-2.49.758.55-.758-.55zm0-31.226-.759.551.759-.55zm-2.491-2.49.551-.76-.551.76zm-44.137 0 .551.758-.551-.759zm18.108 39.6.75-.564-.75.564zM111.098 80.54c0-4.24.001-7.344.263-9.76.26-2.4.767-4.01 1.706-5.302l-1.517-1.102c-1.21 1.665-1.776 3.643-2.054 6.202-.275 2.54-.273 5.764-.273 9.962h1.875zm1.969 15.061c-.939-1.292-1.446-2.902-1.706-5.301-.262-2.417-.263-5.521-.263-9.76h-1.875c0 4.197-.002 7.42.273 9.962.278 2.558.844 4.536 2.054 6.201l1.517-1.102zm2.283 2.284a10.307 10.307 0 0 1-2.283-2.284l-1.517 1.102a12.197 12.197 0 0 0 2.698 2.699l1.102-1.517zm15.062 1.969c-4.239 0-7.344-.001-9.76-.263-2.399-.26-4.009-.768-5.302-1.706l-1.102 1.517c1.665 1.209 3.643 1.776 6.202 2.053 2.541.275 5.764.274 9.962.274v-1.875zm6.204 5.551-2.959-3.932-1.499 1.127 2.959 3.933 1.499-1.128zm-.405 0a.254.254 0 0 1 .405 0l-1.499 1.128a1.623 1.623 0 0 0 2.593 0l-1.499-1.128zm2.414-3.207-2.414 3.207 1.499 1.128 2.413-3.207-1.498-1.128zm19.759-4.313c-1.292.938-2.902 1.446-5.301 1.706-2.417.262-5.521.263-9.76.263v1.875c4.198 0 7.421.001 9.962-.274 2.559-.277 4.536-.844 6.202-2.053l-1.103-1.517zm2.284-2.284a10.312 10.312 0 0 1-2.284 2.284l1.103 1.517a12.197 12.197 0 0 0 2.698-2.699l-1.517-1.102zm1.969-15.061c0 4.239-.001 7.343-.263 9.76-.26 2.399-.767 4.009-1.706 5.301l1.517 1.102c1.21-1.665 1.776-3.643 2.053-6.201.276-2.541.274-5.765.274-9.962h-1.875zm-1.969-15.062c.939 1.293 1.446 2.903 1.706 5.302.262 2.416.263 5.52.263 9.76h1.875c0-4.198.002-7.421-.274-9.962-.277-2.559-.843-4.537-2.053-6.202l-1.517 1.102zm-2.284-2.283a10.312 10.312 0 0 1 2.284 2.283l1.517-1.102a12.197 12.197 0 0 0-2.698-2.698l-1.103 1.517zm-15.061-1.97c4.239 0 7.343.002 9.76.264 2.399.26 4.009.767 5.301 1.706l1.103-1.517c-1.666-1.21-3.643-1.776-6.202-2.054-2.541-.275-5.764-.274-9.962-.274v1.876zm-12.911 0h12.911V59.35h-12.911v1.876zm-15.062 1.97c1.293-.939 2.903-1.446 5.302-1.706 2.416-.262 5.521-.263 9.76-.263V59.35c-4.198 0-7.421 0-9.962.274-2.559.278-4.537.844-6.202 2.054l1.102 1.517zm-2.283 2.283a10.307 10.307 0 0 1 2.283-2.283l-1.102-1.517a12.197 12.197 0 0 0-2.698 2.698l1.517 1.102zm27.056 37.848a4.004 4.004 0 0 1 3.2-1.597v-1.875a5.88 5.88 0 0 0-4.698 2.344l1.498 1.128zm-9.711-1.597c.686 0 1.333.323 1.746.871l1.499-1.127a4.06 4.06 0 0 0-3.245-1.62v1.876z" mask="url(#u)"/><path fill="#fff" d="M126.557 68.814v11.953h-1.448V70.33h-.07l-2.918 1.938v-1.47l2.988-1.985h1.448zm3.758 12.046a1.01 1.01 0 0 1-.741-.31 1.012 1.012 0 0 1-.309-.74c0-.288.103-.536.309-.742a1.01 1.01 0 0 1 .741-.31c.288 0 .535.104.742.31.206.206.309.454.309.741a.995.995 0 0 1-.146.526 1.09 1.09 0 0 1-.379.385c-.156.093-.331.14-.526.14zm3.499-.093v-1.05l3.946-4.32c.463-.506.844-.945 1.144-1.319.299-.377.521-.731.665-1.062a2.57 2.57 0 0 0 .222-1.05c0-.42-.101-.785-.304-1.092a1.968 1.968 0 0 0-.817-.712 2.646 2.646 0 0 0-1.167-.251c-.459 0-.86.095-1.202.286-.339.187-.602.45-.788.788-.183.338-.275.735-.275 1.19h-1.377c0-.7.161-1.315.484-1.844a3.364 3.364 0 0 1 1.319-1.237c.561-.296 1.189-.444 1.886-.444.7 0 1.32.148 1.861.444.541.296.965.694 1.273 1.196.307.502.461 1.06.461 1.675 0 .44-.08.87-.24 1.29-.155.416-.428.882-.817 1.395-.385.51-.92 1.132-1.605 1.868l-2.684 2.871v.094h5.556v1.284h-7.541zm11.259-3.269-.024-1.704h.28l3.922-3.992h1.705l-4.179 4.225h-.117l-1.587 1.471zm-1.284 3.269V68.814h1.377v11.953h-1.377zm5.696 0-3.502-4.436.981-.957 4.272 5.393h-1.751z"/><path fill="#ADADAD" d="M128.586 92.642h-.759l2.195-5.977h.747l2.194 5.977h-.758l-1.786-5.031h-.047l-1.786 5.03zm.28-2.335h3.058v.642h-3.058v-.642zm4.935 4.016v-6.164h.665v.712h.082a6.11 6.11 0 0 1 .21-.297 1.23 1.23 0 0 1 .391-.327c.171-.097.403-.146.695-.146.377 0 .71.094.998.283.288.189.512.456.674.802.161.347.242.755.242 1.226 0 .475-.081.886-.242 1.234a1.921 1.921 0 0 1-.671.806 1.756 1.756 0 0 1-.99.283c-.288 0-.518-.048-.691-.143a1.269 1.269 0 0 1-.4-.33 4.044 4.044 0 0 1-.216-.31h-.058v2.37h-.689zm.677-3.923c0 .339.049.638.149.896.099.257.244.458.434.604.191.144.425.216.701.216.288 0 .528-.076.721-.227.194-.154.34-.36.437-.619.1-.26.149-.55.149-.87 0-.315-.048-.599-.146-.852a1.311 1.311 0 0 0-.435-.604c-.192-.15-.434-.224-.726-.224-.28 0-.516.07-.706.213a1.27 1.27 0 0 0-.432.59c-.098.25-.146.543-.146.877zm4.33 2.242v-4.483h.666v.677h.046c.082-.221.23-.401.444-.54.214-.138.455-.207.724-.207a7.778 7.778 0 0 1 .362.012v.7a2.075 2.075 0 0 0-.161-.026 1.583 1.583 0 0 0-.26-.02 1.22 1.22 0 0 0-.583.137c-.169.09-.304.214-.403.373a1.009 1.009 0 0 0-.146.54v2.837h-.689zm3.058 0v-4.483h.689v4.483h-.689zm.35-5.23a.489.489 0 0 1-.347-.137.442.442 0 0 1-.143-.33c0-.128.048-.238.143-.33a.49.49 0 0 1 .347-.137c.134 0 .249.046.345.138a.437.437 0 0 1 .145.33.436.436 0 0 1-.145.329.482.482 0 0 1-.345.137zm2.289-.747v5.977h-.689v-5.977h.689z"/><rect width="267.073" height="284.239" x="16.343" y="2.078" stroke="url(#v)" stroke-width="1.37" rx="22.599"/><defs><linearGradient id="b" x1="210.659" x2="377.292" y1="34.711" y2="321.422" gradientUnits="userSpaceOnUse"><stop offset=".064" stop-color="#1A1A1A"/><stop offset=".499" stop-color="#101010"/><stop offset="1" stop-color="#101010" stop-opacity=".24"/></linearGradient><linearGradient id="d" x1="409.826" x2="477.895" y1="103.261" y2="124.988" gradientUnits="userSpaceOnUse"><stop stop-color="#363636"/><stop offset=".586" stop-color="#1A1A1A"/></linearGradient><linearGradient id="e" x1="416.445" x2="455.616" y1="111.158" y2="159.688" gradientUnits="userSpaceOnUse"><stop offset=".007" stop-color="#373737"/><stop offset="1" stop-color="#2F2F2F" stop-opacity="0"/></linearGradient><linearGradient id="f" x1="242.288" x2="549.763" y1="28.654" y2="183.035" gradientUnits="userSpaceOnUse"><stop stop-color="#2F2F2F"/><stop offset="1" stop-color="#2F2F2F" stop-opacity=".1"/></linearGradient><linearGradient id="g" x1="23.068" x2="209.792" y1="77.129" y2="77.306" gradientUnits="userSpaceOnUse"><stop stop-color="#101010"/><stop offset=".824" stop-color="#101010" stop-opacity="0"/></linearGradient><linearGradient id="h" x1="-32.672" x2="285.611" y1="-53.811" y2="280.429" gradientUnits="userSpaceOnUse"><stop offset=".064" stop-color="#1A1A1A"/><stop offset=".499" stop-color="#101010"/><stop offset="1" stop-color="#101010"/></linearGradient><linearGradient id="i" x1="166.734" x2="240.579" y1="12.356" y2="37.104" gradientUnits="userSpaceOnUse"><stop stop-color="#363636"/><stop offset=".586" stop-color="#1A1A1A"/></linearGradient><linearGradient id="j" x1="173.983" x2="214.374" y1="20.593" y2="73.135" gradientUnits="userSpaceOnUse"><stop offset=".007" stop-color="#373737"/><stop offset="1" stop-color="#2F2F2F" stop-opacity="0"/></linearGradient><linearGradient id="s" x1="112.425" x2="153.053" y1="41.09" y2="58.927" gradientUnits="userSpaceOnUse"><stop stop-color="#363636"/><stop offset=".47" stop-color="#1A1A1A"/></linearGradient><linearGradient id="t" x1="106.152" x2="159.586" y1="56.916" y2="84.468" gradientUnits="userSpaceOnUse"><stop offset=".007" stop-color="#373737"/><stop offset="1" stop-color="#2F2F2F" stop-opacity="0"/></linearGradient><linearGradient id="v" x1="-.596" x2="356.317" y1="-63.875" y2="45.498" gradientUnits="userSpaceOnUse"><stop stop-color="#2F2F2F"/><stop offset="1" stop-color="#2F2F2F" stop-opacity=".1"/></linearGradient><clipPath id="a"><rect width="262" height="170.236" x="259.666" y="68.758" fill="#fff" rx="21.608" transform="rotate(8.314 259.666 68.758)"/></clipPath><clipPath id="c"><rect width="87.206" height="19.103" x="258.652" y="187.77" fill="#fff" rx="5.402" transform="rotate(8.314 258.652 187.77)"/></clipPath><clipPath id="k"><path fill="#fff" d="M38.941 167.619c0-3.081 0-4.622.785-5.702a4.13 4.13 0 0 1 .91-.909c1.08-.784 2.62-.784 5.701-.784h5.474c3.081 0 4.622 0 5.702.784.349.254.656.561.91.909.784 1.08.784 2.621.784 5.702v85.143H38.94v-85.143z"/></clipPath><clipPath id="l"><path fill="#fff" d="M68.045 224.547c0-3.081 0-4.622.785-5.702.253-.349.56-.655.909-.909 1.08-.785 2.62-.785 5.702-.785h4.382c3.082 0 4.623 0 5.703.785.349.254.655.56.909.909.784 1.08.784 2.621.784 5.702v28.214H68.045v-28.214z"/></clipPath><clipPath id="m"><path fill="#fff" d="M97.15 187.195c0-3.082 0-4.622.785-5.702.254-.349.56-.656.91-.909 1.08-.785 2.62-.785 5.701-.785h5.474c3.081 0 4.622 0 5.702.785.349.253.656.56.909.909.785 1.08.785 2.62.785 5.702v65.567H97.15v-65.567z"/></clipPath><clipPath id="n"><path fill="#fff" d="M126.254 117.79c0-3.081 0-4.622.785-5.702.253-.349.56-.655.909-.909 1.08-.784 2.62-.784 5.702-.784h5.474c3.081 0 4.622 0 5.702.784.349.254.655.56.909.909.784 1.08.784 2.621.784 5.702v134.971h-20.265V117.79z"/></clipPath><clipPath id="o"><path fill="#fff" d="M155.357 153.382c0-3.081 0-4.622.785-5.702.254-.349.56-.656.909-.909 1.08-.785 2.621-.785 5.702-.785h5.474c3.081 0 4.622 0 5.702.785.349.253.656.56.909.909.785 1.08.785 2.621.785 5.702v99.379h-20.266v-99.379z"/></clipPath><clipPath id="p"><path fill="#fff" d="M184.461 217.448c0-3.082 0-4.622.785-5.703.253-.348.56-.655.909-.909 1.08-.784 2.62-.784 5.702-.784h5.474c3.081 0 4.622 0 5.702.784.349.254.655.561.909.909.784 1.081.784 2.621.784 5.703v35.314h-20.265v-35.314z"/></clipPath><clipPath id="q"><path fill="#fff" d="M213.566 137.366c0-3.082 0-4.622.785-5.703.254-.348.56-.655.909-.909 1.08-.784 2.621-.784 5.702-.784h5.474c3.081 0 4.622 0 5.702.784.349.254.656.561.909.909.785 1.081.785 2.621.785 5.703v115.395h-20.266V137.366z"/></clipPath><clipPath id="r"><path fill="#fff" d="M242.67 186.199c0-3.082 0-4.622.785-5.703.253-.348.56-.655.909-.909 1.08-.784 2.62-.784 5.702-.784h4.383c3.081 0 4.622 0 5.702.784.348.254.655.561.909.909.784 1.081.784 2.621.784 5.703v66.562H242.67v-66.562z"/></clipPath></defs></svg>