<svg xmlns="http://www.w3.org/2000/svg" width="664" height="461" fill="none"><g clip-path="url(#a)"><rect width="664" height="460" y=".5" fill="#000" rx="32"/><rect width="664" height="460" y=".5" fill="url(#b)" rx="32"/><path stroke="#2F2F2F" stroke-dasharray="6 6" stroke-linecap="round" stroke-width="2" d="M332 340.5v31m0-279v31"/><path fill="#878786" fill-opacity=".5" d="M55.813 69.469a1.406 1.406 0 1 1 2.812 0 1.406 1.406 0 0 1-2.813 0zm-7.032-1.406a1.406 1.406 0 1 0 0 2.812 1.406 1.406 0 0 0 0-2.813zm8.438-5.157a1.406 1.406 0 1 0 0-2.812 1.406 1.406 0 0 0 0 2.812zm-8.438 0a1.406 1.406 0 1 0 0-2.812 1.406 1.406 0 0 0 0 2.812zm8.438-7.968a1.406 1.406 0 1 0 0-2.813 1.406 1.406 0 0 0 0 2.813zm-8.438 0a1.406 1.406 0 1 0 0-2.813 1.406 1.406 0 0 0 0 2.813z"/><path fill="#ADADAD" d="M85.046 55.864h1.408v7.704c0 .796-.187 1.506-.562 2.13a3.939 3.939 0 0 1-1.574 1.473c-.678.355-1.473.533-2.386.533s-1.709-.177-2.386-.533a3.98 3.98 0 0 1-1.58-1.472c-.371-.625-.557-1.335-.557-2.13v-7.705h1.41v7.59c0 .569.124 1.074.374 1.518.25.439.606.786 1.068 1.04.466.25 1.023.374 1.67.374.648 0 1.205-.125 1.671-.375a2.64 2.64 0 0 0 1.069-1.04c.25-.443.374-.948.374-1.517v-7.59zm10.222 4.863-1.204.341a2.234 2.234 0 0 0-.335-.585 1.626 1.626 0 0 0-.591-.477c-.25-.125-.57-.188-.96-.188-.534 0-.98.123-1.336.37-.352.242-.528.55-.528.926 0 .333.121.596.364.79.242.193.62.354 1.136.482l1.295.319c.78.189 1.362.479 1.745.869.382.386.574.884.574 1.494 0 .5-.144.947-.432 1.341-.284.394-.682.705-1.193.932-.512.227-1.106.34-1.784.34-.89 0-1.627-.192-2.21-.579-.584-.386-.953-.95-1.109-1.693l1.273-.318c.121.47.35.822.688 1.057.34.235.785.352 1.335.352.625 0 1.121-.133 1.488-.398.372-.269.557-.59.557-.966 0-.303-.106-.556-.318-.761-.212-.208-.538-.364-.977-.466l-1.455-.34c-.799-.19-1.386-.484-1.761-.882-.371-.401-.557-.903-.557-1.505 0-.493.138-.928.415-1.307.28-.379.66-.676 1.142-.892.485-.216 1.034-.324 1.648-.324.863 0 1.541.19 2.034.568.496.38.848.88 1.056 1.5zm5.837 6.955c-.841 0-1.566-.186-2.176-.557a3.737 3.737 0 0 1-1.403-1.568c-.326-.674-.49-1.459-.49-2.352 0-.894.164-1.682.49-2.364.33-.686.787-1.22 1.375-1.602.59-.387 1.28-.58 2.068-.58.454 0 .903.076 1.346.227.444.152.847.398 1.211.739.363.337.653.784.869 1.34.216.558.324 1.243.324 2.058v.568h-6.727v-1.16h5.363c0-.492-.098-.931-.295-1.317a2.232 2.232 0 0 0-.83-.915c-.356-.224-.776-.335-1.261-.335-.534 0-.996.132-1.387.397a2.616 2.616 0 0 0-.892 1.023c-.208.42-.312.871-.312 1.352v.773c0 .66.114 1.218.34 1.676.232.455.552.801.961 1.04.409.235.884.352 1.426.352.352 0 .671-.049.955-.148a2.03 2.03 0 0 0 .744-.454c.208-.204.369-.458.483-.761l1.295.363a2.87 2.87 0 0 1-.687 1.16c-.322.329-.72.587-1.193.772a4.43 4.43 0 0 1-1.597.273zm5.654-.182v-8.727h1.295v1.318h.091c.159-.432.447-.782.864-1.051a2.54 2.54 0 0 1 1.409-.404c.098 0 .221.002.369.006s.259.01.335.017v1.364a3.926 3.926 0 0 0-.312-.051 3.08 3.08 0 0 0-.506-.04c-.424 0-.803.089-1.136.267a1.956 1.956 0 0 0-1.069 1.778V67.5h-1.34zm16.634-6.773-1.204.341a2.262 2.262 0 0 0-.335-.585 1.628 1.628 0 0 0-.591-.477c-.25-.125-.57-.188-.96-.188-.535 0-.98.123-1.336.37-.352.242-.528.55-.528.926 0 .333.121.596.364.79.242.193.621.354 1.136.482l1.295.319c.781.189 1.362.479 1.745.869.382.386.574.884.574 1.494 0 .5-.144.947-.432 1.341-.284.394-.682.705-1.193.932-.512.227-1.107.34-1.785.34-.89 0-1.626-.192-2.21-.579-.583-.386-.952-.95-1.108-1.693l1.273-.318c.121.47.35.822.688 1.057.34.235.785.352 1.335.352.625 0 1.121-.133 1.488-.398.372-.269.557-.59.557-.966 0-.303-.106-.556-.318-.761-.212-.208-.538-.364-.977-.466l-1.455-.34c-.799-.19-1.386-.484-1.761-.882-.371-.401-.557-.903-.557-1.505 0-.493.138-.928.415-1.307a2.82 2.82 0 0 1 1.142-.892c.485-.216 1.034-.324 1.648-.324.863 0 1.541.19 2.034.568a3.06 3.06 0 0 1 1.056 1.5zm2.178 6.773v-8.727h1.341V67.5h-1.341zm.682-10.182a.951.951 0 0 1-.676-.267.857.857 0 0 1-.279-.642c0-.25.093-.464.279-.642a.951.951 0 0 1 .676-.267c.261 0 .485.089.67.267.19.178.284.392.284.642s-.094.464-.284.642a.932.932 0 0 1-.67.267zm6.638 13.636c-.648 0-1.205-.083-1.671-.25a3.546 3.546 0 0 1-1.165-.647 3.564 3.564 0 0 1-.733-.853l1.069-.75c.121.16.274.342.46.546.185.208.439.388.761.54.326.155.752.233 1.279.233.704 0 1.286-.17 1.744-.512.458-.34.687-.875.687-1.602v-1.773h-.113a7.34 7.34 0 0 1-.421.591c-.178.231-.435.438-.772.62-.334.178-.784.267-1.353.267-.704 0-1.337-.167-1.897-.5-.557-.334-.998-.819-1.324-1.455-.322-.636-.483-1.409-.483-2.318 0-.894.157-1.672.471-2.335.315-.667.752-1.182 1.313-1.546.561-.367 1.208-.55 1.943-.55.568 0 1.019.094 1.352.283.337.186.595.398.773.637.182.234.322.428.421.58h.136v-1.387h1.295v8.977c0 .75-.17 1.36-.511 1.83-.337.473-.792.82-1.364 1.04a5.14 5.14 0 0 1-1.897.334zm-.046-4.795c.538 0 .993-.123 1.364-.37.371-.245.653-.6.846-1.062.194-.462.29-1.015.29-1.659 0-.629-.095-1.183-.284-1.665-.189-.48-.47-.858-.841-1.13-.371-.273-.829-.41-1.375-.41-.568 0-1.041.145-1.42.432a2.634 2.634 0 0 0-.847 1.16 4.495 4.495 0 0 0-.278 1.613c0 .606.094 1.142.284 1.608.193.462.477.826.852 1.091.379.261.849.392 1.409.392zm7.614-3.909v5.25h-1.341v-8.727h1.295v1.363h.114c.205-.443.515-.799.932-1.068.416-.273.954-.409 1.613-.409.591 0 1.108.121 1.552.364.443.238.787.602 1.034 1.09.246.486.369 1.1.369 1.842V67.5h-1.341v-5.455c0-.685-.178-1.22-.534-1.602-.356-.386-.845-.58-1.466-.58a2.34 2.34 0 0 0-1.148.279 1.992 1.992 0 0 0-.789.813c-.194.356-.29.787-.29 1.295zm14.2-1.523-1.204.341a2.238 2.238 0 0 0-.336-.585 1.628 1.628 0 0 0-.591-.477c-.25-.125-.57-.188-.96-.188-.534 0-.979.123-1.335.37-.352.242-.528.55-.528.926 0 .333.121.596.363.79.243.193.621.354 1.137.482l1.295.319c.78.189 1.362.479 1.744.869.383.386.574.884.574 1.494 0 .5-.144.947-.432 1.341-.284.394-.681.705-1.193.932-.511.227-1.106.34-1.784.34-.89 0-1.627-.192-2.21-.579-.583-.386-.953-.95-1.108-1.693l1.273-.318c.121.47.35.822.687 1.057.341.235.786.352 1.335.352.625 0 1.122-.133 1.489-.398.371-.269.557-.59.557-.966 0-.303-.106-.556-.318-.761-.212-.208-.538-.364-.978-.466l-1.454-.34c-.799-.19-1.387-.484-1.762-.882-.371-.401-.556-.903-.556-1.505 0-.493.138-.928.414-1.307a2.828 2.828 0 0 1 1.142-.892c.485-.216 1.035-.324 1.648-.324.864 0 1.542.19 2.034.568.496.38.849.88 1.057 1.5zm12.178 3.205v-5.16h1.341V67.5h-1.341v-1.477h-.091c-.205.443-.523.82-.955 1.13-.432.307-.977.46-1.636.46-.546 0-1.03-.119-1.455-.357-.424-.243-.757-.606-1-1.091-.242-.489-.363-1.104-.363-1.847v-5.545h1.341v5.454c0 .637.178 1.144.534 1.523.359.379.818.568 1.375.568a2.29 2.29 0 0 0 1.017-.255c.348-.171.64-.432.875-.785.238-.352.358-.8.358-1.346zm3.797 6.84v-12h1.295v1.387h.159c.099-.151.235-.345.409-.58.178-.238.432-.45.762-.636.333-.19.784-.284 1.352-.284.735 0 1.382.184 1.943.551.561.368.998.889 1.312 1.563.315.674.472 1.47.472 2.386 0 .924-.157 1.726-.472 2.404-.314.674-.75 1.197-1.306 1.568-.557.367-1.199.55-1.926.55-.561 0-1.01-.092-1.347-.278-.337-.189-.597-.403-.778-.642a8.77 8.77 0 0 1-.421-.602h-.114v4.614h-1.34zm1.318-7.636c0 .66.096 1.24.289 1.745.194.5.476.892.847 1.176.371.28.826.42 1.364.42.56 0 1.028-.148 1.403-.443.379-.3.663-.7.852-1.205.194-.507.29-1.071.29-1.693a4.6 4.6 0 0 0-.284-1.659c-.186-.496-.468-.888-.847-1.176-.375-.291-.846-.437-1.414-.437-.546 0-1.004.138-1.375.414-.372.273-.652.656-.841 1.148-.19.489-.284 1.059-.284 1.71z"/><rect width="65.38" height="27.46" x="556.369" y="47.77" fill="url(#c)" rx="7.75"/><path fill="#878786" fill-opacity=".8" d="M569.622 58.53a1.526 1.526 0 0 0-.71-1.148c-.415-.273-.924-.409-1.527-.409-.441 0-.827.071-1.158.214a1.85 1.85 0 0 0-.768.589c-.182.25-.272.533-.272.85 0 .267.063.495.189.687.13.188.295.345.496.471.201.123.412.226.633.307.22.078.423.14.608.19l1.011.272c.26.068.548.162.866.282.321.12.627.283.919.491.295.204.538.467.73.788.191.32.287.715.287 1.182 0 .538-.141 1.024-.423 1.459-.279.434-.688.78-1.226 1.036-.535.256-1.185.384-1.95.384-.714 0-1.331-.115-1.853-.345-.519-.23-.928-.551-1.226-.963a2.75 2.75 0 0 1-.501-1.435h1.245c.032.376.159.687.379.934.224.243.506.425.847.544a3.42 3.42 0 0 0 1.109.176c.46 0 .873-.075 1.24-.224.366-.152.656-.363.87-.632a1.5 1.5 0 0 0 .321-.954c0-.33-.092-.6-.277-.807a2.039 2.039 0 0 0-.729-.506 7.711 7.711 0 0 0-.978-.34l-1.226-.35c-.778-.224-1.394-.544-1.848-.959-.454-.415-.681-.958-.681-1.629 0-.558.151-1.044.453-1.459a3 3 0 0 1 1.225-.973 4.141 4.141 0 0 1 1.727-.35c.642 0 1.213.115 1.712.345a2.97 2.97 0 0 1 1.187.934c.295.396.45.845.466 1.347h-1.167zm6.166 7.626c-.7 0-1.303-.166-1.809-.497a3.228 3.228 0 0 1-1.167-1.366c-.273-.58-.409-1.244-.409-1.99 0-.758.139-1.428.418-2.008a3.309 3.309 0 0 1 1.177-1.367c.506-.33 1.096-.496 1.771-.496.525 0 .998.097 1.42.292.421.195.767.467 1.036.817.269.35.436.759.501 1.226h-1.148a1.78 1.78 0 0 0-.584-.905c-.298-.266-.7-.399-1.206-.399-.447 0-.84.117-1.177.35-.334.23-.595.556-.783.978-.185.418-.277.91-.277 1.474 0 .577.091 1.08.272 1.507.185.428.444.76.778.997.338.237.733.355 1.187.355.298 0 .569-.051.812-.155a1.68 1.68 0 0 0 .618-.447c.169-.195.289-.429.36-.7h1.148a2.663 2.663 0 0 1-.482 1.19c-.253.35-.588.63-1.007.837-.415.204-.898.307-1.449.307zm6.814.02c-.473 0-.903-.09-1.289-.268a2.21 2.21 0 0 1-.919-.784c-.227-.343-.34-.758-.34-1.245 0-.428.084-.774.252-1.04.169-.27.394-.48.676-.633.283-.152.594-.266.934-.34.344-.078.689-.14 1.036-.185a46.27 46.27 0 0 1 1.104-.131c.286-.033.493-.086.623-.16.133-.075.199-.205.199-.39v-.039c0-.48-.131-.852-.394-1.118-.259-.266-.653-.4-1.182-.4-.548 0-.977.12-1.288.36-.312.24-.531.497-.657.77l-1.089-.39c.194-.454.453-.807.778-1.06a2.91 2.91 0 0 1 1.07-.535 4.436 4.436 0 0 1 1.148-.156c.239 0 .515.03.826.088.315.055.618.17.91.345.295.175.54.44.734.793.195.353.292.827.292 1.42V66h-1.148v-1.012h-.058a2.038 2.038 0 0 1-.389.52 2.247 2.247 0 0 1-.725.473c-.301.13-.669.194-1.104.194zm.175-1.032c.454 0 .837-.09 1.148-.268a1.818 1.818 0 0 0 .953-1.58v-1.05c-.048.058-.155.111-.321.16a5.41 5.41 0 0 1-.564.121 25.794 25.794 0 0 1-1.099.146 4.408 4.408 0 0 0-.837.19 1.441 1.441 0 0 0-.622.384c-.156.169-.234.399-.234.69 0 .4.148.701.443.906.298.2.676.301 1.133.301zm6.492-3.638V66h-1.148v-7.47h1.109v1.167h.097c.175-.38.441-.684.798-.915.357-.233.817-.35 1.381-.35.506 0 .949.104 1.328.311a2.1 2.1 0 0 1 .885.934c.211.415.316.94.316 1.576V66h-1.148v-4.67c0-.586-.152-1.043-.457-1.37-.304-.331-.723-.497-1.255-.497-.366 0-.693.08-.982.239-.285.159-.511.39-.676.695-.165.305-.248.675-.248 1.109z"/><path fill="#878786" fill-opacity=".5" d="m609.708 66.084-4.281-4.281a.433.433 0 0 1-.093-.467.431.431 0 0 1 .093-.14l4.281-4.28a.43.43 0 0 1 .606.605l-3.979 3.979 3.979 3.978a.433.433 0 0 1 .093.467.433.433 0 0 1-.396.264.43.43 0 0 1-.303-.125z"/><rect width="65.38" height="27.46" x="556.369" y="47.77" stroke="url(#d)" stroke-width=".5" rx="7.75"/><rect width="602.5" height="60.5" x="30.75" y="31.25" stroke="#1C1C1C" stroke-width="1.5" rx="11.25"/><path fill="#878786" fill-opacity=".5" d="M55.813 163.469a1.41 1.41 0 0 1 .868-1.299 1.407 1.407 0 0 1 1.837 1.837 1.409 1.409 0 0 1-2.294.456 1.406 1.406 0 0 1-.411-.994zm-7.032-1.407a1.41 1.41 0 0 0-1.299.869 1.405 1.405 0 1 0 1.3-.869zm8.438-5.156a1.402 1.402 0 0 0 1.299-.868 1.406 1.406 0 1 0-1.3.868zm-8.438 0a1.402 1.402 0 0 0 1.3-.868 1.406 1.406 0 1 0-1.3.868zm8.438-7.969a1.41 1.41 0 0 0 1.299-.868 1.405 1.405 0 1 0-1.3.868zm-8.438 0a1.41 1.41 0 0 0 1.3-.868 1.405 1.405 0 1 0-1.3.868z"/><rect width="31.5" height="31.5" x="76.25" y="139.75" fill="url(#e)" rx="7.75"/><path fill="#6F8EFF" d="M98.911 155.5c.438-.411.716-.978.78-1.592a2.6 2.6 0 0 0-.432-1.732 2.373 2.373 0 0 0-1.422-.984 2.274 2.274 0 0 0-1.681.27v-1.587a2.592 2.592 0 0 0-.423-1.42 2.398 2.398 0 0 0-1.114-.916 2.26 2.26 0 0 0-1.411-.087 2.36 2.36 0 0 0-1.209.772 2.336 2.336 0 0 0-1.512-.82 2.285 2.285 0 0 0-1.645.454c-.477.361-.81.894-.935 1.497a2.614 2.614 0 0 0 .256 1.77h-1.507a2.296 2.296 0 0 0-1.35.445c-.396.289-.7.698-.87 1.173-.17.474-.199.993-.083 1.485.117.493.373.936.734 1.272a2.546 2.546 0 0 0-.78 1.592c-.064.614.09 1.231.433 1.732.342.501.848.852 1.421.984a2.269 2.269 0 0 0 1.682-.27v1.587c0 .508.148 1.003.422 1.42.275.418.663.737 1.115.916.45.18.943.21 1.41.087.469-.122.89-.391 1.21-.772.39.461.928.753 1.511.82a2.285 2.285 0 0 0 1.646-.454c.476-.36.81-.893.935-1.496a2.616 2.616 0 0 0-.256-1.771h1.507a2.3 2.3 0 0 0 1.35-.444c.396-.289.7-.698.87-1.173a2.63 2.63 0 0 0 .082-1.486 2.525 2.525 0 0 0-.734-1.272zm-11.068 1.875a1.3 1.3 0 0 1-.2.695c-.13.205-.316.365-.533.46a1.131 1.131 0 0 1-.686.071 1.167 1.167 0 0 1-.608-.342 1.275 1.275 0 0 1-.325-.64 1.31 1.31 0 0 1 .067-.722 1.23 1.23 0 0 1 .438-.561c.195-.138.425-.211.66-.211h1.187v1.25zm3.563 3.75c0 .332-.126.65-.348.884a1.16 1.16 0 0 1-.84.366 1.16 1.16 0 0 1-.84-.366 1.283 1.283 0 0 1-.347-.884v-3.75c0-.331.125-.649.347-.884a1.16 1.16 0 0 1 .84-.366h1.188v5zm0-6.25h-4.75a1.16 1.16 0 0 1-.84-.366 1.283 1.283 0 0 1-.348-.884c0-.331.125-.649.348-.884a1.16 1.16 0 0 1 .84-.366h3.562c.315 0 .617.132.84.366.222.235.347.553.347.884v1.25zm0-3.75h-1.188c-.235 0-.464-.073-.66-.211a1.234 1.234 0 0 1-.437-.561 1.31 1.31 0 0 1-.068-.722c.046-.242.16-.465.325-.64a1.139 1.139 0 0 1 1.294-.271c.217.095.403.255.533.461.13.205.2.447.2.694v1.25zm1.187-1.25c0-.331.125-.649.348-.884a1.16 1.16 0 0 1 .84-.366c.314 0 .616.132.84.366.222.235.347.553.347.884v3.75c0 .332-.125.65-.348.884a1.16 1.16 0 0 1-.84.366h-1.187v-5zm1.188 12.5a1.16 1.16 0 0 1-.84-.366 1.283 1.283 0 0 1-.348-.884v-1.25h1.188c.314 0 .616.132.84.366.222.235.347.553.347.884 0 .332-.125.65-.348.884a1.16 1.16 0 0 1-.84.366zm3.562-3.75H93.78a1.16 1.16 0 0 1-.84-.366 1.283 1.283 0 0 1-.347-.884v-1.25h4.75c.315 0 .617.132.84.366.222.235.347.553.347.884 0 .332-.125.65-.347.884a1.16 1.16 0 0 1-.84.366zm0-3.75h-1.188v-1.25c0-.247.07-.489.2-.694a1.21 1.21 0 0 1 .534-.461 1.139 1.139 0 0 1 1.294.271c.166.175.279.398.325.64a1.31 1.31 0 0 1-.068.722c-.09.229-.242.424-.437.561a1.141 1.141 0 0 1-.66.211z"/><rect width="31.5" height="31.5" x="76.25" y="139.75" stroke="url(#f)" stroke-width=".5" rx="7.75"/><path fill="#6F8EFF" d="M121.059 146.703c0-.166-.026-.312-.079-.439a.823.823 0 0 0-.263-.352 2.09 2.09 0 0 0-.518-.298 7.38 7.38 0 0 0-.83-.288 7.618 7.618 0 0 1-.952-.347 3.331 3.331 0 0 1-.728-.444 1.753 1.753 0 0 1-.463-.571 1.62 1.62 0 0 1-.162-.737 1.729 1.729 0 0 1 .66-1.377c.214-.176.47-.313.766-.411.296-.097.627-.146.991-.146.534 0 .987.103 1.358.308.374.201.659.467.854.795.196.326.293.674.293 1.045h-.937c0-.267-.057-.503-.171-.708a1.18 1.18 0 0 0-.518-.488c-.231-.12-.524-.181-.879-.181-.335 0-.612.051-.83.152-.218.101-.38.237-.488.41a1.122 1.122 0 0 0-.156.591c0 .15.031.286.093.41a1.1 1.1 0 0 0 .297.337c.137.104.31.2.518.288.212.088.464.172.757.254.404.114.752.241 1.045.381.293.14.534.298.722.473.193.173.334.37.425.591.095.218.142.466.142.742 0 .29-.059.552-.176.786a1.704 1.704 0 0 1-.503.601c-.218.166-.48.295-.786.386a3.635 3.635 0 0 1-1.016.132c-.328 0-.652-.046-.971-.137a2.907 2.907 0 0 1-.865-.41 2.167 2.167 0 0 1-.62-.674 1.87 1.87 0 0 1-.229-.938h.937c0 .245.048.455.142.63.094.173.223.316.386.43.166.114.353.199.561.254.212.052.432.078.659.078.329 0 .607-.046.835-.137.228-.091.401-.221.518-.39.12-.17.181-.37.181-.601zm2.993-5.703v7.5h-.908V141h.908zm4.565 6.597v-2.72a1.1 1.1 0 0 0-.127-.542.826.826 0 0 0-.371-.361 1.34 1.34 0 0 0-.615-.127c-.228 0-.428.039-.601.117a1.056 1.056 0 0 0-.4.307.678.678 0 0 0-.142.411h-.903c0-.189.049-.376.146-.562.098-.185.238-.353.42-.503.186-.153.407-.273.664-.361.261-.091.551-.137.87-.137.384 0 .722.065 1.015.195.296.131.528.328.694.591.169.261.254.588.254.982v2.461c0 .175.014.363.043.561.033.199.08.37.142.513v.078h-.942a1.668 1.668 0 0 1-.108-.415 3.36 3.36 0 0 1-.039-.488zm.156-2.3.01.635h-.913c-.257 0-.487.021-.688.063a1.56 1.56 0 0 0-.508.181.862.862 0 0 0-.313.307.823.823 0 0 0-.107.425c0 .166.037.318.112.454a.812.812 0 0 0 .337.327c.153.079.34.118.562.118a1.525 1.525 0 0 0 1.235-.606.923.923 0 0 0 .205-.493l.386.435a1.321 1.321 0 0 1-.186.454 2.178 2.178 0 0 1-1.001.854 1.934 1.934 0 0 1-.771.147c-.358 0-.672-.07-.943-.21a1.616 1.616 0 0 1-.625-.562 1.489 1.489 0 0 1-.219-.796c0-.283.055-.532.166-.747.11-.218.27-.399.478-.542.209-.146.459-.257.752-.332.293-.075.62-.112.982-.112h1.049zm4.283 2.558c.215 0 .413-.043.595-.131.183-.088.332-.209.45-.362.117-.156.184-.333.2-.532h.859a1.609 1.609 0 0 1-.317.874 2.172 2.172 0 0 1-1.787.894 2.41 2.41 0 0 1-1.04-.21 2.07 2.07 0 0 1-.733-.576 2.578 2.578 0 0 1-.434-.84 3.524 3.524 0 0 1-.142-1.011v-.205c0-.355.047-.69.142-1.006.097-.319.242-.601.434-.845a2.07 2.07 0 0 1 .733-.576 2.41 2.41 0 0 1 1.04-.21c.413 0 .774.085 1.084.254.309.166.551.394.727.684.179.286.277.612.293.976h-.859a1.293 1.293 0 0 0-.186-.591 1.205 1.205 0 0 0-1.059-.581c-.277 0-.51.056-.699.166a1.232 1.232 0 0 0-.444.44 2.068 2.068 0 0 0-.234.61 3.335 3.335 0 0 0-.069.679v.205c0 .231.023.459.069.684.045.224.122.428.229.61.111.182.259.329.445.439.188.108.423.161.703.161zm4.028-6.855v7.5h-.908V141h.908zm3.228 2.217-2.305 2.466-1.289 1.338-.073-.962.922-1.104 1.641-1.738h1.104zm-.826 5.283-1.884-2.52.468-.805 2.481 3.325h-1.065z"/><path fill="#ADADAD" d="M123.773 158.773a1.783 1.783 0 0 0-.83-1.341c-.485-.318-1.079-.477-1.784-.477-.515 0-.966.083-1.352.25a2.15 2.15 0 0 0-.898.687 1.649 1.649 0 0 0-.318.994c0 .311.074.578.221.802.152.219.345.403.58.551.235.144.481.263.739.358.257.09.494.164.71.221l1.182.318c.303.08.64.19 1.011.33.375.14.733.331 1.074.574.345.238.629.545.852.92.224.375.335.835.335 1.381 0 .629-.164 1.197-.494 1.704-.326.508-.803.911-1.432 1.211-.625.299-1.384.449-2.278.449-.833 0-1.555-.135-2.165-.404-.606-.269-1.083-.644-1.432-1.125a3.22 3.22 0 0 1-.585-1.676h1.455c.038.439.185.803.443 1.091.261.284.591.496.988.636.402.137.834.205 1.296.205.538 0 1.021-.087 1.449-.262.428-.178.767-.424 1.017-.738.25-.318.375-.69.375-1.114 0-.386-.108-.701-.324-.943a2.39 2.39 0 0 0-.852-.591 9.14 9.14 0 0 0-1.142-.398l-1.432-.409c-.909-.261-1.629-.634-2.159-1.119-.531-.485-.796-1.119-.796-1.903 0-.652.176-1.22.529-1.705a3.503 3.503 0 0 1 1.432-1.136c.602-.273 1.274-.409 2.017-.409.75 0 1.416.134 2 .403.583.265 1.045.629 1.386 1.091.345.462.526.987.545 1.574h-1.363zm7.316 8.909c-.84 0-1.566-.186-2.176-.557a3.736 3.736 0 0 1-1.403-1.568c-.326-.674-.489-1.459-.489-2.352 0-.894.163-1.682.489-2.364.329-.686.788-1.22 1.375-1.602.591-.387 1.28-.58 2.068-.58.455 0 .904.076 1.347.227.443.152.846.398 1.21.739.364.337.653.784.869 1.341.216.557.324 1.242.324 2.057v.568h-6.727v-1.159h5.363c0-.493-.098-.932-.295-1.318a2.219 2.219 0 0 0-.83-.915c-.356-.224-.776-.335-1.261-.335-.534 0-.996.132-1.386.397a2.617 2.617 0 0 0-.892 1.023 2.997 2.997 0 0 0-.313 1.352v.773c0 .659.114 1.218.341 1.676.231.455.551.801.96 1.04.409.235.885.352 1.426.352.353 0 .671-.049.955-.147.288-.103.536-.254.744-.455.209-.205.37-.458.483-.761l1.296.363c-.137.44-.366.826-.688 1.159-.322.33-.719.587-1.193.773a4.421 4.421 0 0 1-1.597.273zm6.995-5.432v5.25h-1.341v-8.727h1.295v1.363h.114c.205-.443.515-.799.932-1.068.416-.273.954-.409 1.613-.409.591 0 1.108.121 1.552.364.443.238.787.602 1.034 1.091.246.484.369 1.098.369 1.841v5.545h-1.341v-5.455c0-.685-.178-1.219-.534-1.602-.356-.386-.845-.579-1.466-.579-.428 0-.811.092-1.148.278a1.99 1.99 0 0 0-.789.813c-.194.356-.29.787-.29 1.295zm11.314 5.432c-.728 0-1.37-.184-1.926-.551-.557-.372-.993-.894-1.307-1.569-.315-.678-.472-1.479-.472-2.403 0-.917.157-1.712.472-2.386.314-.675.752-1.195 1.312-1.563.561-.367 1.209-.551 1.943-.551.569 0 1.018.095 1.347.284.333.186.587.398.761.637.178.234.317.428.415.579h.114v-4.295h1.341V167.5h-1.296v-1.341h-.159c-.098.159-.238.36-.42.602-.182.239-.442.453-.779.642-.337.186-.786.279-1.346.279zm.182-1.205c.537 0 .992-.14 1.363-.42.371-.284.654-.676.847-1.176.193-.504.29-1.086.29-1.745 0-.651-.095-1.221-.285-1.71-.189-.492-.469-.875-.84-1.148-.372-.276-.83-.414-1.375-.414-.569 0-1.042.145-1.421.437-.375.288-.657.68-.847 1.176a4.694 4.694 0 0 0-.278 1.659c0 .622.095 1.186.284 1.694.193.503.477.905.852 1.204.379.296.849.443 1.41.443zm13.528 1.228a3.554 3.554 0 0 1-1.506-.313 2.592 2.592 0 0 1-1.074-.915c-.265-.401-.397-.886-.397-1.454 0-.5.098-.906.295-1.216.197-.315.46-.561.79-.739.329-.178.693-.31 1.091-.398.401-.09.805-.162 1.21-.215.53-.069.96-.12 1.29-.154.333-.038.576-.1.727-.187.155-.087.233-.239.233-.455v-.045c0-.561-.153-.997-.46-1.307-.303-.311-.763-.466-1.381-.466-.64 0-1.142.14-1.506.42-.363.281-.619.58-.767.898l-1.272-.454c.227-.531.53-.944.909-1.239a3.398 3.398 0 0 1 1.25-.625 5.193 5.193 0 0 1 1.341-.182c.28 0 .602.034.966.102.367.065.721.199 1.062.404.345.204.631.513.858.926.227.413.341.966.341 1.659v5.75h-1.341v-1.182h-.068a2.36 2.36 0 0 1-.455.608c-.212.216-.494.4-.846.551-.353.152-.782.228-1.29.228zm.204-1.205c.531 0 .978-.104 1.341-.312.368-.209.644-.478.83-.807.189-.33.284-.676.284-1.04v-1.227c-.057.068-.182.13-.375.187a6.143 6.143 0 0 1-.659.142c-.246.038-.487.072-.722.102-.231.027-.418.05-.562.069a5.097 5.097 0 0 0-.977.221c-.3.099-.542.248-.728.449-.181.197-.272.466-.272.807 0 .466.172.818.517 1.057.348.235.789.352 1.323.352zm7.584-4.25v5.25h-1.341v-8.727h1.296v1.363h.113c.205-.443.516-.799.932-1.068.417-.273.955-.409 1.614-.409.591 0 1.108.121 1.551.364.443.238.788.602 1.034 1.091.246.484.369 1.098.369 1.841v5.545h-1.34v-5.455c0-.685-.178-1.219-.535-1.602-.356-.386-.844-.579-1.465-.579-.428 0-.811.092-1.148.278a1.992 1.992 0 0 0-.79.813c-.193.356-.29.787-.29 1.295zm15.087 5.455a3.554 3.554 0 0 1-1.506-.313 2.592 2.592 0 0 1-1.074-.915c-.265-.401-.397-.886-.397-1.454 0-.5.098-.906.295-1.216.197-.315.46-.561.79-.739.329-.178.693-.31 1.091-.398.401-.09.805-.162 1.21-.215.53-.069.96-.12 1.29-.154.333-.038.576-.1.727-.187.155-.087.233-.239.233-.455v-.045c0-.561-.153-.997-.46-1.307-.303-.311-.763-.466-1.381-.466-.64 0-1.142.14-1.506.42-.363.281-.619.58-.767.898l-1.272-.454c.227-.531.53-.944.909-1.239a3.398 3.398 0 0 1 1.25-.625 5.193 5.193 0 0 1 1.341-.182c.28 0 .602.034.966.102.367.065.721.199 1.062.404.345.204.631.513.858.926.227.413.341.966.341 1.659v5.75h-1.341v-1.182h-.068a2.36 2.36 0 0 1-.455.608c-.212.216-.494.4-.846.551-.353.152-.782.228-1.29.228zm.205-1.205c.53 0 .977-.104 1.34-.312.368-.209.644-.478.83-.807.189-.33.284-.676.284-1.04v-1.227c-.057.068-.182.13-.375.187a6.143 6.143 0 0 1-.659.142c-.246.038-.487.072-.722.102-.231.027-.418.05-.562.069a5.097 5.097 0 0 0-.977.221c-.3.099-.542.248-.728.449-.181.197-.272.466-.272.807 0 .466.172.818.517 1.057.348.235.789.352 1.324.352zm7.583-10.636V167.5h-1.341v-11.636h1.341zm6.115 11.818c-.841 0-1.566-.186-2.176-.557a3.736 3.736 0 0 1-1.403-1.568c-.326-.674-.489-1.459-.489-2.352 0-.894.163-1.682.489-2.364.329-.686.788-1.22 1.375-1.602.591-.387 1.28-.58 2.068-.58.455 0 .903.076 1.347.227.443.152.846.398 1.21.739.363.337.653.784.869 1.341.216.557.324 1.242.324 2.057v.568h-6.727v-1.159h5.363c0-.493-.098-.932-.295-1.318a2.219 2.219 0 0 0-.83-.915c-.356-.224-.776-.335-1.261-.335-.534 0-.996.132-1.386.397a2.617 2.617 0 0 0-.892 1.023 2.997 2.997 0 0 0-.313 1.352v.773c0 .659.114 1.218.341 1.676.231.455.551.801.96 1.04.409.235.885.352 1.426.352.353 0 .671-.049.955-.147.288-.103.536-.254.744-.455.209-.205.37-.458.483-.761l1.296.363c-.137.44-.366.826-.688 1.159-.322.33-.72.587-1.193.773a4.425 4.425 0 0 1-1.597.273zm5.654-.182v-8.727h1.295v1.318h.091c.159-.432.447-.782.864-1.051a2.54 2.54 0 0 1 1.409-.404c.098 0 .221.002.369.006s.26.01.335.017v1.364a3.351 3.351 0 0 0-.312-.051 3.026 3.026 0 0 0-.506-.04c-.424 0-.803.089-1.136.267a1.954 1.954 0 0 0-1.068 1.778v5.523h-1.341zm10.295-8.727v1.136h-4.523v-1.136h4.523zm-3.204-2.091h1.341V165c0 .379.055.663.164.852a.853.853 0 0 0 .432.375c.178.061.366.091.563.091.147 0 .269-.007.363-.023l.228-.045.272 1.205a2.72 2.72 0 0 1-.38.102c-.163.038-.37.057-.62.057-.378 0-.75-.082-1.113-.245a2.217 2.217 0 0 1-.898-.744c-.235-.333-.352-.754-.352-1.261v-8.682z"/><rect width="79.38" height="27.46" x="542.25" y="141.77" fill="url(#g)" rx="7.75"/><path fill="#878786" fill-opacity=".8" d="M550.394 151.109v-1.07h7.471v1.07h-3.133V160h-1.206v-8.891h-3.132zm8.401 8.891v-7.471h1.109v1.129h.077c.137-.37.383-.67.74-.9.356-.23.758-.345 1.206-.345a9.884 9.884 0 0 1 .603.019v1.167a3.695 3.695 0 0 0-.268-.043 2.591 2.591 0 0 0-.432-.034c-.364 0-.688.076-.973.228a1.677 1.677 0 0 0-.915 1.523V160h-1.147zm5.096 0v-7.471h1.147V160h-1.147zm.583-8.716a.819.819 0 0 1-.579-.228.74.74 0 0 1-.238-.55c0-.214.08-.397.238-.549a.815.815 0 0 1 .579-.229c.224 0 .415.076.574.229a.726.726 0 0 1 .243.549.73.73 0 0 1-.243.55.8.8 0 0 1-.574.228zm5.682 11.673c-.554 0-1.031-.071-1.43-.214a3.029 3.029 0 0 1-.997-.554 3.041 3.041 0 0 1-.627-.73l.914-.642c.104.136.235.292.394.467.159.178.376.332.652.462.279.133.643.199 1.094.199.603 0 1.101-.145 1.493-.437.393-.292.589-.749.589-1.372v-1.517h-.097a6.56 6.56 0 0 1-.36.506 2.06 2.06 0 0 1-.662.53c-.285.152-.671.228-1.157.228a3.114 3.114 0 0 1-1.625-.428c-.476-.285-.854-.7-1.133-1.245-.276-.545-.413-1.206-.413-1.984 0-.765.134-1.432.403-1.999.269-.571.644-1.012 1.124-1.323.48-.315 1.034-.472 1.663-.472.486 0 .872.081 1.158.243.288.159.509.341.661.545.156.201.276.366.36.496h.117v-1.187h1.109v7.685c0 .642-.146 1.164-.438 1.566a2.498 2.498 0 0 1-1.167.89 4.414 4.414 0 0 1-1.625.287zm-.039-4.105c.461 0 .85-.105 1.168-.316a1.97 1.97 0 0 0 .724-.909c.166-.396.248-.869.248-1.421 0-.538-.081-1.013-.243-1.425a2.143 2.143 0 0 0-.72-.968c-.318-.233-.71-.35-1.177-.35-.486 0-.891.123-1.216.37a2.246 2.246 0 0 0-.724.992 3.835 3.835 0 0 0-.239 1.381c0 .519.081.978.244 1.377.165.395.408.707.729.934.324.223.726.335 1.206.335zm8.385 4.105c-.554 0-1.031-.071-1.43-.214a3.029 3.029 0 0 1-.997-.554 3.041 3.041 0 0 1-.627-.73l.914-.642c.104.136.235.292.394.467.159.178.376.332.652.462.279.133.643.199 1.094.199.603 0 1.101-.145 1.493-.437.393-.292.589-.749.589-1.372v-1.517h-.097a6.56 6.56 0 0 1-.36.506 2.06 2.06 0 0 1-.662.53c-.285.152-.671.228-1.157.228a3.114 3.114 0 0 1-1.625-.428c-.476-.285-.854-.7-1.133-1.245-.276-.545-.413-1.206-.413-1.984 0-.765.134-1.432.403-1.999.269-.571.644-1.012 1.124-1.323.48-.315 1.034-.472 1.663-.472.486 0 .872.081 1.158.243.288.159.509.341.661.545.156.201.276.366.36.496h.117v-1.187h1.109v7.685c0 .642-.146 1.164-.438 1.566a2.498 2.498 0 0 1-1.167.89 4.414 4.414 0 0 1-1.625.287zm-.039-4.105c.461 0 .85-.105 1.168-.316a1.97 1.97 0 0 0 .724-.909c.166-.396.248-.869.248-1.421 0-.538-.081-1.013-.243-1.425a2.143 2.143 0 0 0-.72-.968c-.317-.233-.71-.35-1.177-.35-.486 0-.891.123-1.216.37a2.246 2.246 0 0 0-.724.992 3.835 3.835 0 0 0-.239 1.381c0 .519.081.978.244 1.377.165.395.408.707.729.934.324.223.726.335 1.206.335zm8.502 1.304c-.72 0-1.341-.159-1.863-.477a3.195 3.195 0 0 1-1.201-1.342c-.279-.578-.418-1.249-.418-2.014 0-.765.139-1.44.418-2.023.282-.587.674-1.044 1.177-1.372.506-.33 1.096-.496 1.77-.496.389 0 .774.065 1.153.195.379.129.725.34 1.036.632.311.289.559.671.744 1.148.185.476.277 1.063.277 1.76v.487H584.3v-.992h4.591c0-.422-.084-.798-.253-1.129a1.912 1.912 0 0 0-.71-.783c-.305-.191-.665-.287-1.08-.287-.457 0-.853.114-1.187.341-.33.223-.585.515-.763.875-.178.36-.268.746-.268 1.158v.661c0 .564.098 1.043.292 1.435.198.389.472.686.822.89.35.201.757.302 1.221.302.301 0 .574-.043.817-.127a1.74 1.74 0 0 0 .637-.389c.179-.175.316-.392.414-.652l1.108.312a2.45 2.45 0 0 1-.588.992 2.875 2.875 0 0 1-1.021.661 3.784 3.784 0 0 1-1.367.234zm4.839-.156v-7.471h1.109v1.129h.078c.136-.37.383-.67.739-.9.357-.23.759-.345 1.206-.345a9.941 9.941 0 0 1 .604.019v1.167a3.8 3.8 0 0 0-.268-.043 2.595 2.595 0 0 0-.433-.034 2.04 2.04 0 0 0-.973.228 1.676 1.676 0 0 0-.914 1.523V160h-1.148z"/><path fill="#878786" fill-opacity=".5" d="m612.764 154.09-4.281 4.281a.435.435 0 0 1-.303.125.435.435 0 0 1-.303-.125l-4.281-4.281a.432.432 0 0 1 0-.606.43.43 0 0 1 .606 0l3.978 3.979 3.979-3.979a.424.424 0 0 1 .466-.093.424.424 0 0 1 .232.232.421.421 0 0 1 0 .328.42.42 0 0 1-.093.139z"/><rect width="79.38" height="27.46" x="542.25" y="141.77" stroke="url(#h)" stroke-width=".5" rx="7.75"/><rect width="546" height="56" x="76" y="195.5" fill="#1A1A1A" rx="12"/><path fill="#ADADAD" d="m96.523 229-3.182-11.636h1.432l2.431 9.477h.114l2.478-9.477h1.59l2.478 9.477h.113l2.432-9.477h1.432L104.659 229h-1.454l-2.569-9.273h-.091L97.977 229h-1.454zm15.625.182c-.788 0-1.479-.188-2.074-.563-.591-.375-1.053-.899-1.386-1.574-.33-.674-.495-1.462-.495-2.363 0-.909.165-1.703.495-2.381.333-.678.795-1.204 1.386-1.579.595-.375 1.286-.563 2.074-.563.788 0 1.477.188 2.068.563.595.375 1.057.901 1.386 1.579.334.678.5 1.472.5 2.381 0 .901-.166 1.689-.5 2.363a3.758 3.758 0 0 1-1.386 1.574c-.591.375-1.28.563-2.068.563zm0-1.205c.598 0 1.091-.153 1.477-.46a2.72 2.72 0 0 0 .858-1.21c.186-.5.278-1.042.278-1.625 0-.584-.092-1.127-.278-1.631a2.748 2.748 0 0 0-.858-1.221c-.386-.311-.879-.466-1.477-.466-.599 0-1.091.155-1.478.466-.386.31-.672.717-.858 1.221a4.695 4.695 0 0 0-.278 1.631c0 .583.093 1.125.278 1.625.186.5.472.903.858 1.21.387.307.879.46 1.478.46zm6.001 1.023v-8.727h1.296v1.318h.091c.159-.432.446-.782.863-1.051a2.544 2.544 0 0 1 1.409-.404c.099 0 .222.002.37.006.147.004.259.01.335.017v1.364a3.462 3.462 0 0 0-.313-.051 3.014 3.014 0 0 0-.505-.04c-.425 0-.803.089-1.137.267a2.019 2.019 0 0 0-.784.727 1.963 1.963 0 0 0-.284 1.051V229h-1.341zm7.203-3.182-.022-1.659h.272l3.818-3.886h1.66l-4.069 4.113h-.113l-1.546 1.432zm-1.25 3.182v-11.636h1.341V229h-1.341zm5.546 0-3.409-4.318.954-.932 4.159 5.25h-1.704zm9.339-6.773-1.204.341a2.229 2.229 0 0 0-.336-.585 1.617 1.617 0 0 0-.59-.477c-.25-.125-.571-.188-.961-.188-.534 0-.979.123-1.335.37-.352.242-.528.551-.528.926 0 .333.121.596.363.789.243.194.622.355 1.137.483l1.295.319c.78.189 1.362.479 1.744.869.383.386.574.884.574 1.494 0 .5-.144.947-.432 1.341-.284.394-.681.705-1.193.932-.511.227-1.106.341-1.784.341-.89 0-1.627-.193-2.21-.58-.583-.386-.953-.95-1.108-1.693l1.273-.318c.121.47.35.822.687 1.057.341.235.786.352 1.335.352.625 0 1.122-.133 1.489-.398.371-.269.557-.591.557-.966 0-.303-.106-.556-.318-.761-.212-.208-.538-.364-.978-.466l-1.454-.341c-.799-.189-1.386-.483-1.761-.88-.372-.402-.557-.904-.557-1.506 0-.493.138-.928.415-1.307a2.82 2.82 0 0 1 1.142-.892c.484-.216 1.034-.324 1.647-.324.864 0 1.542.189 2.034.568.497.379.849.879 1.057 1.5zm2.178 10.046v-12h1.295v1.386h.159c.099-.151.235-.345.409-.579.178-.239.432-.451.762-.637.333-.189.784-.284 1.352-.284.735 0 1.383.184 1.943.551.561.368.998.888 1.313 1.563.314.674.471 1.469.471 2.386 0 .924-.157 1.725-.471 2.403-.315.675-.75 1.197-1.307 1.569-.557.367-1.199.551-1.926.551-.561 0-1.01-.093-1.347-.279-.337-.189-.596-.403-.778-.642a8.677 8.677 0 0 1-.421-.602h-.113v4.614h-1.341zm1.318-7.637c0 .659.097 1.241.29 1.745.193.5.475.892.846 1.176.372.28.826.42 1.364.42.561 0 1.028-.147 1.403-.443.379-.299.663-.701.853-1.204a4.734 4.734 0 0 0 .289-1.694c0-.613-.094-1.166-.284-1.659-.185-.496-.467-.888-.846-1.176-.375-.292-.847-.437-1.415-.437-.545 0-1.004.138-1.375.414-.371.273-.652.656-.841 1.148-.189.489-.284 1.059-.284 1.71zm11 4.569a3.554 3.554 0 0 1-1.506-.313 2.592 2.592 0 0 1-1.074-.915c-.265-.401-.397-.886-.397-1.454 0-.5.098-.906.295-1.216.197-.315.46-.561.79-.739.329-.178.693-.31 1.091-.398.401-.09.805-.162 1.21-.215.53-.069.96-.12 1.29-.154.333-.038.576-.1.727-.187.155-.087.233-.239.233-.455v-.045c0-.561-.153-.997-.46-1.307-.303-.311-.763-.466-1.381-.466-.64 0-1.142.14-1.506.42-.363.281-.619.58-.767.898l-1.272-.454c.227-.531.53-.944.909-1.239a3.398 3.398 0 0 1 1.25-.625 5.193 5.193 0 0 1 1.341-.182c.28 0 .602.034.966.102.367.065.721.199 1.062.404.345.204.631.513.858.926.227.413.341.966.341 1.659V229h-1.341v-1.182h-.068a2.36 2.36 0 0 1-.455.608c-.212.216-.494.4-.846.551-.353.152-.782.228-1.29.228zm.205-1.205c.53 0 .977-.104 1.34-.312.368-.209.644-.478.83-.807.189-.33.284-.676.284-1.04v-1.227c-.057.068-.182.13-.375.187a6.143 6.143 0 0 1-.659.142c-.246.038-.487.072-.722.102-.231.027-.418.05-.562.069a5.097 5.097 0 0 0-.977.221c-.3.099-.542.248-.728.449-.181.197-.272.466-.272.807 0 .466.172.818.517 1.057.348.235.789.352 1.324.352zm9.788 1.182c-.818 0-1.523-.193-2.114-.58a3.77 3.77 0 0 1-1.363-1.596c-.319-.678-.478-1.453-.478-2.324 0-.887.163-1.669.489-2.347.329-.682.788-1.214 1.375-1.596.591-.387 1.28-.58 2.068-.58.614 0 1.167.114 1.659.341.493.227.896.545 1.21.955.315.409.51.886.586 1.431h-1.341c-.103-.397-.33-.75-.682-1.056-.349-.311-.818-.466-1.409-.466-.523 0-.981.136-1.375.409-.39.269-.695.649-.915 1.142-.216.488-.324 1.062-.324 1.721 0 .675.106 1.262.318 1.762.216.5.519.888.909 1.164.394.277.857.415 1.387.415.348 0 .665-.06.949-.182.284-.121.524-.295.721-.522.197-.228.337-.5.421-.818h1.341a3.114 3.114 0 0 1-.563 1.392 3.142 3.142 0 0 1-1.176.977c-.485.238-1.049.358-1.693.358zm9.051 0c-.841 0-1.566-.186-2.176-.557a3.744 3.744 0 0 1-1.404-1.568c-.325-.674-.488-1.459-.488-2.352 0-.894.163-1.682.488-2.364.33-.686.788-1.22 1.375-1.602.591-.387 1.281-.58 2.069-.58.454 0 .903.076 1.346.227.443.152.847.398 1.21.739.364.337.654.784.87 1.341.216.557.324 1.242.324 2.057v.568h-6.728v-1.159h5.364c0-.493-.098-.932-.295-1.318a2.226 2.226 0 0 0-.83-.915c-.356-.224-.777-.335-1.261-.335-.534 0-.997.132-1.387.397a2.633 2.633 0 0 0-.892 1.023 3.01 3.01 0 0 0-.312 1.352v.773c0 .659.113 1.218.341 1.676.231.455.551.801.96 1.04.409.235.884.352 1.426.352.352 0 .67-.049.955-.147.287-.103.536-.254.744-.455.208-.205.369-.458.483-.761l1.295.363a2.86 2.86 0 0 1-.687 1.159c-.322.33-.72.587-1.193.773a4.425 4.425 0 0 1-1.597.273z"/><rect width="32" height="32" x="521" y="207.5" fill="url(#i)" rx="8.459"/><path fill="#6F8EFF" fill-rule="evenodd" d="M540.743 216.389h-7.389a3.436 3.436 0 1 0 0 6.872h2.738l4.651-6.872zm-9.302 13.744 4.651-6.872h3.667a3.436 3.436 0 0 1 0 6.872h-8.318z" clip-rule="evenodd"/><rect width="31.111" height="31.111" x="521.444" y="207.944" stroke="url(#j)" stroke-opacity=".5" stroke-width=".889" rx="8.015"/><path fill="#ADADAD" d="M566.773 220.273a1.783 1.783 0 0 0-.83-1.341c-.485-.318-1.079-.477-1.784-.477-.515 0-.966.083-1.352.25a2.15 2.15 0 0 0-.898.687 1.649 1.649 0 0 0-.318.994c0 .311.074.578.221.802.152.219.345.403.58.551.235.144.481.263.739.358.257.09.494.164.71.221l1.182.318c.303.08.64.19 1.011.33.375.14.733.331 1.074.574.345.238.629.545.852.92.224.375.335.835.335 1.381 0 .629-.164 1.197-.494 1.704-.326.508-.803.911-1.432 1.211-.625.299-1.384.449-2.278.449-.833 0-1.555-.135-2.165-.404-.606-.269-1.083-.644-1.432-1.125a3.22 3.22 0 0 1-.585-1.676h1.455c.038.439.185.803.443 1.091.261.284.591.496.988.636.402.137.834.205 1.296.205.538 0 1.021-.087 1.449-.262.428-.178.767-.424 1.017-.738.25-.318.375-.69.375-1.114 0-.386-.108-.701-.324-.943a2.39 2.39 0 0 0-.852-.591 9.14 9.14 0 0 0-1.142-.398l-1.432-.409c-.909-.261-1.629-.634-2.159-1.119-.531-.485-.796-1.119-.796-1.903 0-.652.176-1.22.529-1.705a3.503 3.503 0 0 1 1.432-1.136c.602-.273 1.274-.409 2.017-.409.75 0 1.416.134 2 .403.583.265 1.045.629 1.386 1.091.345.462.526.987.545 1.574h-1.363zm7.453 0v1.136h-4.523v-1.136h4.523zm-3.205-2.091h1.341v8.318c0 .379.055.663.165.852a.853.853 0 0 0 .432.375c.178.061.365.091.562.091.148 0 .269-.007.364-.023l.227-.045.273 1.205a2.74 2.74 0 0 1-.381.102 2.792 2.792 0 0 1-.619.057 2.7 2.7 0 0 1-1.114-.245 2.208 2.208 0 0 1-.897-.744c-.235-.333-.353-.754-.353-1.261v-8.682zm8.674 11c-.788 0-1.48-.188-2.074-.563-.591-.375-1.053-.899-1.387-1.574-.329-.674-.494-1.462-.494-2.363 0-.909.165-1.703.494-2.381.334-.678.796-1.204 1.387-1.579.594-.375 1.286-.563 2.074-.563.787 0 1.477.188 2.068.563.594.375 1.057.901 1.386 1.579.333.678.5 1.472.5 2.381 0 .901-.167 1.689-.5 2.363a3.765 3.765 0 0 1-1.386 1.574c-.591.375-1.281.563-2.068.563zm0-1.205c.598 0 1.091-.153 1.477-.46a2.72 2.72 0 0 0 .858-1.21c.185-.5.278-1.042.278-1.625 0-.584-.093-1.127-.278-1.631a2.748 2.748 0 0 0-.858-1.221c-.386-.311-.879-.466-1.477-.466-.599 0-1.091.155-1.478.466-.386.31-.672.717-.858 1.221a4.695 4.695 0 0 0-.278 1.631c0 .583.093 1.125.278 1.625.186.5.472.903.858 1.21.387.307.879.46 1.478.46zm6.001 1.023v-8.727h1.295v1.318h.091c.159-.432.447-.782.864-1.051a2.542 2.542 0 0 1 1.409-.404c.099 0 .222.002.369.006.148.004.26.01.336.017v1.364a3.462 3.462 0 0 0-.313-.051 3.017 3.017 0 0 0-.506-.04c-.424 0-.803.089-1.136.267a2.019 2.019 0 0 0-.784.727 1.963 1.963 0 0 0-.284 1.051V229h-1.341zm5.953 0v-8.727h1.296v1.363h.113c.182-.466.476-.827.881-1.085.405-.261.892-.392 1.46-.392.576 0 1.055.131 1.438.392.386.258.687.619.903 1.085h.091a2.55 2.55 0 0 1 1.006-1.074c.447-.268.983-.403 1.608-.403.78 0 1.418.244 1.914.733.497.485.745 1.241.745 2.267V229h-1.341v-5.841c0-.644-.176-1.104-.529-1.381a1.957 1.957 0 0 0-1.244-.414c-.614 0-1.089.185-1.426.556-.337.368-.506.834-.506 1.398V229h-1.363v-5.977c0-.496-.161-.896-.483-1.199-.322-.307-.737-.46-1.245-.46-.348 0-.674.092-.977.278a2.1 2.1 0 0 0-.727.773 2.277 2.277 0 0 0-.273 1.13V229h-1.341z"/><rect width="546" height="56" x="76" y="263.5" fill="#1A1A1A" rx="12"/><path fill="#ADADAD" d="M103.773 289h-1.409a2.95 2.95 0 0 0-1.188-1.841 3.185 3.185 0 0 0-.971-.477 3.887 3.887 0 0 0-1.114-.159 3.55 3.55 0 0 0-1.915.534c-.568.356-1.02.881-1.358 1.574-.333.693-.5 1.543-.5 2.551 0 1.007.167 1.858.5 2.551.337.693.79 1.218 1.358 1.574a3.55 3.55 0 0 0 1.915.534c.386 0 .758-.053 1.114-.159.356-.106.679-.263.971-.472a2.97 2.97 0 0 0 1.188-1.846h1.409a4.696 4.696 0 0 1-.58 1.596c-.28.47-.629.87-1.045 1.199a4.569 4.569 0 0 1-1.404.744 5.213 5.213 0 0 1-1.653.256c-.992 0-1.875-.242-2.648-.727-.772-.485-1.38-1.174-1.824-2.068-.443-.894-.665-1.955-.665-3.182 0-1.227.222-2.288.665-3.182.444-.894 1.052-1.583 1.824-2.068.773-.485 1.656-.727 2.648-.727.587 0 1.138.085 1.653.255.519.171.987.421 1.404.75.416.326.765.724 1.045 1.193.28.466.474.999.58 1.597zm3.436 2.75V297h-1.341v-11.636h1.341v4.272h.113c.205-.45.512-.808.921-1.074.413-.268.962-.403 1.648-.403.594 0 1.115.119 1.562.358a2.41 2.41 0 0 1 1.04 1.085c.25.485.375 1.103.375 1.853V297h-1.341v-5.455c0-.693-.18-1.229-.54-1.607-.356-.383-.85-.574-1.483-.574-.439 0-.833.092-1.182.278a2.038 2.038 0 0 0-.818.813c-.197.356-.295.787-.295 1.295zm10.68 5.455a3.546 3.546 0 0 1-1.505-.313 2.58 2.58 0 0 1-1.074-.915c-.265-.401-.398-.886-.398-1.454 0-.5.098-.906.295-1.216.197-.315.461-.561.79-.739.33-.178.693-.31 1.091-.398.402-.09.805-.162 1.21-.215.531-.069.961-.12 1.29-.154.333-.038.576-.1.727-.187.156-.087.233-.239.233-.455v-.045c0-.561-.153-.997-.46-1.307-.303-.311-.763-.466-1.381-.466-.64 0-1.142.14-1.505.42-.364.281-.62.58-.767.898l-1.273-.454c.227-.531.53-.944.909-1.239a3.406 3.406 0 0 1 1.25-.625 5.205 5.205 0 0 1 1.341-.182c.28 0 .602.034.966.102.367.065.721.199 1.062.404.345.204.631.513.858.926.228.413.341.966.341 1.659V297h-1.341v-1.182h-.068c-.091.19-.242.392-.454.608-.213.216-.495.4-.847.551-.352.152-.782.228-1.29.228zm.205-1.205c.53 0 .977-.104 1.341-.312a2.133 2.133 0 0 0 1.113-1.847v-1.227c-.057.068-.182.13-.375.187a6.143 6.143 0 0 1-.659.142 28.32 28.32 0 0 1-1.284.171 5.114 5.114 0 0 0-.977.221 1.684 1.684 0 0 0-.727.449c-.182.197-.273.466-.273.807 0 .466.172.818.517 1.057.348.235.79.352 1.324.352zm7.584-4.25V297h-1.341v-8.727h1.295v1.363h.114c.204-.443.515-.799.932-1.068.416-.273.954-.409 1.613-.409.591 0 1.108.121 1.551.364.444.238.788.602 1.034 1.091.247.484.37 1.098.37 1.841V297h-1.341v-5.455c0-.685-.178-1.219-.534-1.602-.356-.386-.845-.579-1.466-.579-.428 0-.811.092-1.148.278a1.998 1.998 0 0 0-.79.813c-.193.356-.289.787-.289 1.295zm9.359 0V297h-1.341v-8.727h1.295v1.363h.114c.205-.443.515-.799.932-1.068.417-.273.954-.409 1.614-.409.59 0 1.108.121 1.551.364.443.238.788.602 1.034 1.091.246.484.369 1.098.369 1.841V297h-1.341v-5.455c0-.685-.178-1.219-.534-1.602-.356-.386-.845-.579-1.466-.579-.428 0-.81.092-1.148.278a1.99 1.99 0 0 0-.789.813c-.193.356-.29.787-.29 1.295zm11.677 5.432c-.84 0-1.566-.186-2.176-.557a3.736 3.736 0 0 1-1.403-1.568c-.326-.674-.489-1.459-.489-2.352 0-.894.163-1.682.489-2.364.329-.686.788-1.22 1.375-1.602.591-.387 1.28-.58 2.068-.58.455 0 .904.076 1.347.227.443.152.846.398 1.21.739.364.337.653.784.869 1.341.216.557.324 1.242.324 2.057v.568h-6.727v-1.159h5.363c0-.493-.098-.932-.295-1.318a2.219 2.219 0 0 0-.83-.915c-.356-.224-.776-.335-1.261-.335-.534 0-.996.132-1.386.397a2.617 2.617 0 0 0-.892 1.023 2.997 2.997 0 0 0-.313 1.352v.773c0 .659.114 1.218.341 1.676.231.455.551.801.96 1.04.409.235.885.352 1.426.352.353 0 .671-.049.955-.147.288-.103.536-.254.744-.455.209-.205.37-.458.483-.761l1.296.363c-.137.44-.366.826-.688 1.159-.322.33-.719.587-1.193.773a4.421 4.421 0 0 1-1.597.273zm6.995-11.818V297h-1.341v-11.636h1.341zM555.568 297l1.909-11.636h1.137L556.705 297h-1.137zm-5.295-3.227.182-1.137h8.681l-.181 1.137h-8.682zm1.204 3.227 1.909-11.636h1.137L552.614 297h-1.137zm-.522-7.273.181-1.136h8.682l-.182 1.136h-8.681zM561.98 297h-1.477l4.273-11.636h1.454L570.503 297h-1.477l-3.478-9.795h-.091L561.98 297zm.546-4.545h5.954v1.25h-5.954v-1.25zm10.948-7.091V297h-1.34v-11.636h1.34zm6.115 11.818c-.84 0-1.566-.186-2.176-.557a3.736 3.736 0 0 1-1.403-1.568c-.326-.674-.489-1.459-.489-2.352 0-.894.163-1.682.489-2.364.329-.686.788-1.22 1.375-1.602.591-.387 1.28-.58 2.068-.58.455 0 .904.076 1.347.227.443.152.846.398 1.21.739.364.337.653.784.869 1.341.216.557.324 1.242.324 2.057v.568h-6.727v-1.159h5.363c0-.493-.098-.932-.295-1.318a2.219 2.219 0 0 0-.83-.915c-.356-.224-.776-.335-1.261-.335-.534 0-.996.132-1.386.397a2.617 2.617 0 0 0-.892 1.023 2.997 2.997 0 0 0-.313 1.352v.773c0 .659.114 1.218.341 1.676.231.455.551.801.96 1.04.409.235.885.352 1.426.352.353 0 .671-.049.955-.147.288-.103.536-.254.744-.455.209-.205.37-.458.483-.761l1.296.363c-.137.44-.366.826-.688 1.159-.322.33-.719.587-1.193.773a4.421 4.421 0 0 1-1.597.273zm5.654-.182v-8.727h1.295v1.318h.091c.159-.432.447-.782.864-1.051a2.542 2.542 0 0 1 1.409-.404c.098 0 .222.002.369.006.148.004.26.01.336.017v1.364a3.462 3.462 0 0 0-.313-.051 3.026 3.026 0 0 0-.506-.04c-.424 0-.803.089-1.136.267-.33.174-.591.417-.784.727a1.963 1.963 0 0 0-.284 1.051V297h-1.341zm10.295-8.727v1.136h-4.522v-1.136h4.522zm-3.204-2.091h1.341v8.318c0 .379.055.663.164.852a.853.853 0 0 0 .432.375c.178.061.366.091.563.091.148 0 .269-.007.363-.023l.228-.045.272 1.205c-.09.034-.217.068-.38.102-.163.038-.37.057-.62.057-.378 0-.75-.082-1.113-.245a2.217 2.217 0 0 1-.898-.744c-.235-.333-.352-.754-.352-1.261v-8.682zm11.247 4.045-1.205.341a2.197 2.197 0 0 0-.335-.585 1.63 1.63 0 0 0-.591-.477c-.25-.125-.57-.188-.96-.188-.534 0-.979.123-1.335.37-.352.242-.529.551-.529.926 0 .333.122.596.364.789.242.194.621.355 1.136.483l1.296.319c.78.189 1.362.479 1.744.869.383.386.574.884.574 1.494 0 .5-.144.947-.432 1.341-.284.394-.682.705-1.193.932-.511.227-1.106.341-1.784.341-.89 0-1.627-.193-2.21-.58-.584-.386-.953-.95-1.108-1.693l1.273-.318c.121.47.35.822.687 1.057.341.235.786.352 1.335.352.625 0 1.121-.133 1.489-.398.371-.269.557-.591.557-.966 0-.303-.106-.556-.318-.761-.213-.208-.538-.364-.978-.466l-1.454-.341c-.8-.189-1.387-.483-1.762-.88-.371-.402-.556-.904-.556-1.506 0-.493.138-.928.414-1.307a2.827 2.827 0 0 1 1.142-.892c.485-.216 1.034-.324 1.648-.324.864 0 1.542.189 2.034.568.496.379.849.879 1.057 1.5z"/><rect width="606.5" height="215.5" x="28.75" y="123.25" stroke="#1C1C1C" stroke-width="2.5" rx="13.25"/><path fill="#878786" fill-opacity=".5" d="M55.813 410.469a1.41 1.41 0 0 1 .868-1.299 1.407 1.407 0 0 1 1.837 1.837 1.409 1.409 0 0 1-2.294.456 1.406 1.406 0 0 1-.411-.994zm-7.032-1.407a1.41 1.41 0 0 0-1.299.869 1.405 1.405 0 1 0 1.3-.869zm8.438-5.156a1.402 1.402 0 0 0 1.299-.868 1.406 1.406 0 1 0-1.3.868zm-8.438 0a1.402 1.402 0 0 0 1.3-.868 1.406 1.406 0 1 0-1.3.868zm8.438-7.969a1.41 1.41 0 0 0 1.299-.868 1.405 1.405 0 1 0-1.3.868zm-8.438 0a1.41 1.41 0 0 0 1.3-.868 1.405 1.405 0 1 0-1.3.868z"/><rect width="31.5" height="31.5" x="76.25" y="386.75" fill="url(#k)" rx="7.75"/><path fill="#6F8EFF" d="M101.186 398.203a.568.568 0 0 0-.609.031l-2.64 1.848v-1.957c0-.332-.125-.649-.347-.884a1.16 1.16 0 0 0-.84-.366H84.875a1.16 1.16 0 0 0-.84.366 1.285 1.285 0 0 0-.347.884v8.75c0 .332.125.649.347.884.223.234.525.366.84.366H96.75c.315 0 .617-.132.84-.366.222-.235.347-.552.347-.884v-1.953l2.64 1.852a.579.579 0 0 0 .749-.082.643.643 0 0 0 .174-.442v-7.5a.646.646 0 0 0-.086-.319.609.609 0 0 0-.228-.228zm-4.436 8.672H84.875v-8.75H96.75v8.75zm3.562-1.793-2.374-1.666v-1.832l2.374-1.662v5.16z"/><rect width="31.5" height="31.5" x="76.25" y="386.75" stroke="url(#l)" stroke-width=".5" rx="7.75"/><path fill="#6F8EFF" d="M122.063 394.733v.767h-4.814v-.767h4.814zm-.156-5.659-4.433 6.426h-.581v-.703l4.428-6.406h.586v.683zm-.4-.683v.771h-4.551v-.771h4.551zm1.299 4.526v-.112c0-.381.055-.734.166-1.06.11-.329.27-.613.478-.854.209-.245.461-.433.757-.567.296-.136.628-.205.996-.205.371 0 .705.069 1.001.205.3.134.553.322.762.567.211.241.373.525.483.854.111.326.166.679.166 1.06v.112c0 .381-.055.734-.166 1.06-.11.325-.272.61-.483.854-.209.241-.461.43-.757.566a2.369 2.369 0 0 1-.996.201c-.371 0-.705-.067-1.001-.201a2.26 2.26 0 0 1-.762-.566 2.575 2.575 0 0 1-.478-.854 3.267 3.267 0 0 1-.166-1.06zm.903-.112v.112c0 .264.031.513.093.747.062.231.154.436.278.615.127.179.285.321.474.425.189.101.408.151.659.151.247 0 .464-.05.649-.151.189-.104.345-.246.469-.425a1.94 1.94 0 0 0 .278-.615 2.78 2.78 0 0 0 .098-.747v-.112c0-.261-.033-.506-.098-.738a1.883 1.883 0 0 0-.283-.62 1.303 1.303 0 0 0-1.123-.586c-.247 0-.465.052-.654.157a1.401 1.401 0 0 0-.469.429 1.96 1.96 0 0 0-.278.62 2.842 2.842 0 0 0-.093.738zm4.8.112v-.112c0-.381.055-.734.166-1.06.11-.329.27-.613.478-.854.209-.245.461-.433.757-.567.296-.136.628-.205.996-.205.371 0 .705.069 1.001.205.3.134.554.322.762.567.212.241.373.525.483.854.111.326.166.679.166 1.06v.112c0 .381-.055.734-.166 1.06-.11.325-.271.61-.483.854-.208.241-.461.43-.757.566a2.369 2.369 0 0 1-.996.201c-.371 0-.705-.067-1.001-.201a2.26 2.26 0 0 1-.762-.566 2.575 2.575 0 0 1-.478-.854 3.267 3.267 0 0 1-.166-1.06zm.903-.112v.112c0 .264.031.513.093.747.062.231.155.436.278.615.127.179.285.321.474.425.189.101.408.151.659.151.247 0 .464-.05.649-.151.189-.104.345-.246.469-.425a1.94 1.94 0 0 0 .278-.615 2.74 2.74 0 0 0 .098-.747v-.112a2.68 2.68 0 0 0-.098-.738 1.883 1.883 0 0 0-.283-.62 1.31 1.31 0 0 0-1.123-.586c-.247 0-.465.052-.654.157a1.401 1.401 0 0 0-.469.429 1.982 1.982 0 0 0-.278.62 2.842 2.842 0 0 0-.093.738zm5.938-1.538v4.233h-.909v-5.283h.86l.049 1.05zm-.186 1.391-.42-.014c.003-.362.051-.695.142-1.001a2.37 2.37 0 0 1 .405-.806c.179-.228.402-.404.669-.527.267-.127.576-.191.928-.191.247 0 .475.036.683.108.209.068.389.177.542.327.153.149.272.342.357.576.084.234.127.517.127.849v3.521h-.904v-3.477c0-.276-.047-.498-.141-.664a.81.81 0 0 0-.391-.361 1.412 1.412 0 0 0-.596-.117c-.266 0-.489.047-.669.141a1.131 1.131 0 0 0-.429.391 1.757 1.757 0 0 0-.235.571 3.242 3.242 0 0 0-.068.674zm3.423-.498-.606.186c.004-.29.051-.568.142-.835a2.27 2.27 0 0 1 .405-.713c.179-.208.399-.373.66-.493.26-.124.558-.186.893-.186.283 0 .534.038.752.112.221.075.407.191.557.347.153.153.268.35.346.591.078.241.118.527.118.859v3.472h-.909v-3.481c0-.297-.047-.526-.141-.689a.743.743 0 0 0-.391-.347 1.567 1.567 0 0 0-.596-.102c-.198 0-.374.034-.527.102a1.092 1.092 0 0 0-.386.284 1.23 1.23 0 0 0-.239.405 1.508 1.508 0 0 0-.078.488z"/><path fill="#ADADAD" d="M126.773 406.5h-1.409a2.95 2.95 0 0 0-1.188-1.841 3.185 3.185 0 0 0-.971-.477 3.891 3.891 0 0 0-1.114-.159 3.55 3.55 0 0 0-1.915.534c-.568.356-1.021.881-1.358 1.574-.333.693-.5 1.543-.5 2.551 0 1.007.167 1.858.5 2.551.337.693.79 1.218 1.358 1.574a3.55 3.55 0 0 0 1.915.534c.386 0 .757-.053 1.114-.159.356-.106.679-.263.971-.472a2.97 2.97 0 0 0 1.188-1.846h1.409a4.696 4.696 0 0 1-.58 1.596c-.28.47-.629.87-1.045 1.199a4.569 4.569 0 0 1-1.404.744 5.213 5.213 0 0 1-1.653.256c-.993 0-1.875-.242-2.648-.727-.773-.485-1.38-1.174-1.824-2.068-.443-.894-.664-1.955-.664-3.182 0-1.227.221-2.288.664-3.182.444-.894 1.051-1.583 1.824-2.068.773-.485 1.655-.727 2.648-.727.587 0 1.138.085 1.653.255.519.171.987.421 1.404.75.416.326.765.724 1.045 1.193.28.466.474.999.58 1.597zm2.095 8v-8.727h1.295v1.318h.091c.159-.432.447-.782.864-1.051a2.542 2.542 0 0 1 1.409-.404c.098 0 .222.002.369.006.148.004.26.01.336.017v1.364a3.462 3.462 0 0 0-.313-.051 3.026 3.026 0 0 0-.506-.04c-.424 0-.803.089-1.136.267-.33.174-.591.417-.784.727a1.963 1.963 0 0 0-.284 1.051v5.523h-1.341zm9.346.182c-.84 0-1.566-.186-2.176-.557a3.736 3.736 0 0 1-1.403-1.568c-.326-.674-.489-1.459-.489-2.352 0-.894.163-1.682.489-2.364.329-.686.788-1.22 1.375-1.602.591-.387 1.28-.58 2.068-.58.455 0 .904.076 1.347.227.443.152.846.398 1.21.739.364.337.653.784.869 1.341.216.557.324 1.242.324 2.057v.568h-6.727v-1.159h5.363c0-.493-.098-.932-.295-1.318a2.219 2.219 0 0 0-.83-.915c-.356-.224-.776-.335-1.261-.335-.534 0-.996.132-1.386.397a2.617 2.617 0 0 0-.892 1.023 2.997 2.997 0 0 0-.313 1.352v.773c0 .659.114 1.218.341 1.676.231.455.551.801.96 1.04.409.235.885.352 1.426.352.353 0 .671-.049.955-.147.288-.103.536-.254.744-.455.209-.205.37-.458.483-.761l1.296.363c-.137.44-.366.826-.688 1.159-.322.33-.719.587-1.193.773a4.421 4.421 0 0 1-1.597.273zm8.222.023a3.554 3.554 0 0 1-1.506-.313 2.583 2.583 0 0 1-1.073-.915c-.266-.401-.398-.886-.398-1.454 0-.5.098-.906.295-1.216.197-.315.46-.561.79-.739.33-.178.693-.31 1.091-.398.401-.09.805-.162 1.21-.215.53-.069.96-.12 1.29-.154.333-.038.576-.1.727-.187.156-.087.233-.239.233-.455v-.045c0-.561-.153-.997-.46-1.307-.303-.311-.763-.466-1.381-.466-.64 0-1.142.14-1.505.42-.364.281-.62.58-.767.898l-1.273-.454c.227-.531.53-.944.909-1.239a3.398 3.398 0 0 1 1.25-.625 5.193 5.193 0 0 1 1.341-.182c.28 0 .602.034.966.102.367.065.721.199 1.062.404.345.204.631.513.858.926.227.413.341.966.341 1.659v5.75h-1.341v-1.182h-.068c-.091.19-.242.392-.455.608-.212.216-.494.4-.846.551-.352.152-.782.228-1.29.228zm.205-1.205c.53 0 .977-.104 1.341-.312a2.14 2.14 0 0 0 .829-.807c.189-.33.284-.676.284-1.04v-1.227c-.057.068-.182.13-.375.187a6.143 6.143 0 0 1-.659.142c-.246.038-.487.072-.722.102-.231.027-.418.05-.562.069a5.114 5.114 0 0 0-.977.221c-.3.099-.542.248-.728.449-.181.197-.272.466-.272.807 0 .466.172.818.517 1.057.348.235.79.352 1.324.352zm10.038-7.727v1.136h-4.523v-1.136h4.523zm-3.205-2.091h1.341V412c0 .379.055.663.165.852a.853.853 0 0 0 .432.375c.178.061.365.091.562.091.148 0 .269-.007.364-.023l.227-.045.273 1.205a2.74 2.74 0 0 1-.381.102 2.785 2.785 0 0 1-.619.057 2.7 2.7 0 0 1-1.114-.245 2.214 2.214 0 0 1-.897-.744c-.235-.333-.353-.754-.353-1.261v-8.682zm8.787 11c-.841 0-1.566-.186-2.176-.557a3.736 3.736 0 0 1-1.403-1.568c-.326-.674-.489-1.459-.489-2.352 0-.894.163-1.682.489-2.364.329-.686.788-1.22 1.375-1.602.591-.387 1.28-.58 2.068-.58.455 0 .903.076 1.347.227.443.152.846.398 1.21.739.363.337.653.784.869 1.341.216.557.324 1.242.324 2.057v.568h-6.727v-1.159h5.363c0-.493-.098-.932-.295-1.318a2.219 2.219 0 0 0-.83-.915c-.356-.224-.776-.335-1.261-.335-.534 0-.996.132-1.386.397a2.617 2.617 0 0 0-.892 1.023 2.997 2.997 0 0 0-.313 1.352v.773c0 .659.114 1.218.341 1.676.231.455.551.801.96 1.04.409.235.885.352 1.426.352.353 0 .671-.049.955-.147.288-.103.536-.254.744-.455.209-.205.37-.458.483-.761l1.296.363c-.137.44-.366.826-.688 1.159-.322.33-.72.587-1.193.773a4.425 4.425 0 0 1-1.597.273zm12.722.023a3.554 3.554 0 0 1-1.506-.313 2.592 2.592 0 0 1-1.074-.915c-.265-.401-.397-.886-.397-1.454 0-.5.098-.906.295-1.216.197-.315.46-.561.79-.739.329-.178.693-.31 1.091-.398.401-.09.805-.162 1.21-.215.53-.069.96-.12 1.29-.154.333-.038.576-.1.727-.187.155-.087.233-.239.233-.455v-.045c0-.561-.153-.997-.46-1.307-.303-.311-.763-.466-1.381-.466-.64 0-1.142.14-1.506.42-.363.281-.619.58-.767.898l-1.272-.454c.227-.531.53-.944.909-1.239a3.398 3.398 0 0 1 1.25-.625 5.193 5.193 0 0 1 1.341-.182c.28 0 .602.034.966.102.367.065.721.199 1.062.404.345.204.631.513.858.926.227.413.341.966.341 1.659v5.75h-1.341v-1.182h-.068a2.36 2.36 0 0 1-.455.608c-.212.216-.494.4-.846.551-.353.152-.782.228-1.29.228zm.205-1.205c.53 0 .977-.104 1.34-.312.368-.209.644-.478.83-.807.189-.33.284-.676.284-1.04v-1.227c-.057.068-.182.13-.375.187a6.143 6.143 0 0 1-.659.142c-.246.038-.487.072-.722.102-.231.027-.418.05-.562.069a5.097 5.097 0 0 0-.977.221c-.3.099-.542.248-.728.449-.181.197-.272.466-.272.807 0 .466.172.818.517 1.057.348.235.789.352 1.324.352zm12.083-4.25v5.25h-1.341v-8.727h1.296v1.363h.113c.205-.443.516-.799.932-1.068.417-.273.955-.409 1.614-.409.591 0 1.108.121 1.551.364.443.238.788.602 1.034 1.091.246.484.369 1.098.369 1.841v5.545h-1.34v-5.455c0-.685-.178-1.219-.535-1.602-.356-.386-.844-.579-1.465-.579-.428 0-.811.092-1.148.278a1.992 1.992 0 0 0-.79.813c-.193.356-.29.787-.29 1.295zm11.678 5.432c-.841 0-1.566-.186-2.176-.557a3.744 3.744 0 0 1-1.404-1.568c-.325-.674-.488-1.459-.488-2.352 0-.894.163-1.682.488-2.364.33-.686.788-1.22 1.375-1.602.591-.387 1.281-.58 2.068-.58.455 0 .904.076 1.347.227.443.152.847.398 1.21.739.364.337.654.784.87 1.341.216.557.323 1.242.323 2.057v.568h-6.727v-1.159h5.364c0-.493-.099-.932-.296-1.318a2.217 2.217 0 0 0-.829-.915c-.356-.224-.777-.335-1.262-.335-.534 0-.996.132-1.386.397a2.625 2.625 0 0 0-.892 1.023 3.01 3.01 0 0 0-.312 1.352v.773c0 .659.113 1.218.34 1.676.232.455.552.801.961 1.04.409.235.884.352 1.426.352.352 0 .67-.049.954-.147.288-.103.536-.254.745-.455.208-.205.369-.458.483-.761l1.295.363a2.86 2.86 0 0 1-.687 1.159 3.35 3.35 0 0 1-1.194.773 4.416 4.416 0 0 1-1.596.273zm7.631-.182-2.66-8.727h1.41l1.886 6.682h.091l1.863-6.682h1.432l1.841 6.659h.091l1.886-6.659h1.41l-2.66 8.727h-1.318l-1.909-6.705h-.136l-1.909 6.705h-1.318zm15.522 0v-8.727h1.296v1.363h.113c.182-.466.476-.827.881-1.085.405-.261.892-.392 1.46-.392.576 0 1.055.131 1.438.392.386.258.687.619.903 1.085h.091c.224-.45.559-.808 1.006-1.074.447-.268.983-.403 1.608-.403.78 0 1.418.244 1.914.733.497.485.745 1.241.745 2.267v5.841h-1.341v-5.841c0-.644-.176-1.104-.528-1.381a1.962 1.962 0 0 0-1.245-.414c-.613 0-1.089.185-1.426.556-.337.368-.506.834-.506 1.398v5.682h-1.363v-5.977c0-.496-.161-.896-.483-1.199-.322-.307-.737-.46-1.245-.46-.348 0-.674.092-.977.278a2.107 2.107 0 0 0-.727.773 2.277 2.277 0 0 0-.273 1.13v5.455h-1.341zm17.566.182c-.841 0-1.567-.186-2.177-.557a3.742 3.742 0 0 1-1.403-1.568c-.326-.674-.489-1.459-.489-2.352 0-.894.163-1.682.489-2.364.33-.686.788-1.22 1.375-1.602.591-.387 1.28-.58 2.068-.58.455 0 .904.076 1.347.227.443.152.846.398 1.21.739.364.337.653.784.869 1.341.216.557.324 1.242.324 2.057v.568h-6.727v-1.159h5.364c0-.493-.099-.932-.296-1.318a2.223 2.223 0 0 0-.829-.915c-.356-.224-.777-.335-1.262-.335-.534 0-.996.132-1.386.397a2.625 2.625 0 0 0-.892 1.023 3.01 3.01 0 0 0-.313 1.352v.773c0 .659.114 1.218.341 1.676.231.455.551.801.96 1.04.41.235.885.352 1.427.352.352 0 .67-.049.954-.147.288-.103.536-.254.744-.455.209-.205.37-.458.483-.761l1.296.363c-.136.44-.366.826-.688 1.159-.322.33-.719.587-1.193.773a4.416 4.416 0 0 1-1.596.273zm9.312 0c-.841 0-1.566-.186-2.176-.557a3.736 3.736 0 0 1-1.403-1.568c-.326-.674-.489-1.459-.489-2.352 0-.894.163-1.682.489-2.364.329-.686.787-1.22 1.375-1.602.59-.387 1.28-.58 2.068-.58.454 0 .903.076 1.346.227.444.152.847.398 1.211.739.363.337.653.784.869 1.341.216.557.324 1.242.324 2.057v.568h-6.728v-1.159h5.364c0-.493-.098-.932-.295-1.318a2.226 2.226 0 0 0-.83-.915c-.356-.224-.776-.335-1.261-.335-.534 0-.996.132-1.387.397a2.633 2.633 0 0 0-.892 1.023 3.01 3.01 0 0 0-.312 1.352v.773c0 .659.113 1.218.341 1.676.231.455.551.801.96 1.04.409.235.884.352 1.426.352.352 0 .671-.049.955-.147.288-.103.536-.254.744-.455.208-.205.369-.458.483-.761l1.295.363a2.86 2.86 0 0 1-.687 1.159c-.322.33-.72.587-1.193.773a4.425 4.425 0 0 1-1.597.273zm9.449-8.909v1.136h-4.523v-1.136h4.523zm-3.205-2.091h1.341V412c0 .379.055.663.165.852a.853.853 0 0 0 .432.375c.178.061.365.091.562.091.148 0 .269-.007.364-.023l.227-.045.273 1.205a2.74 2.74 0 0 1-.381.102 2.785 2.785 0 0 1-.619.057 2.7 2.7 0 0 1-1.114-.245 2.214 2.214 0 0 1-.897-.744c-.235-.333-.353-.754-.353-1.261v-8.682zm5.222 10.818v-8.727h1.341v8.727h-1.341zm.682-10.182a.951.951 0 0 1-.676-.267.857.857 0 0 1-.279-.642c0-.25.093-.464.279-.642a.951.951 0 0 1 .676-.267c.261 0 .485.089.67.267.19.178.284.392.284.642s-.094.464-.284.642a.932.932 0 0 1-.67.267zm4.456 4.932v5.25h-1.341v-8.727h1.295v1.363h.114c.205-.443.515-.799.932-1.068.416-.273.954-.409 1.613-.409.591 0 1.108.121 1.552.364.443.238.787.602 1.034 1.091.246.484.369 1.098.369 1.841v5.545h-1.341v-5.455c0-.685-.178-1.219-.534-1.602-.356-.386-.845-.579-1.466-.579-.428 0-.811.092-1.148.278a1.99 1.99 0 0 0-.789.813c-.194.356-.29.787-.29 1.295zm11.541 8.705c-.648 0-1.205-.084-1.67-.25a3.54 3.54 0 0 1-1.165-.648 3.54 3.54 0 0 1-.733-.852l1.068-.75c.121.159.275.34.46.545.186.208.44.388.762.54.325.155.751.233 1.278.233.705 0 1.286-.171 1.744-.512.459-.341.688-.875.688-1.602v-1.773h-.114a7.079 7.079 0 0 1-.42.591c-.178.231-.436.438-.773.62-.333.178-.784.267-1.352.267a3.646 3.646 0 0 1-1.898-.5c-.557-.334-.998-.819-1.324-1.455-.322-.636-.483-1.409-.483-2.318 0-.894.157-1.672.472-2.335.314-.667.752-1.182 1.312-1.546.561-.367 1.209-.551 1.943-.551.569 0 1.019.095 1.353.284.337.186.594.398.772.637.182.234.322.428.421.579h.136v-1.386h1.296v8.977c0 .75-.171 1.36-.512 1.83-.337.473-.791.82-1.363 1.039a5.135 5.135 0 0 1-1.898.336zm-.045-4.796c.537 0 .992-.123 1.363-.369s.654-.601.847-1.063c.193-.462.29-1.015.29-1.659 0-.629-.095-1.184-.285-1.665-.189-.481-.469-.858-.84-1.13-.372-.273-.83-.409-1.375-.409-.569 0-1.042.144-1.421.431a2.637 2.637 0 0 0-.847 1.16 4.487 4.487 0 0 0-.278 1.613c0 .606.095 1.142.284 1.608.193.462.477.826.852 1.091.379.261.849.392 1.41.392z"/><rect width="74.38" height="27.46" x="547.369" y="388.77" fill="url(#m)" rx="7.75"/><path fill="#878786" fill-opacity=".5" d="M561 405.5a3 3 0 1 1 .001-6.002A3 3 0 0 1 561 405.5z"/><path fill="#878786" fill-opacity=".8" d="M574.763 407h-1.264l3.657-9.961h1.245l3.658 9.961h-1.265l-2.976-8.385h-.078L574.763 407zm.467-3.891h5.097v1.07h-5.097v-1.07zm11.259 4.047c-.7 0-1.303-.166-1.809-.496a3.234 3.234 0 0 1-1.167-1.367c-.272-.581-.409-1.244-.409-1.989 0-.759.14-1.429.419-2.009a3.304 3.304 0 0 1 1.177-1.367c.505-.33 1.096-.496 1.77-.496.525 0 .999.097 1.42.292a2.72 2.72 0 0 1 1.036.817c.269.35.436.759.501 1.226h-1.148c-.087-.341-.282-.642-.583-.905-.299-.266-.701-.399-1.207-.399-.447 0-.839.117-1.177.35-.334.231-.595.557-.783.978-.184.418-.277.91-.277 1.474 0 .577.091 1.079.273 1.507.184.428.444.761.778.997.337.237.732.356 1.186.356.299 0 .569-.052.813-.156a1.668 1.668 0 0 0 .977-1.148h1.148a2.666 2.666 0 0 1-.481 1.192 2.69 2.69 0 0 1-1.007.836c-.415.205-.898.307-1.45.307zm7.865-7.627v.973h-3.872v-.973h3.872zm-2.743-1.789h1.148v7.12c0 .324.047.567.141.73.097.158.22.265.369.321.153.051.313.077.482.077.126 0 .23-.006.311-.019l.195-.039.233 1.031a2.46 2.46 0 0 1-.856.136 2.3 2.3 0 0 1-.953-.209 1.899 1.899 0 0 1-.769-.637c-.201-.285-.301-.645-.301-1.08v-7.431zm4.47 9.26v-7.471h1.147V407h-1.147zm.583-8.716a.819.819 0 0 1-.579-.228.74.74 0 0 1-.238-.55c0-.214.08-.397.238-.549a.815.815 0 0 1 .579-.229c.224 0 .415.076.574.229a.726.726 0 0 1 .243.549.73.73 0 0 1-.243.55.8.8 0 0 1-.574.228zm5.702 8.872c-.675 0-1.267-.161-1.776-.482a3.273 3.273 0 0 1-1.186-1.347c-.282-.577-.424-1.252-.424-2.023 0-.779.142-1.458.424-2.038a3.263 3.263 0 0 1 1.186-1.352c.509-.321 1.101-.482 1.776-.482.674 0 1.264.161 1.77.482.509.321.905.771 1.187 1.352.285.58.428 1.259.428 2.038 0 .771-.143 1.446-.428 2.023a3.227 3.227 0 0 1-1.187 1.347c-.506.321-1.096.482-1.77.482zm0-1.031c.512 0 .933-.132 1.264-.394.331-.263.576-.608.735-1.036.158-.428.238-.892.238-1.391 0-.5-.08-.965-.238-1.396a2.356 2.356 0 0 0-.735-1.046c-.331-.266-.752-.399-1.264-.399-.513 0-.934.133-1.265.399a2.354 2.354 0 0 0-.734 1.046 4.001 4.001 0 0 0-.239 1.396c0 .499.08.963.239 1.391.159.428.403.773.734 1.036.331.262.752.394 1.265.394zm6.285-3.619V407h-1.148v-7.471h1.109v1.168h.097c.175-.38.441-.684.798-.915.356-.233.817-.35 1.381-.35.506 0 .948.104 1.328.311.379.205.674.516.885.934.211.415.316.941.316 1.576V407h-1.148v-4.669c0-.587-.152-1.044-.457-1.372-.305-.33-.723-.496-1.255-.496a2 2 0 0 0-.982.239 1.69 1.69 0 0 0-.676.695c-.166.305-.248.675-.248 1.109z"/><rect width="74.38" height="27.46" x="547.369" y="388.77" stroke="url(#n)" stroke-width=".5" rx="7.75"/><rect width="602.5" height="60.5" x="30.75" y="372.25" stroke="#1C1C1C" stroke-width="1.5" rx="11.25"/><path fill="url(#o)" d="M0 0h128v664H0z" transform="matrix(0 -1 1 0 0 473.5)"/></g><rect width="662" height="458" x="1" y="1.5" stroke="url(#p)" stroke-width="2" rx="31"/><defs><linearGradient id="b" x1="331.244" x2="350.079" y1="-109.5" y2="464.882" gradientUnits="userSpaceOnUse"><stop offset=".064" stop-color="#1A1A1A"/><stop offset=".499" stop-color="#101010"/><stop offset="1" stop-color="#101010" stop-opacity="0"/></linearGradient><linearGradient id="c" x1="545.615" x2="604.725" y1="37.133" y2="52.329" gradientUnits="userSpaceOnUse"><stop stop-color="#363636"/><stop offset=".586" stop-color="#1A1A1A"/></linearGradient><linearGradient id="d" x1="551.176" x2="592.977" y1="45.371" y2="87.083" gradientUnits="userSpaceOnUse"><stop offset=".007" stop-color="#373737"/><stop offset="1" stop-color="#2F2F2F" stop-opacity="0"/></linearGradient><linearGradient id="e" x1="70.898" x2="101.147" y1="127.613" y2="130.913" gradientUnits="userSpaceOnUse"><stop stop-color="#363636"/><stop offset=".586" stop-color="#1A1A1A"/></linearGradient><linearGradient id="f" x1="73.599" x2="107.959" y1="137.041" y2="151.592" gradientUnits="userSpaceOnUse"><stop offset=".007" stop-color="#373737"/><stop offset="1" stop-color="#2F2F2F" stop-opacity="0"/></linearGradient><linearGradient id="g" x1="529.264" x2="598.905" y1="131.133" y2="152.841" gradientUnits="userSpaceOnUse"><stop stop-color="#363636"/><stop offset=".586" stop-color="#1A1A1A"/></linearGradient><linearGradient id="h" x1="536.007" x2="577.06" y1="139.371" y2="189.043" gradientUnits="userSpaceOnUse"><stop offset=".007" stop-color="#373737"/><stop offset="1" stop-color="#2F2F2F" stop-opacity="0"/></linearGradient><linearGradient id="i" x1="515.898" x2="546.147" y1="195.613" y2="198.913" gradientUnits="userSpaceOnUse"><stop stop-color="#363636"/><stop offset=".586" stop-color="#1A1A1A"/></linearGradient><linearGradient id="j" x1="518.599" x2="552.959" y1="205.041" y2="219.592" gradientUnits="userSpaceOnUse"><stop offset=".007" stop-color="#373737"/><stop offset="1" stop-color="#2F2F2F"/></linearGradient><linearGradient id="k" x1="70.898" x2="101.147" y1="374.613" y2="377.913" gradientUnits="userSpaceOnUse"><stop stop-color="#363636"/><stop offset=".586" stop-color="#1A1A1A"/></linearGradient><linearGradient id="l" x1="73.599" x2="107.959" y1="384.041" y2="398.592" gradientUnits="userSpaceOnUse"><stop offset=".007" stop-color="#373737"/><stop offset="1" stop-color="#2F2F2F" stop-opacity="0"/></linearGradient><linearGradient id="m" x1="535.18" x2="601.171" y1="378.133" y2="397.416" gradientUnits="userSpaceOnUse"><stop stop-color="#363636"/><stop offset=".586" stop-color="#1A1A1A"/></linearGradient><linearGradient id="n" x1="541.501" x2="582.973" y1="386.371" y2="433.408" gradientUnits="userSpaceOnUse"><stop offset=".007" stop-color="#373737"/><stop offset="1" stop-color="#2F2F2F" stop-opacity="0"/></linearGradient><linearGradient id="o" x1="16.777" x2="152.576" y1="290.988" y2="291.013" gradientUnits="userSpaceOnUse"><stop/><stop offset=".824" stop-opacity="0"/></linearGradient><linearGradient id="p" x1="-22.093" x2="395.228" y1="-8.579" y2="646.879" gradientUnits="userSpaceOnUse"><stop stop-color="#2F2F2F"/><stop offset=".642" stop-color="#101010" stop-opacity="0"/></linearGradient><clipPath id="a"><rect width="664" height="460" y=".5" fill="#fff" rx="32"/></clipPath></defs></svg>