<svg xmlns="http://www.w3.org/2000/svg" width="556" height="396" fill="none"><path d="M0 0h556v396H0z"/><rect width="554" height="378" x="1" y="17" fill="url(#a)" rx="31"/><path stroke="#2F2F2F" stroke-linecap="round" d="M85.754 317.264h434.533M85.754 266.971h434.533M85.754 216.676h434.533M85.754 166.383h434.533M85.754 116.09h434.533" opacity=".25"/><path fill="#ADADAD" fill-opacity=".16" d="M34.722 170.866a4.32 4.32 0 0 1-1.431-.273 3.423 3.423 0 0 1-1.307-.88c-.394-.417-.71-.979-.949-1.688-.239-.712-.358-1.606-.358-2.682 0-1.03.097-1.943.29-2.738.193-.799.473-1.472.84-2.017.368-.55.811-.966 1.33-1.25.523-.284 1.112-.426 1.767-.426.652 0 1.231.13 1.739.392a3.31 3.31 0 0 1 1.25 1.079c.322.462.53.994.625 1.597h-1.386a2.566 2.566 0 0 0-.75-1.301c-.372-.345-.864-.517-1.478-.517-.901 0-1.611.392-2.13 1.176-.516.784-.775 1.884-.779 3.301h.091a3.414 3.414 0 0 1 1.733-1.358 3.388 3.388 0 0 1 1.13-.188 3.48 3.48 0 0 1 1.83.5 3.7 3.7 0 0 1 1.33 1.37c.333.579.5 1.244.5 1.994 0 .72-.161 1.379-.483 1.977a3.682 3.682 0 0 1-1.358 1.421c-.58.348-1.261.519-2.046.511zm0-1.25c.478 0 .906-.119 1.285-.358.382-.238.683-.559.903-.96.224-.402.335-.849.335-1.341a2.68 2.68 0 0 0-.324-1.312 2.47 2.47 0 0 0-.88-.949 2.33 2.33 0 0 0-1.273-.353c-.36 0-.695.072-1.006.216-.31.14-.583.334-.818.58a2.796 2.796 0 0 0-.545.846 2.69 2.69 0 0 0 1.023 3.262 2.35 2.35 0 0 0 1.3.369zm9.917 1.25c-.856 0-1.586-.233-2.188-.699-.602-.469-1.062-1.149-1.38-2.04-.319-.893-.478-1.973-.478-3.238 0-1.258.16-2.332.477-3.222.322-.894.785-1.575 1.387-2.045.606-.474 1.333-.71 2.182-.71.848 0 1.573.236 2.176.71.606.47 1.068 1.151 1.386 2.045.322.89.483 1.964.483 3.222 0 1.265-.159 2.345-.477 3.238-.318.891-.779 1.571-1.38 2.04-.603.466-1.332.699-2.188.699zm0-1.25c.848 0 1.507-.409 1.977-1.227.47-.818.705-1.985.705-3.5 0-1.008-.108-1.866-.324-2.574-.212-.708-.52-1.248-.92-1.619a2.029 2.029 0 0 0-1.438-.557c-.841 0-1.498.415-1.972 1.244-.473.826-.71 1.994-.71 3.506 0 1.007.106 1.863.318 2.568.212.705.517 1.241.915 1.608.401.367.884.551 1.449.551zm7.477-2.091-.023-1.659h.273l3.818-3.886h1.66l-4.069 4.113h-.114l-1.545 1.432zm-1.25 3.182v-11.636h1.34v11.636h-1.34zm5.545 0-3.409-4.318.955-.932 4.159 5.25H56.41zM34.79 221.163c-.75 0-1.418-.129-2.005-.386-.583-.258-1.047-.616-1.392-1.074a2.886 2.886 0 0 1-.557-1.608h1.432c.03.375.159.699.386.971.228.269.525.478.892.625.368.148.775.222 1.222.222.5 0 .943-.087 1.33-.261.386-.175.689-.417.909-.728.22-.31.33-.67.33-1.079 0-.428-.107-.805-.32-1.131-.211-.329-.522-.587-.93-.773-.41-.185-.91-.278-1.5-.278h-.933v-1.25h.932c.462 0 .867-.083 1.216-.25.352-.167.627-.402.824-.705.2-.303.301-.659.301-1.068 0-.394-.087-.736-.261-1.028a1.787 1.787 0 0 0-.739-.682c-.314-.163-.686-.244-1.114-.244-.401 0-.78.074-1.136.221a2.12 2.12 0 0 0-.864.631 1.642 1.642 0 0 0-.363.989h-1.364c.023-.61.207-1.144.551-1.603a3.463 3.463 0 0 1 1.352-1.079 4.364 4.364 0 0 1 1.847-.387c.72 0 1.337.146 1.852.438a3.09 3.09 0 0 1 1.188 1.142c.276.473.415.985.415 1.534 0 .655-.173 1.214-.517 1.676-.341.462-.805.782-1.392.96v.091c.734.122 1.308.434 1.721.938.413.5.62 1.119.62 1.858 0 .632-.173 1.201-.518 1.704-.34.5-.806.894-1.397 1.182-.591.288-1.264.432-2.017.432zm10.052 0c-.856 0-1.585-.233-2.188-.699-.602-.47-1.062-1.149-1.38-2.04-.319-.894-.478-1.973-.478-3.238 0-1.258.16-2.332.478-3.222.322-.894.784-1.576 1.386-2.045.606-.474 1.333-.711 2.182-.711.848 0 1.574.237 2.176.711.606.469 1.068 1.151 1.386 2.045.322.89.483 1.964.483 3.222 0 1.265-.159 2.344-.477 3.238-.318.891-.778 1.57-1.38 2.04-.603.466-1.332.699-2.188.699zm0-1.25c.848 0 1.507-.409 1.977-1.227.47-.818.705-1.985.705-3.5 0-1.008-.108-1.866-.324-2.574-.212-.708-.52-1.248-.92-1.619a2.029 2.029 0 0 0-1.438-.557c-.841 0-1.498.414-1.972 1.244-.473.826-.71 1.994-.71 3.506 0 1.007.106 1.863.318 2.568.212.704.517 1.24.915 1.608.401.367.884.551 1.449.551zm7.477-2.091-.023-1.659h.273l3.818-3.886h1.66l-4.069 4.113h-.114l-1.545 1.432zm-1.25 3.182v-11.636h1.341v11.636h-1.34zm5.545 0-3.409-4.318.955-.932 4.16 5.25h-1.706zM34.95 259.661v11.636h-1.41v-10.159h-.068l-2.84 1.886v-1.432l2.909-1.931h1.409zm7.142 11.795c-.856 0-1.585-.233-2.188-.699-.602-.47-1.062-1.15-1.38-2.04-.319-.894-.478-1.973-.478-3.238 0-1.258.16-2.332.478-3.222.322-.894.784-1.576 1.386-2.045.606-.474 1.333-.711 2.182-.711.848 0 1.574.237 2.176.711.606.469 1.068 1.151 1.386 2.045.322.89.483 1.964.483 3.222 0 1.265-.159 2.344-.477 3.238-.318.89-.778 1.57-1.38 2.04-.603.466-1.332.699-2.188.699zm0-1.25c.848 0 1.507-.409 1.977-1.227.47-.818.705-1.985.705-3.5 0-1.008-.108-1.866-.324-2.574-.212-.709-.52-1.248-.92-1.619a2.029 2.029 0 0 0-1.438-.557c-.841 0-1.498.414-1.972 1.244-.473.826-.71 1.994-.71 3.506 0 1.007.106 1.863.318 2.568.212.704.517 1.24.915 1.608.401.367.884.551 1.449.551zm7.477-2.091-.023-1.659h.273l3.818-3.886h1.66l-4.069 4.113h-.114l-1.545 1.432zm-1.25 3.182v-11.636h1.341v11.636h-1.34zm5.545 0-3.409-4.318.955-.932 4.16 5.25h-1.706zm-19.21 50.452c-.856 0-1.585-.233-2.187-.699-.602-.47-1.063-1.15-1.38-2.04-.32-.894-.478-1.973-.478-3.238 0-1.258.159-2.332.477-3.222.322-.894.784-1.576 1.386-2.045.606-.474 1.334-.711 2.182-.711.849 0 1.574.237 2.176.711.607.469 1.069 1.151 1.387 2.045.322.89.483 1.964.483 3.222 0 1.265-.16 2.344-.478 3.238-.318.89-.778 1.57-1.38 2.04-.602.466-1.332.699-2.188.699zm0-1.25c.849 0 1.508-.409 1.978-1.227.47-.819.704-1.985.704-3.5 0-1.008-.108-1.866-.324-2.574-.212-.709-.519-1.248-.92-1.62a2.032 2.032 0 0 0-1.438-.556c-.84 0-1.498.414-1.971 1.244-.474.826-.71 1.994-.71 3.506 0 1.007.105 1.863.318 2.568.212.704.517 1.24.914 1.608.402.367.885.551 1.45.551zm-.091-211.88a4.15 4.15 0 0 1 1.432.272c.477.178.913.474 1.307.887.394.409.71.968.949 1.676s.358 1.596.358 2.665c0 1.034-.099 1.952-.296 2.755-.193.8-.473 1.474-.84 2.023-.364.549-.807.966-1.33 1.25-.519.284-1.106.426-1.761.426-.652 0-1.233-.129-1.745-.386a3.43 3.43 0 0 1-1.25-1.085 3.78 3.78 0 0 1-.62-1.62h1.387c.125.534.373.976.745 1.324.375.345.869.517 1.483.517.897 0 1.606-.392 2.125-1.176.522-.784.784-1.892.784-3.324H37.2a3.574 3.574 0 0 1-.756.824 3.331 3.331 0 0 1-.972.534 3.406 3.406 0 0 1-1.136.188 3.533 3.533 0 0 1-1.835-.495 3.745 3.745 0 0 1-1.33-1.369c-.33-.583-.494-1.25-.494-2 0-.712.16-1.364.477-1.955a3.693 3.693 0 0 1 1.353-1.42c.583-.352 1.269-.523 2.056-.511zm0 1.25c-.477 0-.907.119-1.29.358a2.57 2.57 0 0 0-.903.954 2.69 2.69 0 0 0-.33 1.324c0 .485.107.926.319 1.324.216.394.51.708.88.943.376.231.802.347 1.279.347.36 0 .695-.07 1.006-.211.31-.144.581-.339.812-.585a2.84 2.84 0 0 0 .551-.846 2.603 2.603 0 0 0-.13-2.273 2.612 2.612 0 0 0-.898-.966 2.325 2.325 0 0 0-1.296-.369zm10.076 10.704c-.856 0-1.586-.233-2.188-.699-.602-.469-1.062-1.149-1.38-2.039-.319-.894-.478-1.974-.478-3.239 0-1.258.16-2.332.477-3.222.322-.894.785-1.575 1.387-2.045.606-.474 1.333-.71 2.182-.71.848 0 1.573.236 2.176.71.606.47 1.068 1.151 1.386 2.045.322.89.483 1.964.483 3.222 0 1.265-.159 2.345-.477 3.239-.318.89-.779 1.57-1.38 2.039-.603.466-1.332.699-2.188.699zm0-1.25c.848 0 1.507-.409 1.977-1.227.47-.818.705-1.985.705-3.5 0-1.008-.108-1.866-.324-2.574-.212-.708-.52-1.248-.92-1.619a2.029 2.029 0 0 0-1.438-.557c-.841 0-1.498.415-1.972 1.244-.473.826-.71 1.995-.71 3.506 0 1.007.106 1.864.318 2.568.212.705.517 1.241.915 1.608.401.367.884.551 1.449.551zm7.477-2.091-.023-1.659h.273l3.818-3.886h1.66l-4.069 4.113h-.114l-1.545 1.432zm-1.25 3.182v-11.636h1.34v11.636h-1.34zm5.545 0-3.409-4.318.955-.932 4.159 5.25H56.41zm30.252 226.791h1.682l3.954 9.66h.137l3.954-9.66h1.682v11.637h-1.318v-8.841h-.114l-3.636 8.841H91.73l-3.636-8.841h-.114v8.841h-1.318v-11.637zm16.621 11.841a3.554 3.554 0 0 1-1.506-.312 2.58 2.58 0 0 1-1.074-.915c-.265-.401-.398-.886-.398-1.454 0-.5.099-.906.296-1.216.197-.315.46-.561.79-.739a4.138 4.138 0 0 1 1.091-.398 13.22 13.22 0 0 1 1.21-.216c.53-.068.96-.119 1.29-.153.333-.038.575-.1.727-.188.155-.087.233-.238.233-.454v-.046c0-.56-.154-.996-.46-1.306-.303-.311-.764-.466-1.381-.466-.64 0-1.142.14-1.506.42-.363.28-.619.58-.767.898l-1.273-.455c.228-.53.531-.943.91-1.238.382-.3.799-.508 1.25-.625a5.149 5.149 0 0 1 1.34-.182c.281 0 .603.034.966.102.368.065.722.199 1.063.404.345.204.631.513.858.926.227.413.341.966.341 1.659v5.75h-1.341v-1.182h-.068a2.377 2.377 0 0 1-.455.608c-.212.216-.494.4-.846.551-.353.152-.783.227-1.29.227zm.204-1.204c.531 0 .978-.104 1.341-.313a2.123 2.123 0 0 0 1.114-1.846v-1.228c-.057.069-.182.131-.375.188-.19.053-.409.1-.659.142a27.765 27.765 0 0 1-1.284.17c-.349.046-.675.12-.978.222a1.69 1.69 0 0 0-.727.449c-.182.197-.273.466-.273.807 0 .466.173.818.517 1.057.349.234.79.352 1.324.352zm6.243 1v-8.727h1.296v1.318h.091c.159-.432.447-.782.863-1.051a2.544 2.544 0 0 1 1.409-.404c.099 0 .222.002.37.006.147.004.259.009.335.017v1.364a3.724 3.724 0 0 0-.313-.052 3.126 3.126 0 0 0-.505-.039c-.425 0-.803.089-1.137.267a2.011 2.011 0 0 0-.784.727 1.963 1.963 0 0 0-.284 1.051v5.523h-1.341zm79.343 0h-1.477l4.272-11.637h1.455l4.273 11.637h-1.478l-3.477-9.796h-.091l-3.477 9.796zm.545-4.546h5.955v1.25h-5.955v-1.25zm9.608 7.819v-12h1.296v1.386h.159c.098-.152.235-.345.409-.58.178-.238.432-.45.761-.636.334-.189.784-.284 1.353-.284.734 0 1.382.184 1.943.551.56.367.998.888 1.312 1.563.315.674.472 1.469.472 2.386 0 .924-.157 1.725-.472 2.403-.314.675-.75 1.197-1.307 1.568-.556.368-1.198.552-1.926.552-.56 0-1.009-.093-1.346-.279-.337-.189-.597-.403-.779-.642a8.279 8.279 0 0 1-.42-.602h-.114v4.614h-1.341zm1.318-7.637c0 .659.097 1.241.29 1.744.193.5.476.893.847 1.177.371.28.826.42 1.363.42.561 0 1.029-.148 1.404-.443.379-.299.663-.701.852-1.205.193-.507.29-1.072.29-1.693a4.6 4.6 0 0 0-.284-1.659c-.186-.496-.468-.888-.847-1.176-.375-.292-.846-.438-1.415-.438-.545 0-1.003.139-1.375.415-.371.273-.651.656-.84 1.148-.19.489-.285 1.059-.285 1.71zm8.432 4.364v-8.727h1.296v1.318h.091c.159-.432.447-.782.863-1.051a2.544 2.544 0 0 1 1.409-.404c.099 0 .222.002.37.006.147.004.259.009.335.017v1.364a3.724 3.724 0 0 0-.313-.052 3.126 3.126 0 0 0-.505-.039c-.425 0-.803.089-1.137.267a2.011 2.011 0 0 0-.784.727 1.963 1.963 0 0 0-.284 1.051v5.523h-1.341zm75.993-11.637h1.681l3.955 9.66h.136l3.955-9.66h1.682v11.637h-1.318v-8.841h-.114l-3.636 8.841h-1.273l-3.637-8.841h-.113v8.841h-1.318v-11.637zm16.62 11.841a3.546 3.546 0 0 1-1.505-.312 2.58 2.58 0 0 1-1.074-.915c-.265-.401-.398-.886-.398-1.454 0-.5.099-.906.296-1.216.197-.315.46-.561.789-.739.33-.178.694-.311 1.091-.398.402-.091.805-.163 1.21-.216.531-.068.961-.119 1.29-.153.334-.038.576-.1.728-.188.155-.087.232-.238.232-.454v-.046c0-.56-.153-.996-.46-1.306-.303-.311-.763-.466-1.38-.466-.641 0-1.142.14-1.506.42-.364.28-.619.58-.767.898l-1.273-.455c.227-.53.53-.943.909-1.238a3.39 3.39 0 0 1 1.25-.625 5.162 5.162 0 0 1 1.341-.182c.28 0 .602.034.966.102.367.065.722.199 1.063.404.344.204.63.513.857.926.228.413.341.966.341 1.659v5.75h-1.341v-1.182h-.068a2.37 2.37 0 0 1-.454.608c-.212.216-.495.4-.847.551-.352.152-.782.227-1.29.227zm.205-1.204c.53 0 .977-.104 1.341-.313a2.12 2.12 0 0 0 .829-.807c.19-.329.284-.676.284-1.039v-1.228c-.056.069-.181.131-.375.188-.189.053-.409.1-.659.142a27.7 27.7 0 0 1-1.284.17 5.19 5.19 0 0 0-.977.222 1.684 1.684 0 0 0-.727.449c-.182.197-.273.466-.273.807 0 .466.172.818.517 1.057.349.234.79.352 1.324.352zm6.794 4.273a2.93 2.93 0 0 1-.608-.057 1.54 1.54 0 0 1-.369-.103l.341-1.181c.325.083.613.113.863.091.25-.023.472-.135.665-.336.197-.197.377-.517.54-.96l.25-.682-3.227-8.772h1.454l2.409 6.954h.091l2.409-6.954h1.455l-3.705 10a3.81 3.81 0 0 1-.619 1.119 2.321 2.321 0 0 1-.858.665 2.646 2.646 0 0 1-1.091.216zm82.769-14.91h1.409v8.319c0 .742-.136 1.373-.409 1.892a2.77 2.77 0 0 1-1.154 1.181c-.496.269-1.081.404-1.755.404-.637 0-1.203-.116-1.699-.347a2.803 2.803 0 0 1-1.171-1c-.284-.432-.426-.945-.426-1.539h1.387c0 .329.081.617.244.863.167.243.394.432.682.568.288.137.615.205.983.205.405 0 .75-.085 1.034-.256.284-.17.5-.42.648-.75.151-.333.227-.74.227-1.221v-8.319zm9.551 8.069v-5.159h1.341v8.727h-1.341v-1.477h-.091c-.205.443-.523.82-.955 1.13-.431.307-.977.46-1.636.46-.545 0-1.03-.119-1.454-.358-.425-.242-.758-.606-1-1.09-.243-.489-.364-1.105-.364-1.847v-5.545h1.341v5.454c0 .636.178 1.144.534 1.523.36.379.818.568 1.375.568.333 0 .672-.085 1.017-.256.348-.17.64-.432.875-.784.239-.352.358-.801.358-1.346zm5.138-1.682v5.25h-1.341v-8.727h1.295v1.363h.114c.204-.443.515-.799.932-1.068.416-.273.954-.409 1.613-.409.591 0 1.108.121 1.551.364.444.238.788.602 1.035 1.09.246.485.369 1.099.369 1.841v5.546h-1.341v-5.455c0-.685-.178-1.219-.534-1.602-.356-.386-.845-.58-1.466-.58-.428 0-.811.093-1.148.279a1.995 1.995 0 0 0-.79.812c-.193.356-.289.788-.289 1.296zm81.684-6.387h1.409v8.319c0 .742-.136 1.373-.409 1.892a2.77 2.77 0 0 1-1.154 1.181c-.496.269-1.081.404-1.755.404-.637 0-1.203-.116-1.699-.347a2.809 2.809 0 0 1-1.171-1c-.284-.432-.426-.945-.426-1.539h1.387c0 .329.081.617.244.863.167.243.394.432.682.568.288.137.615.205.983.205.405 0 .75-.085 1.034-.256.284-.17.5-.42.648-.75.151-.333.227-.74.227-1.221v-8.319zm9.551 8.069v-5.159h1.341v8.727h-1.341v-1.477h-.091a2.86 2.86 0 0 1-.954 1.13c-.432.307-.978.46-1.637.46-.545 0-1.03-.119-1.454-.358-.425-.242-.758-.606-1-1.09-.243-.489-.364-1.105-.364-1.847v-5.545h1.341v5.454c0 .636.178 1.144.534 1.523.36.379.818.568 1.375.568.333 0 .672-.085 1.017-.256.348-.17.64-.432.875-.784.239-.352.358-.801.358-1.346zm5.138-8.069v11.637h-1.341v-11.637h1.341z"/><path fill="#ADADAD" d="M34.788 59H31.1V47.047h3.852c1.16 0 2.151.24 2.976.718.825.475 1.458 1.157 1.897 2.048.44.888.66 1.95.66 3.187 0 1.245-.222 2.317-.666 3.216a4.74 4.74 0 0 1-1.937 2.066c-.849.479-1.88.718-3.094.718zm-2.24-1.284h2.147c.988 0 1.807-.19 2.457-.572a3.525 3.525 0 0 0 1.453-1.628c.32-.705.479-1.543.479-2.516 0-.965-.158-1.795-.473-2.492-.315-.7-.786-1.237-1.412-1.61-.627-.378-1.407-.567-2.34-.567h-2.312v9.385zm12.816 1.494a3.643 3.643 0 0 1-1.547-.32 2.654 2.654 0 0 1-1.103-.94c-.272-.413-.408-.911-.408-1.495 0-.513.1-.93.303-1.249.202-.323.473-.576.811-.758a4.262 4.262 0 0 1 1.121-.409c.412-.093.827-.167 1.243-.222.545-.07.986-.122 1.325-.157.342-.04.591-.103.747-.193.16-.09.24-.245.24-.467v-.047c0-.575-.158-1.023-.473-1.342-.312-.319-.784-.478-1.419-.478-.657 0-1.173.143-1.546.431-.374.288-.636.596-.788.923l-1.308-.467c.234-.545.545-.97.934-1.273a3.5 3.5 0 0 1 1.284-.642 5.328 5.328 0 0 1 1.378-.186c.288 0 .618.035.992.105.377.066.741.204 1.091.414.354.21.648.527.882.951.233.424.35.992.35 1.705V59h-1.378v-1.214h-.07a2.424 2.424 0 0 1-.467.624 2.689 2.689 0 0 1-.87.567c-.361.155-.803.233-1.324.233zm.21-1.237c.545 0 1.004-.107 1.377-.321a2.186 2.186 0 0 0 1.144-1.897v-1.26c-.058.07-.187.134-.385.192a6.63 6.63 0 0 1-.677.146 30.72 30.72 0 0 1-1.319.175 5.267 5.267 0 0 0-1.004.227 1.73 1.73 0 0 0-.747.462c-.187.202-.28.478-.28.828 0 .479.177.84.531 1.086.358.241.811.362 1.36.362zm10.311-7.938v1.168H51.24v-1.168h4.645zm-3.291-2.147h1.377v8.544c0 .39.057.68.17.875.116.191.264.32.443.386.183.062.375.093.578.093.151 0 .276-.008.373-.023l.234-.047.28 1.237a2.8 2.8 0 0 1-.391.105 2.88 2.88 0 0 1-.636.059c-.39 0-.77-.084-1.144-.251a2.272 2.272 0 0 1-.922-.765c-.242-.342-.362-.774-.362-1.295v-8.918zm8.001 11.322a3.643 3.643 0 0 1-1.546-.32 2.654 2.654 0 0 1-1.103-.94c-.273-.413-.409-.911-.409-1.495 0-.513.101-.93.304-1.249.202-.323.472-.576.81-.758a4.263 4.263 0 0 1 1.121-.409 13.65 13.65 0 0 1 1.244-.222c.544-.07.986-.122 1.325-.157.342-.04.59-.103.746-.193.16-.09.24-.245.24-.467v-.047c0-.575-.158-1.023-.473-1.342-.311-.319-.784-.478-1.418-.478-.658 0-1.173.143-1.547.431-.373.288-.636.596-.788.923l-1.307-.467c.233-.545.545-.97.934-1.273a3.5 3.5 0 0 1 1.284-.642 5.327 5.327 0 0 1 1.377-.186c.288 0 .619.035.992.105a3.17 3.17 0 0 1 1.092.414c.354.21.648.527.881.951.234.424.35.992.35 1.705V59h-1.377v-1.214h-.07c-.094.195-.25.403-.467.624a2.7 2.7 0 0 1-.87.567c-.362.155-.803.233-1.325.233zm.21-1.237c.545 0 1.004-.107 1.378-.321a2.186 2.186 0 0 0 1.144-1.897v-1.26c-.059.07-.187.134-.385.192-.195.054-.42.103-.677.146a30.72 30.72 0 0 1-1.32.175 5.267 5.267 0 0 0-1.003.227 1.731 1.731 0 0 0-.747.462c-.187.202-.28.478-.28.828 0 .479.177.84.53 1.086.359.241.812.362 1.36.362zM72.519 59H71l4.39-11.953h1.493L81.273 59h-1.518l-3.572-10.062h-.094L72.519 59zm.56-4.67h6.117v1.285h-6.117V54.33zm11.247-.723V59h-1.378v-8.965h1.331v1.401h.117c.21-.455.529-.82.957-1.097.428-.28.98-.42 1.657-.42.607 0 1.138.124 1.594.373.455.245.809.619 1.062 1.12.253.499.38 1.13.38 1.892V59h-1.378v-5.603c0-.704-.183-1.253-.549-1.646-.365-.397-.867-.595-1.505-.595-.44 0-.833.095-1.18.286-.342.19-.612.469-.81.834-.2.366-.298.81-.298 1.331zM95.2 59.21a3.643 3.643 0 0 1-1.546-.32 2.654 2.654 0 0 1-1.103-.94c-.273-.413-.409-.911-.409-1.495 0-.513.101-.93.303-1.249.203-.323.473-.576.812-.758a4.262 4.262 0 0 1 1.12-.409c.413-.093.827-.167 1.243-.222.545-.07.987-.122 1.325-.157.343-.04.592-.103.747-.193.16-.09.24-.245.24-.467v-.047c0-.575-.158-1.023-.473-1.342-.311-.319-.784-.478-1.418-.478-.658 0-1.173.143-1.547.431-.373.288-.636.596-.788.923l-1.307-.467c.233-.545.544-.97.934-1.273a3.5 3.5 0 0 1 1.284-.642 5.328 5.328 0 0 1 1.377-.186c.288 0 .619.035.992.105.378.066.741.204 1.092.414.354.21.648.527.88.951.234.424.351.992.351 1.705V59h-1.377v-1.214h-.07a2.424 2.424 0 0 1-.467.624 2.7 2.7 0 0 1-.87.567c-.362.155-.803.233-1.325.233zm.21-1.237c.545 0 1.004-.107 1.378-.321a2.186 2.186 0 0 0 1.144-1.897v-1.26c-.059.07-.187.134-.385.192-.195.054-.42.103-.678.146a30.72 30.72 0 0 1-1.319.175 5.267 5.267 0 0 0-1.003.227 1.73 1.73 0 0 0-.747.462c-.187.202-.28.478-.28.828 0 .479.176.84.53 1.086.358.241.812.362 1.36.362zm7.79-10.926V59h-1.377V47.047h1.377zm3.41 15.315c-.233 0-.441-.02-.624-.059a1.635 1.635 0 0 1-.379-.105l.35-1.214c.334.086.63.117.887.094.257-.024.484-.138.683-.345.202-.202.387-.53.554-.986l.257-.7-3.315-9.012h1.494l2.475 7.144h.093l2.475-7.144h1.494l-3.806 10.272a3.878 3.878 0 0 1-.636 1.15 2.381 2.381 0 0 1-.881.683 2.719 2.719 0 0 1-1.121.222zm12.161-12.327v1.168h-4.646v-1.168h4.646zm-3.292-2.147h1.377v8.544c0 .39.057.68.169.875a.88.88 0 0 0 .444.386c.183.062.375.093.578.093.152 0 .276-.008.373-.023l.234-.047.28 1.237a2.8 2.8 0 0 1-.391.105 2.875 2.875 0 0 1-.636.059c-.389 0-.771-.084-1.144-.251a2.269 2.269 0 0 1-.922-.765c-.242-.342-.362-.774-.362-1.295v-8.918zM120.841 59v-8.965h1.378V59h-1.378zm.701-10.459a.98.98 0 0 1-.695-.274.884.884 0 0 1-.286-.66c0-.256.096-.476.286-.66a.98.98 0 0 1 .695-.273c.268 0 .498.091.688.274a.872.872 0 0 1 .292.66.872.872 0 0 1-.292.659.957.957 0 0 1-.688.274zm6.841 10.646c-.84 0-1.564-.199-2.171-.595a3.872 3.872 0 0 1-1.4-1.64c-.327-.697-.491-1.493-.491-2.388 0-.91.168-1.714.502-2.41.339-.7.81-1.247 1.413-1.64.607-.397 1.315-.595 2.124-.595.63 0 1.199.116 1.704.35.506.233.921.56 1.244.98.322.42.523.91.601 1.471h-1.378c-.105-.408-.338-.77-.7-1.085-.358-.32-.841-.48-1.448-.48-.536 0-1.007.141-1.412.421-.401.276-.714.667-.94 1.173-.221.502-.332 1.092-.332 1.769 0 .692.109 1.295.327 1.809.221.514.533.912.933 1.196.405.284.88.426 1.424.426.358 0 .683-.062.975-.186a2.005 2.005 0 0 0 1.173-1.378h1.378a3.197 3.197 0 0 1-.578 1.43c-.304.42-.706.755-1.208 1.004-.498.245-1.078.368-1.74.368zm11.889-7.144-1.237.35a2.323 2.323 0 0 0-.344-.6 1.679 1.679 0 0 0-.607-.491c-.257-.129-.586-.193-.987-.193-.548 0-1.006.127-1.371.38-.362.249-.543.566-.543.95 0 .343.124.614.373.812.249.199.639.364 1.168.496l1.33.327c.802.195 1.399.492 1.792.893.393.397.59.909.59 1.535 0 .514-.148.973-.444 1.377-.292.405-.7.724-1.226.958-.525.233-1.136.35-1.832.35-.915 0-1.671-.199-2.271-.595-.599-.397-.978-.977-1.138-1.74l1.308-.327c.124.483.36.845.706 1.086.35.241.807.362 1.371.362.642 0 1.152-.136 1.53-.409.381-.276.572-.607.572-.992 0-.311-.109-.572-.327-.782-.218-.214-.553-.373-1.004-.479l-1.494-.35c-.821-.194-1.424-.496-1.81-.904-.381-.413-.572-.928-.572-1.547 0-.506.143-.953.427-1.342.287-.39.679-.695 1.173-.917.498-.221 1.062-.332 1.692-.332.887 0 1.584.194 2.09.583.509.39.871.903 1.085 1.541z"/><rect width="115.38" height="27.46" x="410.369" y="39.25" fill="url(#b)" rx="7.75"/><path fill="#878786" fill-opacity=".8" d="M418.175 57.48v-9.96h1.206v8.89h4.63v1.07h-5.836zm9.747.176a3.04 3.04 0 0 1-1.289-.268 2.21 2.21 0 0 1-.919-.783c-.227-.344-.341-.759-.341-1.245 0-.428.084-.775.253-1.04.169-.27.394-.48.676-.633.282-.153.593-.266.934-.34.344-.078.689-.14 1.036-.186a47.34 47.34 0 0 1 1.104-.13c.285-.033.493-.087.622-.161.133-.075.2-.204.2-.39v-.038c0-.48-.131-.853-.394-1.119-.259-.266-.653-.399-1.182-.399-.548 0-.978.12-1.289.36-.311.24-.53.496-.656.769l-1.09-.39c.195-.453.454-.807.778-1.06a2.918 2.918 0 0 1 1.07-.535 4.442 4.442 0 0 1 1.148-.155c.24 0 .516.029.827.087.314.055.618.17.909.346.296.175.54.439.735.792.194.354.292.827.292 1.42v4.922h-1.148v-1.01h-.058a2.02 2.02 0 0 1-.39.52 2.24 2.24 0 0 1-.724.472c-.302.13-.67.195-1.104.195zm.175-1.032c.454 0 .836-.089 1.148-.267a1.826 1.826 0 0 0 .953-1.58v-1.051c-.049.058-.156.112-.321.16-.162.046-.35.086-.564.122a26.321 26.321 0 0 1-1.099.146 4.373 4.373 0 0 0-.837.19 1.446 1.446 0 0 0-.623.384c-.155.168-.233.398-.233.69 0 .4.147.7.443.905.298.201.676.301 1.133.301zm10.635-4.941-1.031.292a1.905 1.905 0 0 0-.287-.501 1.388 1.388 0 0 0-.505-.409c-.215-.107-.488-.16-.822-.16-.458 0-.839.105-1.143.316-.302.208-.453.472-.453.793 0 .285.104.51.312.676.207.165.531.303.972.413l1.109.273c.668.162 1.166.41 1.493.744.328.33.492.757.492 1.279a1.9 1.9 0 0 1-.37 1.148c-.243.337-.584.603-1.021.797-.438.195-.947.292-1.528.292-.762 0-1.392-.165-1.892-.496-.499-.33-.815-.814-.948-1.45l1.089-.272c.104.402.3.704.589.905.292.201.673.301 1.143.301.535 0 .96-.113 1.274-.34.318-.23.477-.506.477-.827a.868.868 0 0 0-.273-.651c-.181-.179-.46-.312-.836-.4l-1.245-.291c-.684-.162-1.187-.414-1.508-.754-.318-.344-.477-.773-.477-1.289 0-.421.119-.794.355-1.119a2.42 2.42 0 0 1 .978-.763 3.431 3.431 0 0 1 1.411-.277c.739 0 1.319.162 1.741.486.424.324.726.752.904 1.284zm5.113-1.673v.973h-3.871v-.973h3.871zm-2.743-1.79h1.148v7.12c0 .325.047.568.141.73a.73.73 0 0 0 .37.321c.152.052.313.078.481.078.127 0 .23-.007.311-.02l.195-.038.233 1.03c-.077.03-.186.059-.325.088-.14.032-.317.049-.531.049a2.31 2.31 0 0 1-.953-.21 1.89 1.89 0 0 1-.768-.637c-.201-.285-.302-.645-.302-1.08v-7.43zm8.302 9.26v-.875l3.288-3.6c.386-.42.704-.787.954-1.098.249-.315.434-.61.554-.885.123-.28.185-.571.185-.876 0-.35-.084-.653-.253-.91a1.636 1.636 0 0 0-.681-.593 2.21 2.21 0 0 0-.973-.209c-.382 0-.716.08-1.002.238a1.636 1.636 0 0 0-.656.657 2.05 2.05 0 0 0-.229.992h-1.148c0-.584.135-1.096.404-1.537a2.808 2.808 0 0 1 1.099-1.03c.467-.247.991-.37 1.571-.37.584 0 1.101.123 1.552.37.45.246.804.578 1.06.996.256.419.384.884.384 1.396 0 .367-.066.725-.199 1.075-.13.347-.357.734-.681 1.162-.321.425-.767.944-1.338 1.557l-2.237 2.393v.078h4.63v1.07h-6.284zm11.484.137c-.668 0-1.259-.119-1.771-.355a2.9 2.9 0 0 1-1.191-.988 2.478 2.478 0 0 1-.424-1.44c-.003-.42.08-.81.248-1.167.169-.36.399-.66.691-.9.295-.243.624-.397.987-.462v-.058a1.924 1.924 0 0 1-1.138-.802 2.433 2.433 0 0 1-.418-1.416 2.41 2.41 0 0 1 .384-1.357 2.71 2.71 0 0 1 1.07-.943c.457-.23.978-.346 1.562-.346.577 0 1.092.116 1.546.346.454.23.811.545 1.07.943.263.4.396.852.399 1.357a2.47 2.47 0 0 1-.433 1.416 1.92 1.92 0 0 1-1.123.802v.059c.36.064.684.218.972.462a2.711 2.711 0 0 1 .954 2.067 2.526 2.526 0 0 1-.438 1.44c-.285.418-.683.747-1.192.987-.506.236-1.091.355-1.755.355zm0-1.07c.45 0 .839-.073 1.167-.22.327-.145.58-.351.759-.617.178-.266.269-.577.272-.934a1.793 1.793 0 0 0-.292-.997 1.977 1.977 0 0 0-.783-.68 2.458 2.458 0 0 0-1.123-.249 2.54 2.54 0 0 0-1.139.248 1.99 1.99 0 0 0-.783.681 1.76 1.76 0 0 0-.277.997c-.003.357.083.668.258.934.178.266.433.472.764.618.33.146.723.219 1.177.219zm0-4.728c.356 0 .672-.071.948-.214a1.63 1.63 0 0 0 .657-.598c.158-.256.239-.556.243-.9a1.665 1.665 0 0 0-.239-.88 1.543 1.543 0 0 0-.646-.584 2.11 2.11 0 0 0-.963-.209c-.373 0-.699.07-.978.21-.279.135-.495.33-.647.583a1.63 1.63 0 0 0-.224.88c-.003.344.073.644.229.9.159.256.378.456.657.598.278.143.599.214.963.214zm11.941 5.817c-.623 0-1.172-.157-1.649-.472-.476-.317-.849-.765-1.118-1.342-.27-.58-.404-1.266-.404-2.057 0-.785.134-1.466.404-2.043.269-.577.643-1.023 1.123-1.338.48-.314 1.034-.471 1.663-.471.487 0 .871.08 1.153.243.285.159.503.34.652.544.152.202.271.367.355.497h.097V47.52h1.148v9.96h-1.109v-1.147h-.136a7.137 7.137 0 0 1-.36.515 2.145 2.145 0 0 1-.666.55c-.289.159-.673.238-1.153.238zm.156-1.031c.46 0 .849-.12 1.167-.36.318-.243.559-.579.725-1.007.165-.43.248-.929.248-1.493 0-.557-.081-1.045-.244-1.464-.162-.421-.402-.749-.719-.982-.318-.237-.71-.355-1.177-.355-.487 0-.892.125-1.216.374a2.241 2.241 0 0 0-.725 1.007 4 4 0 0 0-.238 1.42c0 .532.081 1.015.243 1.45.165.43.408.774.729 1.03.325.254.727.38 1.207.38zm7.728 1.05c-.473 0-.903-.089-1.289-.267a2.21 2.21 0 0 1-.919-.783c-.227-.344-.341-.759-.341-1.245 0-.428.085-.775.253-1.04.169-.27.394-.48.676-.633.282-.153.594-.266.934-.34.344-.078.689-.14 1.036-.186a47.34 47.34 0 0 1 1.104-.13c.286-.033.493-.087.623-.161.133-.075.199-.204.199-.39v-.038c0-.48-.131-.853-.394-1.119-.259-.266-.653-.399-1.182-.399-.548 0-.977.12-1.289.36-.311.24-.53.496-.656.769l-1.09-.39c.195-.453.454-.807.779-1.06a2.91 2.91 0 0 1 1.07-.535 4.435 4.435 0 0 1 1.147-.155c.24 0 .516.029.827.087.315.055.618.17.91.346.295.175.54.439.734.792.195.354.292.827.292 1.42v4.922h-1.148v-1.01h-.058a2.036 2.036 0 0 1-.389.52 2.245 2.245 0 0 1-.725.472c-.302.13-.67.195-1.104.195zm.175-1.03c.454 0 .837-.09 1.148-.268a1.826 1.826 0 0 0 .953-1.58v-1.051c-.048.058-.155.112-.321.16-.162.046-.35.086-.564.122a26.321 26.321 0 0 1-1.099.146 4.39 4.39 0 0 0-.837.19 1.442 1.442 0 0 0-.622.384c-.156.168-.234.398-.234.69 0 .4.148.7.443.905.298.201.676.301 1.133.301zm5.816 3.657a2.48 2.48 0 0 1-.521-.049 1.387 1.387 0 0 1-.316-.087l.292-1.012c.279.071.525.097.739.078a.885.885 0 0 0 .569-.287c.169-.169.323-.443.462-.822l.214-.584-2.762-7.51h1.245l2.062 5.954h.078l2.062-5.953h1.245l-3.171 8.56a3.24 3.24 0 0 1-.53.958 1.994 1.994 0 0 1-.734.57 2.267 2.267 0 0 1-.934.184zm12.176-8.599-1.031.292a1.933 1.933 0 0 0-.287-.501 1.391 1.391 0 0 0-.506-.409c-.214-.107-.488-.16-.822-.16-.457 0-.838.105-1.143.316-.301.208-.452.472-.452.793 0 .285.104.51.311.676.208.165.532.303.973.413l1.109.273c.668.162 1.165.41 1.493.744.327.33.491.757.491 1.279 0 .428-.123.81-.37 1.148-.243.337-.583.603-1.021.797-.438.195-.947.292-1.527.292-.762 0-1.393-.165-1.892-.496-.499-.33-.816-.814-.948-1.45l1.089-.272c.104.402.3.704.588.905.292.201.673.301 1.143.301.535 0 .96-.113 1.275-.34.317-.23.476-.506.476-.827 0-.26-.09-.476-.272-.651-.182-.179-.46-.312-.837-.4l-1.245-.291c-.684-.162-1.186-.414-1.507-.754-.318-.344-.477-.773-.477-1.289 0-.421.118-.794.355-1.119a2.42 2.42 0 0 1 .978-.763 3.43 3.43 0 0 1 1.41-.277c.739 0 1.32.162 1.741.486.425.324.727.752.905 1.284z"/><path fill="#878786" fill-opacity=".5" d="m516.884 51.57-4.282 4.281a.42.42 0 0 1-.303.126.42.42 0 0 1-.302-.126l-4.282-4.28a.43.43 0 0 1 .606-.607l3.978 3.98 3.979-3.98a.431.431 0 0 1 .606 0 .43.43 0 0 1 0 .606z"/><rect width="115.38" height="27.46" x="410.369" y="39.25" stroke="url(#c)" stroke-width=".5" rx="7.75"/><path fill="url(#d)" fill-opacity=".24" d="M143.989 277.196c-19.674 0-37.637 10.697-53.177 51.746h435.534V140.805c-18.87 0-36.782 34.766-56.816 34.766-18.458 0-23.722 21.566-31.289 21.566-6.843 0-10.264-4.629-15.397-4.629-5.132 0-5.132 24.069-15.397 24.069-6.843 0-13.686-7.131-24.806-7.131-11.12 0-18.025 19.612-27.372 19.612-24.806 0-13.686-40.115-29.939-40.115-13.686 0-16.252 24.069-31.649 24.069-19.674 0-14.541-32.984-27.372-32.984-16.252 0-6.84 56.161-33.36 56.161-21.385 0-22.712 17.712-34.216 17.829-11.503.117-23.095-10.664-33.36-10.664-15.397 0-4.277 33.842-21.384 33.842z" opacity=".4"/><path stroke="#6F8EFF" stroke-linecap="round" stroke-linejoin="round" stroke-width="3" d="M90.813 328.942c15.539-41.049 33.502-51.746 53.176-51.746 17.107 0 5.987-33.842 21.384-33.842 10.265 0 21.857 10.781 33.36 10.664 11.504-.117 12.831-17.829 34.216-17.829 26.52 0 17.108-56.161 33.36-56.161 12.831 0 7.698 32.984 27.372 32.984 15.397 0 17.963-24.069 31.649-24.069 16.253 0 5.133 40.115 29.939 40.115 9.347 0 16.252-19.612 27.372-19.612 11.12 0 17.963 7.131 24.806 7.131 10.265 0 10.265-24.069 15.397-24.069 5.133 0 8.554 4.629 15.397 4.629 7.567 0 12.831-21.566 31.289-21.566 20.034 0 37.946-34.766 56.816-34.766"/><mask id="g" fill="#fff"><path fill-rule="evenodd" d="M271 107c-6.627 0-12 5.373-12 12v38c0 6.627 5.373 12 12 12h37.394c2.732 0 4.097 0 5.379.367.425.121.841.272 1.245.451 1.219.541 2.267 1.417 4.362 3.169l2.323 1.941c.688.575 1.69.575 2.378 0l2.323-1.941c2.095-1.752 3.143-2.628 4.362-3.169.404-.179.82-.33 1.245-.451 1.282-.367 2.648-.367 5.379-.367H377c6.627 0 12-5.373 12-12v-38c0-6.627-5.373-12-12-12H271z" clip-rule="evenodd"/></mask><path fill="url(#e)" fill-rule="evenodd" d="M271 107c-6.627 0-12 5.373-12 12v38c0 6.627 5.373 12 12 12h37.394c2.732 0 4.097 0 5.379.367.425.121.841.272 1.245.451 1.219.541 2.267 1.417 4.362 3.169l2.323 1.941c.688.575 1.69.575 2.378 0l2.323-1.941c2.095-1.752 3.143-2.628 4.362-3.169.404-.179.82-.33 1.245-.451 1.282-.367 2.648-.367 5.379-.367H377c6.627 0 12-5.373 12-12v-38c0-6.627-5.373-12-12-12H271z" clip-rule="evenodd"/><path fill="url(#f)" d="m321.703 174.928-.641.768.641-.768zm2.378 0 .641.768-.641-.768zm6.685-5.11.406.914-.406-.914zm1.245-.451.275.961-.275-.961zm-18.238 0-.274.961.274-.961zm5.607 3.62.642-.768-.642.768zm-4.362-3.169.406-.914-.406.914zM260 119c0-6.075 4.925-11 11-11v-2c-7.18 0-13 5.82-13 13h2zm0 38v-38h-2v38h2zm11 11c-6.075 0-11-4.925-11-11h-2c0 7.18 5.82 13 13 13v-2zm37.394 0H271v2h37.394v-2zm13.951 6.161-2.323-1.942-1.283 1.535 2.323 1.942 1.283-1.535zm1.094 0a.852.852 0 0 1-1.094 0l-1.283 1.535a2.855 2.855 0 0 0 3.66 0l-1.283-1.535zm2.323-1.942-2.323 1.942 1.283 1.535 2.323-1.942-1.283-1.535zM377 168h-39.61v2H377v-2zm11-11c0 6.075-4.925 11-11 11v2c7.18 0 13-5.82 13-13h-2zm0-38v38h2v-38h-2zm-11-11c6.075 0 11 4.925 11 11h2c0-7.18-5.82-13-13-13v2zm-106 0h106v-2H271v2zm56.045 65.754c2.138-1.787 3.065-2.551 4.127-3.022l-.812-1.828c-1.377.611-2.545 1.6-4.598 3.315l1.283 1.535zM337.39 168c-2.676 0-4.206-.009-5.654.405l.55 1.923c1.116-.319 2.317-.328 5.104-.328v-2zm-6.218 2.732c.361-.16.733-.295 1.114-.404l-.55-1.923c-.47.134-.929.301-1.376.499l.812 1.828zM308.394 170c2.787 0 3.988.009 5.105.328l.549-1.923c-1.448-.414-2.978-.405-5.654-.405v2zm11.628 2.219c-2.053-1.715-3.221-2.704-4.598-3.315l-.812 1.828c1.062.471 1.989 1.235 4.127 3.022l1.283-1.535zm-6.523-1.891c.38.109.752.244 1.113.404l.812-1.828a10.514 10.514 0 0 0-1.376-.499l-.549 1.923z" mask="url(#g)"/><path fill="#fff" d="M274.943 123.045V140.5h-2.113v-15.239h-.103l-4.261 2.83v-2.148l4.364-2.898h2.113zm4.611 13.875v-1.738l7.67-12.137h1.262v2.694h-.852l-5.796 9.17v.136h10.33v1.875h-12.614zm8.216 3.58v-17.455h2.011V140.5h-2.011zm13.182.239c-1.17 0-2.204-.208-3.102-.623-.892-.42-1.588-.997-2.088-1.73-.5-.738-.747-1.579-.741-2.522a4.642 4.642 0 0 1 .434-2.046 4.469 4.469 0 0 1 1.21-1.577 3.706 3.706 0 0 1 1.731-.809v-.102a3.37 3.37 0 0 1-1.995-1.407c-.494-.727-.738-1.554-.733-2.48-.005-.886.219-1.679.674-2.378.454-.699 1.079-1.25 1.875-1.653.801-.403 1.713-.605 2.735-.605 1.012 0 1.915.202 2.711.605.795.403 1.42.954 1.875 1.653.46.699.693 1.492.699 2.378-.006.926-.259 1.753-.759 2.48-.494.722-1.151 1.191-1.969 1.407v.102a3.592 3.592 0 0 1 1.705.809 4.6 4.6 0 0 1 1.21 1.577 4.73 4.73 0 0 1 .46 2.046c-.005.943-.261 1.784-.767 2.522-.5.733-1.196 1.31-2.088 1.73-.886.415-1.912.623-3.077.623zm0-1.875c.79 0 1.472-.128 2.046-.384.574-.256 1.017-.616 1.329-1.082.313-.466.472-1.012.478-1.637-.006-.659-.176-1.241-.512-1.747a3.47 3.47 0 0 0-1.372-1.193c-.574-.29-1.23-.435-1.969-.435-.744 0-1.409.145-1.994.435a3.478 3.478 0 0 0-1.372 1.193c-.33.506-.492 1.088-.486 1.747-.006.625.145 1.171.452 1.637.312.466.758.826 1.338 1.082.579.256 1.267.384 2.062.384zm0-8.284c.625 0 1.179-.125 1.662-.375.489-.25.873-.6 1.151-1.049.278-.449.42-.974.426-1.576-.006-.591-.145-1.106-.418-1.543a2.707 2.707 0 0 0-1.133-1.023c-.483-.244-1.046-.366-1.688-.366-.653 0-1.224.122-1.713.366-.488.239-.866.58-1.133 1.023-.267.437-.398.952-.392 1.543-.006.602.128 1.127.4 1.576.279.449.662.799 1.151 1.049.489.25 1.051.375 1.687.375zm11.108 5.147-.034-2.488h.409l5.727-5.83h2.489l-6.103 6.171h-.17l-2.318 2.147zm-1.875 4.773v-17.455h2.011V140.5h-2.011zm8.318 0-5.114-6.477 1.432-1.398 6.239 7.875h-2.557z"/><path fill="#ADADAD" d="m268.179 148.227 2.159 6.122h.085l2.159-6.122h.924l-2.671 7.273h-.909l-2.67-7.273h.923zm6.346 7.273v-5.455h.838v5.455h-.838zm.426-6.364a.595.595 0 0 1-.423-.167.536.536 0 0 1-.174-.401c0-.156.058-.29.174-.401a.6.6 0 0 1 .423-.167c.163 0 .303.056.419.167a.532.532 0 0 1 .178.401c0 .156-.06.29-.178.401a.581.581 0 0 1-.419.167zm5.811 2.131-.753.213a1.42 1.42 0 0 0-.21-.366c-.09-.12-.213-.22-.369-.298a1.341 1.341 0 0 0-.6-.117c-.334 0-.612.077-.835.231-.22.151-.33.344-.33.579 0 .208.076.372.227.493.152.121.388.221.71.302l.81.199c.488.118.851.299 1.09.543.239.242.359.553.359.934 0 .313-.09.592-.27.838a1.787 1.787 0 0 1-.746.583 2.722 2.722 0 0 1-1.115.213c-.556 0-1.017-.121-1.381-.363-.365-.241-.596-.594-.693-1.058l.796-.199c.076.294.219.514.43.661.213.147.491.22.834.22.391 0 .701-.083.93-.249.232-.168.348-.369.348-.603a.635.635 0 0 0-.198-.476c-.133-.13-.337-.227-.611-.291l-.909-.213c-.5-.119-.867-.302-1.101-.551-.232-.251-.348-.564-.348-.941 0-.308.086-.58.259-.817.175-.236.413-.422.714-.557a2.505 2.505 0 0 1 1.03-.203c.539 0 .963.119 1.271.356.31.236.53.549.661.937zm1.361 4.233v-5.455h.838v5.455h-.838zm.426-6.364a.592.592 0 0 1-.423-.167.536.536 0 0 1-.174-.401c0-.156.058-.29.174-.401a.596.596 0 0 1 .423-.167c.163 0 .303.056.419.167a.531.531 0 0 1 .177.401c0 .156-.059.29-.177.401a.581.581 0 0 1-.419.167zm4.319.909v.711h-2.827v-.711h2.827zm-2.003-1.306h.838v5.199c0 .236.034.414.103.532a.538.538 0 0 0 .27.235c.111.037.228.056.351.056.093 0 .168-.004.228-.014l.142-.028.17.753a1.857 1.857 0 0 1-.625.099c-.237 0-.469-.051-.696-.153a1.377 1.377 0 0 1-.561-.465c-.147-.208-.22-.471-.22-.788v-5.426zm5.421 6.875c-.493 0-.925-.118-1.296-.352a2.377 2.377 0 0 1-.867-.984c-.206-.421-.309-.913-.309-1.477 0-.568.103-1.064.309-1.488.208-.424.497-.753.867-.987.371-.234.803-.352 1.296-.352.492 0 .923.118 1.292.352.372.234.661.563.867.987.208.424.312.92.312 1.488 0 .564-.104 1.056-.312 1.477a2.35 2.35 0 0 1-.867.984c-.369.234-.8.352-1.292.352zm0-.753c.374 0 .682-.096.923-.288.241-.192.42-.444.536-.756.116-.313.174-.651.174-1.016 0-.364-.058-.704-.174-1.019a1.727 1.727 0 0 0-.536-.764c-.241-.194-.549-.291-.923-.291s-.682.097-.924.291c-.241.195-.42.449-.536.764a2.927 2.927 0 0 0-.174 1.019c0 .365.058.703.174 1.016.116.312.295.564.536.756.242.192.55.288.924.288zm3.751.639v-5.455h.809v.824h.057c.099-.27.279-.489.54-.657.26-.168.554-.252.881-.252a7.096 7.096 0 0 1 .44.014v.853a2.535 2.535 0 0 0-.195-.032 1.886 1.886 0 0 0-.317-.025c-.265 0-.501.056-.71.167a1.26 1.26 0 0 0-.49.454 1.23 1.23 0 0 0-.177.657v3.452h-.838z"/><rect width="36" height="18" x="345" y="129" fill="#000" fill-opacity=".5" rx="4"/><path fill="#55E6A5" d="m351 136 3 4h-6l3-4z"/><path fill="#ADADAD" fill-opacity=".75" d="M357.753 142v-.639l2.4-2.628c.282-.308.514-.575.696-.803.183-.229.318-.445.405-.646.09-.204.135-.417.135-.639a1.18 1.18 0 0 0-.184-.664 1.194 1.194 0 0 0-.498-.433 1.605 1.605 0 0 0-.71-.153c-.279 0-.523.058-.731.174a1.202 1.202 0 0 0-.48.479 1.507 1.507 0 0 0-.167.725h-.838c0-.426.098-.8.295-1.122.196-.322.464-.573.803-.753.34-.18.723-.27 1.147-.27.426 0 .803.09 1.132.27.329.18.588.422.775.728.187.305.28.645.28 1.019 0 .267-.048.529-.146.785-.094.253-.26.536-.497.848-.234.311-.56.689-.976 1.137l-1.634 1.747v.057h3.381V142h-4.588zm8.394.099c-.417 0-.792-.082-1.126-.248a2.087 2.087 0 0 1-.802-.682 1.853 1.853 0 0 1-.331-.987h.853c.033.329.182.601.447.817.268.213.587.319.959.319a1.482 1.482 0 0 0 1.346-.785c.135-.246.202-.524.202-.834 0-.317-.07-.6-.209-.849a1.55 1.55 0 0 0-1.396-.813 2.284 2.284 0 0 0-.685.103 1.9 1.9 0 0 0-.579.266l-.824-.099.44-3.58h3.779v.782h-3.04l-.256 2.144h.043c.149-.118.336-.216.561-.294a2.13 2.13 0 0 1 .703-.118 2.239 2.239 0 0 1 2.014 1.187c.201.367.302.786.302 1.257 0 .464-.105.878-.313 1.243-.206.362-.49.648-.852.859a2.436 2.436 0 0 1-1.236.312zm7.585-1.463v-.383c0-.265.055-.508.164-.728.111-.223.272-.4.483-.533.213-.135.471-.202.774-.202.308 0 .566.067.774.202.208.133.366.31.472.533.107.22.16.463.16.728v.383c0 .266-.054.509-.163.732a1.3 1.3 0 0 1-.476.533c-.209.132-.464.198-.767.198-.308 0-.567-.066-.778-.198a1.315 1.315 0 0 1-.479-.533 1.641 1.641 0 0 1-.164-.732zm.725-.383v.383c0 .221.052.418.156.593.104.173.284.26.54.26.248 0 .424-.087.525-.26.104-.175.157-.372.157-.593v-.383c0-.22-.05-.417-.15-.59-.099-.175-.277-.262-.532-.262-.249 0-.428.087-.536.262-.107.173-.16.37-.16.59zm-4.347-3.779v-.383c0-.265.055-.508.163-.728.112-.223.273-.4.483-.533.214-.135.472-.202.775-.202.307 0 .565.067.774.202.208.133.365.31.472.533.107.22.16.463.16.728v.383c0 .266-.055.509-.164.732-.106.22-.265.398-.475.533a1.407 1.407 0 0 1-.767.199c-.308 0-.567-.067-.778-.199a1.317 1.317 0 0 1-.48-.533 1.654 1.654 0 0 1-.163-.732zm.725-.383v.383c0 .221.052.418.156.593.104.173.284.26.54.26.248 0 .423-.087.525-.26.104-.175.156-.372.156-.593v-.383c0-.22-.049-.417-.149-.59-.099-.175-.277-.262-.532-.262-.249 0-.428.087-.537.262-.106.173-.159.37-.159.59zM370.38 142l5-7.273h.81l-5 7.273h-.81z"/><path fill="#6F8EFF" stroke="#3F5BC0" stroke-width="1.853" d="M328.9 189.451c0 3.608-2.909 6.524-6.487 6.524-3.578 0-6.486-2.916-6.486-6.524s2.908-6.524 6.486-6.524 6.487 2.916 6.487 6.524z"/><rect width="554" height="378" x="1" y="17" stroke="url(#h)" stroke-width="2" rx="31"/><defs><linearGradient id="a" x1="-104" x2="277.01" y1="-60" y2="563.25" gradientUnits="userSpaceOnUse"><stop offset=".064" stop-color="#1A1A1A"/><stop offset=".499" stop-color="#101010"/><stop offset="1" stop-color="#101010" stop-opacity="0"/></linearGradient><linearGradient id="b" x1="391.643" x2="483.669" y1="28.613" y2="70.228" gradientUnits="userSpaceOnUse"><stop stop-color="#363636"/><stop offset=".586" stop-color="#1A1A1A"/></linearGradient><linearGradient id="c" x1="401.425" x2="437.383" y1="36.851" y2="99.967" gradientUnits="userSpaceOnUse"><stop offset=".007" stop-color="#373737"/><stop offset="1" stop-color="#2F2F2F" stop-opacity="0"/></linearGradient><linearGradient id="d" x1="308.579" x2="308.579" y1="85.259" y2="328.942" gradientUnits="userSpaceOnUse"><stop stop-color="#6F8EFF"/><stop offset="1" stop-color="#6F8EFF" stop-opacity="0"/></linearGradient><linearGradient id="e" x1="264.511" x2="344.731" y1="77.086" y2="132.094" gradientUnits="userSpaceOnUse"><stop stop-color="#363636"/><stop offset=".47" stop-color="#1A1A1A"/></linearGradient><linearGradient id="f" x1="249.246" x2="349.099" y1="101.746" y2="182.167" gradientUnits="userSpaceOnUse"><stop offset=".007" stop-color="#373737"/><stop offset="1" stop-color="#2F2F2F" stop-opacity="0"/></linearGradient><linearGradient id="h" x1="-18.5" x2="324.248" y1="8.5" y2="554.171" gradientUnits="userSpaceOnUse"><stop stop-color="#2F2F2F"/><stop offset=".642" stop-color="#101010" stop-opacity="0"/></linearGradient></defs></svg>