<svg xmlns="http://www.w3.org/2000/svg" width="664" height="461" fill="none"><g clip-path="url(#a)"><rect width="664" height="460" y=".5" rx="24"/><rect width="293.733" height="162.917" x="368.912" y="231.865" fill="url(#b)" rx="30.796" transform="rotate(8.31 368.912 231.865)"/><rect width="37.92" height="37.92" x="393.457" y="257.463" fill="url(#c)" rx="9.33" transform="rotate(8.31 393.457 257.463)"/><path fill="#6F8EFF" d="M410.891 269.287a9.777 9.777 0 0 0-9.814 4.668 9.785 9.785 0 0 0 .557 10.854 9.787 9.787 0 0 0 10.241 3.639 9.783 9.783 0 0 0 7.281-8.069 9.788 9.788 0 0 0-1.839-7.255 9.785 9.785 0 0 0-6.426-3.837zm-2.61 17.867a8.28 8.28 0 0 1-6.827-6.16 8.28 8.28 0 0 1 3.079-8.666 8.272 8.272 0 0 1 9.184-.471 8.272 8.272 0 0 1 .703 13.742 8.283 8.283 0 0 1-6.139 1.555zm6.08-12.718-6.391 2.108a.762.762 0 0 0-.382.284l-3.847 5.521a.75.75 0 0 0 .159 1.028.752.752 0 0 0 .694.118l6.391-2.108a.766.766 0 0 0 .382-.285l3.848-5.521a.76.76 0 0 0 .136-.443.751.751 0 0 0-.99-.702zm-4.089 5.596-4.006 1.326 2.417-3.459 4.009-1.322-2.42 3.455z"/><rect width="37.92" height="37.92" x="393.457" y="257.463" stroke="url(#d)" stroke-width=".602" rx="9.33" transform="rotate(8.31 393.457 257.463)"/><path fill="#ADADAD" d="M449.107 280.388a2.417 2.417 0 0 0-.849-1.959c-.588-.521-1.354-.851-2.298-.989-.69-.101-1.31-.077-1.861.071-.545.148-.991.397-1.337.745-.342.35-.549.773-.621 1.27-.061.417-.015.789.14 1.117.16.324.383.608.668.852.287.239.594.447.92.625.328.172.63.317.909.436l1.521.657c.391.166.821.379 1.291.64a6.32 6.32 0 0 1 1.327.979c.415.387.735.854.962 1.4.226.547.285 1.185.179 1.916a4.158 4.158 0 0 1-.997 2.188c-.535.616-1.254 1.063-2.155 1.341-.896.279-1.943.331-3.141.156-1.117-.163-2.058-.485-2.822-.965-.76-.479-1.326-1.075-1.699-1.787-.368-.713-.52-1.499-.456-2.361l1.949.285c-.035.596.092 1.112.381 1.548.294.432.694.781 1.2 1.047a5.416 5.416 0 0 0 1.696.527c.721.106 1.385.083 1.993-.066.608-.155 1.111-.419 1.507-.791.397-.378.638-.851.721-1.419.075-.518-.008-.96-.25-1.327-.242-.368-.584-.687-1.026-.959a12.273 12.273 0 0 0-1.453-.757l-1.839-.828c-1.167-.528-2.058-1.169-2.674-1.923-.616-.753-.847-1.655-.693-2.706.127-.873.475-1.6 1.042-2.181.572-.585 1.286-.999 2.141-1.243.86-.247 1.788-.298 2.783-.153 1.005.147 1.872.458 2.601.932.73.47 1.278 1.047 1.644 1.733.372.687.513 1.426.423 2.216l-1.827-.267zm6.595 13.188c-.741-.108-1.394-.346-1.957-.713a3.51 3.51 0 0 1-1.26-1.436c-.277-.59-.359-1.266-.248-2.027.098-.67.309-1.194.634-1.572a2.815 2.815 0 0 1 1.203-.835 5.619 5.619 0 0 1 1.539-.32c.556-.043 1.111-.06 1.665-.052.724.012 1.31.028 1.758.047.454.014.791-.022 1.011-.109.225-.086.359-.274.401-.564l.009-.06c.11-.752-.01-1.366-.361-1.842-.345-.475-.931-.774-1.759-.894-.858-.126-1.558-.036-2.1.268-.542.305-.943.656-1.203 1.053l-1.617-.858c.408-.666.895-1.16 1.461-1.482a4.611 4.611 0 0 1 1.797-.593 7.053 7.053 0 0 1 1.833.019c.375.055.8.164 1.274.326.48.158.928.408 1.345.749.422.341.745.811.968 1.409.224.597.268 1.361.133 2.29l-1.126 7.705-1.797-.262.231-1.584-.091-.013c-.159.236-.402.478-.728.725-.327.248-.741.439-1.242.573-.502.134-1.093.152-1.773.052zm.51-1.574c.71.104 1.33.052 1.858-.156.533-.207.956-.514 1.269-.919.319-.405.513-.85.584-1.338l.241-1.644c-.09.08-.27.139-.54.177a8.557 8.557 0 0 1-.911.062c-.337.002-.666.001-.987-.004-.314-.01-.57-.016-.767-.019a6.939 6.939 0 0 0-1.353.106c-.42.073-.774.226-1.062.459-.282.228-.457.571-.524 1.028-.091.624.071 1.13.486 1.517.421.383.99.627 1.706.731zm15.086-8.372-.222 1.522-6.305-.92.223-1.523 6.304.921zm-6.124 11.05 1.944-13.31c.098-.67.336-1.205.716-1.606.38-.4.838-.676 1.373-.826a3.907 3.907 0 0 1 1.64-.102c.442.064.797.152 1.066.264.269.112.467.208.595.289l-.744 1.478a9.36 9.36 0 0 0-.364-.17 2.374 2.374 0 0 0-.615-.16c-.593-.086-1.044.001-1.352.262-.303.261-.496.682-.581 1.26l-1.881 12.883-1.797-.262zm10.001 1.741c-.741-.109-1.394-.346-1.957-.714a3.503 3.503 0 0 1-1.26-1.436c-.277-.59-.359-1.266-.248-2.027.098-.67.309-1.194.634-1.572a2.824 2.824 0 0 1 1.203-.835c.476-.174.989-.28 1.54-.319.555-.044 1.11-.061 1.664-.053.724.013 1.31.028 1.758.047.454.015.791-.022 1.011-.109.225-.086.359-.274.401-.563l.009-.061c.11-.751-.01-1.365-.361-1.842-.345-.475-.931-.773-1.759-.894-.857-.125-1.557-.036-2.1.269-.542.304-.943.655-1.203 1.052l-1.617-.858c.409-.666.895-1.16 1.461-1.482a4.628 4.628 0 0 1 1.797-.593 7.053 7.053 0 0 1 1.833.019c.375.055.8.164 1.274.326a4.2 4.2 0 0 1 1.345.749c.422.341.745.811.969 1.409.223.598.267 1.361.132 2.29l-1.126 7.705-1.797-.262.232-1.584-.092-.013c-.159.236-.401.478-.728.726-.326.247-.741.438-1.242.573-.502.134-1.093.151-1.773.052zm.51-1.575c.71.104 1.33.052 1.858-.156.533-.207.956-.513 1.269-.919.319-.404.513-.85.585-1.337l.24-1.645c-.09.08-.269.139-.539.178a8.617 8.617 0 0 1-.912.061 40.26 40.26 0 0 1-.987-.004c-.314-.01-.57-.016-.767-.019a6.939 6.939 0 0 0-1.353.106c-.42.073-.774.226-1.062.459-.282.228-.457.571-.524 1.028-.091.624.071 1.13.487 1.517.421.383.989.627 1.705.731zm8.17 2.563 1.708-11.696 1.736.254-.258 1.766.122.018c.298-.547.752-.961 1.363-1.239a3.436 3.436 0 0 1 1.967-.265c.132.019.297.046.494.08s.346.063.446.088l-.267 1.827a5.449 5.449 0 0 0-.409-.129 4.137 4.137 0 0 0-.67-.153 3.22 3.22 0 0 0-1.575.136 2.737 2.737 0 0 0-1.193.821 2.651 2.651 0 0 0-.586 1.353l-1.081 7.401-1.797-.262zm7.978 1.165 1.708-11.696 1.797.263-1.708 11.695-1.797-.262zm2.906-13.511a1.294 1.294 0 0 1-.854-.49 1.165 1.165 0 0 1-.247-.915 1.16 1.16 0 0 1 .499-.806c.288-.202.608-.277.958-.226.35.051.632.214.846.489.219.276.304.581.255.916a1.15 1.15 0 0 1-.506.805 1.268 1.268 0 0 1-.951.227z"/><path fill="#fff" d="m392.305 334.498-3.543 24.256-2.215-.323 3.204-21.936-.142-.02-6.237 2.948.336-2.298 6.288-2.965 2.309.338zm14.712 1.81a7.652 7.652 0 0 1 2.847 1.045c.898.534 1.665 1.299 2.302 2.295.638.989 1.075 2.246 1.312 3.773.238 1.518.202 3.34-.109 5.464-.289 1.982-.728 3.772-1.317 5.372-.588 1.599-1.318 2.953-2.189 4.059-.863 1.1-1.867 1.905-3.014 2.415-1.138.503-2.406.652-3.804.448-1.303-.19-2.42-.631-3.351-1.324a6.712 6.712 0 0 1-2.109-2.618c-.482-1.063-.705-2.241-.67-3.534l2.18.319c.024 1.326.389 2.468 1.096 3.426.715.959 1.763 1.54 3.145 1.741 1.982.29 3.656-.409 5.024-2.096 1.367-1.688 2.3-4.237 2.798-7.648l-.154-.023a6.44 6.44 0 0 1-1.764 1.642c-.685.44-1.44.753-2.266.939a7.081 7.081 0 0 1-2.539.077c-1.35-.197-2.537-.717-3.559-1.56-1.021-.851-1.78-1.918-2.278-3.2-.497-1.29-.634-2.698-.412-4.222.21-1.437.718-2.709 1.525-3.817a7.565 7.565 0 0 1 3.099-2.499c1.259-.558 2.661-.716 4.207-.474zm-.291 1.989c-1.05-.153-2.033-.022-2.948.392a5.814 5.814 0 0 0-2.291 1.855c-.612.822-.998 1.778-1.157 2.868-.16 1.097-.065 2.131.285 3.102.359.963.914 1.77 1.666 2.421.761.643 1.667 1.041 2.717 1.195a5.33 5.33 0 0 0 2.321-.157 5.702 5.702 0 0 0 1.998-1.087 5.87 5.87 0 0 0 1.442-1.762 5.48 5.48 0 0 0 .654-2.239c.067-1.119-.085-2.149-.456-3.091-.361-.947-.908-1.729-1.641-2.344-.724-.622-1.587-1.006-2.59-1.153zm10.457 24.79a1.687 1.687 0 0 1-1.135-.674 1.68 1.68 0 0 1-.321-1.281c.069-.473.293-.852.673-1.135a1.689 1.689 0 0 1 1.281-.321c.474.069.852.294 1.136.674.283.38.39.807.321 1.281-.045.308-.166.58-.362.818a1.766 1.766 0 0 1-.707.538 1.66 1.66 0 0 1-.886.1zm13.939 2.193c-1.35-.197-2.519-.646-3.505-1.346a6.737 6.737 0 0 1-2.203-2.645c-.483-1.054-.653-2.204-.512-3.45l2.144.314c-.117 1.297.234 2.429 1.052 3.395.82.959 1.925 1.539 3.314 1.742 1.082.158 2.083.042 3.003-.347a5.477 5.477 0 0 0 2.289-1.843c.615-.838 1.005-1.825 1.171-2.963.165-1.185.061-2.265-.313-3.239a5.63 5.63 0 0 0-1.75-2.433c-.786-.639-1.715-1.037-2.789-1.194a7.023 7.023 0 0 0-2.452.054c-.822.162-1.525.422-2.11.78l-2.173-.608 3.178-11.572 11.987 1.751-.291 1.99-10.127-1.479-2.156 7.971.118.017c.603-.371 1.308-.643 2.116-.816a7.127 7.127 0 0 1 2.514-.068c1.429.209 2.662.74 3.698 1.593 1.045.854 1.811 1.934 2.298 3.239.495 1.298.629 2.729.401 4.292-.224 1.532-.76 2.853-1.607 3.963a7.508 7.508 0 0 1-3.163 2.441c-1.263.525-2.64.679-4.132.461zm15.827-5.043.38-2.763.473.069 9.779-7.318 2.665.39-9.653 7.203-.195.008-3.449 2.411zm-2.922 6.589 3.543-24.256 2.108.308-3.543 24.256-2.108-.308zm11.335 1.656-6.026-10.424 1.729-1.236 6.997 12.054-2.7-.394z"/><rect width="60.86" height="33.93" x="522.203" y="348.468" fill="#000" fill-opacity=".5" rx="9.287" transform="rotate(8.31 522.203 348.468)"/><path fill="#55E6A5" d="m531.741 363.487 3.588 7.562-9.189-1.342 5.601-6.22z"/><path fill="#ADADAD" d="m541.135 374.442 6.742-9.583.013-.092-6.03-.881.184-1.256 7.492 1.094-.194 1.325-6.723 9.61-1.484-.217zm12.583 2.001a4.406 4.406 0 0 1-1.399-.484 3.477 3.477 0 0 1-1.184-1.077c-.335-.477-.57-1.088-.706-1.835-.135-.751-.124-1.667.034-2.748.151-1.036.382-1.939.693-2.71.312-.775.692-1.41 1.141-1.904.45-.498.957-.852 1.52-1.061.567-.209 1.18-.265 1.839-.169.654.096 1.218.312 1.69.649a3.36 3.36 0 0 1 1.097 1.269c.256.511.387 1.077.394 1.696l-1.393-.203a2.616 2.616 0 0 0-.563-1.418c-.323-.401-.792-.647-1.409-.737-.906-.132-1.677.158-2.314.87-.633.712-1.055 1.78-1.267 3.203l.091.014a3.477 3.477 0 0 1 1.941-1.111 3.437 3.437 0 0 1 1.164-.022c.67.098 1.259.355 1.766.771.507.412.886.936 1.135 1.571.25.632.32 1.324.21 2.078a4.168 4.168 0 0 1-.776 1.916c-.411.551-.935.96-1.573 1.229-.634.265-1.344.336-2.131.213zm.183-1.256c.48.07.928.013 1.344-.171a2.603 2.603 0 0 0 1.049-.833 2.75 2.75 0 0 0 .533-1.298 2.715 2.715 0 0 0-.133-1.367 2.503 2.503 0 0 0-.745-1.083 2.372 2.372 0 0 0-1.228-.541 2.396 2.396 0 0 0-1.042.07 2.63 2.63 0 0 0-.908.462c-.268.214-.492.47-.672.771-.18.296-.295.62-.346.97-.068.464-.023.914.135 1.35.162.435.415.805.76 1.108a2.39 2.39 0 0 0 1.253.562zm12.427.695.09-.616c.063-.427.207-.804.434-1.133.231-.331.532-.579.902-.743.374-.167.805-.215 1.292-.144.495.073.894.242 1.198.508.304.262.515.584.634.967.12.379.148.782.086 1.209l-.09.616a2.653 2.653 0 0 1-.435 1.138 2.09 2.09 0 0 1-.89.745c-.366.164-.793.211-1.28.14-.495-.073-.896-.24-1.204-.503a2.138 2.138 0 0 1-.646-.969 2.67 2.67 0 0 1-.091-1.215zm1.255-.446-.09.616c-.051.355-.014.685.112.991.127.302.396.483.807.543.4.059.702-.039.906-.293.209-.257.339-.563.391-.917l.09-.617a1.887 1.887 0 0 0-.101-.983c-.119-.305-.384-.487-.795-.547-.4-.059-.708.04-.924.296a1.793 1.793 0 0 0-.396.911zm-6.102-7.097.09-.617c.063-.426.207-.804.434-1.132.231-.332.532-.58.902-.743.374-.167.805-.215 1.292-.144.495.072.894.241 1.197.507.304.262.516.585.635.968.119.379.148.782.086 1.208l-.09.617a2.675 2.675 0 0 1-.435 1.138c-.223.329-.52.577-.89.744-.366.165-.793.211-1.28.14-.495-.072-.896-.24-1.204-.502a2.139 2.139 0 0 1-.646-.97 2.666 2.666 0 0 1-.091-1.214zm1.255-.447-.09.617c-.052.354-.014.684.112.99.127.303.396.484.807.544.4.058.702-.04.906-.294.209-.257.339-.562.391-.916l.09-.617a1.886 1.886 0 0 0-.101-.983c-.119-.305-.384-.488-.795-.548-.4-.058-.708.041-.924.297a1.79 1.79 0 0 0-.396.91zm-2.119 9.396 9.749-10.521 1.302.19-9.749 10.521-1.302-.19z"/><rect width="293.733" height="162.917" x="368.912" y="231.865" stroke="url(#e)" stroke-width="2.408" rx="30.796" transform="rotate(8.31 368.912 231.865)"/><rect width="293.733" height="162.917" x="376.912" y="32.865" fill="url(#f)" rx="30.796" transform="rotate(8.31 376.912 32.865)"/><rect width="37.92" height="37.92" x="401.457" y="58.463" fill="url(#g)" rx="9.33" transform="rotate(8.31 401.457 58.463)"/><path fill="#6F8EFF" d="M418.891 70.287a9.78 9.78 0 1 0 8.265 11.092 9.79 9.79 0 0 0-8.265-11.092zm-.217 1.489a8.274 8.274 0 0 1 6.317 4.724l-6.861-1.002a4.521 4.521 0 0 0-4.692 2.451l-1.604-4.036a8.26 8.26 0 0 1 6.84-2.137zm1.782 8.624a3.008 3.008 0 0 1-3.986 2.4 3.011 3.011 0 0 1-1.577-4.376 3.008 3.008 0 0 1 4.998-.257c.477.64.68 1.443.565 2.233zm-11.168-1.631a8.228 8.228 0 0 1 1.432-3.58l2.563 6.445.014.028a4.516 4.516 0 0 0 4.456 2.81l-2.694 3.409a8.288 8.288 0 0 1-5.771-9.112zm7.432 9.437 4.3-5.442.026-.036a4.5 4.5 0 0 0 .197-5.254l4.301.628a8.286 8.286 0 0 1-1.83 7.306 8.278 8.278 0 0 1-6.992 2.798h-.002z"/><rect width="37.92" height="37.92" x="401.457" y="58.463" stroke="url(#h)" stroke-width=".602" rx="9.33" transform="rotate(8.31 401.457 58.463)"/><path fill="#ADADAD" d="m460.985 82.95-1.889-.276a3.963 3.963 0 0 0-1.231-2.7 4.31 4.31 0 0 0-1.208-.829 5.267 5.267 0 0 0-1.461-.431 4.808 4.808 0 0 0-2.671.341c-.831.366-1.54.98-2.128 1.843-.582.864-.972 1.97-1.169 3.321-.197 1.35-.14 2.523.171 3.517.316.995.82 1.786 1.511 2.375a4.81 4.81 0 0 0 2.462 1.09 5.247 5.247 0 0 0 1.523.005c.498-.073.963-.22 1.395-.442a4.038 4.038 0 0 0 1.952-2.242l1.889.276a6.36 6.36 0 0 1-1.09 2.026 5.898 5.898 0 0 1-1.635 1.402 6.202 6.202 0 0 1-2.027.723 7.08 7.08 0 0 1-2.265.019c-1.33-.195-2.466-.692-3.406-1.493-.941-.801-1.621-1.844-2.039-3.129-.419-1.285-.509-2.75-.269-4.394.241-1.644.745-3.022 1.514-4.134.769-1.11 1.719-1.916 2.849-2.414 1.131-.499 2.361-.65 3.691-.456a7.091 7.091 0 0 1 2.165.666 6.1 6.1 0 0 1 1.734 1.28 5.804 5.804 0 0 1 1.168 1.803c.284.68.439 1.43.464 2.253zm4.066 4.358-1.028 7.035-1.796-.262 2.277-15.594 1.797.263-.836 5.725.152.023a3.34 3.34 0 0 1 1.444-1.26c.606-.279 1.368-.351 2.287-.217.797.116 1.471.378 2.024.785.553.403.946.955 1.181 1.658.24.699.286 1.55.14 2.556l-1.086 7.431-1.797-.262 1.068-7.31c.136-.929-.001-1.682-.409-2.26-.402-.583-1.027-.936-1.875-1.06a3.35 3.35 0 0 0-1.638.142c-.498.181-.917.49-1.255.929-.334.438-.551.998-.65 1.678zm9.843 8.623 1.709-11.695 1.736.254-.258 1.766.122.018c.297-.548.752-.96 1.363-1.24a3.442 3.442 0 0 1 1.967-.265c.132.02.296.046.494.08.197.034.346.064.446.089l-.267 1.827a5.424 5.424 0 0 0-.409-.13 4.159 4.159 0 0 0-.67-.152c-.568-.083-1.093-.038-1.575.136a2.727 2.727 0 0 0-1.193.82 2.661 2.661 0 0 0-.587 1.354l-1.081 7.4-1.797-.262zm12.338 2.051c-1.056-.154-1.946-.54-2.669-1.16-.719-.618-1.235-1.411-1.55-2.38-.31-.968-.376-2.056-.2-3.264.178-1.219.554-2.25 1.129-3.094.579-.843 1.301-1.458 2.167-1.845.87-.386 1.833-.502 2.889-.348 1.056.154 1.943.54 2.661 1.158.724.62 1.24 1.415 1.549 2.389.314.974.382 2.07.204 3.288-.176 1.208-.554 2.231-1.133 3.07-.573.838-1.295 1.451-2.166 1.837-.865.387-1.825.503-2.881.35zm.236-1.614c.802.117 1.492.008 2.069-.328.578-.335 1.04-.82 1.387-1.454a6.262 6.262 0 0 0 .691-2.123 6.346 6.346 0 0 0-.054-2.24c-.15-.71-.453-1.313-.91-1.804-.457-.492-1.087-.797-1.889-.914-.802-.117-1.492-.005-2.071.335-.578.34-1.041.83-1.389 1.47a6.342 6.342 0 0 0-.692 2.13 6.276 6.276 0 0 0 .055 2.232c.151.707.455 1.303.913 1.79.458.487 1.088.789 1.89.906zm7.842 2.545 1.708-11.695 1.736.253-.267 1.828.152.022a2.97 2.97 0 0 1 1.393-1.282c.594-.27 1.272-.35 2.034-.24.771.113 1.388.382 1.849.807.468.421.8.965.998 1.632l.122.017c.388-.56.907-.974 1.558-1.242.652-.273 1.396-.348 2.234-.226 1.046.153 1.853.605 2.422 1.357.57.747.755 1.808.554 3.184l-1.143 7.827-1.797-.262 1.143-7.828c.126-.862-.02-1.514-.438-1.953-.418-.44-.946-.706-1.586-.8-.822-.12-1.496.036-2.02.467-.524.427-.841 1.018-.951 1.775l-1.112 7.614-1.828-.267 1.17-8.01c.097-.665-.04-1.232-.412-1.701-.372-.475-.898-.761-1.578-.86a2.489 2.489 0 0 0-1.364.181 2.85 2.85 0 0 0-1.126.893c-.307.401-.503.889-.587 1.462l-1.067 7.31-1.797-.263zm23.503 3.682c-1.127-.165-2.062-.555-2.807-1.172-.739-.621-1.263-1.413-1.574-2.376-.304-.968-.369-2.05-.194-3.248.175-1.198.547-2.222 1.117-3.072.576-.854 1.295-1.48 2.157-1.878.867-.402 1.829-.526 2.885-.372a5.608 5.608 0 0 1 1.76.568c.564.29 1.056.699 1.477 1.227.421.523.722 1.179.902 1.967.181.788.191 1.728.032 2.82l-.112.761-9.015-1.317.227-1.553 7.188 1.05c.096-.66.05-1.268-.138-1.824a3.01 3.01 0 0 0-.933-1.389c-.433-.369-.975-.6-1.624-.696-.716-.104-1.361-.017-1.936.262a3.548 3.548 0 0 0-1.396 1.196 4.072 4.072 0 0 0-.683 1.75l-.151 1.036c-.129.884-.086 1.655.129 2.313.22.655.581 1.182 1.083 1.582.502.394 1.116.645 1.842.751.472.069.908.065 1.308-.011a2.77 2.77 0 0 0 1.086-.464 2.79 2.79 0 0 0 .797-.926l1.665.741a3.897 3.897 0 0 1-1.149 1.419 4.53 4.53 0 0 1-1.75.802c-.67.151-1.401.169-2.193.053z"/><path fill="#fff" d="M397.105 160.143c-1.493-.218-2.788-.681-3.886-1.39-1.097-.717-1.919-1.607-2.465-2.671-.546-1.063-.747-2.226-.603-3.487l2.238.327c-.09.89.07 1.704.478 2.441.41.729 1.006 1.34 1.789 1.834.784.485 1.689.803 2.716.953 1.121.164 2.138.098 3.052-.195.922-.293 1.677-.768 2.265-1.424.597-.663.962-1.456 1.097-2.38.143-.979.021-1.88-.367-2.703-.388-.822-1.017-1.511-1.888-2.066-.862-.553-1.937-.924-3.224-1.112l-1.422-.207.291-1.99 1.421.207c1.05.154 2.006.1 2.867-.162.869-.268 1.588-.715 2.155-1.342.568-.627.92-1.41 1.057-2.35.131-.892.044-1.707-.259-2.445a4.275 4.275 0 0 0-1.472-1.848c-.67-.493-1.491-.81-2.462-.952-.94-.138-1.827-.082-2.662.167a4.838 4.838 0 0 0-2.12 1.263c-.57.594-.938 1.343-1.102 2.247l-2.144-.314c.216-1.258.726-2.317 1.529-3.175.811-.866 1.809-1.486 2.993-1.862 1.193-.382 2.465-.474 3.815-.277 1.429.209 2.622.681 3.579 1.418.957.736 1.649 1.632 2.076 2.686a6.165 6.165 0 0 1 .399 3.312c-.202 1.382-.75 2.512-1.644 3.389-.894.87-2.003 1.401-3.33 1.595l-.023.154c1.503.534 2.619 1.398 3.347 2.593.738 1.189.995 2.553.77 4.093-.189 1.294-.699 2.41-1.529 3.345-.829.927-1.88 1.604-3.152 2.031-1.263.421-2.656.52-4.18.297zm13.148 1.582.237-1.623 9.224-7.749c1.206-1.018 2.184-1.895 2.937-2.632.753-.737 1.323-1.436 1.71-2.097.395-.66.647-1.369.758-2.127.135-.924.035-1.761-.298-2.511a4.432 4.432 0 0 0-1.528-1.881c-.694-.496-1.51-.813-2.45-.95-.995-.146-1.899-.06-2.711.257a4.545 4.545 0 0 0-1.985 1.5c-.519.682-.849 1.505-.99 2.469l-2.12-.31c.196-1.342.678-2.486 1.445-3.43a6.734 6.734 0 0 1 2.904-2.08c1.168-.434 2.436-.552 3.802-.352 1.35.197 2.507.665 3.472 1.402a6.525 6.525 0 0 1 2.131 2.719c.455 1.082.593 2.24.413 3.471a7.38 7.38 0 0 1-.853 2.525c-.43.792-1.099 1.646-2.007 2.562-.908.916-2.142 2.018-3.701 3.306l-6.998 5.837-.022.154 11.998 1.752-.291 1.99-15.077-2.202zm22.096 3.409a1.69 1.69 0 0 1-1.136-.674 1.689 1.689 0 0 1-.321-1.281 1.66 1.66 0 0 1 .674-1.135 1.68 1.68 0 0 1 1.281-.321c.474.069.852.293 1.135.673.284.381.391.807.321 1.281a1.629 1.629 0 0 1-.361.818 1.753 1.753 0 0 1-.708.538 1.655 1.655 0 0 1-.885.101zm13.939 2.193c-1.351-.197-2.519-.646-3.505-1.347a6.718 6.718 0 0 1-2.203-2.644c-.483-1.055-.654-2.204-.512-3.45l2.144.313c-.117 1.298.234 2.43 1.052 3.396.82.958 1.924 1.539 3.314 1.742 1.082.158 2.083.042 3.003-.348a5.469 5.469 0 0 0 2.289-1.843c.614-.837 1.004-1.825 1.171-2.962.165-1.185.06-2.265-.314-3.239a5.628 5.628 0 0 0-1.749-2.433c-.786-.639-1.716-1.037-2.79-1.194a6.993 6.993 0 0 0-2.451.053c-.822.163-1.525.423-2.11.781l-2.173-.608 3.178-11.572 11.986 1.751-.29 1.99-10.127-1.48-2.156 7.972.118.017c.603-.372 1.308-.644 2.115-.816a7.128 7.128 0 0 1 2.514-.068c1.429.209 2.662.739 3.699 1.592 1.045.855 1.81 1.934 2.297 3.239.496 1.298.63 2.729.401 4.293-.223 1.532-.759 2.853-1.607 3.963a7.502 7.502 0 0 1-3.163 2.441c-1.262.525-2.639.679-4.131.461zm15.827-5.043.379-2.763.474.069 9.779-7.318 2.665.389-9.653 7.203-.195.008-3.449 2.412zm-2.922 6.589 3.543-24.257 2.108.308-3.543 24.257-2.108-.308zm11.335 1.656-6.026-10.425 1.729-1.235 6.997 12.054-2.7-.394z"/><rect width="61.86" height="33.93" x="530.203" y="149.468" fill="#000" fill-opacity=".5" rx="9.287" transform="rotate(8.31 530.203 149.468)"/><path fill="#55E6A5" d="m539.741 164.487 3.588 7.562-9.189-1.342 5.601-6.22z"/><path fill="#ADADAD" d="M552.401 176.082c-.67-.097-1.254-.319-1.752-.664a3.4 3.4 0 0 1-1.131-1.285 3.025 3.025 0 0 1-.299-1.665l1.371.2c-.024.537.152 1.01.527 1.419.381.405.869.652 1.467.739a2.414 2.414 0 0 0 2.349-.946c.275-.364.449-.796.521-1.294.075-.51.029-.982-.137-1.414a2.495 2.495 0 0 0-.775-1.087 2.608 2.608 0 0 0-1.278-.549 3.706 3.706 0 0 0-1.127.005 3.097 3.097 0 0 0-.993.292l-1.302-.353 1.549-5.653 6.076.887-.183 1.257-4.888-.714-.915 3.389.068.01c.268-.155.592-.27.972-.342.38-.073.766-.081 1.158-.024.716.105 1.328.369 1.838.794.514.421.887.95 1.121 1.587.238.637.301 1.335.19 2.092-.109.746-.374 1.388-.794 1.925a3.714 3.714 0 0 1-1.573 1.182c-.631.25-1.318.321-2.06.212zm10.165 1.485a4.406 4.406 0 0 1-1.399-.484 3.477 3.477 0 0 1-1.184-1.077c-.335-.477-.57-1.088-.706-1.835-.135-.751-.124-1.667.034-2.748.151-1.036.382-1.939.693-2.71.312-.775.692-1.41 1.141-1.904.45-.498.957-.852 1.52-1.061.567-.209 1.18-.265 1.839-.169.654.095 1.218.312 1.69.649a3.36 3.36 0 0 1 1.097 1.269c.256.511.387 1.077.394 1.696l-1.393-.203a2.616 2.616 0 0 0-.563-1.418c-.322-.401-.792-.647-1.409-.737-.906-.132-1.677.158-2.314.869-.633.713-1.055 1.781-1.267 3.204l.091.013c.261-.292.554-.531.881-.717a3.444 3.444 0 0 1 2.224-.415 3.52 3.52 0 0 1 1.766.771c.507.412.886.936 1.135 1.571.25.631.32 1.324.21 2.078a4.168 4.168 0 0 1-.776 1.916c-.411.551-.935.96-1.573 1.229-.634.265-1.344.336-2.131.213zm.183-1.256c.48.07.928.013 1.344-.171a2.612 2.612 0 0 0 1.049-.833c.283-.371.461-.803.533-1.298a2.715 2.715 0 0 0-.133-1.367 2.503 2.503 0 0 0-.745-1.083 2.372 2.372 0 0 0-1.228-.541 2.381 2.381 0 0 0-1.042.07 2.638 2.638 0 0 0-.908.462c-.268.213-.492.47-.672.771a2.733 2.733 0 0 0 .549 3.428 2.39 2.39 0 0 0 1.253.562zm12.427.695.09-.617c.063-.426.207-.803.434-1.132.231-.332.532-.579.902-.743.374-.167.805-.215 1.292-.144.495.073.894.242 1.198.508.304.262.515.584.634.967.12.379.148.782.086 1.208l-.09.617a2.658 2.658 0 0 1-.435 1.138 2.096 2.096 0 0 1-.89.745c-.366.164-.793.211-1.28.14-.495-.073-.896-.24-1.204-.503a2.138 2.138 0 0 1-.646-.969 2.67 2.67 0 0 1-.091-1.215zm1.255-.446-.09.616c-.051.354-.014.685.112.991.127.302.396.483.807.543.4.059.702-.039.906-.293.209-.257.339-.563.391-.917l.09-.617a1.886 1.886 0 0 0-.101-.983c-.119-.305-.384-.487-.795-.547-.4-.059-.708.04-.924.296a1.793 1.793 0 0 0-.396.911zm-6.102-7.097.09-.617c.063-.427.207-.804.434-1.132a2.13 2.13 0 0 1 .902-.744c.374-.167.805-.214 1.292-.143.495.072.894.241 1.197.507.304.262.516.585.635.968.119.379.148.781.086 1.208l-.09.617a2.663 2.663 0 0 1-.435 1.138c-.223.329-.52.577-.89.744-.366.165-.793.211-1.28.14-.495-.072-.896-.24-1.204-.502a2.139 2.139 0 0 1-.646-.97 2.666 2.666 0 0 1-.091-1.214zm1.255-.447-.09.617c-.052.354-.014.684.112.99.127.302.396.484.807.544.4.058.702-.04.906-.294.209-.257.339-.563.391-.917l.09-.616a1.886 1.886 0 0 0-.101-.983c-.119-.305-.384-.488-.795-.548-.4-.058-.708.04-.924.297a1.786 1.786 0 0 0-.396.91zm-2.119 9.396 9.749-10.521 1.302.19-9.749 10.521-1.302-.19z"/><rect width="293.733" height="162.917" x="376.912" y="32.865" stroke="url(#i)" stroke-width="2.408" rx="30.796" transform="rotate(8.31 376.912 32.865)"/><path fill="url(#j)" d="M0 0h216.423v365.532H0z" transform="rotate(8.314 -10.457 2474.678)"/><rect width="392" height="458" x="1" y="1.5" fill="url(#k)" rx="31"/><path fill="#ADADAD" d="M35.625 47.5h-4.04V34.41h4.219c1.27 0 2.356.261 3.26.785.903.52 1.596 1.268 2.077 2.244.482.971.723 2.135.723 3.49 0 1.364-.243 2.538-.73 3.522a5.192 5.192 0 0 1-2.121 2.263c-.93.524-2.058.786-3.388.786zm-2.455-1.406h2.353c1.082 0 1.98-.21 2.69-.627a3.86 3.86 0 0 0 1.592-1.783c.35-.771.525-1.69.525-2.755 0-1.057-.173-1.967-.518-2.73-.345-.767-.861-1.355-1.547-1.764-.686-.413-1.54-.62-2.563-.62H33.17v10.279zm14.037 1.636a3.99 3.99 0 0 1-1.694-.351 2.907 2.907 0 0 1-1.208-1.03c-.298-.451-.447-.997-.447-1.636 0-.562.11-1.018.332-1.368a2.35 2.35 0 0 1 .889-.83c.37-.201.78-.35 1.227-.448.452-.102.906-.184 1.362-.243.596-.077 1.08-.134 1.45-.173.376-.042.648-.113.819-.21.175-.099.262-.27.262-.512v-.051c0-.63-.173-1.12-.518-1.47-.34-.35-.859-.525-1.553-.525-.72 0-1.285.158-1.694.473-.41.316-.697.652-.863 1.01l-1.432-.51c.256-.598.597-1.062 1.023-1.394.43-.337.9-.571 1.406-.704a5.84 5.84 0 0 1 1.509-.204c.315 0 .677.038 1.086.115a3.48 3.48 0 0 1 1.196.454c.387.23.71.577.965 1.042.256.464.383 1.086.383 1.866V47.5H50.2v-1.33h-.077a2.658 2.658 0 0 1-.511.684c-.239.243-.556.45-.953.62-.396.17-.88.256-1.45.256zm.23-1.355c.597 0 1.1-.117 1.509-.352a2.393 2.393 0 0 0 1.253-2.077v-1.38c-.064.076-.205.146-.422.21-.213.06-.46.113-.742.16a33.842 33.842 0 0 1-1.444.192 5.772 5.772 0 0 0-1.1.25 1.89 1.89 0 0 0-.818.504c-.204.222-.306.524-.306.908 0 .524.193.92.581 1.189.392.264.889.396 1.49.396zm7.024 1.125v-9.818h1.508V47.5h-1.508zm.767-11.455c-.294 0-.548-.1-.76-.3a.965.965 0 0 1-.314-.722c0-.282.104-.522.313-.723.213-.2.467-.3.76-.3.295 0 .546.1.755.3.213.2.32.442.32.723a.956.956 0 0 1-.32.722c-.209.2-.46.3-.754.3zm5.013-1.636V47.5h-1.509V34.41h1.509zm3.734 16.773c-.255 0-.483-.022-.684-.064a1.804 1.804 0 0 1-.415-.115l.383-1.33c.367.094.69.128.972.103a1.17 1.17 0 0 0 .748-.378c.222-.221.424-.581.607-1.08l.281-.767-3.63-9.87h1.636l2.71 7.825h.103l2.71-7.824h1.636l-4.167 11.25c-.188.507-.42.927-.697 1.26a2.61 2.61 0 0 1-.965.747 2.975 2.975 0 0 1-1.228.243zm13.6-15.367V34.41h9.818v1.406h-4.117V47.5h-1.585V35.815h-4.117zM88.614 47.5v-9.818h1.457v1.483h.103c.179-.486.503-.88.971-1.183a2.86 2.86 0 0 1 1.585-.454c.111 0 .25.003.416.007.166.004.292.01.377.019v1.534a4.47 4.47 0 0 0-.351-.057 3.463 3.463 0 0 0-.57-.045c-.477 0-.903.1-1.278.3-.37.196-.665.469-.882.818a2.21 2.21 0 0 0-.32 1.183V47.5h-1.508zm9.587.23a3.99 3.99 0 0 1-1.694-.351 2.907 2.907 0 0 1-1.209-1.03c-.298-.451-.447-.997-.447-1.636 0-.562.11-1.018.332-1.368a2.35 2.35 0 0 1 .889-.83c.37-.201.78-.35 1.227-.448.452-.102.906-.184 1.362-.243.596-.077 1.08-.134 1.451-.173.375-.042.647-.113.818-.21.175-.099.262-.27.262-.512v-.051c0-.63-.173-1.12-.518-1.47-.341-.35-.858-.525-1.553-.525-.72 0-1.285.158-1.694.473-.409.316-.697.652-.863 1.01l-1.432-.51c.256-.598.597-1.062 1.023-1.394.43-.337.9-.571 1.406-.704a5.841 5.841 0 0 1 1.509-.204c.315 0 .677.038 1.086.115.414.073.812.224 1.196.454.388.23.709.577.965 1.042.256.464.384 1.086.384 1.866V47.5h-1.509v-1.33h-.077a2.64 2.64 0 0 1-.511.684c-.239.243-.556.45-.953.62-.396.17-.88.256-1.45.256zm.23-1.355c.596 0 1.1-.117 1.508-.352.414-.234.725-.537.933-.907.213-.371.32-.76.32-1.17v-1.38c-.064.076-.205.146-.422.21-.213.06-.46.113-.741.16a34.079 34.079 0 0 1-1.445.192 5.772 5.772 0 0 0-1.1.25 1.89 1.89 0 0 0-.818.504c-.204.222-.306.524-.306.908 0 .524.194.92.581 1.189.392.264.889.396 1.49.396zm11.012 1.33c-.921 0-1.714-.218-2.378-.652-.665-.435-1.176-1.034-1.534-1.797-.358-.762-.537-1.634-.537-2.614 0-.997.183-1.877.549-2.64.371-.767.887-1.366 1.547-1.796.665-.435 1.441-.652 2.327-.652.69 0 1.312.128 1.866.383a3.577 3.577 0 0 1 1.362 1.074c.354.46.573.997.658 1.611h-1.508c-.115-.447-.371-.844-.767-1.189-.392-.35-.921-.524-1.585-.524-.589 0-1.104.154-1.547.46-.439.303-.782.731-1.029 1.285-.243.55-.365 1.195-.365 1.937 0 .758.12 1.419.358 1.981.243.563.584 1 1.023 1.31.443.312.963.467 1.56.467a2.7 2.7 0 0 0 1.067-.204c.32-.137.59-.333.812-.588a2.27 2.27 0 0 0 .473-.92h1.508a3.498 3.498 0 0 1-.632 1.565c-.333.46-.774.827-1.324 1.1-.545.268-1.18.403-1.904.403zm7.472-3.785-.026-1.866h.307l4.296-4.372h1.866l-4.577 4.628h-.128l-1.738 1.61zm-1.406 3.58V34.41h1.508V47.5h-1.508zm6.238 0-3.835-4.858 1.074-1.048 4.679 5.906h-1.918z"/><rect width="99.38" height="27.46" x="264.369" y="27.77" fill="url(#l)" rx="7.75"/><path fill="#878786" fill-opacity=".8" d="M271.63 37.11v-1.07h7.471v1.07h-3.132V46h-1.207v-8.89h-3.132zm10.325 4.396V46h-1.148v-9.96h1.148v3.657h.097c.175-.386.438-.693.788-.92.353-.23.823-.345 1.41-.345.509 0 .955.102 1.338.307.382.2.679.51.89.928.214.416.321.944.321 1.586V46h-1.148v-4.67c0-.593-.154-1.051-.462-1.375-.305-.328-.728-.492-1.27-.492-.376 0-.713.08-1.011.239-.295.159-.529.39-.701.695-.168.305-.252.675-.252 1.109zM288.899 46v-7.47h1.147V46h-1.147zm.583-8.716a.82.82 0 0 1-.579-.228.737.737 0 0 1-.238-.55.74.74 0 0 1 .238-.55.82.82 0 0 1 .579-.228.8.8 0 0 1 .574.229.728.728 0 0 1 .243.55.727.727 0 0 1-.243.549.8.8 0 0 1-.574.228zm7.958 2.919-1.031.291a1.905 1.905 0 0 0-.287-.5 1.388 1.388 0 0 0-.505-.41c-.214-.106-.488-.16-.822-.16-.458 0-.839.106-1.143.316-.302.208-.453.472-.453.793 0 .286.104.51.312.676.207.166.531.303.972.414l1.109.272c.668.162 1.166.41 1.493.744.328.33.492.757.492 1.28a1.9 1.9 0 0 1-.37 1.147c-.243.337-.584.603-1.021.798-.438.194-.947.292-1.528.292-.762 0-1.392-.166-1.892-.496-.499-.331-.815-.814-.948-1.45l1.089-.272c.104.402.3.703.589.904.292.202.673.302 1.143.302.535 0 .96-.113 1.274-.34.318-.23.477-.506.477-.827a.868.868 0 0 0-.273-.652c-.181-.178-.46-.311-.836-.399l-1.245-.292c-.684-.162-1.187-.413-1.508-.754-.318-.343-.477-.773-.477-1.288 0-.422.119-.795.356-1.119.239-.324.565-.579.977-.764a3.433 3.433 0 0 1 1.411-.277c.739 0 1.319.162 1.741.486.425.325.726.753.904 1.285zM305.121 46l-2.723-9.96h1.225l2.082 8.112h.097l2.121-8.113h1.362l2.12 8.113h.097l2.082-8.113h1.226L312.086 46h-1.245l-2.198-7.938h-.078L306.366 46h-1.245zm13.473.156c-.72 0-1.341-.16-1.863-.477a3.197 3.197 0 0 1-1.201-1.342c-.279-.578-.419-1.249-.419-2.014 0-.765.14-1.44.419-2.023.282-.587.674-1.044 1.177-1.372.505-.33 1.095-.496 1.77-.496.389 0 .773.065 1.153.195.379.13.724.34 1.036.632.311.289.559.671.744 1.148.184.476.277 1.063.277 1.76v.487h-5.759v-.992h4.592a2.46 2.46 0 0 0-.253-1.129 1.91 1.91 0 0 0-.71-.783c-.305-.191-.665-.287-1.08-.287-.457 0-.853.114-1.187.34a2.233 2.233 0 0 0-.763.876c-.179.36-.268.746-.268 1.158v.661c0 .564.097 1.043.292 1.435.198.389.472.686.822.89.35.201.757.301 1.221.301.301 0 .574-.042.817-.126a1.75 1.75 0 0 0 .637-.389c.178-.175.316-.392.413-.652l1.109.312a2.467 2.467 0 0 1-.588.992 2.869 2.869 0 0 1-1.022.661 3.787 3.787 0 0 1-1.366.234zm7.971 0c-.72 0-1.341-.16-1.863-.477a3.203 3.203 0 0 1-1.201-1.342c-.279-.578-.418-1.249-.418-2.014 0-.765.139-1.44.418-2.023.282-.587.674-1.044 1.177-1.372.506-.33 1.096-.496 1.77-.496.39 0 .774.065 1.153.195s.725.34 1.036.632c.311.289.559.671.744 1.148.185.476.277 1.063.277 1.76v.487H323.9v-.992h4.591c0-.422-.084-.798-.253-1.129a1.903 1.903 0 0 0-.71-.783c-.305-.191-.665-.287-1.08-.287-.457 0-.852.114-1.186.34a2.236 2.236 0 0 0-.764.876c-.178.36-.267.746-.267 1.158v.661c0 .564.097 1.043.291 1.435.198.389.472.686.822.89.351.201.757.301 1.221.301.302 0 .574-.042.817-.126.247-.087.459-.217.637-.389.179-.175.317-.392.414-.652l1.109.312a2.458 2.458 0 0 1-.589.992 2.865 2.865 0 0 1-1.021.661 3.789 3.789 0 0 1-1.367.234zm5.909-2.88-.019-1.42h.233l3.269-3.327h1.42l-3.482 3.522h-.098l-1.323 1.225zM331.404 46v-9.96h1.148V46h-1.148zm4.747 0-2.918-3.696.817-.798L337.61 46h-1.459z"/><path fill="#878786" fill-opacity=".5" d="m354.884 40.09-4.282 4.28a.42.42 0 0 1-.303.127.42.42 0 0 1-.302-.126l-4.282-4.281a.43.43 0 0 1 .606-.606l3.978 3.979 3.979-3.98a.43.43 0 0 1 .606 0 .43.43 0 0 1 0 .607z"/><rect width="99.38" height="27.46" x="264.369" y="27.77" stroke="url(#m)" stroke-width=".5" rx="7.75"/><g clip-path="url(#n)"><path fill="#1A1A1A" d="M30 290.738h27.401V415.86H30V290.738z"/></g><path fill="#878786" fill-opacity=".5" d="M45.399 433.523c0-.215-.034-.406-.102-.571a1.094 1.094 0 0 0-.342-.457 2.711 2.711 0 0 0-.673-.387 9.33 9.33 0 0 0-1.08-.375 9.872 9.872 0 0 1-1.237-.45 4.349 4.349 0 0 1-.946-.578 2.277 2.277 0 0 1-.603-.743 2.112 2.112 0 0 1-.21-.958 2.25 2.25 0 0 1 .857-1.79c.28-.229.612-.406.997-.533a4.098 4.098 0 0 1 1.289-.191c.694 0 1.282.134 1.764.4.487.263.857.607 1.111 1.035.254.423.381.876.381 1.358h-1.219a1.86 1.86 0 0 0-.222-.92 1.528 1.528 0 0 0-.673-.635c-.3-.157-.681-.235-1.142-.235-.436 0-.796.066-1.08.197a1.426 1.426 0 0 0-.634.533 1.45 1.45 0 0 0-.203.768c0 .195.04.373.12.533.085.157.214.303.388.438.177.136.402.261.672.375.275.114.603.224.984.33.525.148.978.313 1.359.495.38.182.694.387.939.616.25.224.434.48.552.768a2.4 2.4 0 0 1 .184.965c0 .376-.076.717-.228 1.022-.153.304-.37.565-.654.78a3.164 3.164 0 0 1-1.022.502 4.74 4.74 0 0 1-1.32.171c-.428 0-.849-.059-1.263-.177a3.779 3.779 0 0 1-1.124-.534 2.794 2.794 0 0 1-.806-.876 2.428 2.428 0 0 1-.298-1.218h1.218c0 .317.062.59.184.819.123.224.29.41.502.558.216.148.459.258.73.33.275.068.56.102.857.102.427 0 .789-.059 1.085-.178.296-.118.52-.288.673-.508.157-.22.235-.48.235-.781z"/><g clip-path="url(#o)"><path fill="#1A1A1A" d="M79.83 367.712h25.926v48.148H79.83v-48.148z"/></g><path fill="#878786" fill-opacity=".5" d="M89.022 426.618h1.186l3.028 7.535 3.022-7.535h1.193l-3.758 9.242h-.926l-3.745-9.242zm-.388 0h1.048l.171 5.637v3.605h-1.219v-9.242zm8.15 0h1.048v9.242h-1.219v-3.605l.172-5.637z"/><g clip-path="url(#p)"><path fill="#1A1A1A" d="M129.662 317.207h27.401v98.654h-27.401v-98.654z"/></g><path fill="#878786" fill-opacity=".5" d="M145.383 426.619v9.242h-1.206v-9.242h1.206zm2.971 0v1.003h-7.142v-1.003h7.142z"/><g clip-path="url(#q)"><path fill="#6F8EFF" d="M179.492 223.365h27.401V415.86h-27.401V223.365z"/></g><path fill="#878786" fill-opacity=".5" d="m189.781 433.067 1.834-6.449h.889l-.514 2.507-1.974 6.735h-.883l.648-2.793zm-1.898-6.449 1.46 6.322.438 2.92h-.876l-2.241-9.242h1.219zm6.995 6.316 1.428-6.316h1.225l-2.234 9.242h-.876l.457-2.926zm-2.241-6.316 1.784 6.449.647 2.793h-.882l-1.904-6.735-.521-2.507h.876z"/><g clip-path="url(#r)"><path fill="#1A1A1A" d="M229.322 271.489h27.401v144.372h-27.401V271.489z"/></g><path fill="#878786" fill-opacity=".5" d="M246.895 426.619v9.242h-1.207v-9.242h1.207zm2.97 0v1.003h-7.141v-1.003h7.141z"/><g clip-path="url(#s)"><path fill="#1A1A1A" d="M279.154 358.112h27.401v57.749h-27.401v-57.749z"/></g><path fill="#878786" fill-opacity=".5" d="M292.971 426.619v9.242h-1.225v-9.242h1.225zm3.872 4.158v1.003h-4.139v-1.003h4.139zm.628-4.158v1.003h-4.767v-1.003h4.767z"/><g clip-path="url(#t)"><path fill="#1A1A1A" d="M328.984 249.833h27.402V415.86h-27.402V249.833z"/></g><path fill="#878786" fill-opacity=".5" d="M342.532 433.523c0-.215-.034-.406-.102-.571a1.09 1.09 0 0 0-.343-.457 2.704 2.704 0 0 0-.672-.387 9.378 9.378 0 0 0-1.08-.375 9.847 9.847 0 0 1-1.237-.45 4.32 4.32 0 0 1-.946-.578 2.259 2.259 0 0 1-.603-.743 2.107 2.107 0 0 1-.21-.958c0-.36.074-.692.223-.997.148-.304.359-.569.634-.793.28-.229.612-.406.997-.533a4.095 4.095 0 0 1 1.288-.191c.694 0 1.283.134 1.765.4.487.263.857.607 1.111 1.035.254.423.381.876.381 1.358h-1.219c0-.347-.074-.654-.222-.92a1.53 1.53 0 0 0-.673-.635c-.3-.157-.681-.235-1.143-.235-.435 0-.795.066-1.079.197a1.424 1.424 0 0 0-.634.533 1.45 1.45 0 0 0-.204.768c0 .195.041.373.121.533.085.157.214.303.387.438.178.136.402.261.673.375.275.114.603.224.984.33.525.148.978.313 1.358.495.381.182.694.387.94.616.25.224.434.48.552.768a2.4 2.4 0 0 1 .184.965c0 .376-.076.717-.228 1.022a2.232 2.232 0 0 1-.654.78 3.168 3.168 0 0 1-1.022.502 4.744 4.744 0 0 1-1.32.171c-.428 0-.849-.059-1.264-.177a3.774 3.774 0 0 1-1.123-.534 2.796 2.796 0 0 1-.806-.876 2.427 2.427 0 0 1-.299-1.218h1.219c0 .317.061.59.184.819.123.224.29.41.502.558.215.148.459.258.73.33.275.068.56.102.857.102.427 0 .789-.059 1.085-.178.296-.118.521-.288.673-.508.156-.22.235-.48.235-.781zM140.721 99.01v-6.041h1.125v6.04c0 .563-.116 1.038-.346 1.425-.23.386-.549.681-.955.884-.402.2-.865.299-1.389.299-.523 0-.988-.09-1.394-.269a2.098 2.098 0 0 1-.955-.821c-.231-.367-.346-.83-.346-1.388h1.131c0 .359.066.654.199.884.133.231.316.401.551.51.238.11.51.164.814.164.297 0 .563-.062.797-.187a1.39 1.39 0 0 0 .563-.569c.136-.254.205-.564.205-.931zm7.922-6.041h1.125v5.771c0 .64-.143 1.174-.428 1.6a2.668 2.668 0 0 1-1.137.961 3.68 3.68 0 0 1-1.529.316 3.78 3.78 0 0 1-1.57-.316 2.573 2.573 0 0 1-1.108-.961c-.269-.426-.404-.96-.404-1.6v-5.77h1.119v5.771c0 .446.082.813.246 1.102.164.289.393.504.686.644.296.141.64.211 1.031.211.394 0 .738-.07 1.031-.211.297-.14.527-.355.691-.644.165-.29.247-.656.247-1.102V92.97zm9.462 0v8.531h-1.136l-4.295-6.58v6.58h-1.131v-8.531h1.131l4.312 6.597V92.97h1.119zm7.424 7.611v.92h-4.517v-.92h4.517zm-4.289-7.611v8.531h-1.131v-8.531h1.131zm3.692 3.668v.92h-3.92v-.92h3.92zm.539-3.668v.925h-4.459v-.925h4.459zm9.744 7.64v.891h-5.584v-.779l2.795-3.112c.344-.382.609-.707.797-.972.191-.27.324-.51.398-.721a1.91 1.91 0 0 0 .117-.656c0-.282-.058-.535-.176-.762a1.318 1.318 0 0 0-.503-.55 1.519 1.519 0 0 0-.809-.206c-.379 0-.695.074-.949.223-.25.144-.438.347-.563.61a2.07 2.07 0 0 0-.187.902h-1.084c0-.48.105-.92.316-1.319.211-.398.524-.715.938-.949.414-.238.924-.357 1.529-.357.539 0 1 .095 1.383.287.383.187.676.453.879.797.207.34.31.738.31 1.195a2.4 2.4 0 0 1-.129.762 3.886 3.886 0 0 1-.345.761 6.002 6.002 0 0 1-.51.75c-.192.246-.397.489-.615.727l-2.285 2.478h4.277zm2.742-3.908h.773c.379 0 .692-.062.938-.187a1.29 1.29 0 0 0 .557-.522c.125-.223.187-.473.187-.75 0-.328-.055-.603-.164-.826a1.095 1.095 0 0 0-.492-.504c-.219-.113-.496-.17-.832-.17-.305 0-.574.06-.809.182-.23.117-.412.285-.545.504a1.495 1.495 0 0 0-.193.773h-1.084c0-.433.109-.828.328-1.183.219-.356.525-.64.92-.85.398-.211.859-.316 1.383-.316.515 0 .967.091 1.353.275.387.18.688.45.903.809.215.355.322.798.322 1.33 0 .215-.051.445-.152.691a2.05 2.05 0 0 1-.463.68 2.39 2.39 0 0 1-.809.521c-.332.133-.73.2-1.195.2h-.926V96.7zm0 .89v-.65h.926c.543 0 .992.065 1.347.194.356.129.635.3.838.515.207.215.352.452.434.71a2.61 2.61 0 0 1-.076 1.823 2.16 2.16 0 0 1-.569.784 2.419 2.419 0 0 1-.855.486 3.384 3.384 0 0 1-1.072.164c-.371 0-.721-.053-1.049-.158a2.712 2.712 0 0 1-.861-.457 2.13 2.13 0 0 1-.586-.744 2.337 2.337 0 0 1-.211-1.014h1.084c0 .297.064.557.193.779.133.223.32.397.562.522.247.121.536.182.868.182.332 0 .617-.057.855-.17.242-.118.428-.293.557-.528.133-.234.199-.529.199-.885 0-.355-.074-.646-.223-.873a1.31 1.31 0 0 0-.632-.51 2.458 2.458 0 0 0-.956-.17h-.773zm6.27 2.62v.873c0 .355-.09.73-.27 1.125-.18.398-.432.73-.756.996l-.615-.428c.125-.172.23-.347.316-.527.086-.176.151-.359.194-.551.047-.187.07-.387.07-.597v-.891h1.061zm6.767-1.29 1.694-5.952h.82l-.475 2.314-1.822 6.217h-.815l.598-2.578zm-1.752-5.952 1.348 5.836.404 2.695h-.808l-2.069-8.531h1.125zm6.457 5.83 1.319-5.83h1.13l-2.062 8.531h-.809l.422-2.701zm-2.068-5.83 1.646 5.953.598 2.578h-.814l-1.758-6.217-.481-2.314h.809zm11.191 7.611v.92h-4.517v-.92h4.517zm-4.289-7.611v8.531h-1.131v-8.531h1.131zm3.692 3.668v.92h-3.92v-.92h3.92zm.539-3.668v.925h-4.459v-.925h4.459zm3.767 8.531h-1.781l.012-.92h1.769c.61 0 1.117-.127 1.524-.381a2.38 2.38 0 0 0 .914-1.078c.207-.465.31-1.008.31-1.629v-.521a4.41 4.41 0 0 0-.175-1.301 2.653 2.653 0 0 0-.516-.967 2.183 2.183 0 0 0-.832-.603 2.858 2.858 0 0 0-1.119-.206h-1.922v-.925h1.922c.558 0 1.068.094 1.529.281.461.184.857.451 1.189.803.336.347.594.77.774 1.265.18.493.269 1.047.269 1.664v.51a4.87 4.87 0 0 1-.269 1.67c-.18.492-.44.912-.779 1.26a3.41 3.41 0 0 1-1.219.803 4.405 4.405 0 0 1-1.6.275zm-1.177-8.531v8.531h-1.131v-8.531h1.131zm13.306 0v8.531h-1.137l-4.294-6.58v6.58h-1.131v-8.531h1.131l4.312 6.597V92.97h1.119zm7.424 7.611v.92h-4.518v-.92h4.518zm-4.289-7.611v8.531h-1.131v-8.531h1.131zm3.691 3.668v.92h-3.92v-.92h3.92zm.539-3.668v.925h-4.459v-.925h4.459zm6.006 6.375c0-.2-.031-.375-.093-.528a1.013 1.013 0 0 0-.317-.422 2.468 2.468 0 0 0-.621-.357 8.704 8.704 0 0 0-.996-.346 9.178 9.178 0 0 1-1.143-.416 3.986 3.986 0 0 1-.873-.533 2.105 2.105 0 0 1-.556-.685 1.951 1.951 0 0 1-.194-.885 2.085 2.085 0 0 1 .791-1.653c.258-.21.565-.375.92-.492a3.791 3.791 0 0 1 1.19-.175c.64 0 1.183.123 1.629.369.449.242.791.56 1.025.955a2.4 2.4 0 0 1 .352 1.254h-1.125c0-.32-.069-.604-.206-.85a1.406 1.406 0 0 0-.621-.586c-.277-.144-.629-.217-1.054-.217-.403 0-.735.06-.996.182a1.315 1.315 0 0 0-.586.492 1.345 1.345 0 0 0-.188.71c0 .179.037.343.111.491.079.145.198.28.358.405.164.125.371.24.621.345.254.106.557.207.908.305.485.137.903.29 1.254.457.352.168.641.358.867.568.231.207.401.444.51.71.113.261.17.558.17.89 0 .348-.07.662-.211.943a2.054 2.054 0 0 1-.603.721 2.92 2.92 0 0 1-.944.463 4.38 4.38 0 0 1-1.219.158c-.394 0-.783-.055-1.166-.164a3.463 3.463 0 0 1-1.037-.492 2.588 2.588 0 0 1-.744-.809 2.248 2.248 0 0 1-.275-1.125h1.125c0 .293.056.545.17.756.113.207.267.379.463.516.199.137.423.238.673.305.254.062.518.093.791.093.395 0 .729-.054 1.002-.164.274-.109.481-.265.621-.469.145-.203.217-.443.217-.72zm4.887 2.156h-1.781l.011-.92h1.77c.609 0 1.117-.127 1.523-.381.407-.258.711-.617.914-1.078.207-.465.311-1.008.311-1.629v-.521a4.41 4.41 0 0 0-.176-1.301 2.637 2.637 0 0 0-.515-.967 2.183 2.183 0 0 0-.832-.603 2.867 2.867 0 0 0-1.12-.206h-1.921v-.925h1.921c.559 0 1.069.094 1.53.281.461.184.857.451 1.189.803.336.347.594.77.774 1.265.179.493.269 1.047.269 1.664v.51c0 .617-.09 1.174-.269 1.67a3.407 3.407 0 0 1-1.998 2.063 4.405 4.405 0 0 1-1.6.275zm-1.178-8.531v8.531h-1.131v-8.531h1.131zm9.774.756-2.825 7.775h-1.154l3.252-8.531h.744l-.017.756zm2.367 7.775-2.83-7.775-.018-.756h.744l3.264 8.531h-1.16zm-.147-3.158v.926h-4.793v-.926h4.793zm2.291-5.373 2.215 4.283 2.221-4.283h1.283l-2.941 5.344v3.187h-1.131v-3.188l-2.942-5.343h1.295z"/><path fill="#fff" d="M50.545 141.778c-1.253 0-2.373-.225-3.36-.676-.988-.457-1.77-1.09-2.347-1.899-.577-.809-.882-1.74-.915-2.794h1.88c.033.743.261 1.392.686 1.949.424.55.987.981 1.69 1.293.703.304 1.485.457 2.346.457.942 0 1.77-.176 2.486-.527.723-.351 1.286-.832 1.69-1.442a3.677 3.677 0 0 0 .617-2.088c0-.822-.209-1.548-.626-2.177-.418-.63-1.018-1.121-1.8-1.472-.776-.351-1.704-.527-2.784-.527h-1.193v-1.67h1.193c.881 0 1.66-.16 2.336-.478.683-.325 1.22-.779 1.611-1.362.391-.583.587-1.269.587-2.058 0-.749-.17-1.409-.507-1.979a3.546 3.546 0 0 0-1.432-1.342c-.61-.325-1.323-.487-2.138-.487a5.08 5.08 0 0 0-2.167.457 4.02 4.02 0 0 0-1.591 1.293c-.398.556-.61 1.216-.637 1.978h-1.8c.027-1.06.319-1.992.876-2.794a5.72 5.72 0 0 1 2.237-1.889c.934-.457 1.969-.686 3.102-.686 1.2 0 2.237.245 3.112.736.875.49 1.551 1.143 2.029 1.959.484.808.726 1.7.726 2.674 0 1.16-.315 2.155-.945 2.983-.63.822-1.478 1.392-2.545 1.71v.13c1.299.258 2.32.835 3.062 1.73.749.888 1.123 1.979 1.123 3.271 0 1.087-.285 2.065-.855 2.933-.57.862-1.352 1.545-2.346 2.049-.988.497-2.121.745-3.4.745zm11.74-.129c-.39 0-.728-.139-1.013-.417a1.406 1.406 0 0 1-.418-1.015c0-.397.14-.735.418-1.014a1.403 1.403 0 0 1 1.014-.417c.397 0 .736.139 1.014.417.278.279.418.617.418 1.014 0 .259-.067.497-.2.716a1.452 1.452 0 0 1-.516.527 1.378 1.378 0 0 1-.716.189zm11.594.129c-1.299 0-2.456-.245-3.47-.735-1.014-.491-1.81-1.16-2.386-2.009-.577-.855-.865-1.82-.865-2.893 0-.842.175-1.628.527-2.357a5.24 5.24 0 0 1 1.451-1.849 4.681 4.681 0 0 1 2.079-.985v-.109a4.406 4.406 0 0 1-2.416-1.72c-.61-.862-.912-1.84-.905-2.933-.007-1.015.251-1.923.775-2.725s1.237-1.435 2.138-1.899c.908-.471 1.932-.706 3.072-.706 1.134 0 2.151.235 3.053.706.901.464 1.614 1.097 2.138 1.899.53.802.799 1.71.805 2.725a5.04 5.04 0 0 1-.924 2.933c-.61.861-1.412 1.435-2.407 1.72v.109a4.523 4.523 0 0 1 2.068.975 5.498 5.498 0 0 1 1.452 1.859c.358.729.537 1.515.537 2.357 0 1.073-.292 2.038-.875 2.893-.577.849-1.372 1.518-2.386 2.009-1.008.49-2.161.735-3.46.735zm0-1.67c.968 0 1.817-.172 2.546-.517.736-.351 1.31-.832 1.72-1.442.418-.61.627-1.309.627-2.098 0-.815-.216-1.541-.647-2.177a4.498 4.498 0 0 0-1.75-1.522c-.736-.378-1.567-.566-2.496-.566-.928 0-1.763.188-2.505.566a4.498 4.498 0 0 0-1.75 1.522c-.424.636-.637 1.362-.637 2.177 0 .789.203 1.488.607 2.098.41.61.984 1.091 1.72 1.442.743.345 1.598.517 2.565.517zm0-9.913c.796 0 1.508-.169 2.138-.507a3.898 3.898 0 0 0 1.492-1.383c.37-.59.56-1.259.567-2.008-.007-.743-.193-1.399-.557-1.969a3.696 3.696 0 0 0-1.492-1.342c-.623-.325-1.339-.487-2.148-.487-.808 0-1.53.162-2.167.487a3.697 3.697 0 0 0-1.492 1.342c-.358.57-.533 1.226-.527 1.969-.006.749.173 1.418.537 2.008a3.975 3.975 0 0 0 1.502 1.383c.636.338 1.352.507 2.147.507zm12.531 5.538-.02-2.317h.398l7.16-7.189h2.237l-7.07 7.08-.16.03-2.545 2.396zM84.8 141.5v-20.364h1.77V141.5H84.8zm9.515 0-6.204-7.845 1.272-1.223 7.2 9.068h-2.268z"/><path fill="#878786" fill-opacity=".5" d="m51.575 160.421 2.095-6.03h1.02l-2.63 7.109h-.728l.244-1.079zm-1.958-6.03 2.075 6.03.26 1.079h-.728l-2.627-7.109h1.02zm7.041 0v7.109h-.942v-7.109h.942zm5.503 5.312a1.15 1.15 0 0 0-.078-.439.832.832 0 0 0-.264-.352 2.093 2.093 0 0 0-.517-.298 7.368 7.368 0 0 0-.83-.288 7.598 7.598 0 0 1-.953-.347 3.318 3.318 0 0 1-.727-.444 1.75 1.75 0 0 1-.464-.571 1.628 1.628 0 0 1-.161-.737 1.73 1.73 0 0 1 .66-1.377 2.37 2.37 0 0 1 .766-.411 3.17 3.17 0 0 1 .991-.146c.534 0 .986.103 1.357.308.375.201.66.467.855.795.195.326.293.674.293 1.045h-.938c0-.267-.057-.503-.17-.708a1.178 1.178 0 0 0-.518-.488c-.231-.12-.524-.181-.879-.181-.335 0-.612.051-.83.152a1.092 1.092 0 0 0-.488.41 1.121 1.121 0 0 0-.157.591c0 .15.031.286.093.41a1.1 1.1 0 0 0 .298.337c.137.104.31.2.518.288.211.088.463.172.756.254.404.114.752.241 1.045.381.293.14.534.298.723.473.192.173.334.37.425.591.094.218.141.466.141.742 0 .29-.058.552-.175.786a1.705 1.705 0 0 1-.503.601c-.218.166-.48.295-.786.386a3.635 3.635 0 0 1-1.016.132c-.329 0-.653-.046-.972-.137a2.899 2.899 0 0 1-.864-.41 2.156 2.156 0 0 1-.62-.674 1.87 1.87 0 0 1-.23-.938h.938c0 .245.047.455.142.63.094.173.223.316.385.43.166.114.353.199.562.254.211.052.431.078.659.078.329 0 .607-.046.835-.137.228-.091.4-.221.517-.39.12-.17.181-.37.181-.601zm3.16-5.312v7.109h-.943v-7.109h.942zm4.194 0v7.109h-.928v-7.109h.928zm2.285 0v.771h-5.493v-.771H71.8zm6.391 3.33v.449a4.76 4.76 0 0 1-.2 1.435 3.088 3.088 0 0 1-.576 1.08c-.25.296-.552.522-.903.678a2.82 2.82 0 0 1-1.172.235c-.42 0-.806-.078-1.157-.235a2.6 2.6 0 0 1-.909-.678 3.166 3.166 0 0 1-.59-1.08 4.554 4.554 0 0 1-.21-1.435v-.449c0-.534.068-1.011.205-1.431.14-.423.337-.783.59-1.079.254-.3.555-.527.904-.684a2.82 2.82 0 0 1 1.157-.234c.433 0 .824.078 1.172.234.352.157.653.384.903.684.254.296.448.656.581 1.079.137.42.205.897.205 1.431zm-.932.449v-.459c0-.423-.044-.798-.132-1.123a2.321 2.321 0 0 0-.376-.82 1.616 1.616 0 0 0-.61-.503 1.851 1.851 0 0 0-.81-.171c-.294 0-.56.057-.797.171a1.68 1.68 0 0 0-.605.503 2.448 2.448 0 0 0-.386.82 4.18 4.18 0 0 0-.137 1.123v.459c0 .426.046.804.137 1.133.091.325.221.6.39.825.173.221.377.389.61.503.239.114.504.171.797.171.306 0 .578-.057.815-.171.238-.114.438-.282.6-.503.167-.225.292-.5.377-.825.084-.329.127-.707.127-1.133zm2.344-3.779h2.353c.534 0 .985.081 1.353.244.37.163.652.403.844.722.196.316.293.705.293 1.167 0 .326-.066.624-.2.894-.13.267-.319.495-.566.684a2.524 2.524 0 0 1-.88.415l-.263.102h-2.212l-.01-.766h1.67c.339 0 .62-.059.845-.176a1.24 1.24 0 0 0 .508-.484c.114-.201.17-.424.17-.669 0-.273-.053-.512-.16-.717a1.079 1.079 0 0 0-.508-.474c-.228-.114-.523-.171-.884-.171h-1.411v6.338h-.942v-7.109zm4.155 7.109-1.729-3.223.982-.005 1.753 3.169v.059h-1.006zm5.796-1.797a1.15 1.15 0 0 0-.078-.439.832.832 0 0 0-.264-.352 2.092 2.092 0 0 0-.518-.298 7.373 7.373 0 0 0-.83-.288 7.598 7.598 0 0 1-.952-.347 3.318 3.318 0 0 1-.727-.444 1.75 1.75 0 0 1-.464-.571 1.628 1.628 0 0 1-.161-.737 1.729 1.729 0 0 1 .659-1.377 2.37 2.37 0 0 1 .766-.411 3.18 3.18 0 0 1 .992-.146c.533 0 .986.103 1.357.308.374.201.66.467.855.795a2 2 0 0 1 .292 1.045h-.937c0-.267-.057-.503-.171-.708a1.177 1.177 0 0 0-.517-.488c-.232-.12-.525-.181-.88-.181-.335 0-.611.051-.83.152-.218.101-.38.237-.488.41a1.12 1.12 0 0 0-.156.591c0 .15.03.286.093.41.065.12.164.233.298.337.136.104.309.2.517.288.212.088.464.172.757.254.404.114.752.241 1.045.381.293.14.534.298.723.473.192.173.333.37.424.591.095.218.142.466.142.742 0 .29-.059.552-.176.786a1.705 1.705 0 0 1-.503.601c-.218.166-.48.295-.786.386a3.634 3.634 0 0 1-1.016.132c-.328 0-.652-.046-.971-.137a2.899 2.899 0 0 1-.864-.41 2.156 2.156 0 0 1-.62-.674 1.87 1.87 0 0 1-.23-.938h.938c0 .245.047.455.141.63.094.173.223.316.386.43.166.114.353.199.561.254.212.052.432.078.66.078.328 0 .607-.046.835-.137.227-.091.4-.221.517-.39.12-.17.18-.37.18-.601z"/><path stroke="#1A1A1A" stroke-width="1.3" d="M133.984 114.5v50"/><path fill="#fff" d="M178.68 141.778a6.522 6.522 0 0 1-2.466-.507c-.802-.338-1.524-.878-2.167-1.62-.643-.749-1.154-1.737-1.531-2.963-.378-1.227-.567-2.735-.567-4.525 0-1.657.146-3.175.437-4.554.292-1.378.73-2.572 1.313-3.579.583-1.008 1.312-1.787 2.187-2.337.875-.557 1.9-.835 3.073-.835 1.1 0 2.071.229 2.913.686a5.495 5.495 0 0 1 2.048 1.889c.524.809.852 1.74.985 2.794h-1.83c-.185-1.074-.626-1.959-1.322-2.655-.696-.696-1.628-1.044-2.794-1.044-1.671 0-2.963.776-3.878 2.327-.915 1.545-1.376 3.739-1.382 6.583h.129a5.432 5.432 0 0 1 1.253-1.562 5.805 5.805 0 0 1 1.76-1.034 5.72 5.72 0 0 1 2.068-.378c1.134 0 2.171.289 3.112.866a6.311 6.311 0 0 1 2.257 2.356c.564.994.846 2.131.846 3.411 0 1.213-.269 2.33-.806 3.35a6.17 6.17 0 0 1-2.247 2.437c-.961.603-2.091.901-3.391.894zm0-1.67c.889 0 1.681-.225 2.377-.676a4.802 4.802 0 0 0 1.66-1.81c.405-.762.607-1.604.607-2.525 0-.922-.202-1.757-.607-2.506a4.744 4.744 0 0 0-1.66-1.79c-.696-.444-1.488-.666-2.377-.666-.676 0-1.305.139-1.889.418a4.702 4.702 0 0 0-1.521 1.123 4.988 4.988 0 0 0-.975 1.621 4.566 4.566 0 0 0-.248 1.919c.073.935.315 1.773.726 2.516a4.86 4.86 0 0 0 1.63 1.74 4.201 4.201 0 0 0 2.277.636zm11.174 1.541c-.391 0-.729-.139-1.014-.417a1.404 1.404 0 0 1-.418-1.015c0-.397.139-.735.418-1.014a1.403 1.403 0 0 1 1.014-.417c.398 0 .736.139 1.014.417.279.279.418.617.418 1.014 0 .259-.066.497-.199.716a1.45 1.45 0 0 1-.517.527 1.375 1.375 0 0 1-.716.189zm6.351-.149 9.277-18.564v-.129h-10.689v-1.671h12.638v1.75l-9.267 18.614h-1.959zm16.871-5.767-.02-2.317h.398l7.159-7.189h2.237l-7.069 7.08-.159.03-2.546 2.396zm-1.61 5.767v-20.364h1.769V141.5h-1.769zm9.515 0-6.204-7.845 1.272-1.223 7.199 9.068h-2.267z"/><path fill="#878786" fill-opacity=".5" d="M166.751 154.391v7.109h-.942v-7.109h.942zm2.012 0h.913l2.329 5.796 2.324-5.796h.918l-2.891 7.109h-.712l-2.881-7.109zm-.298 0h.806l.131 4.336v2.773h-.937v-7.109zm6.269 0h.806v7.109h-.937v-2.773l.131-4.336zm5.083 4.321h-1.899v-.767h1.899c.368 0 .666-.058.894-.175.228-.118.394-.28.498-.489.107-.208.161-.446.161-.713 0-.244-.054-.473-.161-.688a1.193 1.193 0 0 0-.498-.518c-.228-.133-.526-.2-.894-.2h-1.679v6.338h-.943v-7.109h2.622c.537 0 .992.092 1.363.278.371.185.652.443.844.771.192.326.288.699.288 1.119 0 .455-.096.844-.288 1.167a1.84 1.84 0 0 1-.844.737c-.371.166-.826.249-1.363.249zm3.687-4.321h2.353c.534 0 .985.081 1.353.244.371.163.653.403.845.722.195.316.293.705.293 1.167 0 .326-.067.624-.201.894-.13.267-.319.495-.566.684a2.521 2.521 0 0 1-.879.415l-.264.102h-2.211l-.01-.766h1.67c.338 0 .62-.059.844-.176.225-.121.394-.282.508-.484.114-.201.171-.424.171-.669 0-.273-.054-.512-.161-.717a1.077 1.077 0 0 0-.508-.474c-.228-.114-.522-.171-.884-.171h-1.411v6.338h-.942v-7.109zm4.155 7.109-1.728-3.223.981-.005 1.753 3.169v.059h-1.006zm6.524-.767v.767h-3.765v-.767h3.765zm-3.575-6.342v7.109h-.942v-7.109h.942zm3.077 3.056v.767h-3.267v-.767h3.267zm.449-3.056v.771h-3.716v-.771h3.716zm5.005 5.312a1.15 1.15 0 0 0-.078-.439.834.834 0 0 0-.264-.352 2.09 2.09 0 0 0-.518-.298 7.31 7.31 0 0 0-.83-.288 7.618 7.618 0 0 1-.952-.347 3.3 3.3 0 0 1-.727-.444 1.743 1.743 0 0 1-.464-.571 1.62 1.62 0 0 1-.161-.737 1.728 1.728 0 0 1 .659-1.377c.215-.176.47-.313.766-.411a3.18 3.18 0 0 1 .992-.146c.533 0 .986.103 1.357.308.374.201.659.467.854.795.196.326.293.674.293 1.045h-.937c0-.267-.057-.503-.171-.708a1.174 1.174 0 0 0-.518-.488c-.231-.12-.524-.181-.878-.181-.336 0-.612.051-.831.152-.218.101-.38.237-.488.41a1.122 1.122 0 0 0-.156.591c0 .15.031.286.093.41.065.12.164.233.298.337.136.104.309.2.517.288.212.088.464.172.757.254.404.114.752.241 1.045.381.293.14.534.298.723.473.192.173.333.37.424.591.095.218.142.466.142.742 0 .29-.059.552-.176.786a1.704 1.704 0 0 1-.503.601c-.218.166-.48.295-.786.386a3.635 3.635 0 0 1-1.016.132c-.328 0-.652-.046-.971-.137a2.89 2.89 0 0 1-.864-.41 2.159 2.159 0 0 1-.621-.674 1.87 1.87 0 0 1-.229-.938h.937c0 .245.048.455.142.63.094.173.223.316.386.43.166.114.353.199.561.254.212.052.432.078.659.078.329 0 .608-.046.835-.137.228-.091.401-.221.518-.39.12-.17.181-.37.181-.601zm5.937 0a1.15 1.15 0 0 0-.078-.439.834.834 0 0 0-.264-.352 2.082 2.082 0 0 0-.517-.298 7.38 7.38 0 0 0-.83-.288 7.56 7.56 0 0 1-.952-.347 3.308 3.308 0 0 1-.728-.444 1.756 1.756 0 0 1-.464-.571 1.634 1.634 0 0 1-.161-.737 1.729 1.729 0 0 1 .659-1.377c.215-.176.471-.313.767-.411a3.17 3.17 0 0 1 .991-.146c.534 0 .986.103 1.357.308.375.201.66.467.855.795.195.326.293.674.293 1.045h-.938c0-.267-.057-.503-.17-.708a1.18 1.18 0 0 0-.518-.488c-.231-.12-.524-.181-.879-.181-.335 0-.612.051-.83.152a1.092 1.092 0 0 0-.488.41 1.114 1.114 0 0 0-.157.591c0 .15.031.286.093.41.065.12.165.233.298.337.137.104.309.2.518.288.211.088.463.172.756.254.404.114.752.241 1.045.381.293.14.534.298.723.473.192.173.334.37.425.591.094.218.141.466.141.742 0 .29-.058.552-.175.786a1.715 1.715 0 0 1-.503.601c-.218.166-.48.295-.786.386a3.64 3.64 0 0 1-1.016.132c-.329 0-.653-.046-.972-.137a2.901 2.901 0 0 1-.864-.41 2.155 2.155 0 0 1-.62-.674 1.87 1.87 0 0 1-.23-.938h.938c0 .245.047.455.142.63.094.173.223.316.385.43.166.114.353.199.562.254.211.052.431.078.659.078.329 0 .607-.046.835-.137.228-.091.4-.221.518-.39.12-.17.18-.37.18-.601zm3.159-5.312v7.109h-.942v-7.109h.942zm7.188 3.33v.449c0 .534-.067 1.012-.2 1.435a3.092 3.092 0 0 1-.577 1.08c-.25.296-.551.522-.903.678a2.82 2.82 0 0 1-1.172.235c-.42 0-.805-.078-1.157-.235a2.6 2.6 0 0 1-.908-.678 3.165 3.165 0 0 1-.591-1.08 4.554 4.554 0 0 1-.21-1.435v-.449c0-.534.068-1.011.205-1.431a3.16 3.16 0 0 1 .591-1.079c.254-.3.555-.527.903-.684a2.826 2.826 0 0 1 1.158-.234c.432 0 .823.078 1.171.234.352.157.653.384.904.684.254.296.447.656.581 1.079.136.42.205.897.205 1.431zm-.933.449v-.459c0-.423-.044-.798-.132-1.123a2.31 2.31 0 0 0-.376-.82 1.615 1.615 0 0 0-.61-.503 1.852 1.852 0 0 0-.81-.171c-.293 0-.559.057-.796.171a1.674 1.674 0 0 0-.606.503 2.466 2.466 0 0 0-.386.82c-.091.325-.136.7-.136 1.123v.459c0 .426.045.804.136 1.133.092.325.222.6.391.825.173.221.376.389.61.503.238.114.503.171.796.171.306 0 .578-.057.816-.171.237-.114.438-.282.6-.503.166-.225.292-.5.376-.825a4.55 4.55 0 0 0 .127-1.133zm7.813-3.779v7.109h-.948l-3.579-5.483v5.483h-.942v-7.109h.942l3.594 5.498v-5.498h.933zm5.459 5.312a1.15 1.15 0 0 0-.078-.439.834.834 0 0 0-.264-.352 2.09 2.09 0 0 0-.518-.298 7.31 7.31 0 0 0-.83-.288 7.618 7.618 0 0 1-.952-.347 3.3 3.3 0 0 1-.727-.444 1.743 1.743 0 0 1-.464-.571 1.62 1.62 0 0 1-.161-.737c0-.277.057-.533.17-.767a1.79 1.79 0 0 1 .489-.61c.215-.176.47-.313.766-.411a3.18 3.18 0 0 1 .992-.146c.533 0 .986.103 1.357.308.374.201.659.467.854.795.196.326.293.674.293 1.045h-.937c0-.267-.057-.503-.171-.708a1.174 1.174 0 0 0-.518-.488c-.231-.12-.524-.181-.878-.181-.336 0-.612.051-.831.152-.218.101-.38.237-.488.41a1.122 1.122 0 0 0-.156.591c0 .15.031.286.093.41.065.12.164.233.298.337.136.104.309.2.517.288.212.088.464.172.757.254.404.114.752.241 1.045.381.293.14.534.298.723.473.192.173.333.37.424.591.095.218.142.466.142.742 0 .29-.059.552-.176.786a1.704 1.704 0 0 1-.503.601c-.218.166-.48.295-.786.386a3.633 3.633 0 0 1-1.015.132c-.329 0-.653-.046-.972-.137a2.89 2.89 0 0 1-.864-.41 2.159 2.159 0 0 1-.621-.674 1.87 1.87 0 0 1-.229-.938h.937c0 .245.048.455.142.63.094.173.223.316.386.43.166.114.353.199.561.254.212.052.432.078.66.078.328 0 .607-.046.834-.137.228-.091.401-.221.518-.39.12-.17.181-.37.181-.601z"/><path stroke="#1A1A1A" stroke-width="1.3" d="M261.316 114.5v50"/><path fill="#fff" d="M298.099 141.5v-1.362l6.652-7.477a46.353 46.353 0 0 0 2.098-2.516c.53-.696.915-1.339 1.153-1.929.246-.59.368-1.203.368-1.84 0-.775-.182-1.451-.546-2.028a3.68 3.68 0 0 0-1.482-1.362c-.63-.325-1.339-.487-2.128-.487-.835 0-1.568.179-2.197.537a3.774 3.774 0 0 0-1.452 1.471c-.345.623-.517 1.339-.517 2.148h-1.78c0-1.127.259-2.125.776-2.993a5.59 5.59 0 0 1 2.137-2.058c.909-.497 1.936-.746 3.083-.746 1.133 0 2.141.245 3.023.736a5.432 5.432 0 0 1 2.078 1.978c.503.836.755 1.77.755 2.804 0 .749-.132 1.475-.397 2.178-.259.703-.706 1.485-1.343 2.347-.636.861-1.518 1.915-2.645 3.161l-5.051 5.638v.13h10.073v1.67h-12.658zm18.571.149c-.391 0-.729-.139-1.014-.417a1.407 1.407 0 0 1-.417-1.015c0-.397.139-.735.417-1.014a1.403 1.403 0 0 1 1.014-.417c.398 0 .736.139 1.015.417.278.279.417.617.417 1.014 0 .259-.066.497-.199.716a1.45 1.45 0 0 1-.517.527c-.212.126-.45.189-.716.189zm11.83.129c-1.252 0-2.373-.225-3.36-.676-.988-.457-1.77-1.09-2.347-1.899-.577-.809-.882-1.74-.915-2.794h1.879c.034.743.262 1.392.687 1.949.424.55.987.981 1.69 1.293.703.304 1.485.457 2.346.457.942 0 1.77-.176 2.486-.527.723-.351 1.286-.832 1.691-1.442a3.676 3.676 0 0 0 .616-2.088c0-.822-.209-1.548-.626-2.177-.418-.63-1.018-1.121-1.8-1.472-.776-.351-1.704-.527-2.784-.527h-1.193v-1.67h1.193c.881 0 1.66-.16 2.337-.478.682-.325 1.219-.779 1.61-1.362.391-.583.587-1.269.587-2.058 0-.749-.169-1.409-.507-1.979a3.543 3.543 0 0 0-1.432-1.342c-.61-.325-1.322-.487-2.138-.487-.789 0-1.511.152-2.167.457a4.011 4.011 0 0 0-1.591 1.293c-.398.556-.61 1.216-.637 1.978h-1.799c.026-1.06.318-1.992.875-2.794a5.717 5.717 0 0 1 2.237-1.889c.935-.457 1.969-.686 3.102-.686 1.2 0 2.237.245 3.112.736.875.49 1.551 1.143 2.029 1.959.484.808.726 1.7.726 2.674 0 1.16-.315 2.155-.945 2.983-.63.822-1.478 1.392-2.545 1.71v.13c1.299.258 2.32.835 3.062 1.73.749.888 1.124 1.979 1.124 3.271 0 1.087-.285 2.065-.855 2.933-.571.862-1.353 1.545-2.347 2.049-.988.497-2.121.745-3.401.745zm12.678-6.045-.02-2.317h.398l7.159-7.189h2.237l-7.07 7.08-.159.03-2.545 2.396zm-1.611 5.767v-20.364h1.77V141.5h-1.77zm9.516 0-6.205-7.845 1.273-1.223 7.199 9.068h-2.267z"/><path fill="#878786" fill-opacity=".5" d="M295.763 159.239h.937a2.985 2.985 0 0 1-.386 1.206 2.247 2.247 0 0 1-.883.845c-.381.205-.856.308-1.426.308-.417 0-.796-.078-1.138-.235a2.522 2.522 0 0 1-.874-.664 3.09 3.09 0 0 1-.566-1.04 4.443 4.443 0 0 1-.196-1.357v-.708c0-.498.066-.949.196-1.353.133-.407.324-.755.571-1.045.251-.289.552-.512.903-.669a2.897 2.897 0 0 1 1.187-.234c.537 0 .991.101 1.362.303.371.202.659.481.864.84.209.354.337.766.386 1.235h-.937a2.647 2.647 0 0 0-.254-.855c-.124-.24-.3-.426-.528-.556-.227-.13-.525-.196-.893-.196a1.85 1.85 0 0 0-.835.181 1.682 1.682 0 0 0-.601.513c-.159.221-.28.486-.361.796a4.059 4.059 0 0 0-.122 1.03v.718c0 .348.036.675.107.981.075.306.188.575.337.806.15.231.34.413.572.547.231.13.504.195.82.195.4 0 .719-.063.957-.19s.417-.31.537-.547c.124-.238.212-.523.264-.855zm7.695-1.518v.449c0 .534-.067 1.012-.2 1.435a3.107 3.107 0 0 1-.576 1.08 2.498 2.498 0 0 1-.904.678 2.82 2.82 0 0 1-1.172.235c-.419 0-.805-.078-1.157-.235a2.6 2.6 0 0 1-.908-.678 3.165 3.165 0 0 1-.591-1.08 4.554 4.554 0 0 1-.21-1.435v-.449c0-.534.069-1.011.205-1.431a3.16 3.16 0 0 1 .591-1.079c.254-.3.555-.527.903-.684a2.826 2.826 0 0 1 1.158-.234c.433 0 .823.078 1.172.234.351.157.652.384.903.684.254.296.447.656.581 1.079.137.42.205.897.205 1.431zm-.933.449v-.459c0-.423-.044-.798-.131-1.123a2.327 2.327 0 0 0-.376-.82 1.618 1.618 0 0 0-.611-.503 1.85 1.85 0 0 0-.81-.171c-.293 0-.559.057-.796.171a1.682 1.682 0 0 0-.606.503 2.446 2.446 0 0 0-.385.82 4.14 4.14 0 0 0-.137 1.123v.459c0 .426.045.804.137 1.133.091.325.221.6.39.825.173.221.376.389.611.503.237.114.502.171.795.171.306 0 .578-.057.816-.171.238-.114.438-.282.6-.503.166-.225.292-.5.376-.825a4.55 4.55 0 0 0 .127-1.133zm7.813-3.779v7.109h-.947l-3.579-5.483v5.483h-.943v-7.109h.943l3.593 5.498v-5.498h.933zm3.965 6.03 2.094-6.03h1.021l-2.632 7.109h-.727l.244-1.079zm-1.958-6.03 2.075 6.03.259 1.079h-.728l-2.627-7.109h1.021zm10.547 6.342v.767h-3.765v-.767h3.765zm-3.575-6.342v7.109h-.942v-7.109h.942zm3.077 3.056v.767h-3.267v-.767h3.267zm.449-3.056v.771h-3.716v-.771h3.716zm1.216 0h2.353c.534 0 .985.081 1.353.244.371.163.652.403.844.722.196.316.293.705.293 1.167 0 .326-.066.624-.2.894-.13.267-.319.495-.566.684a2.521 2.521 0 0 1-.879.415l-.264.102h-2.212l-.01-.766h1.67c.339 0 .621-.059.845-.176.225-.121.394-.282.508-.484.114-.201.171-.424.171-.669 0-.273-.054-.512-.161-.717a1.082 1.082 0 0 0-.508-.474c-.228-.114-.523-.171-.884-.171h-1.411v6.338h-.942v-7.109zm4.155 7.109-1.729-3.223.982-.005 1.753 3.169v.059h-1.006zm5.796-1.797a1.15 1.15 0 0 0-.078-.439.834.834 0 0 0-.264-.352 2.09 2.09 0 0 0-.518-.298 7.31 7.31 0 0 0-.83-.288 7.618 7.618 0 0 1-.952-.347 3.3 3.3 0 0 1-.727-.444 1.743 1.743 0 0 1-.464-.571 1.62 1.62 0 0 1-.161-.737 1.729 1.729 0 0 1 .659-1.377c.215-.176.47-.313.766-.411a3.18 3.18 0 0 1 .992-.146c.533 0 .986.103 1.357.308.374.201.659.467.855.795.195.326.293.674.293 1.045H334c0-.267-.057-.503-.171-.708a1.177 1.177 0 0 0-.517-.488c-.232-.12-.525-.181-.879-.181-.336 0-.612.051-.83.152a1.095 1.095 0 0 0-.489.41 1.122 1.122 0 0 0-.156.591c0 .15.031.286.093.41.065.12.164.233.298.337.136.104.309.2.517.288.212.088.464.172.757.254.404.114.752.241 1.045.381.293.14.534.298.723.473.192.173.333.37.424.591.095.218.142.466.142.742 0 .29-.059.552-.176.786a1.704 1.704 0 0 1-.503.601c-.218.166-.48.295-.786.386a3.633 3.633 0 0 1-1.015.132c-.329 0-.653-.046-.972-.137a2.89 2.89 0 0 1-.864-.41 2.144 2.144 0 0 1-.62-.674 1.87 1.87 0 0 1-.23-.938h.938c0 .245.047.455.141.63.095.173.223.316.386.43.166.114.353.199.561.254.212.052.432.078.66.078.328 0 .607-.046.835-.137.227-.091.4-.221.517-.39.121-.17.181-.37.181-.601zm3.159-5.312v7.109h-.942v-7.109h.942zm7.187 3.33v.449c0 .534-.066 1.012-.2 1.435a3.074 3.074 0 0 1-.576 1.08 2.503 2.503 0 0 1-.903.678 2.823 2.823 0 0 1-1.172.235c-.42 0-.806-.078-1.157-.235a2.604 2.604 0 0 1-.909-.678 3.18 3.18 0 0 1-.59-1.08 4.554 4.554 0 0 1-.21-1.435v-.449c0-.534.068-1.011.205-1.431a3.16 3.16 0 0 1 .591-1.079c.253-.3.555-.527.903-.684a2.818 2.818 0 0 1 1.157-.234c.433 0 .824.078 1.172.234.352.157.653.384.903.684.254.296.448.656.581 1.079.137.42.205.897.205 1.431zm-.932.449v-.459c0-.423-.044-.798-.132-1.123a2.327 2.327 0 0 0-.376-.82 1.615 1.615 0 0 0-.61-.503 1.854 1.854 0 0 0-.811-.171c-.293 0-.558.057-.796.171a1.679 1.679 0 0 0-.605.503 2.447 2.447 0 0 0-.386.82 4.18 4.18 0 0 0-.137 1.123v.459c0 .426.046.804.137 1.133.091.325.221.6.391.825.172.221.376.389.61.503.238.114.503.171.796.171.306 0 .578-.057.815-.171.238-.114.438-.282.601-.503.166-.225.291-.5.376-.825a4.55 4.55 0 0 0 .127-1.133zm7.812-3.779v7.109h-.947l-3.579-5.483v5.483h-.942v-7.109h.942l3.594 5.498v-5.498h.932zm5.459 5.312a1.15 1.15 0 0 0-.078-.439.84.84 0 0 0-.263-.352 2.109 2.109 0 0 0-.518-.298 7.38 7.38 0 0 0-.83-.288 7.56 7.56 0 0 1-.952-.347 3.331 3.331 0 0 1-.728-.444 1.756 1.756 0 0 1-.464-.571 1.634 1.634 0 0 1-.161-.737 1.729 1.729 0 0 1 .659-1.377c.215-.176.471-.313.767-.411.296-.097.627-.146.991-.146.534 0 .986.103 1.358.308.374.201.659.467.854.795.195.326.293.674.293 1.045h-.937c0-.267-.057-.503-.171-.708a1.18 1.18 0 0 0-.518-.488c-.231-.12-.524-.181-.879-.181-.335 0-.612.051-.83.152a1.092 1.092 0 0 0-.488.41 1.122 1.122 0 0 0-.156.591c0 .15.03.286.092.41.065.12.165.233.298.337.137.104.309.2.518.288.211.088.464.172.757.254.403.114.752.241 1.045.381.292.14.533.298.722.473.192.173.334.37.425.591.094.218.142.466.142.742 0 .29-.059.552-.176.786a1.704 1.704 0 0 1-.503.601c-.218.166-.48.295-.786.386a3.64 3.64 0 0 1-1.016.132c-.329 0-.653-.046-.972-.137a2.913 2.913 0 0 1-.864-.41 2.155 2.155 0 0 1-.62-.674 1.87 1.87 0 0 1-.229-.938h.937c0 .245.047.455.142.63.094.173.223.316.385.43.166.114.354.199.562.254.212.052.431.078.659.078.329 0 .607-.046.835-.137.228-.091.4-.221.518-.39.12-.17.18-.37.18-.601z"/><rect width="392" height="458" x="1" y="1.5" stroke="url(#u)" stroke-width="2" rx="31"/></g><defs><linearGradient id="b" x1="312.501" x2="461.382" y1="197.435" y2="495.583" gradientUnits="userSpaceOnUse"><stop offset=".064" stop-color="#1A1A1A"/><stop offset=".499" stop-color="#101010"/><stop offset="1" stop-color="#101010" stop-opacity=".24"/></linearGradient><linearGradient id="c" x1="387.061" x2="423.476" y1="242.812" y2="246.785" gradientUnits="userSpaceOnUse"><stop stop-color="#363636"/><stop offset=".586" stop-color="#1A1A1A"/></linearGradient><linearGradient id="d" x1="390.313" x2="431.676" y1="254.161" y2="271.679" gradientUnits="userSpaceOnUse"><stop offset=".007" stop-color="#373737"/><stop offset="1" stop-color="#2F2F2F" stop-opacity="0"/></linearGradient><linearGradient id="e" x1="348.253" x2="672.632" y1="191.553" y2="381.113" gradientUnits="userSpaceOnUse"><stop stop-color="#2F2F2F"/><stop offset="1" stop-color="#2F2F2F" stop-opacity=".1"/></linearGradient><linearGradient id="f" x1="320.501" x2="469.382" y1="-1.565" y2="296.583" gradientUnits="userSpaceOnUse"><stop offset=".064" stop-color="#1A1A1A"/><stop offset=".499" stop-color="#101010"/><stop offset="1" stop-color="#101010" stop-opacity=".24"/></linearGradient><linearGradient id="g" x1="395.061" x2="431.476" y1="43.812" y2="47.785" gradientUnits="userSpaceOnUse"><stop stop-color="#363636"/><stop offset=".586" stop-color="#1A1A1A"/></linearGradient><linearGradient id="h" x1="398.313" x2="439.676" y1="55.161" y2="72.679" gradientUnits="userSpaceOnUse"><stop offset=".007" stop-color="#373737"/><stop offset="1" stop-color="#2F2F2F" stop-opacity="0"/></linearGradient><linearGradient id="i" x1="356.253" x2="680.632" y1="-7.447" y2="182.113" gradientUnits="userSpaceOnUse"><stop stop-color="#2F2F2F"/><stop offset="1" stop-color="#2F2F2F" stop-opacity=".1"/></linearGradient><linearGradient id="j" x1="28.366" x2="257.976" y1="160.189" y2="160.318" gradientUnits="userSpaceOnUse"><stop/><stop offset=".824" stop-opacity="0"/></linearGradient><linearGradient id="k" x1="196.551" x2="228.231" y1="-109.5" y2="463.749" gradientUnits="userSpaceOnUse"><stop offset=".064" stop-color="#1A1A1A"/><stop offset=".499" stop-color="#101010"/><stop offset="1" stop-color="#101010" stop-opacity="0"/></linearGradient><linearGradient id="l" x1="248.194" x2="331.133" y1="17.133" y2="49.46" gradientUnits="userSpaceOnUse"><stop stop-color="#363636"/><stop offset=".586" stop-color="#1A1A1A"/></linearGradient><linearGradient id="m" x1="256.625" x2="295.083" y1="25.371" y2="83.553" gradientUnits="userSpaceOnUse"><stop offset=".007" stop-color="#373737"/><stop offset="1" stop-color="#2F2F2F" stop-opacity="0"/></linearGradient><linearGradient id="u" x1="-13.11" x2="446.33" y1="-8.579" y2="419.605" gradientUnits="userSpaceOnUse"><stop stop-color="#2F2F2F"/><stop offset=".642" stop-color="#101010" stop-opacity="0"/></linearGradient><clipPath id="a"><rect width="664" height="460" y=".5" fill="#fff" rx="24"/></clipPath><clipPath id="n"><path fill="#fff" d="M30 300.738c0-4.166 0-6.249 1.061-7.71a5.576 5.576 0 0 1 1.23-1.229c1.46-1.061 3.543-1.061 7.709-1.061h7.401c4.166 0 6.25 0 7.71 1.061.472.343.886.758 1.23 1.229 1.06 1.461 1.06 3.544 1.06 7.71V415.86H30V300.738z"/></clipPath><clipPath id="o"><path fill="#fff" d="M79.83 377.712c0-4.166 0-6.25 1.061-7.71a5.554 5.554 0 0 1 1.23-1.229c1.46-1.061 3.543-1.061 7.71-1.061h5.925c4.166 0 6.25 0 7.71 1.061.472.343.886.757 1.229 1.229 1.061 1.46 1.061 3.544 1.061 7.71v38.148H79.83v-38.148z"/></clipPath><clipPath id="p"><path fill="#fff" d="M129.662 327.207c0-4.166 0-6.25 1.061-7.71a5.575 5.575 0 0 1 1.229-1.229c1.461-1.061 3.544-1.061 7.71-1.061h7.401c4.167 0 6.25 0 7.71 1.061.472.343.887.757 1.229 1.229 1.061 1.46 1.061 3.544 1.061 7.71v88.654h-27.401v-88.654z"/></clipPath><clipPath id="q"><path fill="#fff" d="M179.492 233.365c0-4.166 0-6.249 1.061-7.71a5.597 5.597 0 0 1 1.229-1.229c1.461-1.061 3.544-1.061 7.71-1.061h7.401c4.167 0 6.25 0 7.71 1.061.472.343.887.758 1.229 1.229 1.061 1.461 1.061 3.544 1.061 7.71V415.86h-27.401V233.365z"/></clipPath><clipPath id="r"><path fill="#fff" d="M229.322 281.489c0-4.166 0-6.249 1.061-7.71a5.597 5.597 0 0 1 1.229-1.229c1.461-1.061 3.544-1.061 7.71-1.061h7.401c4.167 0 6.25 0 7.71 1.061.472.343.887.758 1.229 1.229 1.061 1.461 1.061 3.544 1.061 7.71v134.372h-27.401V281.489z"/></clipPath><clipPath id="s"><path fill="#fff" d="M279.154 368.112c0-4.166 0-6.249 1.061-7.71a5.597 5.597 0 0 1 1.229-1.229c1.461-1.061 3.544-1.061 7.71-1.061h7.401c4.167 0 6.25 0 7.71 1.061.472.343.887.758 1.229 1.229 1.061 1.461 1.061 3.544 1.061 7.71v47.749h-27.401v-47.749z"/></clipPath><clipPath id="t"><path fill="#fff" d="M328.984 259.833c0-4.166 0-6.25 1.061-7.71a5.575 5.575 0 0 1 1.229-1.229c1.461-1.061 3.544-1.061 7.71-1.061h7.402c4.166 0 6.249 0 7.709 1.061.472.343.887.757 1.229 1.229 1.062 1.46 1.062 3.544 1.062 7.71V415.86h-27.402V259.833z"/></clipPath></defs></svg>